<svg width="194" height="32" viewBox="0 0 194 32" fill="none" xmlns="http://www.w3.org/2000/svg">
<g clip-path="url(#clip0)">
<path d="M171.338 25.0553C172.478 25.0553 173.415 24.872 174.149 24.5053C174.903 24.1183 175.279 23.4766 175.279 22.5803C175.279 22.1525 175.208 21.7859 175.065 21.4803C174.943 21.1747 174.729 20.8997 174.424 20.6553C174.118 20.4108 173.711 20.1766 173.201 19.9525C172.713 19.7284 172.101 19.4636 171.368 19.1581C170.777 18.9136 170.217 18.6692 169.688 18.4247C169.158 18.1599 168.689 17.8645 168.282 17.5386C167.875 17.1923 167.549 16.7849 167.304 16.3164C167.06 15.8478 166.937 15.2775 166.937 14.6052C166.937 13.3219 167.416 12.283 168.374 11.4886C169.351 10.6941 170.686 10.2969 172.377 10.2969C173.456 10.2969 174.342 10.3885 175.035 10.5719C175.748 10.7552 176.247 10.9182 176.532 11.0608L176.074 12.833C175.829 12.7108 175.412 12.5478 174.821 12.3441C174.251 12.1404 173.405 12.0385 172.285 12.0385C171.837 12.0385 171.409 12.0895 171.001 12.1913C170.615 12.2728 170.268 12.4154 169.963 12.6191C169.657 12.8024 169.412 13.0469 169.229 13.3525C169.046 13.6376 168.954 13.9941 168.954 14.4219C168.954 14.8497 169.036 15.2164 169.199 15.5219C169.362 15.8275 169.596 16.1025 169.902 16.3469C170.227 16.571 170.615 16.7849 171.063 16.9886C171.531 17.1923 172.061 17.4164 172.652 17.6608C173.262 17.9053 173.843 18.1599 174.393 18.4247C174.964 18.6692 175.463 18.9747 175.89 19.3414C176.318 19.6877 176.665 20.1155 176.929 20.6247C177.194 21.1136 177.326 21.7349 177.326 22.4886C177.326 23.9146 176.787 24.9942 175.707 25.7276C174.648 26.4609 173.191 26.8276 171.338 26.8276C169.952 26.8276 168.893 26.7053 168.16 26.4609C167.427 26.2368 166.937 26.0637 166.693 25.9414L167.213 24.1386C167.274 24.1794 167.406 24.2507 167.61 24.3526C167.813 24.434 168.089 24.5359 168.435 24.6581C168.781 24.76 169.188 24.8516 169.657 24.9331C170.146 25.0146 170.706 25.0553 171.338 25.0553Z" fill="#F8CC14"/>
<path d="M180.643 26.8286H178.657V10.3438H180.643V26.8286Z" fill="#F8CC14"/>
<path d="M188.027 25.056C188.801 25.056 189.473 25.0356 190.043 24.9949C190.634 24.9338 191.133 24.8625 191.541 24.781V19.2199C191.317 19.118 190.96 19.0162 190.471 18.9143C189.982 18.7921 189.31 18.731 188.454 18.731C187.966 18.731 187.456 18.7717 186.927 18.8532C186.397 18.9143 185.908 19.0671 185.46 19.3115C185.012 19.5356 184.645 19.8514 184.36 20.2588C184.075 20.6662 183.932 21.206 183.932 21.8782C183.932 22.469 184.024 22.968 184.207 23.3755C184.411 23.7829 184.686 24.1088 185.032 24.3532C185.399 24.5977 185.827 24.781 186.316 24.9033C186.825 25.0051 187.395 25.056 188.027 25.056ZM187.843 10.3281C188.882 10.3281 189.758 10.4809 190.471 10.7865C191.204 11.0717 191.795 11.4791 192.243 12.0087C192.692 12.518 193.017 13.1291 193.221 13.842C193.425 14.555 193.527 15.3291 193.527 16.1643V26.1255C193.323 26.1866 193.028 26.2579 192.641 26.3394C192.254 26.4005 191.805 26.4718 191.296 26.5533C190.787 26.6347 190.217 26.6959 189.585 26.7366C188.974 26.7977 188.343 26.8283 187.691 26.8283C186.855 26.8283 186.081 26.7366 185.368 26.5533C184.676 26.3699 184.065 26.0847 183.535 25.6977C183.026 25.2903 182.618 24.781 182.313 24.1699C182.028 23.5384 181.885 22.7745 181.885 21.8782C181.885 21.0227 182.048 20.2893 182.374 19.6782C182.7 19.0671 183.158 18.568 183.749 18.181C184.34 17.7736 185.042 17.4782 185.857 17.2948C186.672 17.1115 187.558 17.0198 188.515 17.0198C188.801 17.0198 189.096 17.0402 189.402 17.081C189.728 17.1013 190.033 17.1421 190.318 17.2032C190.624 17.2439 190.879 17.2948 191.082 17.356C191.306 17.3967 191.459 17.4374 191.541 17.4782V16.5004C191.541 15.9504 191.5 15.4207 191.418 14.9115C191.337 14.3818 191.154 13.9133 190.868 13.5059C190.604 13.0782 190.217 12.742 189.707 12.4976C189.219 12.2328 188.567 12.1003 187.752 12.1003C186.591 12.1003 185.725 12.1818 185.155 12.3448C184.584 12.5078 184.166 12.6402 183.902 12.742L183.627 11.0004C183.973 10.8374 184.503 10.6846 185.216 10.542C185.949 10.3994 186.825 10.3281 187.843 10.3281Z" fill="#F8CC14"/>
<path d="M151.565 4.01574C151.455 3.77594 151.109 3.78095 151.006 4.02382L140.234 29.452C140.343 29.5667 140.437 29.7007 140.508 29.8518C140.865 30.6067 140.535 31.5048 139.773 31.8577C139.01 32.2106 138.103 31.8846 137.746 31.1297C137.39 30.3747 137.719 29.4766 138.482 29.1238C138.831 28.962 139.211 28.9429 139.554 29.0423L150.297 0.673755C150.364 0.497988 150.476 0.352643 150.616 0.24594C150.688 0.183415 150.77 0.130161 150.862 0.0889096C151.365 -0.137325 151.959 0.0830714 152.187 0.581178L164.366 27.1249C165.242 27.1657 166.066 27.674 166.463 28.5148C167.034 29.7228 166.507 31.1597 165.287 31.7243C164.066 32.2889 162.615 31.7674 162.044 30.5595C161.953 30.3658 161.89 30.1663 161.853 29.9655L150.002 26.8536C149.883 27.079 149.69 27.2689 149.44 27.3851C148.829 27.6674 148.104 27.4066 147.818 26.8027C147.533 26.1987 147.797 25.4802 148.407 25.1979C149.017 24.9156 149.743 25.1764 150.028 25.7803C150.097 25.9267 150.134 26.0798 150.142 26.2318L162.226 28.1943C162.307 28.074 162.4 27.9603 162.503 27.8552L151.565 4.01574Z" fill="#F8CC14"/>
<path d="M5.64171 22.6718C5.86577 22.6922 6.12041 22.7126 6.4056 22.733C6.71115 22.733 7.06765 22.733 7.47505 22.733C9.8584 22.733 11.6205 22.1321 12.7612 20.9302C13.9223 19.7283 14.5029 18.0681 14.5029 15.9496C14.5029 13.7292 13.9529 12.0486 12.8529 10.9079C11.7529 9.76712 10.0112 9.19675 7.62784 9.19675C7.30189 9.19675 6.9658 9.20693 6.61948 9.22729C6.27321 9.22729 5.94726 9.24766 5.64171 9.28842V22.6718ZM19.4224 15.9496C19.4224 17.7829 19.1372 19.382 18.5668 20.7468C17.9965 22.1117 17.1816 23.2422 16.1224 24.1385C15.0835 25.0348 13.8103 25.7071 12.3029 26.1552C10.7955 26.6034 9.10469 26.8275 7.23062 26.8275C6.37506 26.8275 5.37688 26.7867 4.23613 26.7052C3.09539 26.6441 1.97501 26.5015 0.875 26.2774V5.65228C1.97501 5.44858 3.11576 5.31615 4.29725 5.25506C5.49913 5.17357 6.52782 5.13281 7.38338 5.13281C9.19636 5.13281 10.8362 5.33651 12.3029 5.74395C13.7899 6.15135 15.0631 6.79303 16.1224 7.66896C17.1816 8.54488 17.9965 9.66527 18.5668 11.0301C19.1372 12.3949 19.4224 14.0348 19.4224 15.9496Z" fill="#878789"/>
<path d="M27.9248 23.3145C28.373 23.3145 28.8007 23.3043 29.2082 23.284C29.6156 23.2636 29.9415 23.233 30.1859 23.1923V19.7395C30.0026 19.6988 29.7276 19.658 29.3609 19.6173C28.9943 19.5765 28.6582 19.5562 28.3526 19.5562C27.9248 19.5562 27.5174 19.5867 27.1304 19.6478C26.7637 19.6886 26.4378 19.7802 26.1526 19.9228C25.8674 20.0654 25.6433 20.259 25.4804 20.5034C25.3174 20.7478 25.2359 21.0534 25.2359 21.4201C25.2359 22.1331 25.4701 22.6321 25.9387 22.9173C26.4276 23.1821 27.0896 23.3145 27.9248 23.3145ZM27.5581 9.99219C28.9026 9.99219 30.023 10.145 30.9193 10.4505C31.8156 10.7561 32.5286 11.1941 33.0582 11.7644C33.6083 12.3348 33.9952 13.0274 34.2192 13.8422C34.4435 14.657 34.5553 15.5635 34.5553 16.5617V26.034C33.9037 26.1766 32.9971 26.3396 31.8359 26.5229C30.6748 26.7266 29.2693 26.8285 27.6193 26.8285C26.5804 26.8285 25.6331 26.7368 24.7776 26.5534C23.9424 26.3701 23.2192 26.0747 22.6081 25.6673C21.997 25.2395 21.5285 24.6896 21.2025 24.0173C20.8766 23.3451 20.7136 22.5201 20.7136 21.5423C20.7136 20.6053 20.897 19.8108 21.2636 19.1589C21.6507 18.5071 22.16 17.9876 22.7914 17.6006C23.4229 17.2136 24.1461 16.9385 24.9609 16.7756C25.7757 16.5922 26.6211 16.5006 27.497 16.5006C28.0878 16.5006 28.6072 16.5311 29.0554 16.5923C29.5239 16.633 29.9008 16.6941 30.1859 16.7756V16.3478C30.1859 15.5737 29.9517 14.9524 29.4832 14.4839C29.0146 14.0154 28.1998 13.7811 27.0387 13.7811C26.2646 13.7811 25.5007 13.8422 24.747 13.9645C23.9933 14.0663 23.3414 14.2191 22.7914 14.4228L22.2109 10.7561C22.4757 10.6746 22.8016 10.5931 23.1886 10.5117C23.5961 10.4098 24.034 10.3283 24.5026 10.2672C24.9711 10.1857 25.46 10.1246 25.9693 10.0839C26.4989 10.0228 27.0285 9.99219 27.5581 9.99219Z" fill="#878789"/>
<path d="M35.8677 6.3896L40.4204 5.65625V10.3924H45.8898V14.1813H40.4204V19.8342C40.4204 20.7916 40.5833 21.5555 40.9091 22.1258C41.2556 22.6962 41.938 22.9814 42.9565 22.9814C43.4455 22.9814 43.9446 22.9407 44.4537 22.8592C44.9835 22.7573 45.4622 22.6249 45.8898 22.4619L46.5314 26.0064C45.9816 26.2305 45.3704 26.424 44.6981 26.587C44.0261 26.75 43.2009 26.8314 42.2231 26.8314C40.9806 26.8314 39.9517 26.6685 39.1372 26.3425C38.3223 25.9963 37.6703 25.5277 37.1813 24.937C36.6926 24.3259 36.3464 23.5925 36.1424 22.7369C35.9592 21.8814 35.8677 20.9341 35.8677 19.8953V6.3896Z" fill="#878789"/>
<path d="M55.0381 23.3145C55.4865 23.3145 55.9141 23.3043 56.3214 23.284C56.729 23.2636 57.0548 23.233 57.2995 23.1923V19.7395C57.1159 19.6988 56.8411 19.658 56.4743 19.6173C56.1077 19.5765 55.7716 19.5562 55.4661 19.5562C55.0381 19.5562 54.6309 19.5867 54.2436 19.6478C53.8771 19.6886 53.5513 19.7802 53.2659 19.9228C52.9808 20.0654 52.7568 20.259 52.5939 20.5034C52.4306 20.7478 52.3492 21.0534 52.3492 21.4201C52.3492 22.1331 52.5835 22.6321 53.0522 22.9173C53.5409 23.1821 54.2029 23.3145 55.0381 23.3145ZM54.6716 9.99219C56.0159 9.99219 57.1362 10.145 58.0326 10.4505C58.9289 10.7561 59.6419 11.1941 60.1717 11.7644C60.7215 12.3348 61.1088 13.0274 61.3328 13.8422C61.5568 14.657 61.6689 15.5635 61.6689 16.5617V26.034C61.017 26.1766 60.1103 26.3396 58.9493 26.5229C57.7882 26.7266 56.3828 26.8285 54.7327 26.8285C53.6938 26.8285 52.7464 26.7368 51.8908 26.5534C51.0556 26.3701 50.3325 26.0747 49.7216 25.6673C49.1104 25.2395 48.6417 24.6896 48.3159 24.0173C47.9901 23.3451 47.8271 22.5201 47.8271 21.5423C47.8271 20.6053 48.0104 19.8108 48.377 19.1589C48.7642 18.5071 49.2733 17.9876 49.9049 17.6006C50.5362 17.2136 51.2596 16.9385 52.0744 16.7756C52.889 16.5922 53.7345 16.5006 54.6105 16.5006C55.201 16.5006 55.7205 16.5311 56.1688 16.5923C56.6372 16.633 57.0141 16.6941 57.2995 16.7756V16.3478C57.2995 15.5737 57.0651 14.9524 56.5964 14.4839C56.1281 14.0154 55.3132 13.7811 54.1522 13.7811C53.378 13.7811 52.6142 13.8422 51.8604 13.9645C51.1067 14.0663 50.4547 14.2191 49.9049 14.4228L49.3244 10.7561C49.5891 10.6746 49.9149 10.5931 50.3021 10.5117C50.7094 10.4098 51.1474 10.3283 51.6161 10.2672C52.0844 10.1857 52.5735 10.1246 53.0826 10.0839C53.6124 10.0228 54.1418 9.99219 54.6716 9.99219Z" fill="#878789"/>
<path d="M76.3792 5.65625H79.3433V26.8314H76.3792V17.0536H66.0209V26.8314H63.0569V5.65625H66.0209V14.4869H76.3792V5.65625Z" fill="#878789"/>
<path d="M95.7458 18.4863C95.7458 19.7493 95.5626 20.89 95.1957 21.9085C94.8291 22.927 94.3097 23.803 93.6374 24.5363C92.9854 25.2697 92.2013 25.84 91.2846 26.2474C90.3679 26.6345 89.3698 26.828 88.2902 26.828C87.2106 26.828 86.2124 26.6345 85.2957 26.2474C84.379 25.84 83.5845 25.2697 82.9122 24.5363C82.2606 23.803 81.7512 22.927 81.3846 21.9085C81.0177 20.89 80.8345 19.7493 80.8345 18.4863C80.8345 17.2437 81.0177 16.1131 81.3846 15.0946C81.7512 14.0557 82.2606 13.1696 82.9122 12.4362C83.5845 11.7029 84.379 11.1427 85.2957 10.7556C86.2124 10.3482 87.2106 10.1445 88.2902 10.1445C89.3698 10.1445 90.3679 10.3482 91.2846 10.7556C92.2013 11.1427 92.9854 11.7029 93.6374 12.4362C94.3097 13.1696 94.8291 14.0557 95.1957 15.0946C95.5626 16.1131 95.7458 17.2437 95.7458 18.4863ZM92.7818 18.4863C92.7818 16.6937 92.3745 15.2779 91.5596 14.239C90.7651 13.1797 89.6755 12.6501 88.2902 12.6501C86.9051 12.6501 85.8048 13.1797 84.9903 14.239C84.1958 15.2779 83.7985 16.6937 83.7985 18.4863C83.7985 20.2789 84.1958 21.7048 84.9903 22.7641C85.8048 23.803 86.9051 24.3224 88.2902 24.3224C89.6755 24.3224 90.7651 23.803 91.5596 22.7641C92.3745 21.7048 92.7818 20.2789 92.7818 18.4863Z" fill="#878789"/>
<path d="M109.83 26.0342C109.178 26.1971 108.312 26.3703 107.232 26.5536C106.173 26.737 104.941 26.8286 103.535 26.8286C102.313 26.8286 101.284 26.6555 100.449 26.3092C99.6142 25.9425 98.9419 25.4332 98.4325 24.7814C97.9234 24.1296 97.5565 23.3657 97.3325 22.4897C97.1085 21.5934 96.9963 20.6055 96.9963 19.5258V10.6035H99.8382V18.9147C99.8382 20.8499 100.144 22.2351 100.755 23.0703C101.366 23.9055 102.395 24.3231 103.841 24.3231C104.147 24.3231 104.462 24.3129 104.788 24.2925C105.114 24.2721 105.42 24.2518 105.705 24.2314C105.99 24.1906 106.245 24.1601 106.469 24.1397C106.713 24.099 106.886 24.0583 106.988 24.0175V10.6035H109.83V26.0342Z" fill="#878789"/>
<path d="M116.144 24.4148C117.306 24.4148 118.161 24.262 118.711 23.9565C119.281 23.6509 119.567 23.162 119.567 22.4898C119.567 21.7972 119.292 21.2472 118.742 20.8398C118.192 20.4324 117.285 19.974 116.022 19.4648C115.411 19.2203 114.82 18.9759 114.25 18.7314C113.7 18.4666 113.221 18.161 112.814 17.8147C112.406 17.4685 112.08 17.0508 111.836 16.5619C111.592 16.0731 111.469 15.4721 111.469 14.7592C111.469 13.3536 111.989 12.2434 113.028 11.4286C114.067 10.5934 115.482 10.1758 117.275 10.1758C117.723 10.1758 118.171 10.2063 118.619 10.2674C119.067 10.3082 119.485 10.3693 119.872 10.4508C120.259 10.5119 120.595 10.5832 120.88 10.6647C121.186 10.7462 121.42 10.8175 121.583 10.8786L121.064 13.323C120.758 13.1601 120.28 12.9971 119.628 12.8341C118.976 12.6508 118.192 12.5591 117.275 12.5591C116.481 12.5591 115.788 12.7221 115.197 13.048C114.607 13.3536 114.311 13.8425 114.311 14.5147C114.311 14.861 114.372 15.1666 114.494 15.4314C114.637 15.6962 114.841 15.9407 115.106 16.1647C115.391 16.3684 115.737 16.5619 116.144 16.7453C116.552 16.9286 117.041 17.1221 117.611 17.3258C118.365 17.611 119.037 17.8962 119.628 18.1814C120.218 18.4462 120.718 18.762 121.125 19.1286C121.553 19.4953 121.879 19.9435 122.103 20.4731C122.327 20.9824 122.439 21.6138 122.439 22.3676C122.439 23.8343 121.889 24.9444 120.789 25.6981C119.709 26.4519 118.161 26.8287 116.144 26.8287C114.739 26.8287 113.639 26.7065 112.844 26.462C112.05 26.238 111.51 26.0648 111.225 25.9426L111.744 23.4981C112.07 23.6203 112.59 23.8037 113.303 24.0481C114.016 24.2926 114.963 24.4148 116.144 24.4148Z" fill="#878789"/>
<path d="M123.824 18.5481C123.824 17.1425 124.028 15.9203 124.436 14.8814C124.843 13.8221 125.383 12.9462 126.055 12.2536C126.727 11.561 127.502 11.0415 128.378 10.6952C129.253 10.3489 130.149 10.1758 131.066 10.1758C133.205 10.1758 134.845 10.848 135.986 12.1925C137.126 13.5165 137.697 15.5434 137.697 18.2731C137.697 18.3953 137.697 18.5583 137.697 18.762C137.697 18.9453 137.687 19.1185 137.666 19.2814H126.789C126.911 20.9314 127.389 22.1842 128.225 23.0398C129.06 23.8953 130.363 24.3231 132.136 24.3231C133.134 24.3231 133.969 24.2417 134.641 24.0787C135.334 23.8953 135.853 23.7222 136.2 23.5592L136.597 25.9426C136.25 26.1259 135.64 26.3195 134.764 26.5232C133.908 26.7269 132.93 26.8287 131.83 26.8287C130.445 26.8287 129.243 26.625 128.225 26.2176C127.226 25.7898 126.401 25.2093 125.75 24.4759C125.098 23.7426 124.609 22.8768 124.283 21.8787C123.977 20.8601 123.824 19.75 123.824 18.5481ZM134.733 16.9897C134.753 15.7064 134.427 14.6573 133.755 13.8425C133.103 13.0073 132.197 12.5897 131.036 12.5897C130.384 12.5897 129.803 12.7221 129.294 12.9869C128.805 13.2314 128.388 13.5573 128.041 13.9647C127.695 14.3721 127.42 14.8406 127.216 15.3703C127.033 15.8999 126.911 16.4397 126.85 16.9897H134.733Z" fill="#878789"/>
</g>
<defs>
<clipPath id="clip0">
<rect width="192.97" height="32" fill="white" transform="translate(0.875)"/>
</clipPath>
</defs>
</svg>
