<svg width="52" height="19" viewBox="0 0 52 19" fill="none" xmlns="http://www.w3.org/2000/svg">
<path d="M3.81641 15.1406H9.86328V18H0.371094V0.9375H3.81641V15.1406ZM23.1172 11.0039C23.1172 13.293 22.5742 15.0703 21.4883 16.3359C20.4102 17.6016 18.9102 18.2344 16.9883 18.2344C15.0742 18.2344 13.5703 17.6094 12.4766 16.3594C11.3828 15.1016 10.8281 13.3438 10.8125 11.0859V8.16797C10.8125 5.82422 11.3555 3.99609 12.4414 2.68359C13.5273 1.36328 15.0352 0.703125 16.9648 0.703125C18.8633 0.703125 20.3594 1.35156 21.4531 2.64844C22.5469 3.9375 23.1016 5.75 23.1172 8.08594V11.0039ZM19.6602 8.14453C19.6602 6.60547 19.4414 5.46094 19.0039 4.71094C18.5664 3.96094 17.8867 3.58594 16.9648 3.58594C16.0508 3.58594 15.375 3.94922 14.9375 4.67578C14.5 5.39453 14.2734 6.49219 14.2578 7.96875V11.0039C14.2578 12.4961 14.4805 13.5977 14.9258 14.3086C15.3711 15.0117 16.0586 15.3633 16.9883 15.3633C17.8867 15.3633 18.5547 15.0195 18.9922 14.332C19.4297 13.6367 19.6523 12.5625 19.6602 11.1094V8.14453ZM37.1914 16.0664C36.5273 16.7852 35.7109 17.3281 34.7422 17.6953C33.7812 18.0547 32.7266 18.2344 31.5781 18.2344C29.6172 18.2344 28.0938 17.6289 27.0078 16.418C25.9219 15.1992 25.3633 13.4297 25.332 11.1094V8.03906C25.332 5.6875 25.8438 3.87891 26.8672 2.61328C27.8984 1.33984 29.3984 0.703125 31.3672 0.703125C33.2188 0.703125 34.6133 1.16016 35.5508 2.07422C36.4961 2.98828 37.043 4.42188 37.1914 6.375H33.8398C33.7461 5.28906 33.5195 4.55078 33.1602 4.16016C32.8008 3.76172 32.2383 3.5625 31.4727 3.5625C30.543 3.5625 29.8672 3.90234 29.4453 4.58203C29.0234 5.26172 28.8047 6.34375 28.7891 7.82812V10.9219C28.7891 12.4766 29.0195 13.6094 29.4805 14.3203C29.9492 15.0234 30.7148 15.375 31.7773 15.375C32.457 15.375 33.0078 15.2383 33.4297 14.9648L33.7344 14.7539V11.625H31.3203V9.02344H37.1914V16.0664ZM51.6406 11.0039C51.6406 13.293 51.0977 15.0703 50.0117 16.3359C48.9336 17.6016 47.4336 18.2344 45.5117 18.2344C43.5977 18.2344 42.0938 17.6094 41 16.3594C39.9062 15.1016 39.3516 13.3438 39.3359 11.0859V8.16797C39.3359 5.82422 39.8789 3.99609 40.9648 2.68359C42.0508 1.36328 43.5586 0.703125 45.4883 0.703125C47.3867 0.703125 48.8828 1.35156 49.9766 2.64844C51.0703 3.9375 51.625 5.75 51.6406 8.08594V11.0039ZM48.1836 8.14453C48.1836 6.60547 47.9648 5.46094 47.5273 4.71094C47.0898 3.96094 46.4102 3.58594 45.4883 3.58594C44.5742 3.58594 43.8984 3.94922 43.4609 4.67578C43.0234 5.39453 42.7969 6.49219 42.7812 7.96875V11.0039C42.7812 12.4961 43.0039 13.5977 43.4492 14.3086C43.8945 15.0117 44.582 15.3633 45.5117 15.3633C46.4102 15.3633 47.0781 15.0195 47.5156 14.332C47.9531 13.6367 48.1758 12.5625 48.1836 11.1094V8.14453Z" fill="#4F4F4F"/>
</svg>
