<svg width="95" height="32" viewBox="0 0 95 32" fill="none" xmlns="http://www.w3.org/2000/svg">
<path d="M27.3874 25.5852C26.1622 25.5852 25.009 25.369 24 24.8645C22.991 24.432 22.1261 23.7834 21.4775 22.9906C20.8288 22.1978 20.3243 21.2609 19.964 20.2519C19.6036 19.2428 19.4595 18.0897 19.4595 16.9365C19.4595 15.2789 19.7478 13.8374 20.3964 12.5401C21.0451 11.2428 21.982 10.1618 23.1351 9.36897C24.3604 8.57617 25.7297 8.21582 27.3153 8.21582C28.4685 8.21582 29.5496 8.50411 30.5586 9.08068C31.4955 9.65726 32.2883 10.378 32.7928 11.3149V8.28789H35.7478V25.6573H32.7928V22.414C32.2883 23.423 31.6397 24.2158 30.7027 24.7924C29.7658 25.369 28.6126 25.5852 27.3874 25.5852ZM27.8198 23.1347C29.4775 23.1347 30.7027 22.5582 31.6397 21.405C32.5045 20.2519 32.937 18.7383 32.937 16.7203C32.937 14.8465 32.5045 13.405 31.6397 12.2518C30.7748 11.0987 29.4775 10.5221 27.8198 10.5221C26.0901 10.5221 24.7928 11.0987 23.8559 12.2518C22.9189 13.405 22.4865 14.9185 22.4865 16.7924C22.4865 18.6663 22.9189 20.1798 23.8559 21.3329C24.7928 22.5582 26.0901 23.1347 27.8198 23.1347Z" fill="#7B8191"/>
<path d="M46.4145 32C44.2523 32 42.1622 31.4955 40.2884 30.5586L40.7929 27.964C42.6668 29.045 44.4686 29.5495 46.3424 29.5495C48.1442 29.5495 49.5136 29.045 50.4505 28.1081C51.4595 27.1712 51.892 25.7297 51.892 23.7838V22.0541C51.4595 22.9189 50.7388 23.5676 49.874 24.1441C49.0091 24.7207 47.928 24.9369 46.6307 24.9369C44.3244 24.9369 42.4505 24.2162 41.0091 22.7027C39.5676 21.2613 38.8469 19.2432 38.8469 16.7207C38.8469 14.991 39.1352 13.5495 39.7118 12.2522C40.2884 10.955 41.2253 9.94595 42.3785 9.15316C43.6037 8.43244 44.9731 8 46.6307 8C47.928 8 48.937 8.28829 49.874 8.7928C50.7388 9.36937 51.4596 10.018 51.9641 10.8829L52.0361 8.43244H55.1352C54.9911 10.2342 54.9911 11.7477 54.9911 12.9009V22.7748C54.9911 24.0721 54.8469 25.2973 54.4866 26.3784C54.1983 27.4595 53.6938 28.3964 52.9731 29.2613C52.3244 30.0541 51.4596 30.7027 50.3064 31.2072C49.1532 31.7838 47.8559 32 46.4145 32ZM46.7749 22.6306C48.4325 22.6306 49.7298 22.0541 50.5947 20.973C51.4595 19.8919 51.892 18.3784 51.892 16.5766C51.892 14.7748 51.4595 13.2613 50.5947 12.1802C49.7298 11.0991 48.5046 10.5225 46.919 10.5225C45.3334 10.5225 44.1082 11.0991 43.1713 12.2522C42.2343 13.4054 41.8019 14.9189 41.8019 16.7928C41.8019 18.6667 42.2343 20.1081 43.0992 21.1171C44.0361 22.1261 45.2613 22.6306 46.7749 22.6306Z" fill="#7B8191"/>
<path d="M66.4504 25.586C63.7838 25.586 61.6216 24.7932 60.1081 23.2076C58.5945 21.622 57.8018 19.5319 57.8018 16.9373C57.8018 14.3427 58.5945 12.1806 60.1081 10.595C61.6216 9.0094 63.7838 8.14453 66.4504 8.14453C69.1171 8.14453 71.2072 8.93733 72.7207 10.5229C74.2342 12.1085 74.9549 14.2707 74.9549 16.8653C74.9549 19.4598 74.1622 21.5499 72.6486 23.1355C71.2072 24.7932 69.1171 25.586 66.4504 25.586ZM66.4504 23.1355C68.1802 23.1355 69.5495 22.5589 70.4865 21.4058C71.4234 20.2526 71.8558 18.7391 71.8558 16.8653C71.8558 14.9193 71.4234 13.4058 70.4865 12.2526C69.5495 11.0995 68.1802 10.5229 66.4504 10.5229C64.7207 10.5229 63.3513 11.0995 62.4144 12.2526C61.4774 13.4058 60.9729 14.9193 60.9729 16.8653C60.9729 18.7391 61.4054 20.2526 62.3423 21.4058C63.2792 22.5589 64.6486 23.1355 66.4504 23.1355Z" fill="#7B8191"/>
<path d="M86.6306 25.586C83.9639 25.586 81.8738 24.7932 80.2882 23.2076C78.7027 21.622 77.9819 19.5319 77.9819 16.9373C77.9819 14.3427 78.7027 12.2526 80.2162 10.595C81.7297 8.93733 83.6756 8.14453 86.1981 8.14453C87.7837 8.14453 89.081 8.50489 90.1621 9.22561C91.2432 9.94633 92.108 10.9553 92.6126 12.1806C93.1171 13.4058 93.4053 14.8472 93.4053 16.5049C93.4053 16.7211 93.4053 17.0094 93.3333 17.2977H81.081C81.081 19.1716 81.6576 20.613 82.6666 21.622C83.6756 22.631 85.045 23.1355 86.7747 23.1355C88.7927 23.1355 90.5225 22.4869 92.036 21.2616L92.9008 23.4959C91.1711 24.8653 89.081 25.586 86.6306 25.586ZM81.1531 15.2797H90.7387C90.6666 13.7662 90.1621 12.613 89.4414 11.7481C88.7207 10.8833 87.6396 10.5229 86.3423 10.5229C84.9729 10.5229 83.8198 10.9553 82.9549 11.8202C81.9459 12.613 81.3693 13.7662 81.1531 15.2797Z" fill="url(#paint0_linear)"/>
<path d="M3.45946 8.14453L16.5045 25.586H13.1171L0 8.14453H3.45946Z" fill="#7B8191"/>
<path d="M0 25.5858H3.45946L6.55856 21.4777L4.82883 19.1714L0 25.5858Z" fill="#7B8191"/>
<path d="M16.5046 8.14444H13.0451L10.0181 12.2525L11.7478 14.5589L16.5046 8.14444Z" fill="#7B8191"/>
<defs>
<linearGradient id="paint0_linear" x1="80.5525" y1="25.586" x2="92.4209" y2="11.0055" gradientUnits="userSpaceOnUse">
<stop stop-color="#5B70F6"/>
<stop offset="0.456092" stop-color="#8B85FA"/>
<stop offset="1" stop-color="#CB58F3"/>
</linearGradient>
</defs>
</svg>
