<svg width="556" height="502" viewBox="0 0 556 502" fill="none" xmlns="http://www.w3.org/2000/svg">
<g opacity="0.5" filter="url(#filter0_d)">
<rect width="520" height="465.541" rx="17.5676" transform="matrix(-1 0 0 1 538 15)" fill="#FDFDFD"/>
</g>
<g filter="url(#filter1_d)">
<rect x="176.986" y="396.216" width="203" height="56" rx="17.5676" fill="url(#paint0_linear)"/>
</g>
<g clip-path="url(#clip0)">
<path d="M204.597 430.716V418.227H208.457C209.761 418.227 210.75 418.518 211.425 419.102C212.106 419.679 212.446 420.529 212.446 421.649C212.446 422.284 212.306 422.83 212.026 423.288C211.745 423.745 211.362 424.08 210.876 424.291C211.437 424.452 211.868 424.775 212.171 425.261C212.475 425.741 212.626 426.336 212.626 427.045C212.626 428.257 212.292 429.172 211.622 429.79C210.959 430.407 209.996 430.716 208.732 430.716H204.597ZM207.119 425.286V428.623H208.732C209.183 428.623 209.527 428.483 209.761 428.203C209.996 427.923 210.113 427.525 210.113 427.011C210.113 425.89 209.707 425.315 208.895 425.286H207.119ZM207.119 423.451H208.431C209.421 423.451 209.915 422.939 209.915 421.915C209.915 421.349 209.801 420.943 209.572 420.697C209.344 420.451 208.972 420.328 208.457 420.328H207.119V423.451ZM220.423 428.16H216.984L216.315 430.716H213.647L217.55 418.227H219.857L223.786 430.716H221.092L220.423 428.16ZM217.533 426.058H219.866L218.699 421.607L217.533 426.058ZM221.307 415.559C221.307 416.16 221.07 416.646 220.595 417.017C220.126 417.383 219.497 417.566 218.708 417.566C217.924 417.566 217.295 417.38 216.821 417.009C216.346 416.637 216.109 416.154 216.109 415.559H217.687C217.687 415.874 217.776 416.114 217.953 416.28C218.136 416.44 218.388 416.52 218.708 416.52C219.028 416.52 219.277 416.44 219.454 416.28C219.637 416.114 219.729 415.874 219.729 415.559H221.307ZM218.939 413.938H220.604L219.343 415.542H218.116L218.939 413.938ZM232.021 420.328H228.933V430.716H226.402V420.328H223.366V418.227H232.021V420.328ZM237.262 430.716V425.218H235.924V423.648H237.262V418.227H240.564C242.023 418.227 243.183 418.69 244.047 419.616C244.916 420.543 245.359 421.812 245.377 423.425V425.449C245.377 427.091 244.942 428.38 244.073 429.318C243.209 430.25 242.017 430.716 240.496 430.716H237.262ZM241.13 425.218H239.784V428.623H240.659C241.454 428.606 242.014 428.374 242.34 427.928C242.666 427.477 242.837 426.713 242.855 425.638V423.494C242.855 422.327 242.692 421.515 242.366 421.058C242.04 420.594 241.485 420.351 240.702 420.328H239.784V423.648H241.13V425.218ZM252.968 428.16H249.528L248.859 430.716H246.191L250.094 418.227H252.402L256.331 430.716H253.637L252.968 428.16ZM250.077 426.058H252.41L251.244 421.607L250.077 426.058ZM254.032 417.566H252.299L251.287 416.485L250.266 417.566H248.533L250.635 415.593H251.922L254.032 417.566ZM249.099 416.425H247.753L246.02 414.092H247.898L249.099 416.425ZM265.475 418.227V426.873C265.463 428.171 265.106 429.167 264.402 429.858C263.699 430.545 262.69 430.888 261.374 430.888C260.036 430.888 259.013 430.539 258.303 429.841C257.6 429.144 257.248 428.134 257.248 426.813V418.227H259.787V426.822C259.787 427.531 259.902 428.037 260.131 428.34C260.359 428.643 260.774 428.795 261.374 428.795C261.975 428.795 262.387 428.646 262.61 428.349C262.833 428.046 262.947 427.551 262.953 426.865V418.227H265.475ZM280.169 430.716H277.647L273.958 422.524V430.716H271.436V418.227H273.958L277.655 426.427V418.227H280.169V430.716ZM290.685 429.301C290.199 429.827 289.601 430.224 288.892 430.493C288.189 430.756 287.417 430.888 286.576 430.888C285.141 430.888 284.026 430.445 283.231 429.558C282.436 428.666 282.027 427.371 282.004 425.672V423.425C282.004 421.704 282.379 420.38 283.128 419.453C283.883 418.521 284.981 418.055 286.422 418.055C287.777 418.055 288.798 418.39 289.484 419.059C290.176 419.728 290.576 420.777 290.685 422.207H288.232C288.163 421.412 287.997 420.872 287.734 420.586C287.471 420.294 287.059 420.148 286.499 420.148C285.819 420.148 285.324 420.397 285.015 420.895C284.706 421.392 284.546 422.184 284.535 423.271V425.535C284.535 426.673 284.703 427.502 285.041 428.023C285.384 428.537 285.944 428.795 286.722 428.795C287.22 428.795 287.623 428.695 287.932 428.495L288.155 428.34V426.05H286.388V424.146H290.685V429.301ZM298.431 428.16H294.991L294.322 430.716H291.654L295.557 418.227H297.865L301.793 430.716H299.1L298.431 428.16ZM295.54 426.058H297.873L296.707 421.607L295.54 426.058ZM305.448 423.837L307.326 418.227H310.071L306.726 426.187V430.716H304.17V426.187L300.816 418.227H303.561L305.448 423.837Z" fill="#F2F2F2"/>
<path fill-rule="evenodd" clip-rule="evenodd" d="M326.801 426.348L338.512 428.69V434.995L350.832 424.216L338.512 413.437V419.743L326.801 422.085V426.348ZM340.856 418.599L347.275 424.216L340.856 429.833V426.77L329.144 424.427V424.005L340.856 421.663V418.599Z" fill="white"/>
</g>
<path d="M381.328 308.726C380.569 308.726 379.894 308.631 379.304 308.441C378.714 308.251 378.16 307.93 377.644 307.477C377.359 307.224 377.217 306.944 377.217 306.639C377.217 306.396 377.307 306.185 377.486 306.006C377.665 305.816 377.881 305.722 378.134 305.722C378.334 305.722 378.513 305.785 378.672 305.911C379.093 306.259 379.504 306.512 379.905 306.67C380.305 306.828 380.78 306.907 381.328 306.907C381.918 306.907 382.424 306.776 382.846 306.512C383.278 306.249 383.494 305.922 383.494 305.532C383.494 305.058 383.283 304.689 382.861 304.425C382.44 304.151 381.77 303.946 380.853 303.809C378.545 303.471 377.391 302.396 377.391 300.583C377.391 299.919 377.565 299.345 377.913 298.86C378.26 298.364 378.735 297.99 379.336 297.737C379.936 297.474 380.606 297.342 381.344 297.342C382.008 297.342 382.629 297.442 383.209 297.642C383.799 297.843 384.29 298.106 384.68 298.433C384.985 298.675 385.138 298.955 385.138 299.271C385.138 299.513 385.049 299.729 384.869 299.919C384.69 300.098 384.479 300.188 384.237 300.188C384.079 300.188 383.937 300.14 383.81 300.046C383.536 299.824 383.151 299.624 382.656 299.445C382.171 299.255 381.734 299.16 381.344 299.16C380.679 299.16 380.163 299.287 379.794 299.54C379.436 299.782 379.257 300.104 379.257 300.504C379.257 300.957 379.441 301.3 379.81 301.532C380.189 301.764 380.78 301.953 381.581 302.101C382.487 302.259 383.209 302.465 383.747 302.718C384.295 302.96 384.706 303.297 384.98 303.729C385.254 304.151 385.391 304.715 385.391 305.421C385.391 306.085 385.201 306.67 384.822 307.176C384.453 307.672 383.958 308.056 383.336 308.33C382.714 308.594 382.044 308.726 381.328 308.726ZM395.173 304.346C395.173 305.189 394.983 305.948 394.604 306.623C394.224 307.287 393.703 307.803 393.038 308.172C392.385 308.541 391.663 308.726 390.872 308.726C390.071 308.726 389.344 308.541 388.691 308.172C388.037 307.803 387.521 307.287 387.141 306.623C386.762 305.948 386.572 305.189 386.572 304.346C386.572 303.503 386.762 302.749 387.141 302.085C387.521 301.411 388.037 300.889 388.691 300.52C389.344 300.14 390.071 299.951 390.872 299.951C391.663 299.951 392.385 300.14 393.038 300.52C393.703 300.889 394.224 301.411 394.604 302.085C394.983 302.749 395.173 303.503 395.173 304.346ZM393.276 304.346C393.276 303.83 393.165 303.371 392.944 302.971C392.733 302.559 392.443 302.243 392.074 302.022C391.716 301.801 391.315 301.69 390.872 301.69C390.43 301.69 390.024 301.801 389.655 302.022C389.297 302.243 389.007 302.559 388.785 302.971C388.575 303.371 388.469 303.83 388.469 304.346C388.469 304.863 388.575 305.321 388.785 305.722C389.007 306.122 389.297 306.433 389.655 306.654C390.024 306.876 390.43 306.986 390.872 306.986C391.315 306.986 391.716 306.876 392.074 306.654C392.443 306.433 392.733 306.122 392.944 305.722C393.165 305.321 393.276 304.863 393.276 304.346ZM392.691 298.211C392.775 298.317 392.828 298.401 392.849 298.464C392.87 298.528 392.88 298.607 392.88 298.702C392.88 298.807 392.833 298.902 392.738 298.986C392.654 299.06 392.543 299.097 392.406 299.097C392.248 299.097 392.127 299.076 392.042 299.034C391.969 298.991 391.89 298.939 391.805 298.876C391.731 298.802 391.673 298.749 391.631 298.717L390.793 297.974L389.892 298.717C389.85 298.749 389.781 298.807 389.687 298.891C389.602 298.965 389.518 299.018 389.434 299.049C389.349 299.081 389.244 299.097 389.117 299.097C388.98 299.097 388.864 299.06 388.77 298.986C388.685 298.902 388.643 298.807 388.643 298.702C388.643 298.607 388.654 298.528 388.675 298.464C388.696 298.401 388.748 298.317 388.833 298.211L389.608 297.231C389.85 296.926 390.171 296.773 390.572 296.773H391.141C391.352 296.773 391.515 296.804 391.631 296.868C391.758 296.931 391.879 297.052 391.995 297.231L392.691 298.211ZM393.038 297.832C392.933 297.832 392.817 297.785 392.691 297.69C392.575 297.595 392.522 297.468 392.533 297.31C392.533 297.215 392.564 297.115 392.627 297.01L393.544 295.397C393.65 295.207 393.776 295.055 393.924 294.939C394.071 294.823 394.235 294.765 394.414 294.765C394.699 294.765 394.909 294.839 395.046 294.986C395.194 295.134 395.263 295.323 395.252 295.555C395.231 295.798 395.131 296.024 394.952 296.235L393.75 297.563C393.581 297.742 393.344 297.832 393.038 297.832ZM404.873 299.951C405.769 299.951 406.491 300.093 407.039 300.378C407.588 300.652 407.862 301.021 407.862 301.484C407.862 301.716 407.793 301.922 407.656 302.101C407.519 302.27 407.34 302.354 407.119 302.354C406.95 302.354 406.813 302.333 406.707 302.291C406.602 302.238 406.497 302.175 406.391 302.101C406.296 302.017 406.201 301.948 406.107 301.895C406.001 301.843 405.843 301.795 405.632 301.753C405.432 301.711 405.269 301.69 405.142 301.69C404.352 301.69 403.73 301.938 403.276 302.433C402.834 302.918 402.612 303.556 402.612 304.346C402.612 305.105 402.839 305.737 403.292 306.243C403.746 306.739 404.325 306.986 405.031 306.986C405.548 306.986 405.933 306.923 406.186 306.797C406.249 306.765 406.333 306.712 406.439 306.639C406.555 306.554 406.66 306.491 406.755 306.449C406.85 306.407 406.966 306.386 407.103 306.386C407.366 306.386 407.572 306.47 407.719 306.639C407.877 306.807 407.956 307.023 407.956 307.287C407.956 307.54 407.809 307.777 407.514 307.998C407.219 308.22 406.829 308.399 406.344 308.536C405.859 308.662 405.342 308.726 404.794 308.726C403.983 308.726 403.266 308.536 402.644 308.156C402.033 307.777 401.558 307.255 401.221 306.591C400.884 305.917 400.715 305.168 400.715 304.346C400.715 303.492 400.889 302.733 401.237 302.069C401.595 301.405 402.091 300.889 402.723 300.52C403.356 300.14 404.072 299.951 404.873 299.951ZM416.173 299.951C416.447 299.951 416.673 300.04 416.852 300.219C417.032 300.399 417.121 300.631 417.121 300.915V307.603C417.121 307.877 417.032 308.109 416.852 308.299C416.673 308.478 416.447 308.568 416.173 308.568C415.898 308.568 415.672 308.478 415.493 308.299C415.324 308.12 415.234 307.893 415.224 307.619C414.96 307.925 414.602 308.188 414.149 308.409C413.706 308.62 413.237 308.726 412.742 308.726C412.014 308.726 411.356 308.541 410.765 308.172C410.175 307.793 409.706 307.271 409.358 306.607C409.021 305.943 408.852 305.189 408.852 304.346C408.852 303.503 409.021 302.749 409.358 302.085C409.695 301.411 410.154 300.889 410.734 300.52C411.324 300.14 411.972 299.951 412.678 299.951C413.184 299.951 413.659 300.046 414.101 300.235C414.544 300.414 414.918 300.646 415.224 300.931V300.915C415.224 300.641 415.313 300.414 415.493 300.235C415.672 300.046 415.898 299.951 416.173 299.951ZM412.979 306.986C413.664 306.986 414.223 306.739 414.655 306.243C415.087 305.737 415.303 305.105 415.303 304.346C415.303 303.587 415.087 302.955 414.655 302.449C414.223 301.943 413.664 301.69 412.979 301.69C412.304 301.69 411.751 301.943 411.319 302.449C410.886 302.955 410.67 303.587 410.67 304.346C410.67 305.105 410.881 305.737 411.303 306.243C411.735 306.739 412.294 306.986 412.979 306.986ZM415.003 298.211C415.087 298.317 415.14 298.401 415.161 298.464C415.182 298.528 415.192 298.607 415.192 298.702C415.192 298.807 415.145 298.902 415.05 298.986C414.966 299.06 414.855 299.097 414.718 299.097C414.56 299.097 414.439 299.076 414.354 299.034C414.281 298.991 414.201 298.939 414.117 298.876C414.043 298.802 413.985 298.749 413.943 298.717L413.105 297.974L412.204 298.717C412.162 298.749 412.093 298.807 411.998 298.891C411.914 298.965 411.83 299.018 411.746 299.049C411.661 299.081 411.556 299.097 411.429 299.097C411.292 299.097 411.176 299.06 411.081 298.986C410.997 298.902 410.955 298.807 410.955 298.702C410.955 298.607 410.966 298.528 410.987 298.464C411.008 298.401 411.06 298.317 411.145 298.211L411.919 297.231C412.162 296.926 412.483 296.773 412.884 296.773H413.453C413.664 296.773 413.827 296.804 413.943 296.868C414.07 296.931 414.191 297.052 414.307 297.231L415.003 298.211ZM425.3 300.109C425.574 300.109 425.801 300.204 425.98 300.393C426.159 300.573 426.248 300.799 426.248 301.073V305.089C426.248 306.228 425.932 307.118 425.3 307.761C424.678 308.404 423.787 308.726 422.628 308.726C421.468 308.726 420.578 308.404 419.956 307.761C419.334 307.118 419.023 306.228 419.023 305.089V301.073C419.023 300.799 419.113 300.573 419.292 300.393C419.471 300.204 419.698 300.109 419.972 300.109C420.246 300.109 420.472 300.204 420.651 300.393C420.831 300.573 420.92 300.799 420.92 301.073V305.089C420.92 305.732 421.063 306.212 421.347 306.528C421.632 306.834 422.059 306.986 422.628 306.986C423.208 306.986 423.64 306.834 423.924 306.528C424.209 306.212 424.351 305.732 424.351 305.089V301.073C424.351 300.799 424.441 300.573 424.62 300.393C424.799 300.204 425.026 300.109 425.3 300.109ZM437.177 299.951C438.22 299.951 438.942 300.272 439.343 300.915C439.743 301.548 439.944 302.428 439.944 303.556V307.603C439.944 307.877 439.854 308.109 439.675 308.299C439.496 308.478 439.269 308.568 438.995 308.568C438.721 308.568 438.494 308.478 438.315 308.299C438.136 308.109 438.046 307.877 438.046 307.603V303.556C438.046 302.976 437.93 302.523 437.698 302.196C437.477 301.859 437.082 301.69 436.513 301.69C435.922 301.69 435.459 301.869 435.121 302.227C434.795 302.575 434.631 303.018 434.631 303.556V307.603C434.631 307.877 434.542 308.109 434.362 308.299C434.183 308.478 433.957 308.568 433.683 308.568C433.408 308.568 433.182 308.478 433.003 308.299C432.823 308.109 432.734 307.877 432.734 307.603V297.832C432.734 297.558 432.823 297.331 433.003 297.152C433.182 296.962 433.408 296.868 433.683 296.868C433.957 296.868 434.183 296.962 434.362 297.152C434.542 297.331 434.631 297.558 434.631 297.832V301.326C434.916 300.947 435.274 300.625 435.706 300.362C436.149 300.088 436.639 299.951 437.177 299.951ZM450.125 304.346C450.125 305.189 449.935 305.948 449.556 306.623C449.176 307.287 448.654 307.803 447.99 308.172C447.337 308.541 446.615 308.726 445.824 308.726C445.023 308.726 444.296 308.541 443.642 308.172C442.989 307.803 442.472 307.287 442.093 306.623C441.713 305.948 441.524 305.189 441.524 304.346C441.524 303.503 441.713 302.749 442.093 302.085C442.472 301.411 442.989 300.889 443.642 300.52C444.296 300.14 445.023 299.951 445.824 299.951C446.615 299.951 447.337 300.14 447.99 300.52C448.654 300.889 449.176 301.411 449.556 302.085C449.935 302.749 450.125 303.503 450.125 304.346ZM448.227 304.346C448.227 303.83 448.117 303.371 447.895 302.971C447.685 302.559 447.395 302.243 447.026 302.022C446.667 301.801 446.267 301.69 445.824 301.69C445.382 301.69 444.976 301.801 444.607 302.022C444.248 302.243 443.959 302.559 443.737 302.971C443.526 303.371 443.421 303.83 443.421 304.346C443.421 304.863 443.526 305.321 443.737 305.722C443.959 306.122 444.248 306.433 444.607 306.654C444.976 306.876 445.382 306.986 445.824 306.986C446.267 306.986 446.667 306.876 447.026 306.654C447.395 306.433 447.685 306.122 447.895 305.722C448.117 305.321 448.227 304.863 448.227 304.346ZM444.291 296.82C444.48 296.673 444.67 296.562 444.86 296.488C445.05 296.404 445.276 296.362 445.54 296.362C446.13 296.362 446.546 296.504 446.789 296.789C447.042 297.063 447.168 297.379 447.168 297.737C447.168 297.906 447.142 298.059 447.089 298.196C447.047 298.322 446.973 298.454 446.868 298.591C446.847 298.623 446.794 298.686 446.71 298.781C446.636 298.876 446.578 298.955 446.536 299.018C446.504 299.081 446.488 299.139 446.488 299.192C446.488 299.318 446.436 299.424 446.33 299.508C446.225 299.592 446.098 299.634 445.951 299.634C445.803 299.634 445.677 299.592 445.571 299.508C445.466 299.424 445.413 299.318 445.413 299.192C445.413 299.002 445.497 298.796 445.666 298.575C445.909 298.248 446.03 298.022 446.03 297.895C446.03 297.769 445.977 297.669 445.872 297.595C445.766 297.511 445.64 297.468 445.492 297.468C445.376 297.468 445.271 297.495 445.176 297.547C445.081 297.59 444.965 297.653 444.828 297.737C444.723 297.8 444.638 297.832 444.575 297.832C444.449 297.832 444.317 297.764 444.18 297.626C444.085 297.532 444.038 297.421 444.038 297.294C444.038 297.126 444.122 296.968 444.291 296.82ZM453.497 307.603C453.497 307.877 453.407 308.109 453.228 308.299C453.049 308.478 452.822 308.568 452.548 308.568C452.274 308.568 452.047 308.478 451.868 308.299C451.689 308.109 451.599 307.877 451.599 307.603V301.073C451.599 300.799 451.689 300.573 451.868 300.393C452.047 300.204 452.274 300.109 452.548 300.109C452.822 300.109 453.049 300.204 453.228 300.393C453.407 300.573 453.497 300.799 453.497 301.073V307.603ZM452.532 299.081C452.174 299.081 451.921 299.023 451.773 298.907C451.626 298.791 451.552 298.586 451.552 298.291V297.99C451.552 297.695 451.631 297.489 451.789 297.374C451.947 297.258 452.2 297.2 452.548 297.2C452.917 297.2 453.175 297.258 453.323 297.374C453.47 297.489 453.544 297.695 453.544 297.99V298.291C453.544 298.596 453.465 298.807 453.307 298.923C453.159 299.028 452.901 299.081 452.532 299.081ZM456.474 302.386C456.168 302.386 455.931 302.306 455.763 302.148C455.605 301.98 455.526 301.743 455.526 301.437V301.168C455.526 300.862 455.605 300.631 455.763 300.472C455.931 300.304 456.168 300.219 456.474 300.219H456.68C456.985 300.219 457.217 300.304 457.375 300.472C457.544 300.631 457.628 300.862 457.628 301.168V301.437C457.628 301.743 457.544 301.98 457.375 302.148C457.217 302.306 456.985 302.386 456.68 302.386H456.474ZM456.474 308.568C456.168 308.568 455.931 308.489 455.763 308.33C455.605 308.162 455.526 307.925 455.526 307.619V307.35C455.526 307.044 455.605 306.813 455.763 306.654C455.931 306.486 456.168 306.401 456.474 306.401H456.68C456.985 306.401 457.217 306.486 457.375 306.654C457.544 306.813 457.628 307.044 457.628 307.35V307.619C457.628 307.925 457.544 308.162 457.375 308.33C457.217 308.489 456.985 308.568 456.68 308.568H456.474Z" fill="#535353"/>
<rect x="326.312" y="327.703" width="182.703" height="42.1622" rx="21.0811" fill="#F7F7F7"/>
<path d="M349.643 354.311H347.694V346.68L345.793 347.414V345.795L349.437 344.306H349.643V354.311ZM358.282 350.18C358.282 351.561 358.031 352.618 357.527 353.35C357.029 354.082 356.315 354.448 355.386 354.448C354.467 354.448 353.755 354.093 353.252 353.384C352.754 352.671 352.495 351.65 352.477 350.324V348.437C352.477 347.06 352.726 346.007 353.225 345.28C353.723 344.548 354.439 344.182 355.373 344.182C356.306 344.182 357.022 344.543 357.521 345.266C358.019 345.989 358.273 347.021 358.282 348.361V350.18ZM356.333 348.155C356.333 347.368 356.256 346.778 356.1 346.385C355.945 345.991 355.702 345.795 355.373 345.795C354.755 345.795 354.435 346.515 354.412 347.956V350.447C354.412 351.252 354.49 351.852 354.645 352.245C354.805 352.639 355.052 352.835 355.386 352.835C355.702 352.835 355.935 352.652 356.086 352.286C356.242 351.916 356.324 351.351 356.333 350.591V348.155Z" fill="#535353"/>
<path d="M477.323 349.397L477.817 344.319H482.655V345.98H479.409L479.231 348.121C479.606 347.869 479.993 347.744 480.391 347.744C481.214 347.744 481.848 348.036 482.292 348.622C482.74 349.208 482.964 350.036 482.964 351.106C482.964 352.108 482.699 352.915 482.168 353.528C481.637 354.142 480.928 354.448 480.041 354.448C479.515 354.448 479.027 354.325 478.579 354.077C478.131 353.826 477.776 353.478 477.515 353.034C477.259 352.591 477.129 352.087 477.124 351.525H479.046C479.078 351.941 479.181 352.264 479.354 352.492C479.528 352.721 479.753 352.835 480.027 352.835C480.347 352.835 480.594 352.682 480.768 352.376C480.942 352.065 481.029 351.602 481.029 350.989C481.029 350.413 480.924 349.978 480.713 349.686C480.507 349.393 480.217 349.246 479.842 349.246C479.476 349.246 479.192 349.372 478.991 349.624L478.867 349.795L477.323 349.397ZM490.039 350.18C490.039 351.561 489.788 352.618 489.284 353.35C488.786 354.082 488.072 354.448 487.143 354.448C486.224 354.448 485.512 354.093 485.009 353.384C484.51 352.671 484.252 351.65 484.234 350.324V348.437C484.234 347.06 484.483 346.007 484.982 345.28C485.48 344.548 486.196 344.182 487.13 344.182C488.063 344.182 488.779 344.543 489.277 345.266C489.776 345.989 490.03 347.021 490.039 348.361V350.18ZM488.09 348.155C488.09 347.368 488.012 346.778 487.857 346.385C487.701 345.991 487.459 345.795 487.13 345.795C486.512 345.795 486.192 346.515 486.169 347.956V350.447C486.169 351.252 486.247 351.852 486.402 352.245C486.562 352.639 486.809 352.835 487.143 352.835C487.459 352.835 487.692 352.652 487.843 352.286C487.999 351.916 488.081 351.351 488.09 350.591V348.155Z" fill="#535353"/>
<g filter="url(#filter2_d)">
<rect x="417.663" y="331.216" width="44" height="35" rx="17.5" fill="#5E5CE6"/>
</g>
<path d="M434.935 348.43H435.875C436.232 348.43 436.492 348.306 436.657 348.059C436.826 347.808 436.911 347.474 436.911 347.057C436.911 346.659 436.824 346.35 436.65 346.131C436.481 345.907 436.252 345.795 435.964 345.795C435.694 345.795 435.472 345.9 435.298 346.11C435.129 346.321 435.044 346.586 435.044 346.906H433.102C433.102 346.385 433.221 345.918 433.459 345.506C433.702 345.09 434.038 344.765 434.468 344.532C434.903 344.299 435.383 344.182 435.909 344.182C436.829 344.182 437.549 344.436 438.071 344.944C438.592 345.452 438.853 346.147 438.853 347.03C438.853 347.483 438.734 347.904 438.496 348.293C438.263 348.677 437.954 348.972 437.57 349.178C438.041 349.379 438.391 349.681 438.62 350.084C438.853 350.486 438.97 350.962 438.97 351.511C438.97 352.398 438.686 353.11 438.119 353.645C437.556 354.18 436.815 354.448 435.895 354.448C435.04 354.448 434.344 354.185 433.809 353.659C433.278 353.128 433.013 352.433 433.013 351.573H434.955C434.955 351.93 435.049 352.229 435.237 352.472C435.424 352.714 435.662 352.835 435.95 352.835C436.284 352.835 436.547 352.712 436.739 352.465C436.936 352.218 437.034 351.888 437.034 351.477C437.034 350.493 436.652 349.999 435.888 349.994H434.935V348.43ZM446.12 350.18C446.12 351.561 445.869 352.618 445.365 353.35C444.867 354.082 444.153 354.448 443.224 354.448C442.305 354.448 441.593 354.093 441.09 353.384C440.591 352.671 440.333 351.65 440.315 350.324V348.437C440.315 347.06 440.564 346.007 441.063 345.28C441.561 344.548 442.277 344.182 443.211 344.182C444.144 344.182 444.86 344.543 445.358 345.266C445.857 345.989 446.111 347.021 446.12 348.361V350.18ZM444.171 348.155C444.171 347.368 444.094 346.778 443.938 346.385C443.782 345.991 443.54 345.795 443.211 345.795C442.593 345.795 442.273 346.515 442.25 347.956V350.447C442.25 351.252 442.328 351.852 442.483 352.245C442.643 352.639 442.89 352.835 443.224 352.835C443.54 352.835 443.773 352.652 443.924 352.286C444.08 351.916 444.162 351.351 444.171 350.591V348.155Z" fill="#F2F2F2"/>
<path d="M395.174 354.311H389.286V352.938L391.99 349.5C392.333 349.025 392.585 348.608 392.745 348.251C392.91 347.89 392.992 347.545 392.992 347.215C392.992 346.771 392.914 346.424 392.759 346.172C392.608 345.92 392.388 345.795 392.1 345.795C391.784 345.795 391.533 345.941 391.345 346.234C391.162 346.527 391.071 346.938 391.071 347.469H389.122C389.122 346.856 389.247 346.296 389.499 345.788C389.755 345.28 390.112 344.887 390.57 344.607C391.032 344.324 391.553 344.182 392.134 344.182C393.026 344.182 393.717 344.429 394.207 344.923C394.701 345.413 394.948 346.11 394.948 347.016C394.948 347.579 394.811 348.151 394.536 348.732C394.266 349.308 393.774 350.02 393.061 350.866L391.777 352.698H395.174V354.311ZM402.201 350.18C402.201 351.561 401.95 352.618 401.446 353.35C400.948 354.082 400.234 354.448 399.305 354.448C398.386 354.448 397.674 354.093 397.171 353.384C396.672 352.671 396.414 351.65 396.396 350.324V348.437C396.396 347.06 396.645 346.007 397.144 345.28C397.642 344.548 398.358 344.182 399.292 344.182C400.225 344.182 400.941 344.543 401.44 345.266C401.938 345.989 402.192 347.021 402.201 348.361V350.18ZM400.252 348.155C400.252 347.368 400.175 346.778 400.019 346.385C399.863 345.991 399.621 345.795 399.292 345.795C398.674 345.795 398.354 346.515 398.331 347.956V350.447C398.331 351.252 398.409 351.852 398.564 352.245C398.724 352.639 398.971 352.835 399.305 352.835C399.621 352.835 399.854 352.652 400.005 352.286C400.161 351.916 400.243 351.351 400.252 350.591V348.155Z" fill="#535353"/>
<path d="M123.266 298.038C123.592 298.206 123.756 298.475 123.756 298.844C123.756 299.065 123.677 299.281 123.519 299.492C123.35 299.714 123.134 299.824 122.87 299.824C122.691 299.824 122.512 299.777 122.333 299.682C121.816 299.439 121.258 299.318 120.657 299.318C119.919 299.318 119.276 299.476 118.728 299.793C118.18 300.098 117.758 300.536 117.463 301.105C117.168 301.664 117.02 302.306 117.02 303.034C117.02 304.278 117.352 305.221 118.016 305.864C118.691 306.507 119.571 306.828 120.657 306.828C121.3 306.828 121.858 306.707 122.333 306.465C122.522 306.38 122.691 306.338 122.839 306.338C123.113 306.338 123.345 306.454 123.534 306.686C123.692 306.886 123.772 307.102 123.772 307.334C123.772 307.503 123.729 307.656 123.645 307.793C123.561 307.93 123.439 308.035 123.281 308.109C122.459 308.52 121.584 308.726 120.657 308.726C119.624 308.726 118.675 308.51 117.811 308.077C116.947 307.635 116.256 306.986 115.74 306.133C115.223 305.279 114.965 304.246 114.965 303.034C114.965 301.959 115.207 300.994 115.692 300.14C116.188 299.287 116.867 298.623 117.732 298.148C118.596 297.663 119.571 297.421 120.657 297.421C121.595 297.421 122.464 297.626 123.266 298.038ZM129.716 299.951C130.759 299.951 131.481 300.272 131.882 300.915C132.282 301.548 132.483 302.428 132.483 303.556V307.603C132.483 307.877 132.393 308.109 132.214 308.299C132.035 308.478 131.808 308.568 131.534 308.568C131.26 308.568 131.033 308.478 130.854 308.299C130.675 308.109 130.585 307.877 130.585 307.603V303.556C130.585 302.976 130.469 302.523 130.237 302.196C130.016 301.859 129.621 301.69 129.052 301.69C128.461 301.69 127.998 301.869 127.66 302.227C127.333 302.575 127.17 303.018 127.17 303.556V307.603C127.17 307.877 127.081 308.109 126.901 308.299C126.722 308.478 126.496 308.568 126.221 308.568C125.947 308.568 125.721 308.478 125.542 308.299C125.362 308.109 125.273 307.877 125.273 307.603V297.832C125.273 297.558 125.362 297.331 125.542 297.152C125.721 296.962 125.947 296.868 126.221 296.868C126.496 296.868 126.722 296.962 126.901 297.152C127.081 297.331 127.17 297.558 127.17 297.832V301.326C127.455 300.947 127.813 300.625 128.245 300.362C128.688 300.088 129.178 299.951 129.716 299.951ZM142.664 304.346C142.664 305.189 142.474 305.948 142.095 306.623C141.715 307.287 141.193 307.803 140.529 308.172C139.876 308.541 139.154 308.726 138.363 308.726C137.562 308.726 136.835 308.541 136.181 308.172C135.528 307.803 135.011 307.287 134.632 306.623C134.252 305.948 134.063 305.189 134.063 304.346C134.063 303.503 134.252 302.749 134.632 302.085C135.011 301.411 135.528 300.889 136.181 300.52C136.835 300.14 137.562 299.951 138.363 299.951C139.154 299.951 139.876 300.14 140.529 300.52C141.193 300.889 141.715 301.411 142.095 302.085C142.474 302.749 142.664 303.503 142.664 304.346ZM140.766 304.346C140.766 303.83 140.656 303.371 140.434 302.971C140.224 302.559 139.934 302.243 139.565 302.022C139.206 301.801 138.806 301.69 138.363 301.69C137.92 301.69 137.515 301.801 137.146 302.022C136.787 302.243 136.497 302.559 136.276 302.971C136.065 303.371 135.96 303.83 135.96 304.346C135.96 304.863 136.065 305.321 136.276 305.722C136.497 306.122 136.787 306.433 137.146 306.654C137.515 306.876 137.92 306.986 138.363 306.986C138.806 306.986 139.206 306.876 139.565 306.654C139.934 306.433 140.224 306.122 140.434 305.722C140.656 305.321 140.766 304.863 140.766 304.346ZM138.332 311.097C137.984 311.097 137.736 311.039 137.588 310.923C137.441 310.807 137.367 310.602 137.367 310.307V310.006C137.367 309.711 137.446 309.506 137.604 309.39C137.762 309.274 138.005 309.216 138.332 309.216C138.722 309.216 138.99 309.274 139.138 309.39C139.285 309.506 139.359 309.711 139.359 310.006V310.307C139.359 310.612 139.28 310.818 139.122 310.923C138.964 311.039 138.7 311.097 138.332 311.097ZM148.771 299.951C149.846 299.951 150.589 300.272 151 300.915C151.411 301.548 151.617 302.428 151.617 303.556V307.603C151.617 307.877 151.527 308.109 151.348 308.299C151.169 308.478 150.942 308.568 150.668 308.568C150.394 308.568 150.167 308.478 149.988 308.299C149.809 308.109 149.719 307.877 149.719 307.603V303.556C149.719 302.976 149.598 302.523 149.356 302.196C149.113 301.859 148.697 301.69 148.107 301.69C147.495 301.69 147.016 301.869 146.668 302.227C146.32 302.575 146.146 303.018 146.146 303.556V307.603C146.146 307.877 146.057 308.109 145.877 308.299C145.698 308.478 145.472 308.568 145.198 308.568C144.923 308.568 144.697 308.478 144.518 308.299C144.338 308.109 144.249 307.877 144.249 307.603V301.073C144.249 300.799 144.338 300.573 144.518 300.393C144.697 300.204 144.923 300.109 145.198 300.109C145.472 300.109 145.698 300.204 145.877 300.393C146.057 300.573 146.146 300.799 146.146 301.073V301.342C146.431 300.963 146.8 300.636 147.253 300.362C147.717 300.088 148.223 299.951 148.771 299.951ZM166.115 297.959C166.389 297.959 166.616 298.043 166.795 298.211C166.984 298.37 167.079 298.57 167.079 298.812C167.079 299.076 166.984 299.292 166.795 299.461C166.616 299.619 166.389 299.698 166.115 299.698H165.893V307.603C165.893 307.877 165.804 308.109 165.625 308.299C165.446 308.478 165.219 308.568 164.945 308.568C164.671 308.568 164.444 308.478 164.265 308.299C164.096 308.12 164.007 307.893 163.996 307.619C163.733 307.925 163.374 308.188 162.921 308.409C162.478 308.62 162.009 308.726 161.514 308.726C160.787 308.726 160.128 308.541 159.538 308.172C158.947 307.793 158.478 307.271 158.13 306.607C157.793 305.943 157.624 305.189 157.624 304.346C157.624 303.503 157.793 302.749 158.13 302.085C158.468 301.411 158.926 300.889 159.506 300.52C160.096 300.14 160.744 299.951 161.451 299.951C161.957 299.951 162.431 300.046 162.874 300.235C163.316 300.414 163.691 300.646 163.996 300.931V299.698H163.364C163.09 299.698 162.858 299.619 162.668 299.461C162.489 299.292 162.399 299.076 162.399 298.812C162.399 298.57 162.489 298.37 162.668 298.211C162.858 298.043 163.09 297.959 163.364 297.959H163.996V297.832C163.996 297.558 164.086 297.331 164.265 297.152C164.444 296.962 164.671 296.868 164.945 296.868C165.219 296.868 165.446 296.957 165.625 297.136C165.804 297.316 165.893 297.547 165.893 297.832V297.959H166.115ZM161.751 306.986C162.436 306.986 162.995 306.739 163.427 306.243C163.859 305.737 164.075 305.105 164.075 304.346C164.075 303.587 163.859 302.955 163.427 302.449C162.995 301.943 162.436 301.69 161.751 301.69C161.076 301.69 160.523 301.943 160.091 302.449C159.659 302.955 159.443 303.587 159.443 304.346C159.443 305.105 159.653 305.737 160.075 306.243C160.507 306.739 161.066 306.986 161.751 306.986ZM176.076 304.346C176.076 305.189 175.887 305.948 175.507 306.623C175.128 307.287 174.606 307.803 173.942 308.172C173.288 308.541 172.566 308.726 171.776 308.726C170.975 308.726 170.247 308.541 169.594 308.172C168.94 307.803 168.424 307.287 168.045 306.623C167.665 305.948 167.475 305.189 167.475 304.346C167.475 303.503 167.665 302.749 168.045 302.085C168.424 301.411 168.94 300.889 169.594 300.52C170.247 300.14 170.975 299.951 171.776 299.951C172.566 299.951 173.288 300.14 173.942 300.52C174.606 300.889 175.128 301.411 175.507 302.085C175.887 302.749 176.076 303.503 176.076 304.346ZM174.179 304.346C174.179 303.83 174.068 303.371 173.847 302.971C173.636 302.559 173.346 302.243 172.977 302.022C172.619 301.801 172.219 301.69 171.776 301.69C171.333 301.69 170.927 301.801 170.558 302.022C170.2 302.243 169.91 302.559 169.689 302.971C169.478 303.371 169.373 303.83 169.373 304.346C169.373 304.863 169.478 305.321 169.689 305.722C169.91 306.122 170.2 306.433 170.558 306.654C170.927 306.876 171.333 306.986 171.776 306.986C172.219 306.986 172.619 306.876 172.977 306.654C173.346 306.433 173.636 306.122 173.847 305.722C174.068 305.321 174.179 304.863 174.179 304.346ZM171.744 311.097C171.396 311.097 171.149 311.039 171.001 310.923C170.854 310.807 170.78 310.602 170.78 310.307V310.006C170.78 309.711 170.859 309.506 171.017 309.39C171.175 309.274 171.417 309.216 171.744 309.216C172.134 309.216 172.403 309.274 172.551 309.39C172.698 309.506 172.772 309.711 172.772 310.006V310.307C172.772 310.612 172.693 310.818 172.535 310.923C172.377 311.039 172.113 311.097 171.744 311.097ZM173.705 298.211C173.789 298.317 173.842 298.401 173.863 298.464C173.884 298.528 173.895 298.607 173.895 298.702C173.895 298.807 173.847 298.902 173.752 298.986C173.668 299.06 173.557 299.097 173.42 299.097C173.262 299.097 173.141 299.076 173.057 299.034C172.983 298.991 172.904 298.939 172.819 298.876C172.746 298.802 172.688 298.749 172.645 298.717L171.807 297.974L170.906 298.717C170.864 298.749 170.796 298.807 170.701 298.891C170.616 298.965 170.532 299.018 170.448 299.049C170.363 299.081 170.258 299.097 170.132 299.097C169.995 299.097 169.879 299.06 169.784 298.986C169.699 298.902 169.657 298.807 169.657 298.702C169.657 298.607 169.668 298.528 169.689 298.464C169.71 298.401 169.763 298.317 169.847 298.211L170.622 297.231C170.864 296.926 171.186 296.773 171.586 296.773H172.155C172.366 296.773 172.53 296.804 172.645 296.868C172.772 296.931 172.893 297.052 173.009 297.231L173.705 298.211ZM189.129 306.907C189.329 307.118 189.429 307.355 189.429 307.619C189.429 307.882 189.324 308.104 189.113 308.283C188.913 308.462 188.697 308.552 188.465 308.552C188.191 308.552 187.959 308.446 187.769 308.236L184.923 305.231L184.148 305.943V307.603C184.148 307.877 184.059 308.109 183.88 308.299C183.7 308.478 183.474 308.568 183.2 308.568C182.926 308.568 182.699 308.478 182.52 308.299C182.341 308.109 182.251 307.877 182.251 307.603V297.832C182.251 297.558 182.341 297.331 182.52 297.152C182.699 296.962 182.926 296.868 183.2 296.868C183.474 296.868 183.7 296.962 183.88 297.152C184.059 297.331 184.148 297.558 184.148 297.832V303.682L187.532 300.409C187.732 300.209 187.964 300.109 188.228 300.109C188.459 300.109 188.665 300.209 188.844 300.409C189.034 300.599 189.129 300.794 189.129 300.994C189.129 301.247 189.002 301.484 188.749 301.706L186.362 303.903L189.129 306.907ZM195.46 299.951C196.504 299.951 197.226 300.272 197.626 300.915C198.027 301.548 198.227 302.428 198.227 303.556V307.603C198.227 307.877 198.138 308.109 197.958 308.299C197.779 308.478 197.553 308.568 197.278 308.568C197.004 308.568 196.778 308.478 196.599 308.299C196.419 308.109 196.33 307.877 196.33 307.603V303.556C196.33 302.976 196.214 302.523 195.982 302.196C195.761 301.859 195.365 301.69 194.796 301.69C194.206 301.69 193.742 301.869 193.405 302.227C193.078 302.575 192.915 303.018 192.915 303.556V307.603C192.915 307.877 192.825 308.109 192.646 308.299C192.467 308.478 192.24 308.568 191.966 308.568C191.692 308.568 191.465 308.478 191.286 308.299C191.107 308.109 191.017 307.877 191.017 307.603V297.832C191.017 297.558 191.107 297.331 191.286 297.152C191.465 296.962 191.692 296.868 191.966 296.868C192.24 296.868 192.467 296.962 192.646 297.152C192.825 297.331 192.915 297.558 192.915 297.832V301.326C193.199 300.947 193.558 300.625 193.99 300.362C194.433 300.088 194.923 299.951 195.46 299.951ZM208.408 304.346C208.408 305.189 208.219 305.948 207.839 306.623C207.46 307.287 206.938 307.803 206.274 308.172C205.62 308.541 204.898 308.726 204.108 308.726C203.307 308.726 202.579 308.541 201.926 308.172C201.272 307.803 200.756 307.287 200.376 306.623C199.997 305.948 199.807 305.189 199.807 304.346C199.807 303.503 199.997 302.749 200.376 302.085C200.756 301.411 201.272 300.889 201.926 300.52C202.579 300.14 203.307 299.951 204.108 299.951C204.898 299.951 205.62 300.14 206.274 300.52C206.938 300.889 207.46 301.411 207.839 302.085C208.219 302.749 208.408 303.503 208.408 304.346ZM206.511 304.346C206.511 303.83 206.4 303.371 206.179 302.971C205.968 302.559 205.678 302.243 205.309 302.022C204.951 301.801 204.55 301.69 204.108 301.69C203.665 301.69 203.259 301.801 202.89 302.022C202.532 302.243 202.242 302.559 202.021 302.971C201.81 303.371 201.704 303.83 201.704 304.346C201.704 304.863 201.81 305.321 202.021 305.722C202.242 306.122 202.532 306.433 202.89 306.654C203.259 306.876 203.665 306.986 204.108 306.986C204.55 306.986 204.951 306.876 205.309 306.654C205.678 306.433 205.968 306.122 206.179 305.722C206.4 305.321 206.511 304.863 206.511 304.346ZM204.187 299.571C204.081 299.571 203.965 299.524 203.839 299.429C203.723 299.334 203.67 299.208 203.681 299.049C203.681 298.955 203.712 298.854 203.776 298.749L204.693 297.136C204.798 296.947 204.925 296.794 205.072 296.678C205.22 296.562 205.383 296.504 205.562 296.504C205.847 296.504 206.058 296.578 206.195 296.725C206.342 296.873 206.411 297.063 206.4 297.294C206.379 297.537 206.279 297.764 206.1 297.974L204.898 299.302C204.73 299.482 204.492 299.571 204.187 299.571ZM211.021 302.386C210.715 302.386 210.478 302.306 210.31 302.148C210.152 301.98 210.072 301.743 210.072 301.437V301.168C210.072 300.862 210.152 300.631 210.31 300.472C210.478 300.304 210.715 300.219 211.021 300.219H211.227C211.532 300.219 211.764 300.304 211.922 300.472C212.091 300.631 212.175 300.862 212.175 301.168V301.437C212.175 301.743 212.091 301.98 211.922 302.148C211.764 302.306 211.532 302.386 211.227 302.386H211.021ZM211.021 308.568C210.715 308.568 210.478 308.489 210.31 308.33C210.152 308.162 210.072 307.925 210.072 307.619V307.35C210.072 307.044 210.152 306.813 210.31 306.654C210.478 306.486 210.715 306.401 211.021 306.401H211.227C211.532 306.401 211.764 306.486 211.922 306.654C212.091 306.813 212.175 307.044 212.175 307.35V307.619C212.175 307.925 212.091 308.162 211.922 308.33C211.764 308.489 211.532 308.568 211.227 308.568H211.021Z" fill="#535353"/>
<rect x="46.9863" y="327.703" width="228.378" height="42.1622" rx="21.0811" fill="#F7F7F7"/>
<g filter="url(#filter3_d)">
<rect x="50.5" y="331.216" width="74" height="35" rx="17.5" fill="#34C759"/>
</g>
<path d="M91.5072 354.311V344.319H94.1492C95.3158 344.319 96.2445 344.69 96.9353 345.431C97.6307 346.172 97.9853 347.188 97.999 348.478V350.097C97.999 351.41 97.6513 352.442 96.9559 353.192C96.2651 353.938 95.3113 354.311 94.0943 354.311H91.5072ZM93.5248 346.001V352.636H94.1286C94.8012 352.636 95.2747 352.46 95.5491 352.108C95.8236 351.751 95.9677 351.138 95.9815 350.269V348.533C95.9815 347.599 95.8511 346.95 95.5903 346.584C95.3296 346.213 94.8858 346.019 94.259 346.001H93.5248ZM102.357 354.448C101.359 354.448 100.582 354.151 100.023 353.556C99.4652 352.961 99.1862 352.11 99.1862 351.003V350.413C99.1862 349.242 99.4424 348.338 99.9548 347.702C100.467 347.066 101.201 346.749 102.158 346.749C103.091 346.749 103.793 347.048 104.264 347.647C104.736 348.242 104.976 349.125 104.985 350.296V351.25H101.121C101.149 351.799 101.27 352.202 101.485 352.458C101.7 352.71 102.032 352.835 102.48 352.835C103.13 352.835 103.672 352.614 104.106 352.17L104.868 353.343C104.63 353.673 104.285 353.94 103.832 354.146C103.379 354.347 102.887 354.448 102.357 354.448ZM101.135 349.891H103.077V349.713C103.068 349.269 102.995 348.933 102.858 348.704C102.72 348.476 102.482 348.361 102.144 348.361C101.805 348.361 101.558 348.482 101.403 348.725C101.252 348.967 101.163 349.356 101.135 349.891ZM104.106 345.973H102.768L101.911 345.108L101.039 345.973H99.7077L101.396 344.429H102.418L104.106 345.973ZM103.393 342.974C103.393 343.262 103.317 343.514 103.166 343.729C103.015 343.94 102.83 344.045 102.61 344.045C102.437 344.045 102.222 343.972 101.965 343.825C101.709 343.679 101.517 343.606 101.389 343.606C101.307 343.606 101.24 343.654 101.19 343.75C101.144 343.846 101.121 343.96 101.121 344.093L100.483 343.894C100.483 343.601 100.554 343.347 100.696 343.132C100.842 342.917 101.028 342.81 101.252 342.81C101.38 342.81 101.583 342.883 101.862 343.029C102.146 343.171 102.35 343.242 102.473 343.242C102.546 343.242 102.61 343.192 102.665 343.091C102.72 342.986 102.748 342.862 102.748 342.72L103.393 342.974Z" fill="#F2F2F2"/>
<path fill-rule="evenodd" clip-rule="evenodd" d="M74.3709 348.803C74.8509 348.13 74.7974 347.42 74.4645 346.144C73.8063 343.62 74.0684 342.236 76.3376 340.599L77.4451 339.799L77.713 341.139C77.9977 342.562 78.4652 343.442 79.6656 345.136C79.7133 345.203 79.7133 345.203 79.7612 345.271C81.4903 347.71 82.1219 349.181 82.1219 351.851C82.1219 355.091 78.8468 358 75.0949 358C71.3428 358 68.0679 355.091 68.0679 351.851C68.0679 351.791 68.0679 351.793 68.0577 351.525C67.9783 349.455 68.3611 347.835 69.9099 346.086C70.2371 345.716 70.6091 345.361 71.0277 345.021L71.9517 344.27L72.3962 345.375C72.7247 346.191 73.1095 346.832 73.5442 347.303C73.9124 347.701 74.1855 348.203 74.3709 348.803ZM71.225 347.25C70.0327 348.597 69.7493 349.796 69.813 351.458C69.8248 351.767 69.8245 351.756 69.8245 351.851C69.8245 354.072 72.2695 356.243 75.0947 356.243C77.9197 356.243 80.365 354.071 80.365 351.851C80.365 349.619 79.8658 348.456 78.3278 346.287C78.2801 346.219 78.2801 346.219 78.2322 346.152C77.2982 344.834 76.7414 343.917 76.3731 342.892C75.7715 343.613 75.8069 344.33 76.1643 345.701C76.8225 348.225 76.5604 349.608 74.2912 351.246L72.9974 352.18L72.9004 350.587C72.8384 349.57 72.6081 348.879 72.2535 348.495C71.9032 348.115 71.5869 347.671 71.3033 347.163C71.2768 347.192 71.2507 347.221 71.225 347.25Z" fill="#F7F7F7"/>
<path d="M165.804 351.566L167.485 344.319H169.736L166.854 354.311H164.754L161.893 344.319H164.13L165.804 351.566ZM177.676 346.234C177.676 347.048 177.536 347.657 177.257 348.059C176.983 348.462 176.537 348.707 175.919 348.793V354.311H174.094L174.039 353.631C173.636 354.176 173.097 354.448 172.419 354.448C171.738 354.448 171.221 354.215 170.869 353.748C170.516 353.277 170.34 352.593 170.34 351.696V346.886H172.282V351.744C172.291 352.467 172.532 352.829 173.003 352.829C173.447 352.829 173.767 352.636 173.963 352.252V346.886H175.919V347.819C176.148 347.746 176.31 347.602 176.406 347.387C176.503 347.172 176.551 346.787 176.551 346.234H177.676ZM174.121 346.035H172.481L170.587 343.907H172.763L174.121 346.035ZM181.519 354.311C181.464 354.196 181.409 354.004 181.354 353.734C181.007 354.21 180.535 354.448 179.941 354.448C179.318 354.448 178.801 354.242 178.39 353.83C177.983 353.419 177.779 352.886 177.779 352.232C177.779 351.454 178.026 350.852 178.52 350.427C179.019 350.001 179.735 349.784 180.668 349.775H181.258V349.178C181.258 348.844 181.201 348.608 181.087 348.471C180.972 348.334 180.805 348.265 180.586 348.265C180.101 348.265 179.858 348.549 179.858 349.116H177.916C177.916 348.43 178.172 347.865 178.685 347.421C179.202 346.973 179.854 346.749 180.641 346.749C181.455 346.749 182.084 346.961 182.528 347.387C182.976 347.808 183.2 348.411 183.2 349.198V352.691C183.209 353.332 183.301 353.833 183.475 354.194V354.311H181.519ZM180.373 352.925C180.588 352.925 180.771 352.881 180.922 352.794C181.073 352.707 181.185 352.604 181.258 352.485V350.941H180.792C180.462 350.941 180.201 351.047 180.009 351.257C179.822 351.467 179.728 351.749 179.728 352.101C179.728 352.65 179.943 352.925 180.373 352.925Z" fill="#535353"/>
<path fill-rule="evenodd" clip-rule="evenodd" d="M148.155 348.803C148.635 348.13 148.582 347.42 148.249 346.144C147.59 343.62 147.853 342.236 150.122 340.599L151.229 339.799L151.497 341.139C151.782 342.562 152.249 343.442 153.45 345.136C153.497 345.203 153.497 345.203 153.545 345.271C155.275 347.71 155.906 349.181 155.906 351.851C155.906 355.091 152.631 358 148.879 358C145.127 358 141.852 355.091 141.852 351.851C141.852 351.791 141.852 351.793 141.842 351.525C141.762 349.455 142.145 347.835 143.694 346.086C144.021 345.716 144.393 345.361 144.812 345.021L145.736 344.27L146.18 345.375C146.509 346.191 146.894 346.832 147.328 347.303C147.697 347.701 147.97 348.203 148.155 348.803ZM145.009 347.25C143.817 348.597 143.533 349.796 143.597 351.458C143.609 351.767 143.609 351.756 143.609 351.851C143.609 354.072 146.054 356.243 148.879 356.243C151.704 356.243 154.149 354.071 154.149 351.851C154.149 349.619 153.65 348.456 152.112 346.287C152.064 346.219 152.064 346.219 152.016 346.152C151.082 344.834 150.526 343.917 150.157 342.892C149.556 343.613 149.591 344.33 149.948 345.701C150.607 348.225 150.345 349.608 148.075 351.246L146.782 352.18L146.685 350.587C146.623 349.57 146.392 348.879 146.038 348.495C145.687 348.115 145.371 347.671 145.087 347.163C145.061 347.192 145.035 347.221 145.009 347.25Z" fill="#FF9500"/>
<path d="M241.131 350.454L240.335 351.456V354.311H238.318V344.319H240.335V348.677L240.974 347.599L242.833 344.319H245.304L242.442 348.711L245.352 354.311H242.957L241.131 350.454ZM247.898 347.538C248.319 347.012 248.836 346.749 249.449 346.749C250.126 346.749 250.64 346.986 250.993 347.462C251.345 347.938 251.523 348.647 251.528 349.59V354.311H249.579V349.61C249.579 349.175 249.51 348.862 249.373 348.67C249.24 348.473 249.023 348.375 248.721 348.375C248.369 348.375 248.094 348.537 247.898 348.862V354.311H245.956V343.77H247.898V347.538ZM252.695 350.358C252.695 349.233 252.96 348.35 253.491 347.709C254.021 347.069 254.756 346.749 255.693 346.749C256.64 346.749 257.379 347.069 257.91 347.709C258.441 348.35 258.706 349.237 258.706 350.372V350.845C258.706 351.975 258.443 352.858 257.917 353.494C257.391 354.13 256.654 354.448 255.707 354.448C254.756 354.448 254.014 354.13 253.484 353.494C252.958 352.854 252.695 351.966 252.695 350.832V350.358ZM254.643 350.845C254.643 352.172 254.998 352.835 255.707 352.835C256.361 352.835 256.714 352.282 256.764 351.175L256.771 350.358C256.771 349.681 256.677 349.18 256.489 348.855C256.302 348.526 256.036 348.361 255.693 348.361C255.364 348.361 255.105 348.526 254.918 348.855C254.735 349.18 254.643 349.681 254.643 350.358V350.845ZM256.071 343.77H258.253L256.345 345.898H254.726L256.071 343.77Z" fill="#535353"/>
<path fill-rule="evenodd" clip-rule="evenodd" d="M223.695 348.803C224.175 348.13 224.122 347.42 223.789 346.144C223.131 343.62 223.393 342.236 225.662 340.599L226.769 339.799L227.037 341.139C227.322 342.562 227.789 343.442 228.99 345.136C229.038 345.203 229.038 345.203 229.085 345.271C230.815 347.71 231.446 349.181 231.446 351.851C231.446 355.091 228.171 358 224.419 358C220.667 358 217.392 355.091 217.392 351.851C217.392 351.791 217.392 351.793 217.382 351.525C217.303 349.455 217.685 347.835 219.234 346.086C219.561 345.716 219.933 345.361 220.352 345.021L221.276 344.27L221.72 345.375C222.049 346.191 222.434 346.832 222.868 347.303C223.237 347.701 223.51 348.203 223.695 348.803ZM220.549 347.25C219.357 348.597 219.073 349.796 219.137 351.458C219.149 351.767 219.149 351.756 219.149 351.851C219.149 354.072 221.594 356.243 224.419 356.243C227.244 356.243 229.689 354.071 229.689 351.851C229.689 349.619 229.19 348.456 227.652 346.287C227.604 346.219 227.604 346.219 227.556 346.152C226.622 344.834 226.066 343.917 225.697 342.892C225.096 343.613 225.131 344.33 225.488 345.701C226.147 348.225 225.885 349.608 223.615 351.246L222.322 352.18L222.225 350.587C222.163 349.57 221.932 348.879 221.578 348.495C221.227 348.115 220.911 347.671 220.627 347.163C220.601 347.192 220.575 347.221 220.549 347.25Z" fill="#FF2D55"/>
<path d="M251.49 38.0376C251.817 38.2062 251.98 38.475 251.98 38.8439C251.98 39.0653 251.901 39.2813 251.743 39.4922C251.575 39.7135 251.358 39.8242 251.095 39.8242C250.916 39.8242 250.737 39.7768 250.557 39.6819C250.041 39.4395 249.482 39.3182 248.881 39.3182C248.144 39.3182 247.501 39.4763 246.953 39.7926C246.404 40.0982 245.983 40.5357 245.688 41.1049C245.393 41.6635 245.245 42.3065 245.245 43.0338C245.245 44.2776 245.577 45.2209 246.241 45.8639C246.916 46.5069 247.796 46.8284 248.881 46.8284C249.524 46.8284 250.083 46.7072 250.557 46.4647C250.747 46.3804 250.916 46.3382 251.063 46.3382C251.337 46.3382 251.569 46.4542 251.759 46.6861C251.917 46.8863 251.996 47.1024 251.996 47.3343C251.996 47.503 251.954 47.6558 251.87 47.7928C251.785 47.9299 251.664 48.0353 251.506 48.1091C250.684 48.5201 249.809 48.7257 248.881 48.7257C247.848 48.7257 246.9 48.5096 246.035 48.0774C245.171 47.6347 244.481 46.9865 243.964 46.1327C243.448 45.2789 243.19 44.2459 243.19 43.0338C243.19 41.9586 243.432 40.9942 243.917 40.1404C244.412 39.2866 245.092 38.6226 245.956 38.1482C246.821 37.6634 247.796 37.4209 248.881 37.4209C249.82 37.4209 250.689 37.6265 251.49 38.0376ZM257.94 39.9507C258.984 39.9507 259.706 40.2722 260.106 40.9151C260.507 41.5476 260.707 42.4277 260.707 43.5555V47.6031C260.707 47.8772 260.618 48.1091 260.438 48.2988C260.259 48.478 260.033 48.5676 259.759 48.5676C259.484 48.5676 259.258 48.478 259.079 48.2988C258.899 48.1091 258.81 47.8772 258.81 47.6031V43.5555C258.81 42.9758 258.694 42.5226 258.462 42.1958C258.241 41.8585 257.845 41.6899 257.276 41.6899C256.686 41.6899 256.222 41.8691 255.885 42.2274C255.558 42.5753 255.395 43.018 255.395 43.5555V47.6031C255.395 47.8772 255.305 48.1091 255.126 48.2988C254.947 48.478 254.72 48.5676 254.446 48.5676C254.172 48.5676 253.945 48.478 253.766 48.2988C253.587 48.1091 253.497 47.8772 253.497 47.6031V37.832C253.497 37.558 253.587 37.3313 253.766 37.1522C253.945 36.9624 254.172 36.8676 254.446 36.8676C254.72 36.8676 254.947 36.9624 255.126 37.1522C255.305 37.3313 255.395 37.558 255.395 37.832V41.3262C255.679 40.9468 256.038 40.6253 256.47 40.3618C256.913 40.0877 257.403 39.9507 257.94 39.9507ZM270.888 44.3461C270.888 45.1893 270.699 45.9482 270.319 46.6228C269.94 47.2869 269.418 47.8034 268.754 48.1723C268.1 48.5412 267.378 48.7257 266.588 48.7257C265.787 48.7257 265.059 48.5412 264.406 48.1723C263.752 47.8034 263.236 47.2869 262.856 46.6228C262.477 45.9482 262.287 45.1893 262.287 44.3461C262.287 43.5028 262.477 42.7492 262.856 42.0851C263.236 41.4105 263.752 40.8888 264.406 40.5199C265.059 40.1404 265.787 39.9507 266.588 39.9507C267.378 39.9507 268.1 40.1404 268.754 40.5199C269.418 40.8888 269.94 41.4105 270.319 42.0851C270.699 42.7492 270.888 43.5028 270.888 44.3461ZM268.991 44.3461C268.991 43.8296 268.88 43.3711 268.659 42.9705C268.448 42.5595 268.158 42.2432 267.789 42.0219C267.431 41.8005 267.031 41.6899 266.588 41.6899C266.145 41.6899 265.739 41.8005 265.37 42.0219C265.012 42.2432 264.722 42.5595 264.501 42.9705C264.29 43.3711 264.185 43.8296 264.185 44.3461C264.185 44.8626 264.29 45.3211 264.501 45.7216C264.722 46.1222 265.012 46.4331 265.37 46.6545C265.739 46.8758 266.145 46.9865 266.588 46.9865C267.031 46.9865 267.431 46.8758 267.789 46.6545C268.158 46.4331 268.448 46.1222 268.659 45.7216C268.88 45.3211 268.991 44.8626 268.991 44.3461ZM266.556 51.0973C266.208 51.0973 265.961 51.0393 265.813 50.9234C265.666 50.8074 265.592 50.6019 265.592 50.3068V50.0063C265.592 49.7112 265.671 49.5057 265.829 49.3897C265.987 49.2738 266.229 49.2158 266.556 49.2158C266.946 49.2158 267.215 49.2738 267.363 49.3897C267.51 49.5057 267.584 49.7112 267.584 50.0063V50.3068C267.584 50.6124 267.505 50.818 267.347 50.9234C267.189 51.0393 266.925 51.0973 266.556 51.0973ZM276.995 39.9507C278.071 39.9507 278.814 40.2722 279.225 40.9151C279.636 41.5476 279.841 42.4277 279.841 43.5555V47.6031C279.841 47.8772 279.752 48.1091 279.573 48.2988C279.393 48.478 279.167 48.5676 278.893 48.5676C278.619 48.5676 278.392 48.478 278.213 48.2988C278.034 48.1091 277.944 47.8772 277.944 47.6031V43.5555C277.944 42.9758 277.823 42.5226 277.58 42.1958C277.338 41.8585 276.922 41.6899 276.331 41.6899C275.72 41.6899 275.24 41.8691 274.893 42.2274C274.545 42.5753 274.371 43.018 274.371 43.5555V47.6031C274.371 47.8772 274.281 48.1091 274.102 48.2988C273.923 48.478 273.696 48.5676 273.422 48.5676C273.148 48.5676 272.921 48.478 272.742 48.2988C272.563 48.1091 272.474 47.8772 272.474 47.6031V41.0732C272.474 40.7992 272.563 40.5726 272.742 40.3934C272.921 40.2036 273.148 40.1088 273.422 40.1088C273.696 40.1088 273.923 40.2036 274.102 40.3934C274.281 40.5726 274.371 40.7992 274.371 41.0732V41.342C274.655 40.9626 275.024 40.6358 275.478 40.3618C275.941 40.0877 276.447 39.9507 276.995 39.9507ZM288.379 47.6031C288.379 47.8772 288.284 48.1091 288.094 48.2988C287.915 48.478 287.688 48.5676 287.414 48.5676C287.151 48.5676 286.929 48.478 286.75 48.2988C286.571 48.1091 286.482 47.8772 286.482 47.6031V37.832C286.482 37.558 286.571 37.3313 286.75 37.1522C286.94 36.9624 287.172 36.8676 287.446 36.8676C287.709 36.8676 287.931 36.9624 288.11 37.1522C288.289 37.3313 288.379 37.558 288.379 37.832V47.6031ZM298.727 39.1759C298.727 39.6292 298.633 40.0455 298.443 40.425C298.253 40.7939 297.969 41.0891 297.589 41.3104C297.947 41.7109 298.222 42.1695 298.411 42.6859C298.612 43.2024 298.712 43.7558 298.712 44.3461C298.712 45.1893 298.522 45.9482 298.142 46.6228C297.763 47.2869 297.241 47.8034 296.577 48.1723C295.924 48.5412 295.202 48.7257 294.411 48.7257C293.61 48.7257 292.883 48.5412 292.229 48.1723C291.576 47.8034 291.059 47.2869 290.68 46.6228C290.3 45.9482 290.111 45.1893 290.111 44.3461C290.111 43.5028 290.3 42.7492 290.68 42.0851C291.059 41.4105 291.576 40.8888 292.229 40.5199C292.883 40.1404 293.61 39.9507 294.411 39.9507C294.875 39.9507 295.339 40.0245 295.802 40.172V40.1562C296.224 40.1562 296.551 40.0772 296.783 39.9191C297.025 39.7504 297.146 39.5027 297.146 39.1759C297.146 38.9651 297.215 38.7754 297.352 38.6068C297.5 38.4276 297.7 38.338 297.953 38.338C298.216 38.338 298.411 38.4276 298.538 38.6068C298.664 38.7754 298.727 38.9651 298.727 39.1759ZM294.411 46.9865C294.854 46.9865 295.254 46.8758 295.613 46.6545C295.982 46.4331 296.272 46.1222 296.482 45.7216C296.704 45.3211 296.814 44.8626 296.814 44.3461C296.814 43.8296 296.704 43.3711 296.482 42.9705C296.272 42.5595 295.982 42.2432 295.613 42.0219C295.254 41.8005 294.854 41.6899 294.411 41.6899C293.968 41.6899 293.563 41.8005 293.194 42.0219C292.835 42.2432 292.545 42.5595 292.324 42.9705C292.113 43.3711 292.008 43.8296 292.008 44.3461C292.008 44.8626 292.113 45.3211 292.324 45.7216C292.545 46.1222 292.835 46.4331 293.194 46.6545C293.563 46.8758 293.968 46.9865 294.411 46.9865ZM294.38 39.5712C294.274 39.5712 294.158 39.5238 294.032 39.4289C293.916 39.3341 293.863 39.2076 293.874 39.0495C293.874 38.9546 293.905 38.8545 293.968 38.7491L294.885 37.1363C294.991 36.9466 295.117 36.7938 295.265 36.6778C295.412 36.5619 295.576 36.5039 295.755 36.5039C296.04 36.5039 296.25 36.5777 296.387 36.7253C296.535 36.8728 296.604 37.0626 296.593 37.2945C296.572 37.5369 296.472 37.7635 296.293 37.9743L295.091 39.3024C294.922 39.4816 294.685 39.5712 294.38 39.5712ZM304.676 39.9507C305.404 39.9507 306.062 40.1404 306.653 40.5199C307.243 40.8888 307.707 41.4053 308.044 42.0693C308.392 42.7334 308.566 43.487 308.566 44.3303C308.566 45.1735 308.397 45.9324 308.06 46.607C307.723 47.2711 307.259 47.7928 306.669 48.1723C306.089 48.5412 305.446 48.7257 304.74 48.7257C304.234 48.7257 303.754 48.6255 303.301 48.4253C302.858 48.2145 302.489 47.9615 302.194 47.6663V50.7653C302.194 51.0393 302.105 51.2659 301.925 51.4451C301.746 51.6349 301.52 51.7297 301.245 51.7297C300.971 51.7297 300.745 51.6401 300.566 51.4609C300.386 51.2818 300.297 51.0499 300.297 50.7653V41.0732C300.297 40.7992 300.386 40.5726 300.566 40.3934C300.745 40.2036 300.971 40.1088 301.245 40.1088C301.52 40.1088 301.746 40.2036 301.925 40.3934C302.105 40.5726 302.194 40.7992 302.194 41.0732V41.1365C302.447 40.8203 302.8 40.5462 303.253 40.3143C303.707 40.0719 304.181 39.9507 304.676 39.9507ZM304.439 46.9865C305.114 46.9865 305.667 46.7335 306.099 46.2276C306.532 45.7216 306.748 45.0892 306.748 44.3303C306.748 43.5713 306.532 42.9442 306.099 42.4488C305.678 41.9428 305.124 41.6899 304.439 41.6899C303.754 41.6899 303.195 41.9428 302.763 42.4488C302.331 42.9442 302.115 43.5713 302.115 44.3303C302.115 45.0892 302.331 45.7216 302.763 46.2276C303.195 46.7335 303.754 46.9865 304.439 46.9865ZM311.175 42.3855C310.87 42.3855 310.633 42.3065 310.464 42.1484C310.306 41.9797 310.227 41.7426 310.227 41.4369V41.1681C310.227 40.8624 310.306 40.6305 310.464 40.4724C310.633 40.3038 310.87 40.2195 311.175 40.2195H311.381C311.687 40.2195 311.919 40.3038 312.077 40.4724C312.245 40.6305 312.33 40.8624 312.33 41.1681V41.4369C312.33 41.7426 312.245 41.9797 312.077 42.1484C311.919 42.3065 311.687 42.3855 311.381 42.3855H311.175ZM311.175 48.5676C310.87 48.5676 310.633 48.4885 310.464 48.3304C310.306 48.1618 310.227 47.9246 310.227 47.6189V47.3501C310.227 47.0445 310.306 46.8126 310.464 46.6545C310.633 46.4858 310.87 46.4015 311.175 46.4015H311.381C311.687 46.4015 311.919 46.4858 312.077 46.6545C312.245 46.8126 312.33 47.0445 312.33 47.3501V47.6189C312.33 47.9246 312.245 48.1618 312.077 48.3304C311.919 48.4885 311.687 48.5676 311.381 48.5676H311.175Z" fill="#535353"/>
<circle cx="277.892" cy="95.7027" r="26.2432" stroke="#5E5CE6" stroke-width="3.51351"/>
<path d="M274.179 103.405H271.255V91.959L268.404 93.0604V90.6312L273.87 88.3975H274.179V103.405ZM287.138 97.2087C287.138 99.2811 286.761 100.866 286.006 101.964C285.258 103.062 284.187 103.611 282.794 103.611C281.415 103.611 280.348 103.079 279.593 102.016C278.845 100.945 278.457 99.4149 278.43 97.4249V94.5942C278.43 92.5286 278.804 90.9503 279.552 89.8592C280.3 88.7612 281.374 88.2122 282.774 88.2122C284.174 88.2122 285.248 88.7543 285.996 89.8386C286.744 90.9228 287.124 92.4703 287.138 94.4809V97.2087ZM284.215 94.1721C284.215 92.9918 284.098 92.1066 283.865 91.5164C283.632 90.9262 283.268 90.6312 282.774 90.6312C281.847 90.6312 281.367 91.712 281.333 93.8736V97.6102C281.333 98.8179 281.449 99.7169 281.683 100.307C281.923 100.897 282.293 101.192 282.794 101.192C283.268 101.192 283.618 100.918 283.844 100.369C284.078 99.813 284.201 98.9655 284.215 97.8263V94.1721Z" fill="#535353"/>
<g filter="url(#filter4_d)">
<rect x="186.648" y="71.2162" width="49" height="42" rx="17.5676" fill="#FDFDFD"/>
<rect x="187.088" y="71.6554" width="48.1216" height="41.1216" rx="17.1284" stroke="#9A9A9A" stroke-width="0.878378"/>
</g>
<path fill-rule="evenodd" clip-rule="evenodd" d="M220.027 91.4189V93.1757H202.459V91.4189H220.027Z" fill="#23252E"/>
<g filter="url(#filter5_d)">
<rect x="320.162" y="71.2162" width="49" height="42" rx="17.5676" fill="#FDFDFD"/>
<rect x="320.601" y="71.6554" width="48.1216" height="41.1216" rx="17.1284" stroke="#9A9A9A" stroke-width="0.878378"/>
</g>
<path fill-rule="evenodd" clip-rule="evenodd" d="M345.635 91.4189H353.54V93.1757H345.635V101.081H343.878V93.1757H335.973V91.4189H343.878V83.5135H345.635V91.4189Z" fill="#23252E"/>
<path d="M231.216 161.011C231.543 161.179 231.706 161.448 231.706 161.817C231.706 162.038 231.627 162.254 231.469 162.465C231.3 162.686 231.084 162.797 230.82 162.797C230.641 162.797 230.462 162.75 230.283 162.655C229.766 162.412 229.208 162.291 228.607 162.291C227.869 162.291 227.226 162.449 226.678 162.766C226.13 163.071 225.708 163.509 225.413 164.078C225.118 164.636 224.97 165.279 224.97 166.007C224.97 167.251 225.303 168.194 225.967 168.837C226.641 169.48 227.521 169.801 228.607 169.801C229.25 169.801 229.809 169.68 230.283 169.438C230.473 169.353 230.641 169.311 230.789 169.311C231.063 169.311 231.295 169.427 231.485 169.659C231.643 169.859 231.722 170.075 231.722 170.307C231.722 170.476 231.68 170.629 231.595 170.766C231.511 170.903 231.39 171.008 231.232 171.082C230.409 171.493 229.535 171.699 228.607 171.699C227.574 171.699 226.625 171.483 225.761 171.05C224.897 170.608 224.206 169.959 223.69 169.106C223.173 168.252 222.915 167.219 222.915 166.007C222.915 164.932 223.158 163.967 223.642 163.113C224.138 162.26 224.818 161.596 225.682 161.121C226.546 160.636 227.521 160.394 228.607 160.394C229.545 160.394 230.415 160.599 231.216 161.011ZM237.666 162.924C238.709 162.924 239.431 163.245 239.832 163.888C240.232 164.521 240.433 165.401 240.433 166.529V170.576C240.433 170.85 240.343 171.082 240.164 171.272C239.985 171.451 239.758 171.541 239.484 171.541C239.21 171.541 238.983 171.451 238.804 171.272C238.625 171.082 238.535 170.85 238.535 170.576V166.529C238.535 165.949 238.419 165.496 238.188 165.169C237.966 164.831 237.571 164.663 237.002 164.663C236.412 164.663 235.948 164.842 235.61 165.2C235.284 165.548 235.12 165.991 235.12 166.529V170.576C235.12 170.85 235.031 171.082 234.852 171.272C234.672 171.451 234.446 171.541 234.172 171.541C233.898 171.541 233.671 171.451 233.492 171.272C233.313 171.082 233.223 170.85 233.223 170.576V160.805C233.223 160.531 233.313 160.304 233.492 160.125C233.671 159.935 233.898 159.841 234.172 159.841C234.446 159.841 234.672 159.935 234.852 160.125C235.031 160.304 235.12 160.531 235.12 160.805V164.299C235.405 163.92 235.763 163.598 236.195 163.335C236.638 163.061 237.128 162.924 237.666 162.924ZM250.614 167.319C250.614 168.162 250.424 168.921 250.045 169.596C249.665 170.26 249.143 170.776 248.479 171.145C247.826 171.514 247.104 171.699 246.313 171.699C245.512 171.699 244.785 171.514 244.131 171.145C243.478 170.776 242.961 170.26 242.582 169.596C242.203 168.921 242.013 168.162 242.013 167.319C242.013 166.476 242.203 165.722 242.582 165.058C242.961 164.383 243.478 163.862 244.131 163.493C244.785 163.113 245.512 162.924 246.313 162.924C247.104 162.924 247.826 163.113 248.479 163.493C249.143 163.862 249.665 164.383 250.045 165.058C250.424 165.722 250.614 166.476 250.614 167.319ZM248.717 167.319C248.717 166.803 248.606 166.344 248.385 165.944C248.174 165.532 247.884 165.216 247.515 164.995C247.157 164.773 246.756 164.663 246.313 164.663C245.871 164.663 245.465 164.773 245.096 164.995C244.738 165.216 244.448 165.532 244.226 165.944C244.016 166.344 243.91 166.803 243.91 167.319C243.91 167.836 244.016 168.294 244.226 168.695C244.448 169.095 244.738 169.406 245.096 169.627C245.465 169.849 245.871 169.959 246.313 169.959C246.756 169.959 247.157 169.849 247.515 169.627C247.884 169.406 248.174 169.095 248.385 168.695C248.606 168.294 248.717 167.836 248.717 167.319ZM246.282 174.07C245.934 174.07 245.686 174.012 245.539 173.896C245.391 173.78 245.317 173.575 245.317 173.28V172.979C245.317 172.684 245.396 172.479 245.554 172.363C245.713 172.247 245.955 172.189 246.282 172.189C246.672 172.189 246.941 172.247 247.088 172.363C247.236 172.479 247.309 172.684 247.309 172.979V173.28C247.309 173.585 247.23 173.791 247.072 173.896C246.914 174.012 246.651 174.07 246.282 174.07ZM256.721 162.924C257.796 162.924 258.539 163.245 258.95 163.888C259.361 164.521 259.567 165.401 259.567 166.529V170.576C259.567 170.85 259.477 171.082 259.298 171.272C259.119 171.451 258.892 171.541 258.618 171.541C258.344 171.541 258.118 171.451 257.938 171.272C257.759 171.082 257.67 170.85 257.67 170.576V166.529C257.67 165.949 257.548 165.496 257.306 165.169C257.064 164.831 256.647 164.663 256.057 164.663C255.446 164.663 254.966 164.842 254.618 165.2C254.27 165.548 254.096 165.991 254.096 166.529V170.576C254.096 170.85 254.007 171.082 253.828 171.272C253.648 171.451 253.422 171.541 253.148 171.541C252.874 171.541 252.647 171.451 252.468 171.272C252.289 171.082 252.199 170.85 252.199 170.576V164.046C252.199 163.772 252.289 163.546 252.468 163.366C252.647 163.177 252.874 163.082 253.148 163.082C253.422 163.082 253.648 163.177 253.828 163.366C254.007 163.546 254.096 163.772 254.096 164.046V164.315C254.381 163.936 254.75 163.609 255.203 163.335C255.667 163.061 256.173 162.924 256.721 162.924ZM275.804 162.924C276.848 162.924 277.57 163.245 277.97 163.888C278.371 164.521 278.571 165.401 278.571 166.529V170.576C278.571 170.85 278.482 171.082 278.302 171.272C278.123 171.451 277.897 171.541 277.622 171.541C277.348 171.541 277.122 171.451 276.943 171.272C276.763 171.082 276.674 170.85 276.674 170.576V166.529C276.674 165.949 276.558 165.496 276.326 165.169C276.105 164.831 275.709 164.663 275.14 164.663C274.55 164.663 274.086 164.842 273.749 165.2C273.422 165.548 273.259 165.991 273.259 166.529V170.576C273.259 170.85 273.169 171.082 272.99 171.272C272.811 171.451 272.584 171.541 272.31 171.541C272.036 171.541 271.809 171.451 271.63 171.272C271.451 171.082 271.361 170.85 271.361 170.576V166.529C271.361 165.949 271.245 165.496 271.014 165.169C270.792 164.831 270.397 164.663 269.828 164.663C269.237 164.663 268.774 164.842 268.436 165.2C268.11 165.548 267.946 165.991 267.946 166.529V170.576C267.946 170.85 267.857 171.082 267.677 171.272C267.498 171.451 267.272 171.541 266.998 171.541C266.724 171.541 266.497 171.451 266.318 171.272C266.139 171.082 266.049 170.85 266.049 170.576V164.046C266.049 163.772 266.139 163.546 266.318 163.366C266.497 163.177 266.724 163.082 266.998 163.082C267.272 163.082 267.498 163.177 267.677 163.366C267.857 163.546 267.946 163.772 267.946 164.046V164.299C268.231 163.92 268.589 163.598 269.021 163.335C269.464 163.061 269.954 162.924 270.492 162.924C271.82 162.924 272.668 163.503 273.037 164.663C273.28 164.22 273.643 163.82 274.128 163.461C274.624 163.103 275.182 162.924 275.804 162.924ZM288.751 167.319C288.751 168.162 288.562 168.921 288.182 169.596C287.803 170.26 287.281 170.776 286.617 171.145C285.963 171.514 285.241 171.699 284.451 171.699C283.65 171.699 282.922 171.514 282.269 171.145C281.615 170.776 281.099 170.26 280.719 169.596C280.34 168.921 280.15 168.162 280.15 167.319C280.15 166.476 280.34 165.722 280.719 165.058C281.099 164.383 281.615 163.862 282.269 163.493C282.922 163.113 283.65 162.924 284.451 162.924C285.241 162.924 285.963 163.113 286.617 163.493C287.281 163.862 287.803 164.383 288.182 165.058C288.562 165.722 288.751 166.476 288.751 167.319ZM286.854 167.319C286.854 166.803 286.743 166.344 286.522 165.944C286.311 165.532 286.021 165.216 285.652 164.995C285.294 164.773 284.893 164.663 284.451 164.663C284.008 164.663 283.602 164.773 283.233 164.995C282.875 165.216 282.585 165.532 282.364 165.944C282.153 166.344 282.048 166.803 282.048 167.319C282.048 167.836 282.153 168.294 282.364 168.695C282.585 169.095 282.875 169.406 283.233 169.627C283.602 169.849 284.008 169.959 284.451 169.959C284.893 169.959 285.294 169.849 285.652 169.627C286.021 169.406 286.311 169.095 286.522 168.695C286.743 168.294 286.854 167.836 286.854 167.319ZM286.38 161.184C286.464 161.29 286.517 161.374 286.538 161.437C286.559 161.501 286.569 161.58 286.569 161.675C286.569 161.78 286.522 161.875 286.427 161.959C286.343 162.033 286.232 162.07 286.095 162.07C285.937 162.07 285.816 162.049 285.731 162.007C285.658 161.964 285.579 161.912 285.494 161.848C285.42 161.775 285.363 161.722 285.32 161.69L284.482 160.947L283.581 161.69C283.539 161.722 283.47 161.78 283.376 161.864C283.291 161.938 283.207 161.991 283.123 162.022C283.038 162.054 282.933 162.07 282.806 162.07C282.669 162.07 282.553 162.033 282.459 161.959C282.374 161.875 282.332 161.78 282.332 161.675C282.332 161.58 282.343 161.501 282.364 161.437C282.385 161.374 282.438 161.29 282.522 161.184L283.297 160.204C283.539 159.898 283.86 159.746 284.261 159.746H284.83C285.041 159.746 285.204 159.777 285.32 159.841C285.447 159.904 285.568 160.025 285.684 160.204L286.38 161.184ZM294.858 162.924C295.933 162.924 296.677 163.245 297.088 163.888C297.499 164.521 297.704 165.401 297.704 166.529V170.576C297.704 170.85 297.615 171.082 297.436 171.272C297.256 171.451 297.03 171.541 296.756 171.541C296.482 171.541 296.255 171.451 296.076 171.272C295.897 171.082 295.807 170.85 295.807 170.576V166.529C295.807 165.949 295.686 165.496 295.443 165.169C295.201 164.831 294.785 164.663 294.194 164.663C293.583 164.663 293.103 164.842 292.756 165.2C292.408 165.548 292.234 165.991 292.234 166.529V170.576C292.234 170.85 292.144 171.082 291.965 171.272C291.786 171.451 291.559 171.541 291.285 171.541C291.011 171.541 290.784 171.451 290.605 171.272C290.426 171.082 290.336 170.85 290.336 170.576V164.046C290.336 163.772 290.426 163.546 290.605 163.366C290.784 163.177 291.011 163.082 291.285 163.082C291.559 163.082 291.786 163.177 291.965 163.366C292.144 163.546 292.234 163.772 292.234 164.046V164.315C292.518 163.936 292.887 163.609 293.341 163.335C293.804 163.061 294.31 162.924 294.858 162.924ZM308.629 162.924C309.673 162.924 310.395 163.245 310.795 163.888C311.196 164.521 311.396 165.401 311.396 166.529V170.576C311.396 170.85 311.306 171.082 311.127 171.272C310.948 171.451 310.721 171.541 310.447 171.541C310.173 171.541 309.947 171.451 309.768 171.272C309.588 171.082 309.499 170.85 309.499 170.576V166.529C309.499 165.949 309.383 165.496 309.151 165.169C308.93 164.831 308.534 164.663 307.965 164.663C307.375 164.663 306.911 164.842 306.574 165.2C306.247 165.548 306.084 165.991 306.084 166.529V170.576C306.084 170.85 305.994 171.082 305.815 171.272C305.636 171.451 305.409 171.541 305.135 171.541C304.861 171.541 304.634 171.451 304.455 171.272C304.276 171.082 304.186 170.85 304.186 170.576V160.805C304.186 160.531 304.276 160.304 304.455 160.125C304.634 159.935 304.861 159.841 305.135 159.841C305.409 159.841 305.636 159.935 305.815 160.125C305.994 160.304 306.084 160.531 306.084 160.805V164.299C306.368 163.92 306.727 163.598 307.159 163.335C307.601 163.061 308.092 162.924 308.629 162.924ZM321.577 167.319C321.577 168.162 321.388 168.921 321.008 169.596C320.629 170.26 320.107 170.776 319.443 171.145C318.789 171.514 318.067 171.699 317.277 171.699C316.476 171.699 315.748 171.514 315.095 171.145C314.441 170.776 313.925 170.26 313.545 169.596C313.166 168.921 312.976 168.162 312.976 167.319C312.976 166.476 313.166 165.722 313.545 165.058C313.925 164.383 314.441 163.862 315.095 163.493C315.748 163.113 316.476 162.924 317.277 162.924C318.067 162.924 318.789 163.113 319.443 163.493C320.107 163.862 320.629 164.383 321.008 165.058C321.388 165.722 321.577 166.476 321.577 167.319ZM319.68 167.319C319.68 166.803 319.569 166.344 319.348 165.944C319.137 165.532 318.847 165.216 318.478 164.995C318.12 164.773 317.719 164.663 317.277 164.663C316.834 164.663 316.428 164.773 316.059 164.995C315.701 165.216 315.411 165.532 315.19 165.944C314.979 166.344 314.873 166.803 314.873 167.319C314.873 167.836 314.979 168.294 315.19 168.695C315.411 169.095 315.701 169.406 316.059 169.627C316.428 169.849 316.834 169.959 317.277 169.959C317.719 169.959 318.12 169.849 318.478 169.627C318.847 169.406 319.137 169.095 319.348 168.695C319.569 168.294 319.68 167.836 319.68 167.319ZM317.245 174.07C316.897 174.07 316.65 174.012 316.502 173.896C316.354 173.78 316.281 173.575 316.281 173.28V172.979C316.281 172.684 316.36 172.479 316.518 172.363C316.676 172.247 316.918 172.189 317.245 172.189C317.635 172.189 317.904 172.247 318.051 172.363C318.199 172.479 318.273 172.684 318.273 172.979V173.28C318.273 173.585 318.194 173.791 318.036 173.896C317.878 174.012 317.614 174.07 317.245 174.07ZM326.846 162.924C327.742 162.924 328.464 163.066 329.012 163.351C329.561 163.625 329.835 163.993 329.835 164.457C329.835 164.689 329.766 164.895 329.629 165.074C329.492 165.243 329.313 165.327 329.091 165.327C328.923 165.327 328.786 165.306 328.68 165.264C328.575 165.211 328.47 165.148 328.364 165.074C328.269 164.99 328.174 164.921 328.08 164.868C327.974 164.816 327.816 164.768 327.605 164.726C327.405 164.684 327.242 164.663 327.115 164.663C326.325 164.663 325.703 164.911 325.249 165.406C324.807 165.891 324.585 166.529 324.585 167.319C324.585 168.078 324.812 168.71 325.265 169.216C325.719 169.712 326.298 169.959 327.004 169.959C327.521 169.959 327.906 169.896 328.159 169.77C328.222 169.738 328.306 169.685 328.412 169.612C328.528 169.527 328.633 169.464 328.728 169.422C328.823 169.38 328.939 169.359 329.076 169.359C329.339 169.359 329.545 169.443 329.692 169.612C329.85 169.78 329.929 169.996 329.929 170.26C329.929 170.513 329.782 170.75 329.487 170.971C329.192 171.193 328.802 171.372 328.317 171.509C327.832 171.635 327.315 171.699 326.767 171.699C325.956 171.699 325.239 171.509 324.617 171.129C324.006 170.75 323.531 170.228 323.194 169.564C322.857 168.89 322.688 168.141 322.688 167.319C322.688 166.465 322.862 165.706 323.21 165.042C323.568 164.378 324.064 163.862 324.696 163.493C325.329 163.113 326.045 162.924 326.846 162.924ZM332.327 165.358C332.021 165.358 331.784 165.279 331.616 165.121C331.458 164.953 331.378 164.716 331.378 164.41V164.141C331.378 163.835 331.458 163.603 331.616 163.445C331.784 163.277 332.021 163.192 332.327 163.192H332.533C332.838 163.192 333.07 163.277 333.228 163.445C333.397 163.603 333.481 163.835 333.481 164.141V164.41C333.481 164.716 333.397 164.953 333.228 165.121C333.07 165.279 332.838 165.358 332.533 165.358H332.327ZM332.327 171.541C332.021 171.541 331.784 171.461 331.616 171.303C331.458 171.135 331.378 170.898 331.378 170.592V170.323C331.378 170.017 331.458 169.786 331.616 169.627C331.784 169.459 332.021 169.374 332.327 169.374H332.533C332.838 169.374 333.07 169.459 333.228 169.627C333.397 169.786 333.481 170.017 333.481 170.323V170.592C333.481 170.898 333.397 171.135 333.228 171.303C333.07 171.461 332.838 171.541 332.533 171.541H332.327Z" fill="#535353"/>
<rect x="48.3034" y="191.115" width="67.6351" height="65.8784" rx="17.1284" fill="url(#paint1_linear)" stroke="#EDEDED" stroke-width="0.878378"/>
<g clip-path="url(#clip1)">
<path d="M82.1208 205.901V204.73C80.48 204.73 79.0769 205.901 78.7835 207.515L78.1186 211.171H76.5577V212.342H77.9057L77.2788 215.789C77.0868 216.846 76.168 217.613 75.0938 217.613V218.784C76.7346 218.784 78.1376 217.612 78.431 215.998L79.0959 212.342H80.364V211.171H79.3088L79.9357 207.725C80.1277 206.668 81.0465 205.901 82.1208 205.901Z" fill="#9A9A9A"/>
<path d="M82.7064 208.243L82.2379 207.892C82.1973 207.946 81.2424 209.248 81.2424 211.757C81.2424 214.265 82.1973 215.567 82.2379 215.622L83.1746 214.919C83.1673 214.909 82.4136 213.845 82.4136 211.757C82.4136 209.669 83.1699 208.602 83.1774 208.591L82.7064 208.243Z" fill="#9A9A9A"/>
<path d="M87.2153 208.595C87.2229 208.604 87.9766 209.668 87.9766 211.757C87.9766 213.845 87.2203 214.912 87.2128 214.923L87.6838 215.27L88.1523 215.622C88.1934 215.567 89.1478 214.265 89.1478 211.757C89.1478 209.248 88.1929 207.946 88.1523 207.892L87.2153 208.595Z" fill="#9A9A9A"/>
<path d="M85.7464 209.948L85.0487 210.908L84.351 209.948L83.404 210.637L84.3246 211.903L83.404 213.169L84.351 213.858L85.0487 212.899L85.7464 213.858L86.6934 213.169L85.7728 211.903L86.6934 210.637L85.7464 209.948Z" fill="#9A9A9A"/>
</g>
<path opacity="0.5" d="M73.0072 231.501H70.5367V239.811H68.5124V231.501H66.0831V229.819H73.0072V231.501ZM81.0087 235.714C81.0087 237.054 80.6907 238.095 80.0548 238.836C79.4235 239.577 78.5451 239.948 77.4197 239.948C76.2988 239.948 75.4181 239.582 74.7777 238.85C74.1372 238.114 73.8124 237.084 73.8032 235.762V234.053C73.8032 232.681 74.1212 231.61 74.7571 230.842C75.393 230.069 76.2759 229.682 77.4059 229.682C78.5176 229.682 79.3937 230.062 80.0342 230.821C80.6747 231.576 80.9995 232.637 81.0087 234.005V235.714ZM78.9843 234.04C78.9843 233.138 78.8562 232.468 78.6 232.029C78.3438 231.59 77.9458 231.37 77.4059 231.37C76.8707 231.37 76.4749 231.583 76.2188 232.008C75.9626 232.429 75.8299 233.072 75.8207 233.937V235.714C75.8207 236.588 75.9511 237.233 76.2119 237.649C76.4727 238.061 76.8752 238.267 77.4197 238.267C77.9458 238.267 78.3369 238.065 78.5931 237.663C78.8493 237.256 78.9797 236.627 78.9843 235.776V234.04ZM87.075 237.766H84.3232L83.7879 239.811H81.6537L84.7761 229.819H86.622L89.765 239.811H87.6102L87.075 237.766ZM84.7624 236.085H86.6289L85.6956 232.523L84.7624 236.085ZM86.1074 227.143H88.2896L86.3819 229.27H84.7624L86.1074 227.143ZM97.691 239.811H95.6735L92.7227 233.257V239.811H90.7051V229.819H92.7227L95.6803 236.38V229.819H97.691V239.811Z" fill="#535353"/>
<rect x="440.06" y="191.115" width="67.6351" height="65.8784" rx="17.1284" fill="url(#paint2_linear)" stroke="#EDEDED" stroke-width="0.878378"/>
<g opacity="0.5">
<path fill-rule="evenodd" clip-rule="evenodd" d="M473.878 205.315C477.435 205.315 480.319 208.199 480.319 211.757C480.319 215.314 477.435 218.198 473.878 218.198C470.32 218.198 467.437 215.314 467.437 211.757C467.437 208.199 470.32 205.315 473.878 205.315ZM479.102 212.457C478.481 212.78 477.663 213.05 476.735 213.236C476.603 214.584 476.291 215.774 475.837 216.651C477.57 215.956 478.848 214.369 479.102 212.457ZM475.626 212.228C475.632 212.073 475.634 211.916 475.634 211.757C475.634 208.819 474.701 206.486 473.878 206.486C473.054 206.486 472.121 208.819 472.121 211.757C472.121 211.925 472.124 212.091 472.13 212.255C472.679 212.312 473.266 212.342 473.878 212.342C474.48 212.342 475.07 212.3 475.626 212.228ZM476.804 212.023C476.805 211.934 476.806 211.846 476.806 211.757C476.806 209.808 476.451 208.049 475.837 206.863C477.58 207.561 478.863 209.163 479.106 211.089C478.83 211.399 477.961 211.766 476.804 212.023ZM472.226 213.442C472.751 213.489 473.304 213.513 473.878 213.513C474.442 213.513 474.998 213.482 475.532 213.422C475.268 215.529 474.538 217.027 473.878 217.027C473.22 217.027 472.492 215.538 472.226 213.442ZM470.953 212.079C470.617 212.012 470.304 211.933 470.018 211.843C469.291 211.615 468.816 211.335 468.646 211.117C468.881 209.178 470.168 207.564 471.919 206.862C471.305 208.048 470.95 209.808 470.95 211.757C470.95 211.865 470.951 211.972 470.953 212.079ZM471.026 213.286C471.16 214.613 471.47 215.785 471.919 216.651C470.216 215.969 468.952 214.424 468.668 212.556C469.279 212.875 470.085 213.122 471.026 213.286Z" fill="#535353"/>
</g>
<path opacity="0.5" d="M464.647 239.811V235.412H463.577V234.156H464.647V229.819H467.289C468.456 229.819 469.385 230.19 470.075 230.931C470.771 231.672 471.125 232.688 471.139 233.978V235.597C471.139 236.91 470.791 237.942 470.096 238.692C469.405 239.438 468.451 239.811 467.234 239.811H464.647ZM467.742 235.412H466.665V238.136H467.365C468.001 238.123 468.449 237.937 468.71 237.581C468.971 237.219 469.108 236.608 469.122 235.748V234.033C469.122 233.099 468.991 232.45 468.73 232.084C468.47 231.713 468.026 231.519 467.399 231.501H466.665V234.156H467.742V235.412ZM474.701 239.811H472.683V229.819H474.701V239.811ZM473.678 240.449C474.012 240.449 474.282 240.538 474.488 240.717C474.698 240.9 474.804 241.128 474.804 241.403C474.804 241.677 474.698 241.904 474.488 242.082C474.282 242.265 474.012 242.357 473.678 242.357C473.349 242.357 473.079 242.265 472.868 242.082C472.663 241.904 472.56 241.677 472.56 241.403C472.56 241.128 472.663 240.9 472.868 240.717C473.079 240.538 473.349 240.449 473.678 240.449ZM481.289 237.766H478.537L478.001 239.811H475.867L478.99 229.819H480.836L483.979 239.811H481.824L481.289 237.766ZM478.976 236.085H480.842L479.909 232.523L478.976 236.085Z" fill="#535353"/>
<rect x="288.979" y="191.115" width="67.6351" height="65.8784" rx="17.1284" fill="url(#paint3_linear)" stroke="#EDEDED" stroke-width="0.878378"/>
<g clip-path="url(#clip2)">
<path d="M329.666 207.938C329.455 207.727 329.114 207.727 328.903 207.938C328.777 208.064 328.623 208.153 328.422 208.22L326.332 206.129C326.398 205.928 326.489 205.777 326.615 205.65C326.826 205.44 326.826 205.098 326.615 204.888C326.405 204.677 326.064 204.677 325.853 204.888C325.293 205.448 325.13 206.142 325.098 207.43C325.095 207.575 325.15 207.715 325.252 207.819C325.353 207.923 325.492 207.982 325.637 207.982H325.687C325.955 207.982 326.173 207.766 326.176 207.498L327.053 208.376C326.795 208.381 326.511 208.382 326.174 208.379L325.094 208.364C323.759 208.343 321.771 208.216 320.512 209.474C319.683 210.304 319.44 211.539 319.39 212.819C319.384 212.964 319.438 213.105 319.538 213.21C319.639 213.315 319.778 213.374 319.923 213.374H319.935C320.223 213.374 320.459 213.146 320.468 212.858C320.477 212.61 320.493 212.369 320.519 212.136C320.965 212.581 321.871 213.488 322.419 214.035C321.766 214.105 321.081 214.08 320.482 214.071L319.404 214.056C317.26 214.034 316.624 214.116 315.928 214.813C315.717 215.024 315.717 215.365 315.928 215.576C316.138 215.786 316.48 215.786 316.69 215.576C316.829 215.437 316.971 215.34 317.174 215.272L319.264 217.362C319.195 217.563 319.105 217.736 318.978 217.863C318.767 218.074 318.767 218.415 318.978 218.626C319.188 218.836 319.53 218.836 319.74 218.626C320.316 218.05 320.479 217.124 320.508 216.08C320.512 215.936 320.457 215.796 320.357 215.693C320.256 215.59 320.118 215.531 319.974 215.531H319.913C319.65 215.531 319.436 215.743 319.433 216.006L318.56 215.133C318.808 215.131 319.09 215.131 319.418 215.135L320.497 215.15C321.838 215.17 323.823 215.297 325.079 214.041C325.959 213.161 326.174 211.642 326.199 210.398C326.205 210.096 325.963 209.846 325.661 209.846C325.369 209.846 325.128 210.078 325.124 210.37C325.121 210.595 325.109 211.099 325.081 211.36C324.52 210.799 323.861 210.139 323.197 209.476C323.845 209.409 324.521 209.433 325.109 209.443L326.189 209.458C328.074 209.475 328.975 209.391 329.666 208.7C329.876 208.49 329.876 208.149 329.666 207.938ZM324.778 212.582C324.657 212.856 324.505 213.09 324.316 213.279C324.121 213.474 323.888 213.615 323.637 213.728L320.823 210.915C320.937 210.659 321.082 210.429 321.274 210.237C321.475 210.037 321.715 209.892 321.973 209.777C322.911 210.715 323.991 211.796 324.778 212.582Z" fill="#9A9A9A"/>
</g>
<path opacity="0.5" d="M313.505 237.189C313.505 236.782 313.399 236.476 313.189 236.27C312.983 236.059 312.606 235.842 312.057 235.618C311.055 235.238 310.334 234.794 309.895 234.287C309.456 233.774 309.236 233.17 309.236 232.475C309.236 231.633 309.534 230.958 310.128 230.451C310.728 229.938 311.487 229.682 312.407 229.682C313.02 229.682 313.566 229.812 314.047 230.073C314.527 230.329 314.895 230.693 315.151 231.164C315.412 231.635 315.543 232.171 315.543 232.77H313.532C313.532 232.303 313.431 231.949 313.23 231.706C313.033 231.459 312.747 231.336 312.372 231.336C312.02 231.336 311.745 231.441 311.549 231.651C311.352 231.857 311.254 232.136 311.254 232.489C311.254 232.763 311.363 233.013 311.583 233.237C311.803 233.456 312.192 233.685 312.75 233.923C313.724 234.275 314.431 234.708 314.87 235.22C315.314 235.732 315.536 236.384 315.536 237.176C315.536 238.045 315.259 238.724 314.705 239.214C314.152 239.703 313.399 239.948 312.448 239.948C311.803 239.948 311.215 239.815 310.684 239.55C310.153 239.285 309.737 238.905 309.435 238.411C309.138 237.917 308.989 237.333 308.989 236.661H311.014C311.014 237.237 311.126 237.656 311.35 237.917C311.574 238.178 311.94 238.308 312.448 238.308C313.152 238.308 313.505 237.935 313.505 237.189ZM318.981 239.811H316.963V229.819H318.981V239.811ZM327.662 239.811H325.644L322.693 233.257V239.811H320.676V229.819H322.693L325.651 236.38V229.819H327.662V239.811ZM336.287 239.811H334.277V235.536H331.299V239.811H329.281V229.819H331.299V233.861H334.277V229.819H336.287V239.811Z" fill="#535353"/>
<rect x="364.519" y="191.115" width="67.6351" height="65.8784" rx="17.1284" fill="url(#paint4_linear)" stroke="#EDEDED" stroke-width="0.878378"/>
<g clip-path="url(#clip3)">
<path d="M403.137 215.223V206.436C403.137 205.495 402.371 204.73 401.43 204.73H393.469C392.528 204.73 391.763 205.495 391.763 206.436V208.291H394.352V217.077C394.352 218.018 395.118 218.784 396.059 218.784H403.205C404.146 218.784 404.911 218.018 404.911 217.077V215.223H403.137ZM394.352 207.467H392.586V206.436C392.586 205.949 392.982 205.553 393.469 205.553C393.956 205.553 394.352 205.949 394.352 206.436V207.467ZM396.942 217.077C396.942 217.564 396.546 217.96 396.059 217.96C395.572 217.96 395.176 217.564 395.176 217.077V206.436C395.176 206.113 395.086 205.811 394.929 205.553H401.43C401.917 205.553 402.314 205.949 402.314 206.436V215.223H396.942V217.077ZM404.088 217.077C404.088 217.564 403.692 217.96 403.205 217.96H397.519C397.675 217.702 397.766 217.4 397.766 217.077V216.046H404.088V217.077Z" fill="#9A9A9A"/>
<path d="M396.411 206.764H398.745V207.587H396.411V206.764Z" fill="#9A9A9A"/>
<path d="M400.255 206.764H401.078V207.587H400.255V206.764Z" fill="#9A9A9A"/>
<path d="M396.411 208.37H401.078V209.194H396.411V208.37Z" fill="#9A9A9A"/>
<path d="M396.411 209.976H401.078V210.8H396.411V209.976Z" fill="#9A9A9A"/>
<path d="M396.411 211.582H401.078V212.406H396.411V211.582Z" fill="#9A9A9A"/>
<path d="M396.411 213.189H401.078V214.012H396.411V213.189Z" fill="#9A9A9A"/>
</g>
<path opacity="0.5" d="M395.167 237.189C395.167 236.782 395.062 236.476 394.851 236.27C394.645 236.059 394.268 235.842 393.719 235.618C392.717 235.238 391.996 234.794 391.557 234.287C391.118 233.774 390.898 233.17 390.898 232.475C390.898 231.633 391.196 230.958 391.79 230.451C392.39 229.938 393.149 229.682 394.069 229.682C394.682 229.682 395.229 229.812 395.709 230.073C396.189 230.329 396.558 230.693 396.814 231.164C397.074 231.635 397.205 232.171 397.205 232.77H395.194C395.194 232.303 395.094 231.949 394.892 231.706C394.696 231.459 394.41 231.336 394.034 231.336C393.682 231.336 393.408 231.441 393.211 231.651C393.014 231.857 392.916 232.136 392.916 232.489C392.916 232.763 393.026 233.013 393.245 233.237C393.465 233.456 393.854 233.685 394.412 233.923C395.386 234.275 396.093 234.708 396.532 235.22C396.976 235.732 397.198 236.384 397.198 237.176C397.198 238.045 396.921 238.724 396.368 239.214C395.814 239.703 395.062 239.948 394.11 239.948C393.465 239.948 392.877 239.815 392.346 239.55C391.816 239.285 391.399 238.905 391.097 238.411C390.8 237.917 390.651 237.333 390.651 236.661H392.676C392.676 237.237 392.788 237.656 393.012 237.917C393.236 238.178 393.602 238.308 394.11 238.308C394.814 238.308 395.167 237.935 395.167 237.189ZM405.035 229.819V231.377C405.318 231.345 405.536 231.265 405.687 231.137C405.838 231.004 405.947 230.812 406.016 230.56C406.085 230.309 406.119 229.876 406.119 229.263H407.382C407.382 230.361 407.196 231.16 406.826 231.658C406.455 232.157 405.858 232.427 405.035 232.468V236.448C405.026 237.537 404.728 238.393 404.143 239.015C403.557 239.637 402.761 239.948 401.755 239.948C400.739 239.948 399.936 239.639 399.346 239.022C398.76 238.399 398.463 237.544 398.454 236.455V229.819H400.485V236.544C400.513 237.697 400.936 238.274 401.755 238.274C402.569 238.274 402.99 237.697 403.017 236.544V229.819H405.035ZM401.336 228.927L401.226 228.008C401.487 227.989 401.675 227.948 401.789 227.884C401.903 227.815 401.96 227.708 401.96 227.562C401.96 227.379 401.896 227.255 401.768 227.191C401.645 227.127 401.471 227.095 401.247 227.095L401.288 226.155C402.057 226.155 402.631 226.276 403.01 226.518C403.395 226.756 403.587 227.081 403.587 227.493C403.587 227.749 403.516 227.966 403.374 228.145C403.237 228.319 403.038 228.431 402.777 228.481V228.927H401.336Z" fill="#535353"/>
<rect x="123.844" y="191.115" width="67.6351" height="65.8784" rx="17.1284" fill="url(#paint5_linear)" stroke="#EDEDED" stroke-width="0.878378"/>
<g clip-path="url(#clip4)">
<path d="M159.014 209.746C158.8 209.746 158.587 209.823 158.587 210.004V211.868L157.699 210.174C157.49 209.774 157.375 209.746 157.068 209.746C156.854 209.746 156.641 209.829 156.641 210.01V213.491C156.641 213.666 156.854 213.754 157.068 213.754C157.282 213.754 157.496 213.666 157.496 213.491V211.627L158.537 213.523C158.641 213.715 158.817 213.754 159.014 213.754C159.228 213.754 159.442 213.666 159.442 213.491V210.004C159.442 209.823 159.228 209.746 159.014 209.746Z" fill="#9A9A9A"/>
<path d="M156.01 210.492C156.174 210.492 156.268 210.317 156.268 210.114C156.268 209.938 156.191 209.746 156.01 209.746H154.058C153.872 209.746 153.686 209.834 153.686 210.01V213.491C153.686 213.666 153.872 213.754 154.058 213.754H156.01C156.191 213.754 156.268 213.562 156.268 213.386C156.268 213.184 156.174 213.008 156.01 213.008H154.541V212.076H155.363C155.544 212.076 155.621 211.901 155.621 211.753C155.621 211.577 155.527 211.418 155.363 211.418H154.541V210.492H156.01Z" fill="#9A9A9A"/>
<path d="M162.661 211.757L164.636 207.6C164.716 207.43 164.704 207.231 164.604 207.072C164.503 206.912 164.328 206.816 164.14 206.816H151.184C150.881 206.816 150.635 207.062 150.635 207.365V216.149C150.635 216.452 150.881 216.698 151.184 216.698H164.14C164.328 216.698 164.503 216.601 164.604 216.442C164.704 216.283 164.716 216.083 164.636 215.913L162.661 211.757ZM151.733 215.6V207.914H163.271L161.558 211.521C161.487 211.67 161.487 211.843 161.558 211.992L163.271 215.6H151.733Z" fill="#9A9A9A"/>
</g>
<path opacity="0.5" d="M150.416 237.766H147.664L147.129 239.811H144.994L148.117 229.819H149.963L153.106 239.811H150.951L150.416 237.766ZM148.103 236.085H149.97L149.036 232.523L148.103 236.085ZM161.032 239.811H159.014L156.063 233.257V239.811H154.046V229.819H156.063L159.021 236.38V229.819H161.032V239.811ZM169.658 239.811H167.647V235.536H164.669V239.811H162.651V229.819H164.669V233.861H167.647V229.819H169.658V239.811Z" fill="#535353"/>
<g filter="url(#filter6_d)">
<rect x="193.675" y="182.77" width="93.1081" height="90.7207" rx="23.8739" fill="#FDFDFD"/>
</g>
<path fill-rule="evenodd" clip-rule="evenodd" d="M243.411 214.534V216.194C243.411 217.952 241.986 219.377 240.228 219.377C238.47 219.377 237.045 217.952 237.045 216.194V214.534C237.045 214.379 236.99 214.21 236.86 213.986C236.776 213.843 236.667 213.685 236.502 213.467L236.446 213.395C236.336 213.251 236.096 212.938 236.007 212.818C235.108 211.604 234.657 210.52 234.657 209.032C234.657 205.955 237.151 203.461 240.228 203.461C243.304 203.461 245.798 205.955 245.798 209.032C245.798 210.552 245.341 211.677 244.45 212.89C244.355 213.018 244.117 213.328 243.976 213.511C243.921 213.583 243.88 213.636 243.869 213.65C243.689 213.89 243.577 214.06 243.504 214.207C243.439 214.341 243.411 214.444 243.411 214.534ZM241.854 214.156C241.895 213.936 241.97 213.72 242.077 213.503C242.203 213.249 242.362 213.006 242.597 212.694C242.613 212.673 242.665 212.605 242.732 212.518C242.875 212.332 243.088 212.055 243.168 211.947C243.875 210.985 244.207 210.168 244.207 209.032C244.207 206.834 242.425 205.053 240.228 205.053C238.03 205.053 236.249 206.834 236.249 209.032C236.249 210.129 236.572 210.907 237.286 211.871C237.363 211.975 237.579 212.257 237.696 212.409L237.772 212.508C237.972 212.772 238.113 212.976 238.235 213.185C238.425 213.511 238.551 213.829 238.605 214.158C239.101 214.456 239.637 214.602 240.228 214.602C240.82 214.602 241.357 214.455 241.854 214.156ZM241.819 216.194V215.925C241.316 216.104 240.784 216.194 240.228 216.194C239.671 216.194 239.14 216.104 238.636 215.925V216.194C238.636 217.073 239.349 217.785 240.228 217.785C241.107 217.785 241.819 217.073 241.819 216.194Z" fill="#5E5CE6"/>
<path d="M235.613 246.243H240.425V248.518H232.871V234.94H235.613V246.243ZM243.493 241.039L245.535 234.94H248.52L244.883 243.594V248.518H242.104V243.594L238.457 234.94H241.441L243.493 241.039ZM244.043 231.303H247.009L244.416 234.194H242.215L244.043 231.303Z" fill="#5E5CE6"/>
<defs>
<filter id="filter0_d" x="0.432432" y="0.945946" width="555.135" height="500.676" filterUnits="userSpaceOnUse" color-interpolation-filters="sRGB">
<feFlood flood-opacity="0" result="BackgroundImageFix"/>
<feColorMatrix in="SourceAlpha" type="matrix" values="0 0 0 0 0 0 0 0 0 0 0 0 0 0 0 0 0 0 127 0"/>
<feOffset dy="3.51351"/>
<feGaussianBlur stdDeviation="8.78378"/>
<feColorMatrix type="matrix" values="0 0 0 0 0.920833 0 0 0 0 0.920833 0 0 0 0 0.920833 0 0 0 0.5 0"/>
<feBlend mode="normal" in2="BackgroundImageFix" result="effect1_dropShadow"/>
<feBlend mode="normal" in="SourceGraphic" in2="effect1_dropShadow" result="shape"/>
</filter>
<filter id="filter1_d" x="156.986" y="380.216" width="243" height="96" filterUnits="userSpaceOnUse" color-interpolation-filters="sRGB">
<feFlood flood-opacity="0" result="BackgroundImageFix"/>
<feColorMatrix in="SourceAlpha" type="matrix" values="0 0 0 0 0 0 0 0 0 0 0 0 0 0 0 0 0 0 127 0"/>
<feOffset dy="4"/>
<feGaussianBlur stdDeviation="10"/>
<feColorMatrix type="matrix" values="0 0 0 0 0.341176 0 0 0 0 0.447059 0 0 0 0 0.968627 0 0 0 0.5 0"/>
<feBlend mode="normal" in2="BackgroundImageFix" result="effect1_dropShadow"/>
<feBlend mode="normal" in="SourceGraphic" in2="effect1_dropShadow" result="shape"/>
</filter>
<filter id="filter2_d" x="400.096" y="317.162" width="79.1351" height="70.1351" filterUnits="userSpaceOnUse" color-interpolation-filters="sRGB">
<feFlood flood-opacity="0" result="BackgroundImageFix"/>
<feColorMatrix in="SourceAlpha" type="matrix" values="0 0 0 0 0 0 0 0 0 0 0 0 0 0 0 0 0 0 127 0"/>
<feOffset dy="3.51351"/>
<feGaussianBlur stdDeviation="8.78378"/>
<feColorMatrix type="matrix" values="0 0 0 0 0.368627 0 0 0 0 0.360784 0 0 0 0 0.901961 0 0 0 0.3 0"/>
<feBlend mode="normal" in2="BackgroundImageFix" result="effect1_dropShadow"/>
<feBlend mode="normal" in="SourceGraphic" in2="effect1_dropShadow" result="shape"/>
</filter>
<filter id="filter3_d" x="32.9324" y="317.162" width="109.135" height="70.1351" filterUnits="userSpaceOnUse" color-interpolation-filters="sRGB">
<feFlood flood-opacity="0" result="BackgroundImageFix"/>
<feColorMatrix in="SourceAlpha" type="matrix" values="0 0 0 0 0 0 0 0 0 0 0 0 0 0 0 0 0 0 127 0"/>
<feOffset dy="3.51351"/>
<feGaussianBlur stdDeviation="8.78378"/>
<feColorMatrix type="matrix" values="0 0 0 0 0.203922 0 0 0 0 0.780392 0 0 0 0 0.34902 0 0 0 0.3 0"/>
<feBlend mode="normal" in2="BackgroundImageFix" result="effect1_dropShadow"/>
<feBlend mode="normal" in="SourceGraphic" in2="effect1_dropShadow" result="shape"/>
</filter>
<filter id="filter4_d" x="169.081" y="57.1622" width="84.1351" height="77.1351" filterUnits="userSpaceOnUse" color-interpolation-filters="sRGB">
<feFlood flood-opacity="0" result="BackgroundImageFix"/>
<feColorMatrix in="SourceAlpha" type="matrix" values="0 0 0 0 0 0 0 0 0 0 0 0 0 0 0 0 0 0 127 0"/>
<feOffset dy="3.51351"/>
<feGaussianBlur stdDeviation="8.78378"/>
<feColorMatrix type="matrix" values="0 0 0 0 0.920833 0 0 0 0 0.920833 0 0 0 0 0.920833 0 0 0 0.5 0"/>
<feBlend mode="normal" in2="BackgroundImageFix" result="effect1_dropShadow"/>
<feBlend mode="normal" in="SourceGraphic" in2="effect1_dropShadow" result="shape"/>
</filter>
<filter id="filter5_d" x="302.595" y="57.1622" width="84.1351" height="77.1351" filterUnits="userSpaceOnUse" color-interpolation-filters="sRGB">
<feFlood flood-opacity="0" result="BackgroundImageFix"/>
<feColorMatrix in="SourceAlpha" type="matrix" values="0 0 0 0 0 0 0 0 0 0 0 0 0 0 0 0 0 0 127 0"/>
<feOffset dy="3.51351"/>
<feGaussianBlur stdDeviation="8.78378"/>
<feColorMatrix type="matrix" values="0 0 0 0 0.920833 0 0 0 0 0.920833 0 0 0 0 0.920833 0 0 0 0.5 0"/>
<feBlend mode="normal" in2="BackgroundImageFix" result="effect1_dropShadow"/>
<feBlend mode="normal" in="SourceGraphic" in2="effect1_dropShadow" result="shape"/>
</filter>
<filter id="filter6_d" x="176.107" y="168.716" width="128.243" height="125.856" filterUnits="userSpaceOnUse" color-interpolation-filters="sRGB">
<feFlood flood-opacity="0" result="BackgroundImageFix"/>
<feColorMatrix in="SourceAlpha" type="matrix" values="0 0 0 0 0 0 0 0 0 0 0 0 0 0 0 0 0 0 127 0"/>
<feOffset dy="3.51351"/>
<feGaussianBlur stdDeviation="8.78378"/>
<feColorMatrix type="matrix" values="0 0 0 0 0.341176 0 0 0 0 0.447059 0 0 0 0 0.968627 0 0 0 0.5 0"/>
<feBlend mode="normal" in2="BackgroundImageFix" result="effect1_dropShadow"/>
<feBlend mode="normal" in="SourceGraphic" in2="effect1_dropShadow" result="shape"/>
</filter>
<linearGradient id="paint0_linear" x1="176.986" y1="424.216" x2="379.986" y2="424.216" gradientUnits="userSpaceOnUse">
<stop stop-color="#5B70F6"/>
<stop offset="1" stop-color="#8658F3"/>
</linearGradient>
<linearGradient id="paint1_linear" x1="82.121" y1="190.676" x2="82.121" y2="257.432" gradientUnits="userSpaceOnUse">
<stop stop-color="white"/>
<stop offset="1" stop-color="#F1F1F1"/>
</linearGradient>
<linearGradient id="paint2_linear" x1="473.878" y1="190.676" x2="473.878" y2="257.432" gradientUnits="userSpaceOnUse">
<stop stop-color="white"/>
<stop offset="1" stop-color="#F1F1F1"/>
</linearGradient>
<linearGradient id="paint3_linear" x1="322.797" y1="190.676" x2="322.797" y2="257.432" gradientUnits="userSpaceOnUse">
<stop stop-color="white"/>
<stop offset="1" stop-color="#F1F1F1"/>
</linearGradient>
<linearGradient id="paint4_linear" x1="398.337" y1="190.676" x2="398.337" y2="257.432" gradientUnits="userSpaceOnUse">
<stop stop-color="white"/>
<stop offset="1" stop-color="#F1F1F1"/>
</linearGradient>
<linearGradient id="paint5_linear" x1="157.662" y1="190.676" x2="157.662" y2="257.432" gradientUnits="userSpaceOnUse">
<stop stop-color="white"/>
<stop offset="1" stop-color="#F1F1F1"/>
</linearGradient>
<clipPath id="clip0">
<rect width="149.162" height="28.1081" fill="white" transform="translate(203.405 410.162)"/>
</clipPath>
<clipPath id="clip1">
<rect width="14.0541" height="14.0541" fill="white" transform="translate(75.0938 204.73)"/>
</clipPath>
<clipPath id="clip2">
<rect width="14.0541" height="14.0541" fill="white" transform="translate(315.77 204.73)"/>
</clipPath>
<clipPath id="clip3">
<rect width="14.0541" height="14.0541" fill="white" transform="translate(391.31 204.73)"/>
</clipPath>
<clipPath id="clip4">
<rect width="14.0541" height="14.0541" fill="white" transform="translate(150.635 204.73)"/>
</clipPath>
</defs>
</svg>
