<svg width="590" height="438" viewBox="0 0 590 438" fill="none" xmlns="http://www.w3.org/2000/svg">
<path d="M205.575 346.558C205.575 346.558 216.595 313.812 146.736 274.337C146.736 274.337 75.8019 253.672 83.0557 182.707C83.0557 182.707 1.28536 242.549 56.617 318.776C111.949 395.004 159.707 378.367 159.707 378.367L205.575 346.558Z" fill="#6C63FF"/>
<path d="M184.276 361.349C184.276 361.349 150.189 324.549 117.516 310.322C110.99 307.387 104.992 303.397 99.7661 298.512C78.936 279.498 69.8534 250.806 75.2241 223.133L83.0762 182.707" stroke="#535461" stroke-width="2.14949" stroke-miterlimit="10"/>
<path d="M487.103 22.5697H99.1191V397.657H487.103V22.5697Z" fill="url(#paint0_linear)"/>
<path d="M482.804 27.9434H103.418V390.133H482.804V27.9434Z" fill="#FDFDFD"/>
<path d="M464.516 70.0349H396.54V128.627H464.516V70.0349Z" fill="white"/>
<path d="M395.86 70.0349H327.884V128.627H395.86V70.0349Z" fill="white"/>
<path d="M380.166 129.507H463.996V202.59H380.166V129.507Z" fill="white" stroke="#D0D0D0" stroke-width="1.07475"/>
<path d="M293.111 129.507H378.016V202.59H293.111V129.507Z" fill="white" stroke="#D0D0D0" stroke-width="1.07475"/>
<path d="M208.206 129.507H290.962V202.59H208.206V129.507Z" fill="white" stroke="#D0D0D0" stroke-width="1.07475"/>
<path d="M122.226 129.507H206.057V202.59H122.226V129.507Z" fill="white" stroke="#D0D0D0" stroke-width="1.07475"/>
<path d="M380.166 204.739H463.996V275.673H380.166V204.739Z" fill="white" stroke="#D0D0D0" stroke-width="1.07475"/>
<path d="M293.111 204.739H378.016V275.673H293.111V204.739Z" fill="white" stroke="#D0D0D0" stroke-width="1.07475"/>
<path d="M208.206 204.739H290.962V275.673H208.206V204.739Z" fill="white" stroke="#D0D0D0" stroke-width="1.07475"/>
<path d="M122.226 204.739H206.057V275.673H122.226V204.739Z" fill="white" stroke="#D0D0D0" stroke-width="1.07475"/>
<path d="M130.882 218.392C133.022 218.392 134.757 216.659 134.757 214.521C134.757 212.384 133.022 210.651 130.882 210.651C128.742 210.651 127.007 212.384 127.007 214.521C127.007 216.659 128.742 218.392 130.882 218.392Z" fill="#FC6681"/>
<path d="M464.516 247.841H396.54V306.433H464.516V247.841Z" fill="white"/>
<path d="M464.156 248.181V306.093H396.852V248.181H464.156ZM464.836 247.502H396.172V306.773H464.836V247.502Z" fill="#E2E2EC"/>
<path d="M464.533 277.285H379.628V350.368H464.533V277.285Z" fill="white"/>
<path d="M293.111 277.822H378.016V349.83H293.111V277.822Z" fill="white" stroke="#D0D0D0" stroke-width="1.07475"/>
<path d="M208.206 277.822H290.962V349.83H208.206V277.822Z" fill="white" stroke="#D0D0D0" stroke-width="1.07475"/>
<path d="M122.226 277.822H206.057V349.83H122.226V277.822Z" fill="white" stroke="#D0D0D0" stroke-width="1.07475"/>
<path d="M464.516 307.105H396.54V365.697H464.516V307.105Z" fill="white"/>
<path d="M464.156 307.451V365.357H396.852V307.451H464.156ZM464.836 306.772H396.172V366.036H464.836V306.772Z" fill="#E2E2EC"/>
<path d="M264.692 391.554C266.637 390.08 268.466 388.342 269.03 386.223C269.319 385.102 269.166 383.912 268.602 382.901C268.037 381.89 267.105 381.134 265.998 380.791C263.217 379.921 260.246 381.47 257.989 383.079C255.732 384.688 253.156 386.474 250.205 386.142C253.258 383.935 254.712 380.356 253.869 377.103C253.725 376.402 253.369 375.762 252.85 375.27C251.307 373.911 248.506 374.502 246.656 375.562C240.776 378.957 239.138 385.442 239.104 391.303C238.512 389.191 239.008 386.991 238.995 384.818C238.981 382.644 238.254 380.247 236.01 379.079C234.575 378.457 233.02 378.158 231.455 378.203C228.811 378.122 225.867 378.339 224.066 379.914C221.822 381.87 222.407 385.157 224.358 387.31C226.309 389.462 229.28 390.814 232.006 392.301C234.086 393.435 236.194 394.759 237.445 396.552C237.609 396.79 237.746 397.045 237.853 397.313H254.42C258.07 395.825 261.52 393.891 264.692 391.554V391.554Z" fill="#6C63FF"/>
<path d="M406.493 262.006C408.633 262.006 410.368 260.273 410.368 258.136C410.368 255.998 408.633 254.265 406.493 254.265C404.353 254.265 402.618 255.998 402.618 258.136C402.618 260.273 404.353 262.006 406.493 262.006Z" fill="#6C63FF"/>
<path d="M416.174 262.006C418.314 262.006 420.049 260.273 420.049 258.136C420.049 255.998 418.314 254.265 416.174 254.265C414.034 254.265 412.299 255.998 412.299 258.136C412.299 260.273 414.034 262.006 416.174 262.006Z" fill="#6C63FF"/>
<path d="M425.86 262.006C428.001 262.006 429.736 260.273 429.736 258.136C429.736 255.998 428.001 254.265 425.86 254.265C423.72 254.265 421.985 255.998 421.985 258.136C421.985 260.273 423.72 262.006 425.86 262.006Z" fill="#6C63FF"/>
<path d="M435.542 262.006C437.682 262.006 439.417 260.273 439.417 258.136C439.417 255.998 437.682 254.265 435.542 254.265C433.401 254.265 431.667 255.998 431.667 258.136C431.667 260.273 433.401 262.006 435.542 262.006Z" fill="#6C63FF"/>
<path d="M139.465 94.7334H123.256V90.955L130.699 81.4901C131.644 80.1802 132.337 79.0341 132.778 78.0517C133.231 77.0567 133.458 76.1058 133.458 75.199C133.458 73.9773 133.244 73.0201 132.815 72.3274C132.4 71.6347 131.795 71.2884 131.002 71.2884C130.133 71.2884 129.44 71.6914 128.924 72.4975C128.42 73.3035 128.168 74.437 128.168 75.898H122.803C122.803 74.2103 123.149 72.6675 123.842 71.2695C124.547 69.8715 125.529 68.7883 126.789 68.02C128.061 67.2392 129.497 66.8487 131.096 66.8487C133.552 66.8487 135.454 67.5289 136.802 68.8891C138.162 70.2367 138.842 72.1574 138.842 74.6512C138.842 76.2003 138.464 77.7746 137.708 79.3742C136.965 80.9611 135.611 82.9196 133.647 85.2496L130.114 90.2938H139.465V94.7334ZM158.811 83.3604C158.811 87.164 158.118 90.0734 156.733 92.0885C155.36 94.1037 153.395 95.1112 150.838 95.1112C148.307 95.1112 146.348 94.1352 144.963 92.183C143.59 90.2182 142.878 87.4096 142.828 83.7571V78.5618C142.828 74.7708 143.514 71.874 144.887 69.8715C146.26 67.8563 148.231 66.8487 150.801 66.8487C153.37 66.8487 155.341 67.8437 156.714 69.8337C158.087 71.8236 158.786 74.6638 158.811 78.354V83.3604ZM153.445 77.7872C153.445 75.6209 153.231 73.9962 152.803 72.9131C152.375 71.8299 151.707 71.2884 150.801 71.2884C149.1 71.2884 148.219 73.272 148.156 77.2394V84.0972C148.156 86.3138 148.37 87.9637 148.798 89.0469C149.239 90.13 149.919 90.6716 150.838 90.6716C151.707 90.6716 152.35 90.1678 152.765 89.1602C153.194 88.1401 153.42 86.5846 153.445 84.4939V77.7872ZM178.61 94.7334H162.4V90.955L169.844 81.4901C170.788 80.1802 171.481 79.0341 171.922 78.0517C172.375 77.0567 172.602 76.1058 172.602 75.199C172.602 73.9773 172.388 73.0201 171.96 72.3274C171.544 71.6347 170.939 71.2884 170.146 71.2884C169.277 71.2884 168.584 71.6914 168.068 72.4975C167.564 73.3035 167.312 74.437 167.312 75.898H161.947C161.947 74.2103 162.293 72.6675 162.986 71.2695C163.691 69.8715 164.674 68.7883 165.933 68.02C167.205 67.2392 168.641 66.8487 170.24 66.8487C172.696 66.8487 174.598 67.5289 175.946 68.8891C177.306 70.2367 177.986 72.1574 177.986 74.6512C177.986 76.2003 177.608 77.7746 176.853 79.3742C176.11 80.9611 174.756 82.9196 172.791 85.2496L169.258 90.2938H178.61V94.7334ZM197.955 83.3604C197.955 87.164 197.262 90.0734 195.877 92.0885C194.504 94.1037 192.539 95.1112 189.983 95.1112C187.451 95.1112 185.493 94.1352 184.107 92.183C182.734 90.2182 182.023 87.4096 181.972 83.7571V78.5618C181.972 74.7708 182.659 71.874 184.032 69.8715C185.404 67.8563 187.376 66.8487 189.945 66.8487C192.514 66.8487 194.485 67.8437 195.858 69.8337C197.231 71.8236 197.93 74.6638 197.955 78.354V83.3604ZM192.59 77.7872C192.59 75.6209 192.376 73.9962 191.947 72.9131C191.519 71.8299 190.852 71.2884 189.945 71.2884C188.245 71.2884 187.363 73.272 187.3 77.2394V84.0972C187.3 86.3138 187.514 87.9637 187.942 89.0469C188.383 90.13 189.063 90.6716 189.983 90.6716C190.852 90.6716 191.494 90.1678 191.91 89.1602C192.338 88.1401 192.565 86.5846 192.59 84.4939V77.7872Z" fill="url(#paint1_linear)"/>
<g filter="url(#filter0_d)">
<ellipse cx="464.404" cy="307.815" rx="100.897" ry="100.389" fill="url(#paint2_linear)"/>
</g>
<path d="M393.441 279.72C393.372 281.283 392.933 282.466 392.123 283.269C391.313 284.072 390.171 284.474 388.696 284.474C387.146 284.474 385.957 283.966 385.128 282.949C384.306 281.926 383.895 280.47 383.895 278.581V276.274C383.895 274.391 384.322 272.942 385.175 271.925C386.029 270.902 387.215 270.39 388.734 270.39C390.228 270.39 391.36 270.808 392.132 271.642C392.911 272.477 393.353 273.676 393.46 275.239H390.683C390.657 274.272 390.507 273.607 390.231 273.243C389.961 272.872 389.462 272.687 388.734 272.687C387.993 272.687 387.469 272.948 387.162 273.469C386.854 273.983 386.691 274.834 386.672 276.02V278.609C386.672 279.971 386.823 280.906 387.124 281.414C387.432 281.923 387.956 282.177 388.696 282.177C389.424 282.177 389.926 282.001 390.202 281.65C390.479 281.292 390.635 280.649 390.673 279.72H393.441ZM397.611 274.994C398.189 274.272 398.898 273.911 399.739 273.911C400.668 273.911 401.374 274.238 401.857 274.89C402.34 275.543 402.585 276.516 402.592 277.809V284.286H399.918V277.837C399.918 277.241 399.824 276.811 399.635 276.547C399.453 276.277 399.155 276.142 398.741 276.142C398.258 276.142 397.881 276.365 397.611 276.811V284.286H394.947V269.825H397.611V274.994ZM407.365 284.286H404.7V274.099H407.365V284.286ZM406.593 269.967H409.586L406.969 272.885H404.747L406.593 269.967ZM412.006 274.099L412.081 275.107C412.684 274.31 413.471 273.911 414.444 273.911C416.195 273.911 417.096 275.138 417.146 277.592V284.286H414.472V277.79C414.472 277.212 414.384 276.795 414.209 276.538C414.039 276.274 413.738 276.142 413.305 276.142C412.822 276.142 412.445 276.39 412.175 276.886V284.286H409.502V274.099H412.006ZM421.655 274.994C422.233 274.272 422.942 273.911 423.783 273.911C424.712 273.911 425.418 274.238 425.901 274.89C426.384 275.543 426.629 276.516 426.635 277.809V284.286H423.962V277.837C423.962 277.241 423.868 276.811 423.679 276.547C423.497 276.277 423.199 276.142 422.785 276.142C422.302 276.142 421.925 276.365 421.655 276.811V284.286H418.991V269.825H421.655V274.994ZM436.087 271.595V274.099H437.452V276.105H436.087V281.16C436.087 281.562 436.141 281.838 436.247 281.989C436.36 282.139 436.574 282.215 436.888 282.215C437.145 282.215 437.355 282.193 437.518 282.149L437.499 284.22C437.048 284.389 436.558 284.474 436.031 284.474C434.311 284.474 433.442 283.489 433.423 281.518V276.105H432.246V274.099H433.423V271.595H436.087ZM441.519 274.994C442.097 274.272 442.806 273.911 443.647 273.911C444.576 273.911 445.282 274.238 445.765 274.89C446.248 275.543 446.493 276.516 446.499 277.809V284.286H443.826V277.837C443.826 277.241 443.732 276.811 443.543 276.547C443.361 276.277 443.063 276.142 442.649 276.142C442.166 276.142 441.789 276.365 441.519 276.811V284.286H438.855V269.825H441.519V274.994ZM458.408 273.205C458.408 274.322 458.217 275.157 457.834 275.709C457.458 276.262 456.846 276.597 455.998 276.717V284.286H453.494L453.419 283.354C452.867 284.1 452.126 284.474 451.197 284.474C450.262 284.474 449.553 284.154 449.07 283.514C448.586 282.867 448.345 281.929 448.345 280.699V274.099H451.009V280.765C451.021 281.756 451.351 282.252 451.997 282.252C452.606 282.252 453.045 281.989 453.315 281.461V274.099H455.998V275.38C456.312 275.279 456.535 275.082 456.667 274.787C456.799 274.492 456.865 273.965 456.865 273.205H458.408ZM452.713 270.014H455.707L453.089 272.932H450.868L452.713 270.014ZM462.522 282.262C463.294 282.262 463.687 281.759 463.699 280.755H466.203C466.191 281.866 465.849 282.764 465.177 283.448C464.506 284.132 463.64 284.474 462.579 284.474C461.267 284.474 460.266 284.066 459.576 283.25C458.885 282.434 458.534 281.232 458.521 279.644V278.835C458.521 277.234 458.86 276.014 459.538 275.173C460.222 274.332 461.23 273.911 462.56 273.911C463.684 273.911 464.568 274.26 465.215 274.956C465.861 275.647 466.191 276.629 466.203 277.903H463.699C463.693 277.332 463.599 276.892 463.417 276.585C463.235 276.277 462.934 276.124 462.513 276.124C462.049 276.124 461.716 276.29 461.515 276.622C461.314 276.949 461.208 277.586 461.195 278.534V279.569C461.195 280.398 461.236 280.978 461.317 281.311C461.399 281.637 461.534 281.879 461.722 282.036C461.911 282.186 462.177 282.262 462.522 282.262ZM480.089 279.513C480.089 281.113 479.813 282.34 479.261 283.194C478.715 284.047 477.899 284.474 476.813 284.474C475.985 284.474 475.32 284.138 474.817 283.467V288.202H472.153V274.099H474.62L474.714 275.031C475.222 274.285 475.916 273.911 476.794 273.911C477.88 273.911 478.696 274.307 479.242 275.097C479.794 275.888 480.077 277.099 480.089 278.731V279.513ZM477.435 278.844C477.435 277.859 477.325 277.162 477.105 276.754C476.892 276.346 476.528 276.142 476.013 276.142C475.467 276.142 475.068 276.371 474.817 276.83V281.603C475.056 282.042 475.461 282.262 476.032 282.262C476.559 282.262 476.923 282.039 477.124 281.593C477.331 281.148 477.435 280.454 477.435 279.513V278.844ZM484.298 274.994C484.875 274.272 485.584 273.911 486.425 273.911C487.354 273.911 488.06 274.238 488.543 274.89C489.027 275.543 489.271 276.516 489.278 277.809V284.286H486.604V277.837C486.604 277.241 486.51 276.811 486.322 276.547C486.14 276.277 485.841 276.142 485.427 276.142C484.944 276.142 484.567 276.365 484.298 276.811V284.286H481.633V269.825H484.298V274.994ZM496.028 284.286C495.952 284.129 495.877 283.865 495.802 283.495C495.325 284.148 494.678 284.474 493.862 284.474C493.009 284.474 492.3 284.192 491.735 283.627C491.176 283.062 490.897 282.331 490.897 281.433C490.897 280.366 491.236 279.541 491.914 278.957C492.598 278.374 493.58 278.075 494.86 278.063H495.67V277.244C495.67 276.786 495.591 276.462 495.435 276.274C495.278 276.086 495.049 275.992 494.747 275.992C494.082 275.992 493.749 276.381 493.749 277.159H491.085C491.085 276.218 491.437 275.443 492.14 274.834C492.849 274.219 493.743 273.911 494.823 273.911C495.94 273.911 496.803 274.203 497.412 274.787C498.027 275.364 498.334 276.193 498.334 277.272V282.064C498.347 282.943 498.472 283.63 498.711 284.126V284.286H496.028ZM494.455 282.384C494.75 282.384 495.002 282.324 495.209 282.205C495.416 282.086 495.569 281.945 495.67 281.781V279.663H495.03C494.578 279.663 494.22 279.808 493.957 280.096C493.699 280.385 493.571 280.771 493.571 281.254C493.571 282.007 493.866 282.384 494.455 282.384ZM495.256 269.825H498.249L495.632 272.744H493.41L495.256 269.825ZM503.361 271.595V274.099H504.726V276.105H503.361V281.16C503.361 281.562 503.415 281.838 503.521 281.989C503.634 282.139 503.848 282.215 504.162 282.215C504.419 282.215 504.629 282.193 504.792 282.149L504.773 284.22C504.322 284.389 503.832 284.474 503.305 284.474C501.585 284.474 500.716 283.489 500.697 281.518V276.105H499.52V274.099H500.697V271.595H503.361ZM513.237 274.994C513.814 274.272 514.523 273.911 515.364 273.911C516.293 273.911 516.999 274.238 517.483 274.89C517.966 275.543 518.211 276.516 518.217 277.809V284.286H515.543V277.837C515.543 277.241 515.449 276.811 515.261 276.547C515.079 276.277 514.781 276.142 514.367 276.142C513.883 276.142 513.507 276.365 513.237 276.811V284.286H510.573V269.825H513.237V274.994ZM524.967 284.286C524.892 284.129 524.816 283.865 524.741 283.495C524.264 284.148 523.618 284.474 522.802 284.474C521.948 284.474 521.239 284.192 520.674 283.627C520.115 283.062 519.836 282.331 519.836 281.433C519.836 280.366 520.175 279.541 520.853 278.957C521.537 278.374 522.519 278.075 523.8 278.063H524.609V277.244C524.609 276.786 524.531 276.462 524.374 276.274C524.217 276.086 523.988 275.992 523.687 275.992C523.021 275.992 522.689 276.381 522.689 277.159H520.024C520.024 276.218 520.376 275.443 521.079 274.834C521.788 274.219 522.682 273.911 523.762 273.911C524.879 273.911 525.742 274.203 526.351 274.787C526.966 275.364 527.273 276.193 527.273 277.272V282.064C527.286 282.943 527.412 283.63 527.65 284.126V284.286H524.967ZM523.395 282.384C523.69 282.384 523.941 282.324 524.148 282.205C524.355 282.086 524.509 281.945 524.609 281.781V279.663H523.969C523.517 279.663 523.159 279.808 522.896 280.096C522.639 280.385 522.51 280.771 522.51 281.254C522.51 282.007 522.805 282.384 523.395 282.384ZM525.014 272.744H522.764L520.166 269.825H523.15L525.014 272.744ZM531.642 274.099L531.717 275.107C532.319 274.31 533.107 273.911 534.08 273.911C535.831 273.911 536.732 275.138 536.782 277.592V284.286H534.108V277.79C534.108 277.212 534.02 276.795 533.845 276.538C533.675 276.274 533.374 276.142 532.941 276.142C532.458 276.142 532.081 276.39 531.811 276.886V284.286H529.137V274.099H531.642ZM541.291 274.994C541.869 274.272 542.578 273.911 543.419 273.911C544.348 273.911 545.054 274.238 545.537 274.89C546.02 275.543 546.265 276.516 546.271 277.809V284.286H543.598V277.837C543.598 277.241 543.504 276.811 543.315 276.547C543.133 276.277 542.835 276.142 542.421 276.142C541.938 276.142 541.561 276.365 541.291 276.811V284.286H538.627V269.825H541.291V274.994ZM431.785 303.52L433.075 297.099H435.852L433.056 307.286H430.514L427.709 297.099H430.495L431.785 303.52ZM441.792 307.286C441.717 307.129 441.642 306.865 441.566 306.495C441.089 307.148 440.443 307.474 439.627 307.474C438.774 307.474 438.064 307.192 437.499 306.627C436.941 306.062 436.662 305.331 436.662 304.433C436.662 303.366 437.001 302.541 437.678 301.957C438.362 301.374 439.345 301.075 440.625 301.063H441.435V300.244C441.435 299.786 441.356 299.462 441.199 299.274C441.042 299.086 440.813 298.992 440.512 298.992C439.847 298.992 439.514 299.381 439.514 300.159H436.85C436.85 299.218 437.201 298.443 437.904 297.834C438.613 297.219 439.508 296.911 440.587 296.911C441.704 296.911 442.567 297.203 443.176 297.787C443.791 298.364 444.099 299.193 444.099 300.272V305.064C444.111 305.943 444.237 306.63 444.475 307.126V307.286H441.792ZM440.22 305.384C440.515 305.384 440.766 305.324 440.973 305.205C441.18 305.086 441.334 304.945 441.435 304.781V302.663H440.794C440.343 302.663 439.985 302.808 439.721 303.096C439.464 303.385 439.335 303.771 439.335 304.254C439.335 305.007 439.63 305.384 440.22 305.384ZM441.839 295.744H439.589L436.991 292.825H439.975L441.839 295.744ZM445.718 301.863C445.718 300.319 446.082 299.108 446.81 298.229C447.538 297.351 448.545 296.911 449.832 296.911C451.131 296.911 452.145 297.351 452.873 298.229C453.601 299.108 453.965 300.325 453.965 301.882V302.531C453.965 304.082 453.604 305.293 452.882 306.165C452.161 307.038 451.15 307.474 449.851 307.474C448.545 307.474 447.529 307.038 446.801 306.165C446.079 305.287 445.718 304.069 445.718 302.513V301.863ZM448.392 302.531C448.392 304.352 448.878 305.262 449.851 305.262C450.748 305.262 451.232 304.502 451.301 302.983L451.31 301.863C451.31 300.934 451.181 300.247 450.924 299.801C450.667 299.349 450.303 299.124 449.832 299.124C449.38 299.124 449.026 299.349 448.768 299.801C448.517 300.247 448.392 300.934 448.392 301.863V302.531ZM463.172 294.595V297.099H464.537V299.105H463.172V304.16C463.172 304.562 463.225 304.838 463.332 304.989C463.445 305.139 463.658 305.215 463.972 305.215C464.23 305.215 464.44 305.193 464.603 305.149L464.584 307.22C464.132 307.389 463.643 307.474 463.116 307.474C461.396 307.474 460.527 306.489 460.508 304.518V299.105H459.331V297.099H460.508V294.595H463.172ZM468.604 297.994C469.181 297.272 469.891 296.911 470.732 296.911C471.661 296.911 472.367 297.238 472.85 297.89C473.333 298.543 473.578 299.516 473.584 300.809V307.286H470.911V300.837C470.911 300.241 470.816 299.811 470.628 299.547C470.446 299.277 470.148 299.142 469.734 299.142C469.25 299.142 468.874 299.365 468.604 299.811V307.286H465.94V292.825H468.604V297.994ZM480.334 307.286C480.259 307.129 480.184 306.865 480.108 306.495C479.631 307.148 478.985 307.474 478.169 307.474C477.315 307.474 476.606 307.192 476.041 306.627C475.483 306.062 475.203 305.331 475.203 304.433C475.203 303.366 475.542 302.541 476.22 301.957C476.904 301.374 477.886 301.075 479.167 301.063H479.976V300.244C479.976 299.786 479.898 299.462 479.741 299.274C479.584 299.086 479.355 298.992 479.054 298.992C478.389 298.992 478.056 299.381 478.056 300.159H475.392C475.392 299.218 475.743 298.443 476.446 297.834C477.155 297.219 478.05 296.911 479.129 296.911C480.246 296.911 481.109 297.203 481.718 297.787C482.333 298.364 482.641 299.193 482.641 300.272V305.064C482.653 305.943 482.779 306.63 483.017 307.126V307.286H480.334ZM478.762 305.384C479.057 305.384 479.308 305.324 479.515 305.205C479.722 305.086 479.876 304.945 479.976 304.781V302.663H479.336C478.884 302.663 478.527 302.808 478.263 303.096C478.006 303.385 477.877 303.771 477.877 304.254C477.877 305.007 478.172 305.384 478.762 305.384ZM479.562 292.825H482.556L479.939 295.744H477.717L479.562 292.825ZM487.009 297.099L487.084 298.107C487.687 297.31 488.474 296.911 489.447 296.911C491.198 296.911 492.099 298.138 492.149 300.592V307.286H489.475V300.79C489.475 300.212 489.387 299.795 489.212 299.538C489.042 299.274 488.741 299.142 488.308 299.142C487.825 299.142 487.448 299.39 487.178 299.886V307.286H484.505V297.099H487.009ZM493.74 301.882C493.74 300.212 494.041 298.967 494.644 298.144C495.246 297.322 496.09 296.911 497.176 296.911C498.099 296.911 498.811 297.275 499.313 298.003L499.417 297.099H501.817V307.286C501.817 308.585 501.453 309.576 500.725 310.261C499.997 310.951 498.952 311.296 497.59 311.296C497.032 311.296 496.445 311.183 495.83 310.957C495.215 310.738 494.757 310.455 494.455 310.11L495.35 308.265C495.601 308.528 495.927 308.742 496.329 308.905C496.731 309.074 497.11 309.159 497.468 309.159C498.064 309.159 498.491 309.015 498.748 308.726C499.012 308.444 499.147 307.985 499.153 307.352V306.476C498.645 307.141 497.983 307.474 497.167 307.474C496.081 307.474 495.24 307.053 494.644 306.212C494.054 305.365 493.753 304.173 493.74 302.635V301.882ZM496.404 302.55C496.404 303.492 496.527 304.179 496.771 304.612C497.016 305.039 497.405 305.252 497.939 305.252C498.485 305.252 498.89 305.054 499.153 304.659V299.792C498.877 299.359 498.478 299.142 497.958 299.142C497.43 299.142 497.038 299.359 496.781 299.792C496.53 300.225 496.404 300.922 496.404 301.882V302.55ZM426.323 335.808C426.323 338.978 425.746 341.402 424.591 343.082C423.447 344.761 421.81 345.601 419.679 345.601C417.569 345.601 415.937 344.787 414.783 343.16C413.639 341.523 413.046 339.182 413.004 336.139V331.809C413.004 328.65 413.576 326.236 414.72 324.567C415.864 322.888 417.506 322.048 419.648 322.048C421.789 322.048 423.431 322.878 424.575 324.536C425.719 326.194 426.302 328.561 426.323 331.636V335.808ZM421.852 331.164C421.852 329.359 421.673 328.005 421.316 327.102C420.96 326.199 420.403 325.748 419.648 325.748C418.231 325.748 417.496 327.401 417.444 330.707V336.422C417.444 338.269 417.622 339.644 417.979 340.547C418.346 341.45 418.913 341.901 419.679 341.901C420.403 341.901 420.939 341.481 421.285 340.641C421.642 339.791 421.831 338.495 421.852 336.753V331.164ZM439.941 322.127V325.906H439.689C438.02 325.916 436.692 326.42 435.706 327.417C434.73 328.404 434.137 329.789 433.927 331.573C434.882 330.482 436.078 329.936 437.516 329.936C439.175 329.936 440.497 330.644 441.484 332.061C442.481 333.478 442.979 335.367 442.979 337.729C442.979 339.23 442.696 340.584 442.129 341.791C441.562 342.998 440.765 343.937 439.736 344.609C438.718 345.27 437.564 345.601 436.273 345.601C434.194 345.601 432.526 344.766 431.266 343.097C430.017 341.429 429.393 339.182 429.393 336.359V334.706C429.393 332.177 429.786 329.962 430.573 328.062C431.371 326.163 432.515 324.704 434.006 323.686C435.506 322.657 437.254 322.138 439.248 322.127H439.941ZM436.115 333.62C435.548 333.62 435.071 333.798 434.683 334.155C434.305 334.512 434.021 334.953 433.832 335.478V337.083C433.832 338.7 434.048 339.907 434.478 340.704C434.908 341.502 435.475 341.901 436.178 341.901C436.892 341.901 437.464 341.518 437.894 340.752C438.324 339.975 438.54 338.983 438.54 337.776C438.54 336.548 438.314 335.551 437.863 334.785C437.422 334.008 436.839 333.62 436.115 333.62ZM446.112 343.019C446.112 342.305 446.348 341.717 446.821 341.255C447.303 340.794 447.928 340.563 448.694 340.563C449.439 340.563 450.059 340.794 450.552 341.255C451.045 341.707 451.292 342.294 451.292 343.019C451.292 343.753 451.04 344.346 450.536 344.798C450.043 345.238 449.429 345.459 448.694 345.459C447.949 345.459 447.33 345.233 446.836 344.782C446.354 344.331 446.112 343.743 446.112 343.019ZM468.515 345.286H455.007V342.137L461.21 334.25C461.997 333.158 462.575 332.203 462.942 331.384C463.32 330.555 463.509 329.763 463.509 329.007C463.509 327.989 463.33 327.191 462.973 326.614C462.627 326.037 462.123 325.748 461.462 325.748C460.738 325.748 460.161 326.084 459.73 326.756C459.31 327.427 459.1 328.372 459.1 329.59H454.629C454.629 328.183 454.918 326.897 455.495 325.732C456.083 324.567 456.902 323.665 457.951 323.025C459.011 322.374 460.208 322.048 461.541 322.048C463.587 322.048 465.172 322.615 466.295 323.749C467.429 324.872 467.995 326.472 467.995 328.55C467.995 329.841 467.681 331.153 467.051 332.486C466.432 333.809 465.303 335.441 463.666 337.382L460.722 341.586H468.515V345.286ZM484.636 335.808C484.636 338.978 484.059 341.402 482.904 343.082C481.76 344.761 480.123 345.601 477.993 345.601C475.883 345.601 474.251 344.787 473.096 343.16C471.952 341.523 471.359 339.182 471.317 336.139V331.809C471.317 328.65 471.889 326.236 473.033 324.567C474.177 322.888 475.82 322.048 477.961 322.048C480.102 322.048 481.745 322.878 482.889 324.536C484.033 326.194 484.615 328.561 484.636 331.636V335.808ZM480.165 331.164C480.165 329.359 479.987 328.005 479.63 327.102C479.273 326.199 478.717 325.748 477.961 325.748C476.544 325.748 475.809 327.401 475.757 330.707V336.422C475.757 338.269 475.935 339.644 476.292 340.547C476.66 341.45 477.226 341.901 477.993 341.901C478.717 341.901 479.252 341.481 479.598 340.641C479.955 339.791 480.144 338.495 480.165 336.753V331.164ZM501.135 345.286H487.627V342.137L493.83 334.25C494.618 333.158 495.195 332.203 495.562 331.384C495.94 330.555 496.129 329.763 496.129 329.007C496.129 327.989 495.95 327.191 495.594 326.614C495.247 326.037 494.743 325.748 494.082 325.748C493.358 325.748 492.781 326.084 492.35 326.756C491.931 327.427 491.721 328.372 491.721 329.59H487.25C487.25 328.183 487.538 326.897 488.116 325.732C488.703 324.567 489.522 323.665 490.571 323.025C491.632 322.374 492.828 322.048 494.161 322.048C496.208 322.048 497.792 322.615 498.915 323.749C500.049 324.872 500.616 326.472 500.616 328.55C500.616 329.841 500.301 331.153 499.671 332.486C499.052 333.809 497.924 335.441 496.286 337.382L493.342 341.586H501.135V345.286ZM517.256 335.808C517.256 338.978 516.679 341.402 515.525 343.082C514.381 344.761 512.743 345.601 510.613 345.601C508.503 345.601 506.871 344.787 505.717 343.16C504.573 341.523 503.98 339.182 503.938 336.139V331.809C503.938 328.65 504.51 326.236 505.654 324.567C506.798 322.888 508.44 322.048 510.581 322.048C512.722 322.048 514.365 322.878 515.509 324.536C516.653 326.194 517.235 328.561 517.256 331.636V335.808ZM512.785 331.164C512.785 329.359 512.607 328.005 512.25 327.102C511.893 326.199 511.337 325.748 510.581 325.748C509.164 325.748 508.43 327.401 508.377 330.707V336.422C508.377 338.269 508.556 339.644 508.913 340.547C509.28 341.45 509.847 341.901 510.613 341.901C511.337 341.901 511.872 341.481 512.219 340.641C512.575 339.791 512.764 338.495 512.785 336.753V331.164Z" fill="#FDFDFD"/>
<g filter="url(#filter1_d)">
<ellipse cx="215.791" cy="206.945" rx="30.6923" ry="30.6859" fill="url(#paint3_linear)"/>
<path d="M244.334 206.944C244.334 222.704 231.555 235.481 215.791 235.481C200.027 235.481 187.248 222.704 187.248 206.944C187.248 191.185 200.027 178.408 215.791 178.408C231.555 178.408 244.334 191.185 244.334 206.944Z" stroke="url(#paint4_linear)" stroke-width="4.29899"/>
</g>
<path d="M215.448 207.61C215.448 210.146 214.986 212.085 214.063 213.429C213.147 214.772 211.838 215.444 210.133 215.444C208.445 215.444 207.14 214.793 206.216 213.492C205.301 212.182 204.827 210.309 204.793 207.874V204.411C204.793 201.883 205.251 199.952 206.166 198.617C207.081 197.274 208.395 196.602 210.108 196.602C211.821 196.602 213.135 197.265 214.05 198.592C214.965 199.919 215.431 201.812 215.448 204.272V207.61ZM211.871 203.894C211.871 202.45 211.728 201.367 211.443 200.645C211.157 199.923 210.712 199.562 210.108 199.562C208.974 199.562 208.387 200.884 208.345 203.529V208.101C208.345 209.579 208.487 210.679 208.773 211.401C209.067 212.123 209.52 212.484 210.133 212.484C210.712 212.484 211.141 212.148 211.418 211.476C211.703 210.796 211.854 209.759 211.871 208.366V203.894ZM226.342 196.665V199.688H226.141C224.806 199.696 223.744 200.099 222.954 200.897C222.174 201.686 221.699 202.795 221.531 204.222C222.295 203.349 223.253 202.912 224.403 202.912C225.73 202.912 226.787 203.479 227.577 204.612C228.374 205.746 228.773 207.257 228.773 209.146C228.773 210.347 228.547 211.43 228.093 212.396C227.64 213.361 227.002 214.113 226.179 214.65C225.364 215.179 224.441 215.444 223.408 215.444C221.745 215.444 220.41 214.776 219.403 213.441C218.404 212.106 217.904 210.309 217.904 208.051V206.728C217.904 204.705 218.219 202.933 218.849 201.413C219.487 199.894 220.402 198.726 221.594 197.912C222.795 197.089 224.193 196.673 225.788 196.665H226.342ZM223.282 205.859C222.829 205.859 222.447 206.002 222.136 206.287C221.834 206.573 221.607 206.926 221.456 207.345V208.63C221.456 209.923 221.628 210.889 221.972 211.527C222.316 212.165 222.77 212.484 223.332 212.484C223.903 212.484 224.361 212.178 224.705 211.565C225.049 210.943 225.222 210.15 225.222 209.184C225.222 208.202 225.041 207.404 224.68 206.791C224.327 206.17 223.861 205.859 223.282 205.859Z" fill="url(#paint5_linear)"/>
<path d="M133.087 144.235C135.227 144.235 136.962 142.502 136.962 140.364C136.962 138.226 135.227 136.493 133.087 136.493C130.947 136.493 129.212 138.226 129.212 140.364C129.212 142.502 130.947 144.235 133.087 144.235Z" fill="#FC6681"/>
<path d="M142.767 144.235C144.907 144.235 146.642 142.502 146.642 140.364C146.642 138.226 144.907 136.493 142.767 136.493C140.627 136.493 138.892 138.226 138.892 140.364C138.892 142.502 140.627 144.235 142.767 144.235Z" fill="#FFD037"/>
<path d="M392.101 144.235C394.241 144.235 395.976 142.502 395.976 140.364C395.976 138.226 394.241 136.493 392.101 136.493C389.961 136.493 388.226 138.226 388.226 140.364C388.226 142.502 389.961 144.235 392.101 144.235Z" fill="#6C63FF"/>
<path d="M401.783 144.235C403.923 144.235 405.658 142.502 405.658 140.364C405.658 138.226 403.923 136.493 401.783 136.493C399.642 136.493 397.907 138.226 397.907 140.364C397.907 142.502 399.642 144.235 401.783 144.235Z" fill="#6C63FF"/>
<path d="M411.469 144.235C413.609 144.235 415.344 142.502 415.344 140.364C415.344 138.226 413.609 136.493 411.469 136.493C409.329 136.493 407.594 138.226 407.594 140.364C407.594 142.502 409.329 144.235 411.469 144.235Z" fill="#6C63FF"/>
<path d="M421.15 144.235C423.29 144.235 425.025 142.502 425.025 140.364C425.025 138.226 423.29 136.493 421.15 136.493C419.01 136.493 417.275 138.226 417.275 140.364C417.275 142.502 419.01 144.235 421.15 144.235Z" fill="#6C63FF"/>
<path d="M302.897 217.317C305.037 217.317 306.772 215.584 306.772 213.447C306.772 211.309 305.037 209.576 302.897 209.576C300.757 209.576 299.022 211.309 299.022 213.447C299.022 215.584 300.757 217.317 302.897 217.317Z" fill="#6C63FF"/>
<path d="M312.585 217.317C314.725 217.317 316.46 215.584 316.46 213.447C316.46 211.309 314.725 209.576 312.585 209.576C310.445 209.576 308.71 211.309 308.71 213.447C308.71 215.584 310.445 217.317 312.585 217.317Z" fill="#6C63FF"/>
<defs>
<filter id="filter0_d" x="339.407" y="188.146" width="249.994" height="248.979" filterUnits="userSpaceOnUse" color-interpolation-filters="sRGB">
<feFlood flood-opacity="0" result="BackgroundImageFix"/>
<feColorMatrix in="SourceAlpha" type="matrix" values="0 0 0 0 0 0 0 0 0 0 0 0 0 0 0 0 0 0 127 0"/>
<feOffset dy="4.82008"/>
<feGaussianBlur stdDeviation="12.0502"/>
<feColorMatrix type="matrix" values="0 0 0 0 0.341176 0 0 0 0 0.447059 0 0 0 0 0.968627 0 0 0 0.5 0"/>
<feBlend mode="normal" in2="BackgroundImageFix" result="effect1_dropShadow"/>
<feBlend mode="normal" in="SourceGraphic" in2="effect1_dropShadow" result="shape"/>
</filter>
<filter id="filter1_d" x="160.998" y="156.978" width="109.585" height="109.573" filterUnits="userSpaceOnUse" color-interpolation-filters="sRGB">
<feFlood flood-opacity="0" result="BackgroundImageFix"/>
<feColorMatrix in="SourceAlpha" type="matrix" values="0 0 0 0 0 0 0 0 0 0 0 0 0 0 0 0 0 0 127 0"/>
<feOffset dy="4.82008"/>
<feGaussianBlur stdDeviation="12.0502"/>
<feColorMatrix type="matrix" values="0 0 0 0 0.341176 0 0 0 0 0.447059 0 0 0 0 0.968627 0 0 0 0.5 0"/>
<feBlend mode="normal" in2="BackgroundImageFix" result="effect1_dropShadow"/>
<feBlend mode="normal" in="SourceGraphic" in2="effect1_dropShadow" result="shape"/>
</filter>
<linearGradient id="paint0_linear" x1="293.114" y1="397.651" x2="293.114" y2="22.5697" gradientUnits="userSpaceOnUse">
<stop stop-color="#808080" stop-opacity="0.25"/>
<stop offset="0.54" stop-color="#808080" stop-opacity="0.12"/>
<stop offset="1" stop-color="#808080" stop-opacity="0.1"/>
</linearGradient>
<linearGradient id="paint1_linear" x1="121.461" y1="81.8288" x2="353.359" y2="81.8288" gradientUnits="userSpaceOnUse">
<stop stop-color="#5B70F6"/>
<stop offset="1" stop-color="#8658F3"/>
</linearGradient>
<linearGradient id="paint2_linear" x1="363.507" y1="307.815" x2="565.3" y2="307.815" gradientUnits="userSpaceOnUse">
<stop stop-color="#F8B02E"/>
<stop offset="1" stop-color="#F08A41"/>
</linearGradient>
<linearGradient id="paint3_linear" x1="215.791" y1="176.259" x2="215.791" y2="237.63" gradientUnits="userSpaceOnUse">
<stop stop-color="white"/>
<stop offset="1" stop-color="#E5E4FB"/>
</linearGradient>
<linearGradient id="paint4_linear" x1="185.099" y1="206.945" x2="246.483" y2="206.945" gradientUnits="userSpaceOnUse">
<stop stop-color="#5B70F6"/>
<stop offset="1" stop-color="#8658F3"/>
</linearGradient>
<linearGradient id="paint5_linear" x1="200.446" y1="206.092" x2="232.843" y2="206.092" gradientUnits="userSpaceOnUse">
<stop stop-color="#5B70F6"/>
<stop offset="1" stop-color="#8658F3"/>
</linearGradient>
</defs>
</svg>
