<svg width="981" height="720" viewBox="0 0 981 720" fill="none" xmlns="http://www.w3.org/2000/svg">
<g style="mix-blend-mode:color-burn" opacity="0.8">
<path d="M1317.65 -31.4401L740.791 -33L5.20241 -31.4401C5.20241 1.22813 -3.52965 0.693314 1.63197 33.3616C14.5554 98.7426 66.3268 92.7706 110.298 113.584C213.802 155.166 162.03 250.273 169.792 342.351C174.954 398.818 195.678 446.328 247.41 461.213C296.582 473.113 325.029 472.89 361.238 526.371C425.933 615.507 353.476 746.448 480.265 805.901C516.474 823.728 560.484 811.829 599.293 820.742C644.118 825.645 685.411 848.731 726.121 870.034V873.466C730.649 876.14 735.242 878.577 739.899 880.775C744.225 883.648 748.756 886.093 753.443 888.084H753.754C753.754 887.594 753.754 887.059 753.754 886.524C815.848 909.611 883.803 892.497 912.444 813.166C935.73 744.086 974.539 695.061 1044.4 717.345C1075.44 728.487 1096.79 741.857 1131.72 724.03C1168.58 703.974 1187.99 654.95 1195.75 610.382C1203.51 563.586 1205.45 510.104 1248.14 485.592C1271.43 474.45 1308.41 491.92 1318 458.851L1317.65 -31.4401Z" fill="url(#paint0_linear)"/>
</g>
<defs>
<linearGradient id="paint0_linear" x1="658.982" y1="896.107" x2="658.982" y2="-33" gradientUnits="userSpaceOnUse">
<stop stop-color="#645CA7"/>
<stop offset="0.16" stop-color="#685DA7"/>
<stop offset="0.33" stop-color="#7460A8"/>
<stop offset="0.51" stop-color="#8965A9"/>
<stop offset="0.68" stop-color="#A66CAB"/>
<stop offset="0.85" stop-color="#CB75AE"/>
<stop offset="1" stop-color="#F17FB0"/>
</linearGradient>
</defs>
</svg>
