<svg width="1061" height="884" viewBox="0 0 1061 884" fill="none" xmlns="http://www.w3.org/2000/svg">
<g style="mix-blend-mode:color-burn" opacity="0.5">
<path d="M740.791 -33L1317.65 -31.4401L1318 458.851C1308.41 491.921 1271.43 474.45 1248.14 485.592C1205.45 510.104 1203.51 563.586 1195.75 610.382C1187.99 654.95 1168.58 703.974 1131.72 724.03C1096.79 741.857 1075.44 728.487 1044.4 717.345C974.539 695.061 935.73 744.086 912.444 813.166C883.803 892.497 788.216 893.121 726.121 870.034C685.411 848.731 644.118 825.645 599.293 820.742C560.484 811.829 516.474 823.728 480.265 805.901C353.476 746.448 425.933 615.507 361.238 526.371C325.029 472.89 296.582 473.113 247.41 461.213C195.678 446.328 174.954 398.818 169.792 342.351C162.03 250.273 213.802 155.166 110.298 113.584C66.3268 92.7706 14.5554 98.7426 1.63197 33.3616C-3.52965 0.693317 5.20241 1.22812 5.20241 -31.4401L740.791 -33Z" fill="url(#paint0_linear)"/>
</g>
<defs>
<linearGradient id="paint0_linear" x1="658.982" y1="883.313" x2="658.982" y2="-65.135" gradientUnits="userSpaceOnUse">
<stop stop-color="#645CA7"/>
<stop offset="0.16" stop-color="#685DA7"/>
<stop offset="0.33" stop-color="#7460A8"/>
<stop offset="0.51" stop-color="#8965A9"/>
<stop offset="0.68" stop-color="#A66CAB"/>
<stop offset="0.85" stop-color="#CB75AE"/>
<stop offset="1" stop-color="#F17FB0"/>
</linearGradient>
</defs>
</svg>
