<svg width="455" height="100" viewBox="0 0 455 100" fill="none" xmlns="http://www.w3.org/2000/svg">
<g opacity="0.5" clip-path="url(#clip0)">
<path d="M204.153 99L203 89L212 91.5592L204.153 99Z" fill="#39BBB3"/>
<path d="M404 67L408.34 57L415 64.5327L404 67Z" fill="url(#paint0_linear)"/>
<path d="M395.974 87.7208L388.213 88.8184L389.31 96.5812L397.072 95.4837L395.974 87.7208Z" fill="#FF9400"/>
<path d="M314.504 5C314.917 7.20535 316.881 8.70406 319 8.44004C317.132 9.53495 316.386 11.9577 317.28 14C315.715 12.4702 313.285 12.4702 311.72 14C312.621 11.9577 311.868 9.53495 310 8.44004C312.134 8.70406 314.09 7.21312 314.504 5Z" fill="#75B0FC"/>
<path d="M281.648 88C282.504 89.6567 284.395 90.3123 285.976 89.5061C284.794 90.9059 284.802 93.0587 286 94.4496C284.411 93.6611 282.529 94.3344 281.689 96C281.893 94.113 280.719 92.3765 279 92.0221C280.711 91.6323 281.868 89.887 281.648 88Z" fill="#FF4400"/>
<path d="M86.5402 59C88.007 61.6921 91.248 62.7575 93.9581 61.4474C91.9325 63.722 91.9465 67.2204 94 69.4806C91.2759 68.1993 88.0489 69.2935 86.61 72C86.9593 68.9336 84.9476 66.1119 82 65.536C84.9336 64.9169 86.9173 62.0664 86.5402 59Z" fill="#FF4400"/>
<path d="M201.783 5C203.006 7.27796 205.707 8.1794 207.965 7.07087C206.277 8.99557 206.289 11.9557 208 13.8682C205.73 12.7841 203.041 13.7099 201.842 16C202.133 13.4053 200.456 11.0177 198 10.5305C200.445 9.99447 202.098 7.5825 201.783 5Z" fill="#FF4400"/>
<path d="M157 8C141.248 11.6242 131 14 131 14" stroke="#75B0FC" stroke-width="1.1594" stroke-miterlimit="10" stroke-linecap="round" stroke-linejoin="round"/>
<path d="M61.2335 84.3774C57.0454 74.7248 54.311 68.4469 54.311 68.4469" stroke="#75B0FC" stroke-width="1.1594" stroke-miterlimit="10" stroke-linecap="round" stroke-linejoin="round"/>
<path d="M356 100L325 92" stroke="#75B0FC" stroke-width="1.1594" stroke-miterlimit="10" stroke-linecap="round" stroke-linejoin="round"/>
<path d="M136.172 92C136.172 94.2133 134.385 96 132.172 96C129.959 96 128.172 94.2133 128.172 92C128.172 89.7867 129.959 88 132.172 88C134.385 88 136.172 89.7867 136.172 92Z" fill="#75B0FC"/>
<path d="M121 21C121 22.1067 120.107 23 119 23C117.893 23 117 22.1067 117 21C117 19.8933 117.893 19 119 19C120.107 19 121 19.8933 121 21Z" fill="#75B0FC"/>
<path d="M236 98C236 99.1067 235.107 100 234 100C232.893 100 232 99.1067 232 98C232 96.8933 232.893 96 234 96C235.107 96 236 96.8933 236 98Z" fill="#75B0FC"/>
<path d="M283 4.5C283 6.99 280.99 9 278.5 9C276.01 9 274 6.99 274 4.5C274 2.01 276.01 0 278.5 0C280.99 0 283 2.01 283 4.5Z" fill="#75B0FC"/>
<path d="M245 14L236 10.1409L242.669 4L245 14Z" fill="#C3DCFE"/>
<path d="M19 76L22.9453 67L29 73.7753L19 76Z" fill="#FF9400"/>
<path d="M51.8436 9.85756L48 15.8481L53.9892 19.6926L57.8328 13.702L51.8436 9.85756Z" fill="url(#paint1_linear)"/>
<path d="M455 12C455 14.7667 452.767 17 450 17C447.233 17 445 14.7667 445 12C445 9.2334 447.233 7.00009 450 7.00009C452.767 6.98343 455 9.2334 455 12Z" fill="#568FD8"/>
<path d="M3.80131 22C5.03241 24.286 7.73216 25.1914 9.97838 24.0597C8.29372 25.9835 8.29374 28.9486 10 30.8724C7.73218 29.786 5.03239 30.714 3.84449 33C4.12526 30.3971 2.4622 28.0206 0 27.5226C2.4622 27.0021 4.10369 24.6029 3.80131 22Z" fill="#39BBB3"/>
<path d="M363.004 4C364.308 6.29754 367.133 7.19793 369.492 6.0802C367.722 8.00517 367.722 10.9858 369.523 12.9107C367.133 11.824 364.308 12.7555 363.035 15.053C363.346 12.445 361.576 10.0543 359 9.55755C361.607 9.02974 363.346 6.60802 363.004 4Z" fill="#FF2D55"/>
</g>
<defs>
<linearGradient id="paint0_linear" x1="405.833" y1="67" x2="412.201" y2="57.2684" gradientUnits="userSpaceOnUse">
<stop stop-color="#5B70F6"/>
<stop offset="0.456092" stop-color="#8B85FA"/>
<stop offset="1" stop-color="#CB58F3"/>
</linearGradient>
<linearGradient id="paint1_linear" x1="54.6298" y1="18.6942" x2="51.6783" y2="11.2272" gradientUnits="userSpaceOnUse">
<stop stop-color="#5B70F6"/>
<stop offset="0.456092" stop-color="#8B85FA"/>
<stop offset="1" stop-color="#CB58F3"/>
</linearGradient>
<clipPath id="clip0">
<rect width="455" height="100" fill="white"/>
</clipPath>
</defs>
</svg>
