<svg width="285" height="148" viewBox="0 0 285 148" fill="none" xmlns="http://www.w3.org/2000/svg">
<rect width="285" height="148" rx="16" fill="#FFB155"/>
<mask id="mask0" mask-type="alpha" maskUnits="userSpaceOnUse" x="0" y="0" width="285" height="148">
<rect width="285" height="148" rx="16" fill="#E8ACFE"/>
</mask>
<g mask="url(#mask0)">
<path d="M405.988 236.118C303.432 259.356 167.727 229.951 112.693 212.343L106.856 195.142C104.853 177.791 100.605 142.611 99.6354 140.697C98.6662 138.783 116.045 99.0421 124.856 79.4109C171.05 80.98 264.096 84.0926 266.725 83.9901C269.354 83.8877 363.425 145.753 410.131 176.699C451.482 186.822 508.543 212.879 405.988 236.118Z" fill="url(#paint0_linear)"/>
<path d="M115 134.5C100.086 184.344 82 157.378 74.5 171L-19 120.388C-19.8333 119.1 -21.9 115.75 -23.5 112.657C-25.5 108.791 -36 81.7316 -38.5 79.5227C-41 77.3137 -42.0002 36.4481 -42.5002 33.6869C-43.0002 30.9257 -27.0002 -23.746 -26.0002 -27.0594C-25.2002 -29.7101 -7.66691 -49.1489 0.999756 -58.537C33.9998 -58.537 103 -59.0892 115 -61.2982C130 -64.0594 250 -61.2982 252 -61.2982C253.6 -61.2982 399.333 -21.5494 426.5 -17.4997C446 98.5003 355.5 50.3436 276 42.8436C183.426 34.1103 134 71.0003 115 134.5Z" fill="url(#paint1_linear)"/>
<path d="M174 -7.17925C117.6 39.2088 24.1667 63.3232 -15.5 69.5819L-24.5 60.7461C-31.1667 50.6218 -44.8 30.1521 -46 29.2685C-47.2 28.3849 -48.8333 -1.65684 -49.5 -16.5673C-20.3333 -30.0051 38.4 -57.1016 40 -57.9852C41.6 -58.8688 119.333 -49.8857 158 -45.2837C186.833 -51.9106 230.4 -53.5673 174 -7.17925Z" fill="url(#paint2_linear)"/>
</g>
<g clip-path="url(#clip0)">
<path d="M78.0933 103.206L20.0859 55.7798C19.3987 55.2178 19 54.3769 19 53.489V28.959C19 27.3248 20.3248 26 21.959 26H46.4892C47.3771 26 48.218 26.3987 48.78 27.0859L96.2058 85.0931L78.0933 103.206Z" fill="white"/>
<path d="M87.1494 94.1497L78.0931 103.206L20.0859 55.7801C19.3987 55.2181 19 54.3772 19 53.4893V28.9593C19 28.1423 19.3312 27.4025 19.8666 26.8671L87.1494 94.1497Z" fill="white"/>
<path d="M89.0329 91.8484L37.4223 40.2378C36.2669 39.0823 34.3932 39.0823 33.2377 40.2378C32.0821 41.3934 32.0821 43.2669 33.2377 44.4224L84.8481 96.0329L89.0329 91.8484Z" fill="url(#paint3_linear)"/>
<path d="M84.8483 96.0332L33.2377 44.4226C32.0821 43.267 32.0821 41.3936 33.2377 40.238L86.9405 93.9408L84.8483 96.0332Z" fill="url(#paint4_linear)"/>
<path d="M116.244 123.244C111.237 128.252 103.118 128.252 98.111 123.244L78.7754 103.909L96.9089 85.7751L116.244 105.111C121.252 110.118 121.252 118.237 116.244 123.244Z" fill="url(#paint5_linear)"/>
<path d="M78.7756 103.909L87.8423 94.8422L116.244 123.245C111.237 128.252 103.118 128.252 98.111 123.245L78.7756 103.909Z" fill="url(#paint6_linear)"/>
<path d="M74.3867 109.453C75.144 109.453 75.9011 109.164 76.4789 108.586L101.587 83.4786C102.742 82.323 102.742 80.4496 101.587 79.294C100.431 78.1385 98.5577 78.1387 97.4021 79.294L72.2945 104.402C71.1389 105.557 71.1389 107.431 72.2945 108.586C72.8721 109.164 73.6296 109.453 74.3867 109.453Z" fill="#DC8250"/>
<path d="M76.4789 108.587C75.9011 109.165 75.144 109.453 74.3867 109.453C73.6296 109.453 72.8721 109.165 72.2943 108.587C71.1387 107.431 71.1387 105.558 72.2943 104.402L84.8481 91.8481L89.0327 96.0327L76.4789 108.587Z" fill="#DC8250"/>
<path d="M42.7943 85.0933L90.2202 27.0859C90.7822 26.3987 91.6229 26 92.5108 26H117.041C118.675 26 120 27.3248 120 28.959V53.489C120 54.3769 119.601 55.2178 118.914 55.7798L60.9067 103.206L42.7943 85.0933Z" fill="white"/>
<path d="M51.8506 94.1497L60.9069 103.206L118.914 55.78C119.601 55.2179 120 54.377 120 53.4891V28.9593C120 28.1423 119.669 27.4025 119.133 26.8671L51.8506 94.1497Z" fill="white"/>
<path d="M49.9672 91.8484L101.578 40.2378C102.733 39.0823 104.607 39.0823 105.762 40.2378C106.918 41.3934 106.918 43.2669 105.762 44.4224L54.1518 96.0331L49.9672 91.8484Z" fill="url(#paint7_linear)"/>
<path d="M54.1518 96.0332L105.762 44.4226C106.918 43.267 106.918 41.3936 105.762 40.238L52.0596 93.9408L54.1518 96.0332Z" fill="url(#paint8_linear)"/>
<path d="M22.7555 105.111L42.0911 85.7751L60.2246 103.909L40.889 123.244C35.8816 128.252 27.7629 128.252 22.7555 123.244C17.7482 118.237 17.7482 110.118 22.7555 105.111Z" fill="url(#paint9_linear)"/>
<path d="M60.2244 103.909L51.1577 94.8422L22.7556 123.245C27.7629 128.252 35.8816 128.252 40.889 123.245L60.2244 103.909Z" fill="url(#paint10_linear)"/>
<path d="M64.6133 109.453C63.856 109.453 63.0989 109.164 62.5211 108.586L37.4134 83.4786C36.2578 82.323 36.2578 80.4496 37.4134 79.294C38.5688 78.1385 40.4424 78.1387 41.598 79.294L66.7057 104.402C67.8613 105.557 67.8613 107.431 66.7057 108.586C66.1279 109.164 65.3704 109.453 64.6133 109.453Z" fill="#DC8250"/>
<path d="M62.5211 108.587C63.0989 109.165 63.856 109.453 64.6133 109.453C65.3704 109.453 66.1279 109.165 66.7057 108.587C67.8613 107.431 67.8613 105.558 66.7057 104.402L54.1519 91.8481L49.9673 96.0327L62.5211 108.587Z" fill="#DC8250"/>
</g>
<defs>
<linearGradient id="paint0_linear" x1="312.539" y1="242.549" x2="167.487" y2="165.874" gradientUnits="userSpaceOnUse">
<stop stop-color="#FFDE8A"/>
<stop offset="1" stop-color="#FFAC7D"/>
</linearGradient>
<linearGradient id="paint1_linear" x1="224" y1="59.0899" x2="108.602" y2="36.8555" gradientUnits="userSpaceOnUse">
<stop stop-color="#EF8D56"/>
<stop offset="1" stop-color="#FFAC7D"/>
</linearGradient>
<linearGradient id="paint2_linear" x1="118" y1="25.9551" x2="3.99012" y2="23.6914" gradientUnits="userSpaceOnUse">
<stop stop-color="#FFDE8A"/>
<stop offset="1" stop-color="#FFAC7D"/>
</linearGradient>
<linearGradient id="paint3_linear" x1="70.1978" y1="76.6643" x2="44.4432" y2="76.4042" gradientUnits="userSpaceOnUse">
<stop stop-color="#F29B6A"/>
<stop offset="0.713542" stop-color="#F9E9C0"/>
<stop offset="1" stop-color="#F9E9C0"/>
</linearGradient>
<linearGradient id="paint4_linear" x1="68.801" y1="76.9608" x2="43.9973" y2="76.7158" gradientUnits="userSpaceOnUse">
<stop stop-color="#F29B6A"/>
<stop offset="0.713542" stop-color="#F9E9C0"/>
<stop offset="1" stop-color="#F9E9C0"/>
</linearGradient>
<linearGradient id="paint5_linear" x1="106.297" y1="112.908" x2="87.5586" y2="112.719" gradientUnits="userSpaceOnUse">
<stop stop-color="#F9E9C0"/>
<stop offset="1" stop-color="#F29B6A"/>
</linearGradient>
<linearGradient id="paint6_linear" x1="103.789" y1="116.008" x2="86.7593" y2="115.807" gradientUnits="userSpaceOnUse">
<stop stop-color="#F9E9C0"/>
<stop offset="1" stop-color="#F29B6A"/>
</linearGradient>
<linearGradient id="paint7_linear" x1="87.794" y1="76.6644" x2="62.0394" y2="76.4043" gradientUnits="userSpaceOnUse">
<stop stop-color="#F29B6A"/>
<stop offset="0.713542" stop-color="#F9E9C0"/>
<stop offset="1" stop-color="#F9E9C0"/>
</linearGradient>
<linearGradient id="paint8_linear" x1="88.4895" y1="76.9608" x2="63.6859" y2="76.7158" gradientUnits="userSpaceOnUse">
<stop stop-color="#F29B6A"/>
<stop offset="0.713542" stop-color="#F9E9C0"/>
<stop offset="1" stop-color="#F9E9C0"/>
</linearGradient>
<linearGradient id="paint9_linear" x1="46.5211" y1="112.908" x2="27.7832" y2="112.719" gradientUnits="userSpaceOnUse">
<stop stop-color="#F9E9C0"/>
<stop offset="1" stop-color="#F29B6A"/>
</linearGradient>
<linearGradient id="paint10_linear" x1="47.7693" y1="116.008" x2="30.7392" y2="115.807" gradientUnits="userSpaceOnUse">
<stop stop-color="#F9E9C0"/>
<stop offset="1" stop-color="#F29B6A"/>
</linearGradient>
<clipPath id="clip0">
<rect x="19" y="26" width="101" height="101" fill="white"/>
</clipPath>
</defs>
</svg>
