<svg width="71" height="118" viewBox="0 0 71 118" fill="none" xmlns="http://www.w3.org/2000/svg">
<path d="M7.06018 3.84003C8.12057 3.84003 8.98016 2.9804 8.98016 1.92001C8.98016 0.859627 8.12057 0 7.06018 0C5.99979 0 5.14014 0.859627 5.14014 1.92001C5.14014 2.9804 5.99979 3.84003 7.06018 3.84003Z" fill="white"/>
<path d="M22.45 3.84003C23.5104 3.84003 24.3701 2.9804 24.3701 1.92001C24.3701 0.859627 23.5104 0 22.45 0C21.3896 0 20.53 0.859627 20.53 1.92001C20.53 2.9804 21.3896 3.84003 22.45 3.84003Z" fill="white"/>
<path d="M37.8301 3.84003C38.8905 3.84003 39.7502 2.9804 39.7502 1.92001C39.7502 0.859627 38.8905 0 37.8301 0C36.7698 0 35.9102 0.859627 35.9102 1.92001C35.9102 2.9804 36.7698 3.84003 37.8301 3.84003Z" fill="white"/>
<path d="M53.21 3.84003C54.2704 3.84003 55.1301 2.9804 55.1301 1.92001C55.1301 0.859627 54.2704 0 53.21 0C52.1496 0 51.29 0.859627 51.29 1.92001C51.29 2.9804 52.1496 3.84003 53.21 3.84003Z" fill="white"/>
<path d="M68.5899 3.84003C69.6503 3.84003 70.5099 2.9804 70.5099 1.92001C70.5099 0.859627 69.6503 0 68.5899 0C67.5295 0 66.6699 0.859627 66.6699 1.92001C66.6699 2.9804 67.5295 3.84003 68.5899 3.84003Z" fill="white"/>
<path d="M7.06018 18.08C8.12057 18.08 8.98016 17.2204 8.98016 16.16C8.98016 15.0996 8.12057 14.2401 7.06018 14.2401C5.99979 14.2401 5.14014 15.0996 5.14014 16.16C5.14014 17.2204 5.99979 18.08 7.06018 18.08Z" fill="white"/>
<path d="M22.45 18.08C23.5104 18.08 24.3701 17.2204 24.3701 16.16C24.3701 15.0996 23.5104 14.2401 22.45 14.2401C21.3896 14.2401 20.53 15.0996 20.53 16.16C20.53 17.2204 21.3896 18.08 22.45 18.08Z" fill="white"/>
<path d="M37.8301 18.08C38.8905 18.08 39.7502 17.2204 39.7502 16.16C39.7502 15.0996 38.8905 14.2401 37.8301 14.2401C36.7698 14.2401 35.9102 15.0996 35.9102 16.16C35.9102 17.2204 36.7698 18.08 37.8301 18.08Z" fill="white"/>
<path d="M53.21 18.08C54.2704 18.08 55.1301 17.2204 55.1301 16.16C55.1301 15.0996 54.2704 14.2401 53.21 14.2401C52.1496 14.2401 51.29 15.0996 51.29 16.16C51.29 17.2204 52.1496 18.08 53.21 18.08Z" fill="white"/>
<path d="M68.5899 18.08C69.6503 18.08 70.5099 17.2204 70.5099 16.16C70.5099 15.0996 69.6503 14.2401 68.5899 14.2401C67.5295 14.2401 66.6699 15.0996 66.6699 16.16C66.6699 17.2204 67.5295 18.08 68.5899 18.08Z" fill="white"/>
<path d="M7.06018 32.32C8.12057 32.32 8.98016 31.4604 8.98016 30.4001C8.98016 29.3397 8.12057 28.48 7.06018 28.48C5.99979 28.48 5.14014 29.3397 5.14014 30.4001C5.14014 31.4604 5.99979 32.32 7.06018 32.32Z" fill="white"/>
<path d="M22.45 32.32C23.5104 32.32 24.3701 31.4604 24.3701 30.4001C24.3701 29.3397 23.5104 28.48 22.45 28.48C21.3896 28.48 20.53 29.3397 20.53 30.4001C20.53 31.4604 21.3896 32.32 22.45 32.32Z" fill="white"/>
<path d="M37.8301 32.32C38.8905 32.32 39.7502 31.4604 39.7502 30.4001C39.7502 29.3397 38.8905 28.48 37.8301 28.48C36.7698 28.48 35.9102 29.3397 35.9102 30.4001C35.9102 31.4604 36.7698 32.32 37.8301 32.32Z" fill="white"/>
<path d="M53.21 32.32C54.2704 32.32 55.1301 31.4604 55.1301 30.4001C55.1301 29.3397 54.2704 28.48 53.21 28.48C52.1496 28.48 51.29 29.3397 51.29 30.4001C51.29 31.4604 52.1496 32.32 53.21 32.32Z" fill="white"/>
<path d="M68.5899 32.32C69.6503 32.32 70.5099 31.4604 70.5099 30.4001C70.5099 29.3397 69.6503 28.48 68.5899 28.48C67.5295 28.48 66.6699 29.3397 66.6699 30.4001C66.6699 31.4604 67.5295 32.32 68.5899 32.32Z" fill="white"/>
<path d="M7.06018 46.5601C8.12057 46.5601 8.98016 45.7004 8.98016 44.64C8.98016 43.5797 8.12057 42.72 7.06018 42.72C5.99979 42.72 5.14014 43.5797 5.14014 44.64C5.14014 45.7004 5.99979 46.5601 7.06018 46.5601Z" fill="white"/>
<path d="M22.45 46.5601C23.5104 46.5601 24.3701 45.7004 24.3701 44.64C24.3701 43.5797 23.5104 42.72 22.45 42.72C21.3896 42.72 20.53 43.5797 20.53 44.64C20.53 45.7004 21.3896 46.5601 22.45 46.5601Z" fill="white"/>
<path d="M37.8301 46.5601C38.8905 46.5601 39.7502 45.7004 39.7502 44.64C39.7502 43.5797 38.8905 42.72 37.8301 42.72C36.7698 42.72 35.9102 43.5797 35.9102 44.64C35.9102 45.7004 36.7698 46.5601 37.8301 46.5601Z" fill="white"/>
<path d="M53.21 46.5601C54.2704 46.5601 55.1301 45.7004 55.1301 44.64C55.1301 43.5797 54.2704 42.72 53.21 42.72C52.1496 42.72 51.29 43.5797 51.29 44.64C51.29 45.7004 52.1496 46.5601 53.21 46.5601Z" fill="white"/>
<path d="M68.5899 46.5601C69.6503 46.5601 70.5099 45.7004 70.5099 44.64C70.5099 43.5797 69.6503 42.72 68.5899 42.72C67.5295 42.72 66.6699 43.5797 66.6699 44.64C66.6699 45.7004 67.5295 46.5601 68.5899 46.5601Z" fill="white"/>
<path d="M7.06018 60.7901C8.12057 60.7901 8.98016 59.9305 8.98016 58.8701C8.98016 57.8097 8.12057 56.9501 7.06018 56.9501C5.99979 56.9501 5.14014 57.8097 5.14014 58.8701C5.14014 59.9305 5.99979 60.7901 7.06018 60.7901Z" fill="white"/>
<path d="M22.45 60.7901C23.5104 60.7901 24.3701 59.9305 24.3701 58.8701C24.3701 57.8097 23.5104 56.9501 22.45 56.9501C21.3896 56.9501 20.53 57.8097 20.53 58.8701C20.53 59.9305 21.3896 60.7901 22.45 60.7901Z" fill="white"/>
<path d="M37.8301 60.7901C38.8905 60.7901 39.7502 59.9305 39.7502 58.8701C39.7502 57.8097 38.8905 56.9501 37.8301 56.9501C36.7698 56.9501 35.9102 57.8097 35.9102 58.8701C35.9102 59.9305 36.7698 60.7901 37.8301 60.7901Z" fill="white"/>
<path d="M53.21 60.7901C54.2704 60.7901 55.1301 59.9305 55.1301 58.8701C55.1301 57.8097 54.2704 56.9501 53.21 56.9501C52.1496 56.9501 51.29 57.8097 51.29 58.8701C51.29 59.9305 52.1496 60.7901 53.21 60.7901Z" fill="white"/>
<path d="M68.5899 60.7901C69.6503 60.7901 70.5099 59.9305 70.5099 58.8701C70.5099 57.8097 69.6503 56.9501 68.5899 56.9501C67.5295 56.9501 66.6699 57.8097 66.6699 58.8701C66.6699 59.9305 67.5295 60.7901 68.5899 60.7901Z" fill="white"/>
<path d="M7.06018 75.0301C8.12057 75.0301 8.98016 74.1705 8.98016 73.1101C8.98016 72.0497 8.12057 71.1901 7.06018 71.1901C5.99979 71.1901 5.14014 72.0497 5.14014 73.1101C5.14014 74.1705 5.99979 75.0301 7.06018 75.0301Z" fill="white"/>
<path d="M22.45 75.0301C23.5104 75.0301 24.3701 74.1705 24.3701 73.1101C24.3701 72.0497 23.5104 71.1901 22.45 71.1901C21.3896 71.1901 20.53 72.0497 20.53 73.1101C20.53 74.1705 21.3896 75.0301 22.45 75.0301Z" fill="white"/>
<path d="M37.8301 75.0301C38.8905 75.0301 39.7502 74.1705 39.7502 73.1101C39.7502 72.0497 38.8905 71.1901 37.8301 71.1901C36.7698 71.1901 35.9102 72.0497 35.9102 73.1101C35.9102 74.1705 36.7698 75.0301 37.8301 75.0301Z" fill="white"/>
<path d="M53.21 75.0301C54.2704 75.0301 55.1301 74.1705 55.1301 73.1101C55.1301 72.0497 54.2704 71.1901 53.21 71.1901C52.1496 71.1901 51.29 72.0497 51.29 73.1101C51.29 74.1705 52.1496 75.0301 53.21 75.0301Z" fill="white"/>
<path d="M68.5899 75.0301C69.6503 75.0301 70.5099 74.1705 70.5099 73.1101C70.5099 72.0497 69.6503 71.1901 68.5899 71.1901C67.5295 71.1901 66.6699 72.0497 66.6699 73.1101C66.6699 74.1705 67.5295 75.0301 68.5899 75.0301Z" fill="white"/>
<path d="M7.06018 89.2701C8.12057 89.2701 8.98016 88.4104 8.98016 87.35C8.98016 86.2896 8.12057 85.4301 7.06018 85.4301C5.99979 85.4301 5.14014 86.2896 5.14014 87.35C5.14014 88.4104 5.99979 89.2701 7.06018 89.2701Z" fill="white"/>
<path d="M22.45 89.2701C23.5104 89.2701 24.3701 88.4104 24.3701 87.35C24.3701 86.2896 23.5104 85.4301 22.45 85.4301C21.3896 85.4301 20.53 86.2896 20.53 87.35C20.53 88.4104 21.3896 89.2701 22.45 89.2701Z" fill="white"/>
<path d="M37.8301 89.2701C38.8905 89.2701 39.7502 88.4104 39.7502 87.35C39.7502 86.2896 38.8905 85.4301 37.8301 85.4301C36.7698 85.4301 35.9102 86.2896 35.9102 87.35C35.9102 88.4104 36.7698 89.2701 37.8301 89.2701Z" fill="white"/>
<path d="M53.21 89.2701C54.2704 89.2701 55.1301 88.4104 55.1301 87.35C55.1301 86.2896 54.2704 85.4301 53.21 85.4301C52.1496 85.4301 51.29 86.2896 51.29 87.35C51.29 88.4104 52.1496 89.2701 53.21 89.2701Z" fill="white"/>
<path d="M68.5899 89.2701C69.6503 89.2701 70.5099 88.4104 70.5099 87.35C70.5099 86.2896 69.6503 85.4301 68.5899 85.4301C67.5295 85.4301 66.6699 86.2896 66.6699 87.35C66.6699 88.4104 67.5295 89.2701 68.5899 89.2701Z" fill="white"/>
<path d="M7.06018 103.51C8.12057 103.51 8.98016 102.65 8.98016 101.59C8.98016 100.53 8.12057 99.67 7.06018 99.67C5.99979 99.67 5.14014 100.53 5.14014 101.59C5.14014 102.65 5.99979 103.51 7.06018 103.51Z" fill="white"/>
<path d="M22.45 103.51C23.5104 103.51 24.3701 102.65 24.3701 101.59C24.3701 100.53 23.5104 99.67 22.45 99.67C21.3896 99.67 20.53 100.53 20.53 101.59C20.53 102.65 21.3896 103.51 22.45 103.51Z" fill="white"/>
<path d="M37.8301 103.51C38.8905 103.51 39.7502 102.65 39.7502 101.59C39.7502 100.53 38.8905 99.67 37.8301 99.67C36.7698 99.67 35.9102 100.53 35.9102 101.59C35.9102 102.65 36.7698 103.51 37.8301 103.51Z" fill="white"/>
<path d="M53.21 103.51C54.2704 103.51 55.1301 102.65 55.1301 101.59C55.1301 100.53 54.2704 99.67 53.21 99.67C52.1496 99.67 51.29 100.53 51.29 101.59C51.29 102.65 52.1496 103.51 53.21 103.51Z" fill="white"/>
<path d="M68.5899 103.51C69.6503 103.51 70.5099 102.65 70.5099 101.59C70.5099 100.53 69.6503 99.67 68.5899 99.67C67.5295 99.67 66.6699 100.53 66.6699 101.59C66.6699 102.65 67.5295 103.51 68.5899 103.51Z" fill="white"/>
<path d="M7.06018 117.75C8.12057 117.75 8.98016 116.89 8.98016 115.83C8.98016 114.77 8.12057 113.91 7.06018 113.91C5.99979 113.91 5.14014 114.77 5.14014 115.83C5.14014 116.89 5.99979 117.75 7.06018 117.75Z" fill="white"/>
<path d="M22.45 117.75C23.5104 117.75 24.3701 116.89 24.3701 115.83C24.3701 114.77 23.5104 113.91 22.45 113.91C21.3896 113.91 20.53 114.77 20.53 115.83C20.53 116.89 21.3896 117.75 22.45 117.75Z" fill="white"/>
<path d="M37.8301 117.75C38.8905 117.75 39.7502 116.89 39.7502 115.83C39.7502 114.77 38.8905 113.91 37.8301 113.91C36.7698 113.91 35.9102 114.77 35.9102 115.83C35.9102 116.89 36.7698 117.75 37.8301 117.75Z" fill="white"/>
<path d="M53.21 117.75C54.2704 117.75 55.1301 116.89 55.1301 115.83C55.1301 114.77 54.2704 113.91 53.21 113.91C52.1496 113.91 51.29 114.77 51.29 115.83C51.29 116.89 52.1496 117.75 53.21 117.75Z" fill="white"/>
<path d="M68.5899 117.75C69.6503 117.75 70.5099 116.89 70.5099 115.83C70.5099 114.77 69.6503 113.91 68.5899 113.91C67.5295 113.91 66.6699 114.77 66.6699 115.83C66.6699 116.89 67.5295 117.75 68.5899 117.75Z" fill="white"/>
</svg>
