<svg width="285" height="148" viewBox="0 0 285 148" fill="none" xmlns="http://www.w3.org/2000/svg">
<rect width="285" height="148" rx="8" fill="#C275DF"/>
<mask id="mask0" mask-type="alpha" maskUnits="userSpaceOnUse" x="0" y="0" width="285" height="148">
<rect width="285" height="148" rx="16" fill="#E8ACFE"/>
</mask>
<g mask="url(#mask0)">
<path d="M-3.72196 115.97C53.1714 120.388 130.093 90.3829 148.881 80.0745C142.5 75.8406 129.207 66.8207 127.08 64.6118C124.953 62.4028 103.862 61.4824 93.582 61.2983C72.6678 62.2187 28.4999 64.17 19.1417 64.6118C9.78348 65.0536 -23.7501 75.1043 -39.3471 80.0745C-57.071 101.428 -78.6199 110.154 -3.72196 115.97Z" fill="#B149E2"/>
<path d="M56.3615 81.7315C15.9511 79.9643 -10.103 106.766 -18.0788 120.388H-20.2054C-21.0916 119.1 -23.2893 115.749 -24.9908 112.657C-27.1177 108.791 -38.2837 81.7315 -40.9423 79.5225C-43.6009 77.3136 -44.6646 36.4479 -45.1963 33.6867C-45.728 30.9255 -28.7131 -23.7461 -27.6497 -27.0596C-26.7989 -29.7103 -8.15339 -49.1491 1.06303 -58.5372C36.1563 -58.5372 109.533 -59.0894 122.294 -61.2984C138.246 -64.0596 265.858 -61.2984 267.985 -61.2984C269.686 -61.2984 327.891 -53.1989 356.781 -49.1491C359.44 -48.2287 351.464 -29.8208 298.293 36.4479C231.828 119.284 106.875 83.9404 56.3615 81.7315Z" fill="url(#paint0_linear)"/>
<path d="M185.037 -7.1787C125.06 39.2094 25.6997 63.3238 -16.4832 69.5825L-26.0541 60.7467C-33.1436 50.6223 -47.6418 30.1527 -48.9179 29.2691C-50.194 28.3855 -51.9309 -1.65629 -52.6399 -16.5667C-21.6231 -30.0046 40.8359 -57.1011 42.5373 -57.9847C44.2388 -58.8682 126.903 -49.8852 168.022 -45.2832C198.685 -51.91 245.015 -53.5668 185.037 -7.1787Z" fill="url(#paint1_linear)"/>
<path d="M-21.2684 117.627C28.0748 118.511 109.002 141.373 120.168 154.627H104.748L96.2407 162.911H75.5037C66.4645 162.911 27.6492 159.045 17.5466 158.493C9.46454 158.051 -11.6976 150.209 -21.2684 146.343C-41.8281 136.403 -70.6117 116.743 -21.2684 117.627Z" fill="#BD72F9"/>
</g>
<g clip-path="url(#clip0)">
<path d="M96.5638 112.777C94.6114 112.777 93.0254 111.197 93.0199 109.242C93.0134 107.285 94.5957 105.693 96.5537 105.687C105.458 105.66 113.93 100.283 120.408 90.5476C126.625 81.2035 130.278 68.9837 130.835 55.8223H115.221C113.263 55.8223 111.676 54.2353 111.676 52.2773C111.676 50.3193 113.263 48.7324 115.221 48.7324H134.455C136.413 48.7324 138 50.3193 138 52.2773C138 68.1611 133.848 83.1467 126.312 94.4757C118.481 106.242 107.921 112.742 96.5758 112.777C96.5722 112.777 96.5685 112.777 96.5638 112.777Z" fill="url(#paint2_linear)"/>
<path d="M58.4356 112.777C58.431 112.777 58.4282 112.777 58.4245 112.777C47.0789 112.742 36.518 106.242 28.6888 94.4757C21.1512 83.1467 16.9998 68.1611 16.9998 52.2773C16.9998 50.3193 18.5867 48.7324 20.5447 48.7324H39.7786C41.7366 48.7324 43.3235 50.3193 43.3235 52.2773C43.3235 54.2353 41.7366 55.8223 39.7786 55.8223H24.1644C24.7211 68.9837 28.374 81.2035 34.5914 90.5476C41.0692 100.283 49.541 105.66 58.4457 105.687C60.4038 105.693 61.986 107.285 61.9796 109.242C61.974 111.197 60.3881 112.776 58.4356 112.777Z" fill="url(#paint3_linear)"/>
<path d="M115.47 40H39.5294C37.5723 40 35.9845 41.5869 35.9845 43.5449C35.9845 64.3685 40.0676 84.0022 47.4805 98.828C52.2302 108.326 58.0387 115.221 64.462 119.169V138.469C64.462 140.427 66.0498 142.014 68.0069 142.014H86.9925C88.9505 142.014 90.5374 140.427 90.5374 138.469V119.169C96.9607 115.222 102.77 108.326 107.519 98.828C114.932 84.0022 119.015 64.3685 119.015 43.5449C119.015 41.5869 117.428 40 115.47 40Z" fill="url(#paint4_linear)"/>
<path d="M90.5377 138.469V119.169C96.961 115.222 102.77 108.326 107.519 98.828C114.932 84.0022 119.015 64.3685 119.015 43.5449C119.015 41.5869 117.428 40 115.47 40H77.5V142.014H86.9928C88.9508 142.014 90.5377 140.427 90.5377 138.469Z" fill="url(#paint5_linear)"/>
<path d="M96.4844 134.924H58.515C51.3264 134.924 45.4773 140.773 45.4773 147.961V157.454C45.4773 159.411 47.0642 160.998 49.0222 160.998H105.977C107.935 160.998 109.522 159.411 109.522 157.454V147.961C109.522 140.773 103.674 134.924 96.4844 134.924Z" fill="url(#paint6_linear)"/>
<path d="M96.4846 134.924H77.5V160.998H105.977C107.935 160.998 109.522 159.411 109.522 157.454V147.961C109.522 140.773 103.674 134.924 96.4846 134.924Z" fill="url(#paint7_linear)"/>
</g>
<defs>
<linearGradient id="paint0_linear" x1="238.209" y1="59.0897" x2="116.063" y2="34.0623" gradientUnits="userSpaceOnUse">
<stop stop-color="#9A5ED7"/>
<stop offset="1" stop-color="#CF47FF"/>
</linearGradient>
<linearGradient id="paint1_linear" x1="125.485" y1="25.9557" x2="4.24951" y2="23.3958" gradientUnits="userSpaceOnUse">
<stop stop-color="#FF8AF3"/>
<stop offset="1" stop-color="#BF38FF"/>
</linearGradient>
<linearGradient id="paint2_linear" x1="115.51" y1="48.7324" x2="115.51" y2="112.777" gradientUnits="userSpaceOnUse">
<stop stop-color="#D2AAE1"/>
<stop offset="1" stop-color="#E9D2F2" stop-opacity="0.97"/>
</linearGradient>
<linearGradient id="paint3_linear" x1="39.4897" y1="48.7324" x2="39.4897" y2="112.777" gradientUnits="userSpaceOnUse">
<stop stop-color="#D2AAE1"/>
<stop offset="1" stop-color="#E9D2F2" stop-opacity="0.97"/>
</linearGradient>
<linearGradient id="paint4_linear" x1="67.3886" y1="121.744" x2="38.338" y2="61.9354" gradientUnits="userSpaceOnUse">
<stop stop-color="#FDFCFE"/>
<stop offset="1" stop-color="#CF47FF"/>
</linearGradient>
<linearGradient id="paint5_linear" x1="93.202" y1="121.744" x2="56.2578" y2="83.7143" gradientUnits="userSpaceOnUse">
<stop stop-color="#FDFCFE"/>
<stop offset="1" stop-color="#CF47FF"/>
</linearGradient>
<linearGradient id="paint6_linear" x1="88.2329" y1="152.085" x2="59.1375" y2="151.363" gradientUnits="userSpaceOnUse">
<stop stop-color="#FF8AF3"/>
<stop offset="1" stop-color="#BF38FF"/>
</linearGradient>
<linearGradient id="paint7_linear" x1="98.8778" y1="152.085" x2="84.3233" y2="151.905" gradientUnits="userSpaceOnUse">
<stop stop-color="#FF8AF3"/>
<stop offset="1" stop-color="#BF38FF"/>
</linearGradient>
<clipPath id="clip0">
<rect x="16.9998" y="40" width="121" height="108" fill="white"/>
</clipPath>
</defs>
</svg>
