<svg width="153" height="110" viewBox="0 0 153 110" fill="none" xmlns="http://www.w3.org/2000/svg">
<path fill-rule="evenodd" clip-rule="evenodd" d="M11.0353 45.333C10.0702 45.333 9.4481 45.448 8.73494 45.7971C8.47091 45.9263 8.2232 46.0819 7.99315 46.2635C7.77197 46.0921 7.53416 45.9436 7.28104 45.8184C6.55405 45.4589 5.90002 45.333 4.96953 45.333C2.47746 45.333 0.666504 47.3979 0.666504 50.0796C0.666504 52.1048 1.79572 54.0612 3.89906 55.9529C5.0031 56.9459 6.41272 57.9286 7.42224 58.4513L7.99984 58.7504L8.57743 58.4513C9.58696 57.9286 10.9966 56.9459 12.1006 55.9529C14.2039 54.0612 15.3332 52.1048 15.3332 50.0796C15.3332 47.4262 13.5051 45.3432 11.0353 45.333ZM13.9998 50.0796C13.9998 51.6663 13.0573 53.2992 11.209 54.9616C10.2013 55.8679 8.90581 56.7736 7.99984 57.2488C7.09386 56.7736 5.79838 55.8679 4.79069 54.9616C2.94239 53.2992 1.99984 51.6663 1.99984 50.0796C1.99984 48.0982 3.2556 46.6663 4.96953 46.6663C5.70936 46.6663 6.16526 46.7541 6.68993 47.0136C6.99984 47.1669 7.27375 47.3693 7.51086 47.6222L8.0014 48.1455L8.48747 47.618C8.72991 47.355 9.00784 47.148 9.32112 46.9946C9.83042 46.7453 10.2578 46.6663 11.0326 46.6663C12.7253 46.6734 13.9998 48.1257 13.9998 50.0796Z" fill="#FF2D55"/>
<path d="M82 54L82 39" stroke="#34C759" stroke-width="2" stroke-linecap="round"/>
<path d="M106 56.8034L120.303 39" stroke="url(#paint0_linear)" stroke-width="2" stroke-linecap="round"/>
<path d="M52.4187 31.7778L46 23" stroke="url(#paint1_linear)" stroke-width="2" stroke-linecap="round"/>
<path d="M70.4187 56.7778L64 48" stroke="url(#paint2_linear)" stroke-width="2" stroke-linecap="round"/>
<path fill-rule="evenodd" clip-rule="evenodd" d="M76.1701 14.894L74.7939 22.918L81.9999 19.1296L89.2058 22.918L87.8296 14.894L93.6594 9.21138L85.6028 8.04069L81.9999 0.740234L78.3969 8.04069L70.3403 9.21138L76.1701 14.894ZM85.6807 14.1958L86.5496 19.2619L81.9999 16.87L77.4501 19.2619L78.3191 14.1958L74.6383 10.6079L79.725 9.86871L81.9999 5.25934L84.2747 9.86871L89.3615 10.6079L85.6807 14.1958Z" fill="#FF9500"/>
<path fill-rule="evenodd" clip-rule="evenodd" d="M135.021 63.7304L128.443 65.3913L133.762 69.6021L133.309 76.3712L138.958 72.6133L145.256 75.136L143.427 68.6027L147.772 63.3927L140.994 63.1128L137.382 57.3702L135.021 63.7304ZM135.198 73.113L135.484 68.8391L132.125 66.1805L136.278 65.1319L137.769 61.1161L140.05 64.7419L144.33 64.9186L141.586 68.2081L142.74 72.3331L138.764 70.7404L135.198 73.113Z" fill="#5E5CE6"/>
<path d="M52.2044 102.377C46.1307 78.6417 35.917 69.3848 18 57.4541" stroke="url(#paint3_linear)" stroke-width="2" stroke-linecap="round"/>
<path d="M113 99.5C114 93.6667 117.9 80.3 125.5 73.5" stroke="url(#paint4_linear)" stroke-width="2" stroke-linecap="round"/>
<circle cx="82" cy="34" r="1" fill="#FF9500"/>
<circle cx="82" cy="30" r="1" fill="#FF9500"/>
<path d="M29.9725 92.3525C30.5248 91.6258 31.5815 91.5293 32.2563 92.1438L38.2251 97.5792C38.6215 97.9401 38.6864 98.54 38.3764 98.9773C38.0375 99.4554 37.3752 99.5683 36.8971 99.2294L30.3111 94.561C29.5942 94.0528 29.4408 93.052 29.9725 92.3525Z" fill="#34C759"/>
<path d="M131.064 89.6616C131.688 90.3281 131.605 91.3859 130.886 91.948L124.525 96.9191C124.103 97.2492 123.501 97.2124 123.122 96.8333C122.707 96.4189 122.707 95.7471 123.122 95.3327L128.83 89.6244C129.451 89.0031 130.464 89.0199 131.064 89.6616Z" fill="#FF9500"/>
<circle cx="52" cy="52" r="2" fill="#FF2D55"/>
<circle cx="116" cy="69" r="2" fill="url(#paint5_linear)"/>
<circle cx="57.5" cy="38.5" r="1.5" fill="#FF2D55"/>
<defs>
<linearGradient id="paint0_linear" x1="113.152" y1="47.9017" x2="113.931" y2="48.528" gradientUnits="userSpaceOnUse">
<stop stop-color="#5B70F6"/>
<stop offset="1" stop-color="#8658F3"/>
</linearGradient>
<linearGradient id="paint1_linear" x1="49.2094" y1="27.3889" x2="50.0166" y2="26.7986" gradientUnits="userSpaceOnUse">
<stop stop-color="#F8B02E"/>
<stop offset="1" stop-color="#F08A41"/>
</linearGradient>
<linearGradient id="paint2_linear" x1="67.2094" y1="52.3889" x2="68.0166" y2="51.7986" gradientUnits="userSpaceOnUse">
<stop stop-color="#F8B02E"/>
<stop offset="1" stop-color="#F08A41"/>
</linearGradient>
<linearGradient id="paint3_linear" x1="24.4456" y1="82.6425" x2="45.7588" y2="77.1885" gradientUnits="userSpaceOnUse">
<stop stop-color="#5B70F6"/>
<stop offset="1" stop-color="#8658F3"/>
</linearGradient>
<linearGradient id="paint4_linear" x1="113" y1="86.5" x2="125.5" y2="86.5" gradientUnits="userSpaceOnUse">
<stop stop-color="#5B70F6"/>
<stop offset="1" stop-color="#8658F3"/>
</linearGradient>
<linearGradient id="paint5_linear" x1="114" y1="69" x2="118" y2="69" gradientUnits="userSpaceOnUse">
<stop stop-color="#5B70F6"/>
<stop offset="1" stop-color="#8658F3"/>
</linearGradient>
</defs>
</svg>
