<svg width="80" height="24" viewBox="0 0 80 24" fill="none" xmlns="http://www.w3.org/2000/svg">
  <g clip-path="url(#clip0)">
    <path d="M2.54058 11.7047C2.54058 11.7047 3.48877 13.0977 5.47608 14.2768C5.47608 14.2768 4.03678 2.11261 13.4147 0C11.0121 8.81817 16.471 11.305 18.4609 6.64622C21.784 11.083 19.2608 14.9538 19.2608 14.9538C20.6235 15.1501 21.768 13.6615 21.768 13.6615C21.7783 13.8449 21.784 14.0295 21.784 14.2155C21.784 19.6193 17.4033 24 11.9994 24C6.59555 24 2.21484 19.6193 2.21484 14.2154C2.21484 13.3474 2.32847 12.506 2.54058 11.7047Z" fill="#FF6536" />
    <path d="M21.7687 13.6615C21.7687 13.6615 20.6241 15.1501 19.2615 14.9538C19.2615 14.9538 21.7846 11.083 18.4615 6.64622C16.4716 11.305 11.0127 8.81817 13.4153 0C12.9131 0.113156 12.4421 0.255328 12 0.422719V24C17.4039 24 21.7846 19.6193 21.7846 14.2154C21.7846 14.0295 21.7789 13.8449 21.7687 13.6615Z" fill="#FF421D" />
    <path d="M7.70898 19.7089C7.70898 22.0788 9.6302 24 12.0001 24C14.37 24 16.2912 22.0788 16.2912 19.7089C16.2912 18.4404 15.7409 17.3005 14.8659 16.5149C13.2068 18.7689 10.8425 15.3498 12.685 12.8529C12.685 12.8529 7.70898 13.4765 7.70898 19.7089Z" fill="#FBBF00" />
    <path d="M16.2911 19.7089C16.2911 18.4404 15.7408 17.3005 14.8658 16.5149C13.2067 18.7689 10.8424 15.3498 12.6849 12.8529C12.6849 12.8529 12.4146 12.8869 12 13.0177V24C14.3699 24 16.2911 22.0788 16.2911 19.7089Z" fill="#FFA900" />
  </g>
  <g clip-path="url(#clip1)">
    <path d="M30.5406 11.7047C30.5406 11.7047 31.4888 13.0977 33.4761 14.2768C33.4761 14.2768 32.0368 2.11261 41.4147 0C39.0121 8.81817 44.471 11.305 46.4609 6.64622C49.784 11.083 47.2608 14.9538 47.2608 14.9538C48.6235 15.1501 49.768 13.6615 49.768 13.6615C49.7783 13.8449 49.784 14.0295 49.784 14.2155C49.784 19.6193 45.4033 24 39.9994 24C34.5955 24 30.2148 19.6193 30.2148 14.2154C30.2148 13.3474 30.3285 12.506 30.5406 11.7047Z" fill="#FF6536" />
    <path d="M49.7687 13.6615C49.7687 13.6615 48.6241 15.1501 47.2615 14.9538C47.2615 14.9538 49.7846 11.083 46.4615 6.64622C44.4716 11.305 39.0127 8.81817 41.4153 0C40.9131 0.113156 40.4421 0.255328 40 0.422719V24C45.4039 24 49.7846 19.6193 49.7846 14.2154C49.7846 14.0295 49.7789 13.8449 49.7687 13.6615Z" fill="#FF421D" />
    <path d="M35.709 19.7089C35.709 22.0788 37.6302 24 40.0001 24C42.37 24 44.2912 22.0788 44.2912 19.7089C44.2912 18.4404 43.7409 17.3005 42.8659 16.5149C41.2068 18.7689 38.8425 15.3498 40.685 12.8529C40.685 12.8529 35.709 13.4765 35.709 19.7089Z" fill="#FBBF00" />
    <path d="M44.2911 19.7089C44.2911 18.4404 43.7408 17.3005 42.8658 16.5149C41.2067 18.7689 38.8424 15.3498 40.6849 12.8529C40.6849 12.8529 40.4146 12.8869 40 13.0177V24C42.3699 24 44.2911 22.0788 44.2911 19.7089Z" fill="#FFA900" />
  </g>
  <g clip-path="url(#clip2)">
    <path d="M58.5406 11.7047C58.5406 11.7047 59.4888 13.0977 61.4761 14.2768C61.4761 14.2768 60.0368 2.11261 69.4147 0C67.0121 8.81817 72.471 11.305 74.4609 6.64622C77.784 11.083 75.2608 14.9538 75.2608 14.9538C76.6235 15.1501 77.768 13.6615 77.768 13.6615C77.7783 13.8449 77.784 14.0295 77.784 14.2155C77.784 19.6193 73.4033 24 67.9994 24C62.5955 24 58.2148 19.6193 58.2148 14.2154C58.2148 13.3474 58.3285 12.506 58.5406 11.7047Z" fill="#FF6536" />
    <path d="M77.7687 13.6615C77.7687 13.6615 76.6241 15.1501 75.2615 14.9538C75.2615 14.9538 77.7846 11.083 74.4615 6.64622C72.4716 11.305 67.0127 8.81817 69.4153 0C68.9131 0.113156 68.4421 0.255328 68 0.422719V24C73.4039 24 77.7846 19.6193 77.7846 14.2154C77.7846 14.0295 77.7789 13.8449 77.7687 13.6615Z" fill="#FF421D" />
    <path d="M63.709 19.7089C63.709 22.0788 65.6302 24 68.0001 24C70.37 24 72.2912 22.0788 72.2912 19.7089C72.2912 18.4404 71.7409 17.3005 70.8659 16.5149C69.2068 18.7689 66.8425 15.3498 68.685 12.8529C68.685 12.8529 63.709 13.4765 63.709 19.7089Z" fill="#FBBF00" />
    <path d="M72.2911 19.7089C72.2911 18.4404 71.7408 17.3005 70.8658 16.5149C69.2067 18.7689 66.8424 15.3498 68.6849 12.8529C68.6849 12.8529 68.4146 12.8869 68 13.0177V24C70.3699 24 72.2911 22.0788 72.2911 19.7089Z" fill="#FFA900" />
  </g>
  <defs>
    <clipPath id="clip0">
      <path d="M0 0H24V24H0V0Z" fill="white" />
    </clipPath>
    <clipPath id="clip1">
      <path d="M28 0H52V24H28V0Z" fill="white" />
    </clipPath>
    <clipPath id="clip2">
      <path d="M56 0H80V24H56V0Z" fill="white" />
    </clipPath>
  </defs>
</svg>