<svg width="53" height="24" viewBox="0 0 53 24" fill="none" xmlns="http://www.w3.org/2000/svg">
  <g clip-path="url(#clip0)">
    <g clip-path="url(#clip1)">
      <path d="M3.35112 11.7047C3.35112 11.7047 4.29931 13.0977 6.28662 14.2768C6.28662 14.2768 4.84733 2.11261 14.2253 0C11.8226 8.81817 17.2815 11.305 19.2714 6.64622C22.5945 11.083 20.0714 14.9538 20.0714 14.9538C21.434 15.1501 22.5786 13.6615 22.5786 13.6615C22.5888 13.8449 22.5945 14.0295 22.5945 14.2155C22.5946 19.6193 18.2139 24 12.81 24C7.40609 24 3.02539 19.6193 3.02539 14.2154C3.02539 13.3474 3.13902 12.506 3.35112 11.7047Z" fill="#FFC736" />
      <path d="M22.5792 13.6615C22.5792 13.6615 21.4346 15.1501 20.072 14.9538C20.072 14.9538 22.5951 11.083 19.272 6.64622C17.2821 11.305 11.8232 8.81817 14.2259 0C13.7236 0.113156 13.2526 0.255328 12.8105 0.422719V24C18.2144 24 22.5951 19.6193 22.5951 14.2154C22.5951 14.0295 22.5894 13.8449 22.5792 13.6615Z" fill="#FDB63F" />
      <path d="M8.51953 19.7089C8.51953 22.0788 10.4407 24 12.8107 24C15.1806 24 17.1018 22.0788 17.1018 19.7089C17.1018 18.4404 16.5514 17.3005 15.6764 16.5149C14.0173 18.7689 11.653 15.3498 13.4956 12.8529C13.4956 12.8529 8.51953 13.4765 8.51953 19.7089Z" fill="#FCFF5C" />
      <path d="M17.1017 19.7089C17.1017 18.4404 16.5513 17.3005 15.6763 16.5149C14.0172 18.7689 11.6529 15.3498 13.4955 12.8529C13.4955 12.8529 13.2251 12.8869 12.8105 13.0177V24C15.1805 24 17.1017 22.0788 17.1017 19.7089Z" fill="#FF8832" />
    </g>
    <g clip-path="url(#clip2)">
      <path d="M31.3511 11.7047C31.3511 11.7047 32.2993 13.0977 34.2866 14.2768C34.2866 14.2768 32.8473 2.11261 42.2253 0C39.8226 8.81817 45.2815 11.305 47.2714 6.64622C50.5945 11.083 48.0714 14.9538 48.0714 14.9538C49.434 15.1501 50.5786 13.6615 50.5786 13.6615C50.5888 13.8449 50.5945 14.0295 50.5945 14.2155C50.5946 19.6193 46.2139 24 40.81 24C35.4061 24 31.0254 19.6193 31.0254 14.2154C31.0254 13.3474 31.139 12.506 31.3511 11.7047Z" fill="#FFC736" />
      <path d="M50.5792 13.6615C50.5792 13.6615 49.4346 15.1501 48.072 14.9538C48.072 14.9538 50.5951 11.083 47.272 6.64622C45.2821 11.305 39.8232 8.81817 42.2259 0C41.7236 0.113156 41.2526 0.255328 40.8105 0.422719V24C46.2144 24 50.5951 19.6193 50.5951 14.2154C50.5951 14.0295 50.5894 13.8449 50.5792 13.6615Z" fill="#F7B84E" />
      <path d="M36.5195 19.7089C36.5195 22.0788 38.4407 24 40.8107 24C43.1806 24 45.1018 22.0788 45.1018 19.7089C45.1018 18.4404 44.5514 17.3005 43.6764 16.5149C42.0173 18.7689 39.653 15.3498 41.4956 12.8529C41.4956 12.8529 36.5195 13.4765 36.5195 19.7089Z" fill="#FCFF5C" />
      <path d="M45.1017 19.7089C45.1017 18.4404 44.5513 17.3005 43.6763 16.5149C42.0172 18.7689 39.6529 15.3498 41.4955 12.8529C41.4955 12.8529 41.2251 12.8869 40.8105 13.0177V24C43.1805 24 45.1017 22.0788 45.1017 19.7089Z" fill="#FF8832" />
    </g>
  </g>
  <defs>
    <clipPath id="clip0">
      <rect x="0.810547" width="52" height="24" fill="white" />
    </clipPath>
    <clipPath id="clip1">
      <path d="M0.810547 0H24.8105V24H0.810547V0Z" fill="white" />
    </clipPath>
    <clipPath id="clip2">
      <path d="M28.8105 0H52.8105V24H28.8105V0Z" fill="white" />
    </clipPath>
  </defs>
</svg>