<svg width="25" height="24" viewBox="0 0 25 24" fill="none" xmlns="http://www.w3.org/2000/svg">
  <g clip-path="url(#clip0)">
    <g clip-path="url(#clip1)">
      <path d="M2.94585 11.7047C2.94585 11.7047 3.89404 13.0977 5.88135 14.2768C5.88135 14.2768 4.44205 2.11261 13.82 0C11.4173 8.81817 16.8763 11.305 18.8661 6.64622C22.1893 11.083 19.6661 14.9538 19.6661 14.9538C21.0287 15.1501 22.1733 13.6615 22.1733 13.6615C22.1835 13.8449 22.1893 14.0295 22.1893 14.2155C22.1893 19.6193 17.8086 24 12.4047 24C7.00082 24 2.62012 19.6193 2.62012 14.2154C2.62012 13.3474 2.73374 12.506 2.94585 11.7047Z" fill="#9BD362" />
      <path d="M22.1739 13.6615C22.1739 13.6615 21.0293 15.1501 19.6667 14.9538C19.6667 14.9538 22.1899 11.083 18.8668 6.64622C16.8769 11.305 11.4179 8.81817 13.8206 0C13.3184 0.113156 12.8474 0.255328 12.4053 0.422719V24C17.8092 24 22.1899 19.6193 22.1899 14.2154C22.1899 14.0295 22.1841 13.8449 22.1739 13.6615Z" fill="#02C516" />
      <path d="M8.11426 19.7089C8.11426 22.0788 10.0355 24 12.4054 24C14.7753 24 16.6965 22.0788 16.6965 19.7089C16.6965 18.4404 16.1461 17.3005 15.2711 16.5149C13.612 18.7689 11.2478 15.3498 13.0903 12.8529C13.0903 12.8529 8.11426 13.4765 8.11426 19.7089Z" fill="#A8FF51" />
      <path d="M16.6964 19.7089C16.6964 18.4404 16.146 17.3005 15.271 16.5149C13.6119 18.7689 11.2476 15.3498 13.0902 12.8529C13.0902 12.8529 12.8198 12.8869 12.4053 13.0177V24C14.7752 24 16.6964 22.0788 16.6964 19.7089Z" fill="#339F61" />
    </g>
  </g>
  <defs>
    <clipPath id="clip0">
      <rect x="0.405273" width="24" height="24" fill="white" />
    </clipPath>
    <clipPath id="clip1">
      <path d="M0.405273 0H24.4053V24H0.405273V0Z" fill="white" />
    </clipPath>
  </defs>
</svg>