<svg width="48" height="48" viewBox="0 0 48 48" fill="none" xmlns="http://www.w3.org/2000/svg">
<g clip-path="url(#clip0)">
<path d="M44.9299 44.0873H33.4206C33.0523 44.0873 32.7539 43.7888 32.7539 43.4206C32.7539 43.0524 33.0524 42.7539 33.4206 42.7539H44.9299C45.8879 42.7539 46.6673 41.9745 46.6673 41.0165C46.6673 40.0584 45.888 39.279 44.9299 39.279H39.4694C37.7762 39.279 36.3986 37.9014 36.3986 36.2082V32.2495C36.3986 31.8813 36.6971 31.5829 37.0653 31.5829C37.4334 31.5829 37.7319 31.8814 37.7319 32.2495V36.2082C37.7319 37.1663 38.5114 37.9457 39.4694 37.9457H44.9299C46.6232 37.9457 48.0007 39.3233 48.0007 41.0165C48.0007 42.7097 46.6232 44.0873 44.9299 44.0873Z" fill="#4980AC"/>
<path d="M18.5185 35.254L16.2344 40.6474H28.9607L26.6765 35.254H18.5185Z" fill="#DDEBFD"/>
<path d="M27.6354 37.5217L26.675 35.254H18.517L17.5566 37.5217H27.6354Z" fill="#BED9FD"/>
<path d="M12.0293 42.3986V43.6097C12.0293 43.8383 12.2147 44.0238 12.4434 44.0238H32.7481C32.9768 44.0238 33.1622 43.8383 33.1622 43.6097V42.3986C33.1622 41.4314 32.3782 40.6474 31.411 40.6474H13.7806C12.8134 40.6474 12.0293 41.4314 12.0293 42.3986V42.3986Z" fill="#BED9FD"/>
<path d="M0 34.112V27.2451C0 26.6143 0.511312 26.103 1.14206 26.103H44.0508C44.6815 26.103 45.1928 26.6143 45.1928 27.2451V34.112C45.1928 34.7427 44.6815 35.254 44.0508 35.254H1.14206C0.511312 35.254 0 34.7427 0 34.112H0Z" fill="#DDEBFD"/>
<path d="M45.1928 31.0283H0V8.12006C0 7.48931 0.511312 6.978 1.14206 6.978H44.0508C44.6815 6.978 45.1928 7.48931 45.1928 8.12006V31.0283Z" fill="#407194"/>
<path d="M22.5977 5.94215V27.8306H41.6153C41.8257 27.8306 41.9962 27.6601 41.9962 27.4496V2.95134C41.9962 2.52187 41.7089 2.14415 41.2943 2.03212C34.0164 0.0644001 27.6433 0.423275 22.5977 5.94215V5.94215Z" fill="#DDEBFD"/>
<path d="M22.5978 5.94215V27.8306H3.58013C3.36975 27.8306 3.19922 27.6601 3.19922 27.4496V2.95134C3.19922 2.52187 3.48656 2.14415 3.90113 2.03212C11.1791 0.0644001 17.5523 0.423275 22.5978 5.94215V5.94215Z" fill="#BED9FD"/>
<path d="M34.5397 44.071V42.7701C34.5397 41.1208 33.2027 39.7837 31.5533 39.7837H25.7598C24.1105 39.7837 22.7734 41.1208 22.7734 42.7701V44.071C22.7734 45.7203 24.1105 47.0574 25.7598 47.0574H31.5533C33.2027 47.0574 34.5397 45.7203 34.5397 44.071V44.071Z" fill="#CDE2FF"/>
<path d="M34.5397 44.071V42.7702C34.5397 42.6025 34.5252 42.4385 34.4988 42.2784C34.2642 43.6937 33.0351 44.7731 31.5533 44.7731H25.7598C24.278 44.7731 23.0491 43.6937 22.8144 42.2784C22.7879 42.4385 22.7734 42.6026 22.7734 42.7702V44.071C22.7734 45.7204 24.1105 47.0574 25.7598 47.0574H31.5533C33.2027 47.0574 34.5397 45.7205 34.5397 44.071V44.071Z" fill="#9EC8FC"/>
<path d="M31.6271 44.1237H30.7363C30.3479 44.1237 30.0332 43.8089 30.0332 43.4206C30.0332 43.0323 30.3479 42.7175 30.7363 42.7175H31.6271C32.0155 42.7175 32.3303 43.0323 32.3303 43.4206C32.3303 43.8089 32.0155 44.1237 31.6271 44.1237Z" fill="#5392F9"/>
<path d="M12.7186 13.7138L10.9151 7.32797C10.821 6.99394 10.5128 6.7605 10.1658 6.7605H9.90628C9.55978 6.7605 9.25172 6.99337 9.15703 7.3275L7.35338 13.7138C7.25335 14.0681 7.45941 14.4365 7.81378 14.5366C8.16807 14.6366 8.53641 14.4306 8.63653 14.0762L8.9505 12.9644H11.1216L11.4355 14.0762C11.5185 14.37 11.7858 14.5619 12.0767 14.5619C12.1367 14.5619 12.1977 14.5537 12.2583 14.5366C12.6126 14.4365 12.8186 14.0681 12.7186 13.7138V13.7138ZM9.327 11.6311L10.036 9.12094L10.745 11.6311H9.327Z" fill="#E27C48"/>
<path d="M17.7987 18.5919H14.8932C14.6566 18.5919 14.4378 18.4665 14.3181 18.2624C14.1984 18.0582 14.1959 17.806 14.3116 17.5996L16.6614 13.4029H14.8932C14.525 13.4029 14.2266 13.1044 14.2266 12.7362C14.2266 12.368 14.5251 12.0695 14.8932 12.0695H17.7987C18.0354 12.0695 18.2542 12.195 18.3739 12.3991C18.4935 12.6033 18.496 12.8555 18.3804 13.0619L16.0306 17.2586H17.7987C18.167 17.2586 18.4654 17.5571 18.4654 17.9253C18.4654 18.2934 18.167 18.5919 17.7987 18.5919V18.5919Z" fill="#4980AC"/>
<path d="M15.4279 24.6607H10.3659C9.99762 24.6607 9.69922 24.3622 9.69922 23.994C9.69922 23.6258 9.99772 23.3273 10.3659 23.3273H15.4279C15.7962 23.3273 16.0946 23.6258 16.0946 23.994C16.0946 24.3622 15.7962 24.6607 15.4279 24.6607Z" fill="#80B6FC"/>
<path d="M34.8263 24.6607H29.7643C29.3961 24.6607 29.0977 24.3622 29.0977 23.994C29.0977 23.6258 29.3962 23.3273 29.7643 23.3273H34.8263C35.1946 23.3273 35.493 23.6258 35.493 23.994C35.493 24.3622 35.1946 24.6607 34.8263 24.6607Z" fill="#9EC8FC"/>
<path d="M26.0425 18.9253C25.8599 19.1198 25.9892 19.4523 26.2474 19.4523H38.3873C38.5473 19.4523 38.6771 19.3141 38.6771 19.1436V6.20945C38.6771 5.93438 38.365 5.79666 38.1824 5.99119L26.0425 18.9253ZM35.6402 16.5191H32.8343C32.5817 16.5191 32.4553 16.1938 32.6338 16.0036L35.4398 13.0143C35.6184 12.8241 35.9237 12.9588 35.9237 13.2279V16.2172C35.9237 16.3839 35.7968 16.5191 35.6402 16.5191Z" fill="#80B6FC"/>
<path d="M33.5939 12.1759C33.7252 12.3158 33.9025 12.3864 34.0802 12.3864C34.2438 12.3864 34.4077 12.3265 34.5363 12.2058C34.8048 11.9538 34.8182 11.5319 34.5663 11.2634L33.9561 10.6133C33.9373 10.5933 33.9175 10.5752 33.897 10.5581L32.9863 11.5284L33.5939 12.1759Z" fill="#5392F9"/>
<path d="M36.1448 9.45909C36.276 9.59897 36.4533 9.66956 36.6311 9.66956C36.7947 9.66956 36.9586 9.60975 37.0872 9.489C37.3557 9.237 37.3691 8.81512 37.1172 8.54662L36.507 7.89647C36.4882 7.8765 36.4683 7.8584 36.4478 7.84125L35.5371 8.81156L36.1448 9.45909Z" fill="#5392F9"/>
<path d="M31.0451 14.8927C31.1763 15.0326 31.3536 15.1032 31.5314 15.1032C31.695 15.1032 31.8588 15.0434 31.9875 14.9226C32.256 14.6706 32.2694 14.2488 32.0174 13.9803L31.4072 13.3301C31.3885 13.3102 31.3686 13.2921 31.3482 13.2751L30.4375 14.2454L31.0451 14.8927Z" fill="#5392F9"/>
<path d="M28.4942 17.6096C28.6255 17.7495 28.8028 17.8201 28.9805 17.8201C29.1441 17.8201 29.308 17.7603 29.4366 17.6395C29.7051 17.3875 29.7185 16.9657 29.4666 16.6972L28.8564 16.047C28.8377 16.0271 28.8178 16.009 28.7975 15.992L27.8867 16.9623L28.4942 17.6096Z" fill="#5392F9"/>
</g>
<defs>
<clipPath id="clip0">
<rect width="48" height="48" fill="white"/>
</clipPath>
</defs>
</svg>
