<svg width="48" height="48" viewBox="0 0 48 48" fill="none" xmlns="http://www.w3.org/2000/svg">
<path d="M38.9336 15.923C38.9336 12.0667 35.8594 8.94681 32.0874 9.00062C28.4097 9.05312 25.4265 12.1644 25.4336 15.9367C25.4309 17.0449 25.6927 18.1378 26.1971 19.1246C26.7015 20.1113 27.4341 20.9635 28.334 21.6104C28.4821 21.7183 28.6025 21.8599 28.685 22.0235C28.7675 22.1872 28.8099 22.3682 28.8086 22.5514L28.8117 25.5H35.5617L35.5585 22.5513C35.5574 22.3678 35.6 22.1865 35.6828 22.0227C35.7657 21.8588 35.8863 21.7171 36.0349 21.6092C36.9361 20.9609 37.6694 20.1066 38.1736 19.1175C38.6778 18.1285 38.9384 17.0332 38.9336 15.923V15.923Z" fill="#F7B030"/>
<path d="M36.0771 15.75C35.9136 15.7499 35.7547 15.6964 35.6244 15.5977C35.4941 15.499 35.3996 15.3604 35.3552 15.203C35.2177 14.7104 34.9706 14.2553 34.6322 13.8717C34.2939 13.4882 33.8732 13.1861 33.4016 12.9883C33.2175 12.9129 33.0708 12.7676 32.9939 12.5841C32.917 12.4007 32.9161 12.1942 32.9914 12.0101C33.0667 11.826 33.2121 11.6794 33.3955 11.6024C33.5789 11.5255 33.7854 11.5246 33.9695 11.5999C34.6518 11.8848 35.2607 12.3204 35.7508 12.8741C36.2408 13.4277 36.5993 14.085 36.7993 14.7968C36.8306 14.9083 36.8356 15.0255 36.8141 15.1393C36.7925 15.2531 36.7449 15.3603 36.675 15.4527C36.6051 15.545 36.5148 15.6199 36.4111 15.6715C36.3074 15.7231 36.1932 15.75 36.0774 15.7501L36.0771 15.75Z" fill="#FF8E26"/>
<path d="M35.1855 24H29.1855C28.3571 24 27.6855 24.6716 27.6855 25.5C27.6855 26.3284 28.3571 27 29.1855 27H35.1855C36.014 27 36.6855 26.3284 36.6855 25.5C36.6855 24.6716 36.014 24 35.1855 24Z" fill="#C3C6C7"/>
<path d="M29.1836 27H35.1836V28.5C35.1836 28.8978 35.0256 29.2794 34.7443 29.5607C34.4629 29.842 34.0814 30 33.6836 30H30.6836C30.2858 30 29.9042 29.842 29.6229 29.5607C29.3416 29.2794 29.1836 28.8978 29.1836 28.5V27Z" fill="#DADCDE"/>
<path d="M32.1855 6.75C31.9866 6.75 31.7959 6.67098 31.6552 6.53033C31.5146 6.38968 31.4355 6.19891 31.4355 6V4.5C31.4355 4.30109 31.5146 4.11032 31.6552 3.96967C31.7959 3.82902 31.9866 3.75 32.1855 3.75C32.3845 3.75 32.5752 3.82902 32.7159 3.96967C32.8565 4.11032 32.9355 4.30109 32.9355 4.5V6C32.9355 6.19891 32.8565 6.38968 32.7159 6.53033C32.5752 6.67098 32.3845 6.75 32.1855 6.75Z" fill="#FFB632"/>
<path d="M27.9152 7.65797C27.7702 7.65804 27.6282 7.61602 27.5065 7.53701C27.3848 7.45801 27.2886 7.3454 27.2297 7.21284L26.6195 5.84249C26.5386 5.66078 26.5332 5.45436 26.6045 5.26865C26.6758 5.08295 26.8179 4.93317 26.9996 4.85226C27.1814 4.77135 27.3878 4.76594 27.5735 4.83723C27.7592 4.90851 27.909 5.05065 27.9899 5.23237L28.6 6.60271C28.6507 6.71687 28.6722 6.84187 28.6624 6.9664C28.6526 7.09093 28.6118 7.21105 28.5439 7.31585C28.4759 7.42065 28.3828 7.50684 28.2731 7.56658C28.1634 7.62632 28.0405 7.65773 27.9156 7.65797H27.9152Z" fill="#FFB632"/>
<path d="M24.3821 10.2242C24.1967 10.2243 24.0179 10.1556 23.8804 10.0312L22.7658 9.02811C22.6926 8.96221 22.6331 8.88254 22.5907 8.79364C22.5482 8.70474 22.5238 8.60836 22.5186 8.51C22.5134 8.41164 22.5277 8.31323 22.5606 8.22039C22.5935 8.12754 22.6443 8.04208 22.7102 7.96888C22.7761 7.89568 22.8558 7.83618 22.9447 7.79378C23.0336 7.75137 23.13 7.72689 23.2283 7.72173C23.3267 7.71657 23.4251 7.73084 23.5179 7.76371C23.6108 7.79659 23.6962 7.84743 23.7694 7.91333L24.8841 8.91702C24.9969 9.01852 25.0762 9.15183 25.1116 9.29935C25.1471 9.44688 25.1369 9.60167 25.0825 9.74331C25.0281 9.88494 24.9321 10.0067 24.807 10.0927C24.682 10.1786 24.5338 10.2245 24.3821 10.2245V10.2242Z" fill="#FFB632"/>
<path d="M22.1987 14.0055C22.12 14.0055 22.0417 13.993 21.9669 13.9686L20.5403 13.5052C20.446 13.4752 20.3587 13.4269 20.2832 13.363C20.2077 13.2992 20.1456 13.221 20.1004 13.1331C20.0552 13.0451 20.0279 12.9491 20.02 12.8505C20.0121 12.752 20.0237 12.6528 20.0543 12.5588C20.0848 12.4647 20.1337 12.3776 20.198 12.3025C20.2623 12.2275 20.3409 12.1658 20.4291 12.1212C20.5173 12.0766 20.6135 12.0498 20.7121 12.0425C20.8107 12.0352 20.9098 12.0475 21.0037 12.0786L22.4303 12.542C22.6003 12.597 22.745 12.711 22.8385 12.8633C22.9319 13.0156 22.9679 13.1962 22.94 13.3727C22.9121 13.5492 22.8221 13.71 22.6862 13.826C22.5502 13.942 22.3774 14.0057 22.1987 14.0055V14.0055Z" fill="#FFB632"/>
<path d="M20.2498 18.5044C20.0576 18.5044 19.8728 18.4306 19.7335 18.2982C19.5942 18.1659 19.5109 17.9851 19.501 17.7932C19.4911 17.6013 19.5552 17.4129 19.6801 17.2669C19.805 17.1209 19.9812 17.0284 20.1723 17.0085L21.6641 16.8516C21.8613 16.8321 22.0581 16.8914 22.2117 17.0165C22.3653 17.1417 22.4632 17.3225 22.4839 17.5195C22.5046 17.7166 22.4465 17.9138 22.3223 18.0682C22.1981 18.2225 22.0178 18.3215 21.8209 18.3434L20.3291 18.5002C20.3027 18.503 20.2763 18.5044 20.2498 18.5044Z" fill="#FFB632"/>
<path d="M44.1202 18.5045C44.0937 18.5045 44.0672 18.5031 44.0409 18.5003L42.5491 18.3435C42.4507 18.3337 42.3552 18.3046 42.2681 18.2578C42.181 18.211 42.104 18.1475 42.0416 18.0708C41.9791 17.9942 41.9325 17.9059 41.9042 17.8112C41.876 17.7164 41.8668 17.617 41.8772 17.5187C41.8875 17.4204 41.9172 17.325 41.9645 17.2382C42.0118 17.1514 42.0758 17.0748 42.1528 17.0128C42.2299 16.9508 42.3184 16.9047 42.4133 16.877C42.5082 16.8494 42.6077 16.8408 42.706 16.8517L44.1978 17.0085C44.389 17.0284 44.5652 17.121 44.6901 17.267C44.815 17.413 44.8791 17.6015 44.8691 17.7934C44.8592 17.9853 44.7759 18.1661 44.6366 18.2984C44.4972 18.4307 44.3124 18.5045 44.1202 18.5045V18.5045Z" fill="#FFB632"/>
<path d="M42.1704 14.0054C41.9917 14.0056 41.8188 13.9419 41.6829 13.8258C41.5471 13.7098 41.457 13.5491 41.4291 13.3726C41.4012 13.1961 41.4372 13.0155 41.5307 12.8632C41.6241 12.7109 41.7689 12.597 41.9389 12.5419L43.3654 12.0785C43.4591 12.0481 43.5578 12.0364 43.656 12.0441C43.7542 12.0519 43.8499 12.0788 43.9377 12.1236C44.0254 12.1683 44.1035 12.2298 44.1675 12.3047C44.2314 12.3796 44.28 12.4664 44.3104 12.5601C44.3409 12.6537 44.3526 12.7525 44.3448 12.8507C44.3371 12.9489 44.3101 13.0446 44.2654 13.1323C44.2207 13.2201 44.1591 13.2982 44.0842 13.3621C44.0093 13.4261 43.9226 13.4747 43.8289 13.5051L42.4023 13.9687C42.3274 13.9931 42.2491 14.0055 42.1704 14.0054V14.0054Z" fill="#FFB632"/>
<path d="M39.9886 10.2242C39.8369 10.2243 39.6887 10.1783 39.5637 10.0924C39.4386 10.0065 39.3425 9.88474 39.2881 9.7431C39.2337 9.60146 39.2236 9.44666 39.259 9.29913C39.2944 9.1516 39.3738 9.01828 39.4865 8.91677L40.6011 7.91308C40.6743 7.84717 40.7598 7.79633 40.8527 7.76346C40.9455 7.73058 41.044 7.71632 41.1423 7.72149C41.2407 7.72666 41.3371 7.75115 41.426 7.79357C41.5149 7.83599 41.5946 7.89551 41.6605 7.96872C41.7264 8.04194 41.7773 8.12742 41.8102 8.22029C41.843 8.31315 41.8573 8.41158 41.8521 8.50996C41.847 8.60834 41.8225 8.70473 41.78 8.79364C41.7376 8.88255 41.6781 8.96224 41.6049 9.02815L40.4903 10.0313C40.3528 10.1556 40.174 10.2243 39.9886 10.2242V10.2242Z" fill="#FFB632"/>
<path d="M36.4541 7.65791C36.3292 7.65768 36.2063 7.62627 36.0966 7.56652C35.9869 7.50678 35.8939 7.4206 35.8259 7.3158C35.7579 7.21099 35.7172 7.09088 35.7074 6.96635C35.6976 6.84182 35.719 6.71681 35.7698 6.60266L36.3799 5.23232C36.4634 5.05469 36.6132 4.91686 36.7971 4.84842C36.981 4.77997 37.1845 4.78636 37.3638 4.8662C37.5431 4.94605 37.6839 5.093 37.7561 5.27551C37.8283 5.45803 37.826 5.66156 37.7499 5.84244L37.1397 7.21279C37.0807 7.34535 36.9846 7.45795 36.8629 7.53696C36.7412 7.61597 36.5992 7.65798 36.4541 7.65791Z" fill="#FFB632"/>
<path d="M33.75 41.25H44.25C44.6478 41.25 45.0294 41.408 45.3107 41.6893C45.592 41.9706 45.75 42.3522 45.75 42.75V44.25C45.75 44.6478 45.592 45.0294 45.3107 45.3107C45.0294 45.592 44.6478 45.75 44.25 45.75H25.3278C24.9461 45.75 10.1317 42.75 9.75 42.75H6.75V29.25H13.5C17.25 29.25 24.75 36 24.75 36L32.25 38.25C32.25 38.25 33.75 39 33.75 39.75V41.25C33.75 41.6478 33.592 42.0294 33.3107 42.3107C33.0294 42.592 32.6478 42.75 32.25 42.75L24.75 41.25L19.5 38.25" fill="#F7CCA9"/>
<path d="M2.25 27.75H6.75V44.25H2.25V27.75Z" fill="#2D85CC"/>
<path d="M32.25 42.75L24.75 41.25L19.5 38.25L15 37.5V39L19.5 39.75L24.75 42L32.25 43.5C32.6478 43.5 33.0294 43.342 33.3107 43.0607C33.592 42.7794 33.75 42.3978 33.75 42V41.25C33.75 41.6478 33.592 42.0294 33.3107 42.3107C33.0294 42.592 32.6478 42.75 32.25 42.75Z" fill="#E0B999"/>
</svg>
