<svg width="16" height="16" viewBox="0 0 16 16" fill="none" xmlns="http://www.w3.org/2000/svg">
<path fill-rule="evenodd" clip-rule="evenodd" d="M11.8715 4.66732C10.9645 3.38645 9.59591 2.66732 8.00016 2.66732C5.05464 2.66732 2.66683 5.05513 2.66683 8.00065C2.66683 10.9462 5.05464 13.334 8.00016 13.334C10.9457 13.334 13.3335 10.9462 13.3335 8.00065H14.6668C14.6668 11.6825 11.6821 14.6673 8.00016 14.6673C4.31826 14.6673 1.3335 11.6825 1.3335 8.00065C1.3335 4.31875 4.31826 1.33398 8.00016 1.33398C9.86965 1.33398 11.5168 2.12233 12.6668 3.51422V1.33398L14.0002 1.33398V6.00065L9.3335 6.00065V4.66732L11.8715 4.66732Z" fill="url(#paint0_linear)"/>
<defs>
<linearGradient id="paint0_linear" x1="1.3335" y1="8.00065" x2="14.6668" y2="8.00065" gradientUnits="userSpaceOnUse">
<stop stop-color="#5B70F6"/>
<stop offset="1" stop-color="#8658F3"/>
</linearGradient>
</defs>
</svg>
