<svg width="48" height="48" viewBox="0 0 48 48" fill="none" xmlns="http://www.w3.org/2000/svg">
<path d="M24 48C37.2548 48 48 37.2548 48 24C48 10.7452 37.2548 0 24 0C10.7452 0 0 10.7452 0 24C0 37.2548 10.7452 48 24 48Z" fill="#34C759"/>
<path d="M47.5499 9.86264L43.3123 5.66259C42.7498 5.10006 41.8123 5.10006 41.2124 5.66259L23.0997 24.3752L15.2622 16.6502C14.6996 16.0876 13.7621 16.0876 13.1622 16.6502L9.41213 20.3627C8.8496 20.9252 8.8496 21.8627 9.41213 22.4253L21.9372 34.8377C22.2748 35.1753 22.7248 35.2877 23.1748 35.2502C23.6248 35.2877 24.0747 35.1752 24.4123 34.8377L47.5499 11.9626C48.1124 11.3626 48.1124 10.4251 47.5499 9.86264Z" fill="#F7F7F7"/>
</svg>
