<svg width="16" height="16" viewBox="0 0 16 16" fill="none" xmlns="http://www.w3.org/2000/svg">
<path d="M8 15.0312C7.88969 15.0312 7.77981 14.9928 7.69147 14.9154C7.00941 14.319 6.36075 13.766 5.75056 13.246C2.30678 10.3112 0 8.37216 0 5.54731C0 2.93713 1.84491 0.96875 4.25 0.96875C6.14559 0.96875 7.36234 2.29306 8 3.48553C8.63766 2.29306 9.85441 0.96875 11.75 0.96875C14.1551 0.96875 16 2.93713 16 5.54731C16 8.37219 13.6932 10.3112 10.2494 13.246C9.63925 13.766 8.99059 14.319 8.30853 14.9154C8.22019 14.9928 8.11031 15.0312 8 15.0312Z" fill="#FD3018"/>
<path d="M8.30853 14.9154C8.99059 14.319 9.63925 13.766 10.2494 13.246C13.6932 10.3112 16 8.37216 16 5.54731C16 2.93713 14.1551 0.96875 11.75 0.96875C9.85441 0.96875 8.63766 2.29306 8 3.48553V15.0312C8.11031 15.0312 8.22019 14.9928 8.30853 14.9154Z" fill="#E61E14"/>
</svg>
