<svg width="48" height="48" viewBox="0 0 48 48" fill="none" xmlns="http://www.w3.org/2000/svg">
<path d="M21.1848 39.777H1.40607C0.629544 39.777 0 39.1474 0 38.3709V35.9808C0 32.3033 1.76658 29.0306 4.49558 26.9668C4.88787 26.6702 5.50991 27.2111 5.93952 26.9668C6.36912 26.7225 6.60646 25.693 7.06868 25.5058C8.37492 24.9768 9.8018 24.6854 11.2954 24.6854C12.726 24.6854 14.0953 24.9527 15.356 25.44C15.8466 25.6296 15.712 27.543 16.1669 27.7964C16.6274 28.053 17.6769 26.6505 18.0952 26.9668C20.8243 29.0307 22.5908 32.3033 22.5908 35.9808V38.3709C22.5908 39.1474 21.9613 39.777 21.1848 39.777Z" fill="#B9DD39"/>
<path d="M15.8398 26.0014C14.2159 25.0966 13.2827 24.6854 11.2954 24.6854C9.30819 24.6854 8.24989 25.3257 6.62598 26.2304C6.7633 29.1384 8.35356 31.3302 11.2954 31.3302C14.2373 31.3302 15.7025 28.9094 15.8398 26.0014Z" fill="#FFDE3B"/>
<path d="M4.49609 26.9675C5.03434 30.2354 7.87769 32.7365 11.2956 32.7365C14.7134 32.7365 17.5568 30.2354 18.095 26.9675C17.2637 26.3388 16.3431 25.8225 15.3559 25.4409C15.3689 25.5735 15.376 25.7079 15.376 25.8439C15.376 28.0938 13.5456 29.9243 11.2956 29.9243C9.04557 29.9243 7.21515 28.0938 7.21515 25.8439C7.21515 25.7079 7.22218 25.5734 7.23521 25.4409C6.24806 25.8226 5.32736 26.3389 4.49609 26.9675Z" fill="#90CC1C"/>
<path d="M46.5939 39.777H26.8152C26.0387 39.777 25.4092 39.1474 25.4092 38.3709V35.9808C25.4092 32.3033 27.1758 29.0306 29.9048 26.9668C30.297 26.6702 30.9191 27.2111 31.3487 26.9668C31.7783 26.7224 32.0156 25.693 32.4779 25.5058C33.7841 24.9768 35.211 24.6854 36.7046 24.6854C38.1351 24.6854 39.5044 24.9527 40.7651 25.44C41.2558 25.6296 41.1211 27.543 41.5761 27.7964C42.0366 28.053 43.0861 26.6505 43.5043 26.9668C46.2334 29.0306 47.9999 32.3033 47.9999 35.9807V38.3708C48 39.1474 47.3705 39.777 46.5939 39.777Z" fill="#7DD5F4"/>
<path d="M41.249 26.0014C39.6251 25.0966 38.6919 24.6854 36.7046 24.6854C34.7174 24.6854 33.6591 25.3257 32.0352 26.2304C32.1725 29.1384 33.7627 31.3302 36.7046 31.3302C39.6465 31.3302 41.1117 28.9094 41.249 26.0014Z" fill="#7DD5F4"/>
<path d="M29.9053 26.9675C30.4435 30.2354 33.2869 32.7365 36.7048 32.7365C40.1226 32.7365 42.966 30.2354 43.5042 26.9675C42.6729 26.3388 41.7523 25.8225 40.7651 25.4409C40.7781 25.5735 40.7852 25.7079 40.7852 25.8439C40.7852 28.0938 38.9547 29.9243 36.7048 29.9243C34.4548 29.9243 32.6243 28.0938 32.6243 25.8439C32.6243 25.7079 32.6314 25.5734 32.6444 25.4409C31.6571 25.8226 30.7365 26.3389 29.9053 26.9675Z" fill="#26BFA6"/>
<path d="M1.65679 16.4999C1.60693 16.8977 1.58105 17.303 1.58105 17.714C1.58105 23.0704 5.93884 27.4282 11.2952 27.4282C16.6516 27.4282 21.0094 23.0704 21.0094 17.714C21.0094 17.3029 20.9835 16.8977 20.9336 16.4999H1.65679Z" fill="#FFE4C1"/>
<path d="M1.60742 16.9994H20.983C20.6156 11.9757 16.4111 8.00055 11.2952 8.00055C6.1793 8.00046 1.97478 11.9757 1.60742 16.9994Z" fill="#453D81"/>
<path d="M36.7044 27.4288C31.3479 27.4288 26.9902 23.0711 26.9902 17.7147C26.9902 17.3036 27.0159 16.8983 27.0657 16.5005C27.665 11.715 44.4789 10.6712 45.8365 14.401C46.2131 15.4356 46.4185 16.5516 46.4185 17.7147C46.4185 23.0711 42.0608 27.4288 36.7044 27.4288Z" fill="#FFE4C1"/>
<path d="M46.5938 8H34.5241C32.4894 8 30.5895 8.79415 29.1746 10.236C27.8187 11.6179 27.0547 13.4452 27.0071 15.3995L26.9902 16.9993L29.9682 16.999L40.5942 16.9993H40.5943C42.6408 16.9993 44.5293 16.1997 45.9114 14.7479C47.2582 13.3334 47.9998 11.4362 47.9998 9.40607C47.9998 8.62954 47.3704 8 46.5938 8Z" fill="#453D81"/>
</svg>
