<svg width="64" height="60" viewBox="0 0 64 60" fill="none" xmlns="http://www.w3.org/2000/svg">
<path d="M25.6318 45.0098H38.3672V58.9014H25.6318V45.0098Z" fill="#7B8191"/>
<path d="M60.7559 46.1637H3.24325C1.452 46.1637 0 44.7118 0 42.9206V3.40475C0 1.61362 1.452 0.161621 3.24325 0.161621H60.7559C62.547 0.161621 63.9991 1.61362 63.9991 3.40487V42.9206C63.9991 44.7118 62.547 46.1637 60.7559 46.1637Z" fill="url(#paint0_linear)"/>
<path d="M60.7559 46.1634H3.24325C1.452 46.1634 0 44.7114 0 42.9203V38.6963H63.9991V42.9203C63.9991 44.7114 62.547 46.1634 60.7559 46.1634Z" fill="#8D9CA8"/>
<path d="M31.9994 54.3872C30.6867 54.3872 29.6226 53.3229 29.6226 52.0103V46.1641H34.3764V52.0103C34.3764 53.3229 33.3122 54.3872 31.9994 54.3872Z" fill="#E4EBEF"/>
<path d="M45.0569 59.8394H18.9414C18.4237 59.8394 18.0039 59.4196 18.0039 58.9019C18.0039 58.3841 18.4237 57.9644 18.9414 57.9644H45.0569C45.5748 57.9644 45.9944 58.3841 45.9944 58.9019C45.9944 59.4196 45.5748 59.8394 45.0569 59.8394Z" fill="#8D9CA8"/>
<path d="M17.4083 13.8063H6.36797C5.89509 13.8063 5.51172 13.4229 5.51172 12.95V5.39727C5.51172 4.92439 5.89509 4.54102 6.36797 4.54102H17.4083C17.8812 4.54102 18.2646 4.92439 18.2646 5.39727V12.9501C18.2645 13.423 17.8812 13.8063 17.4083 13.8063Z" fill="#FFDA2D"/>
<path d="M11.8879 4.54102H6.36768L11.2264 9.57539C11.5879 9.95002 12.1881 9.95002 12.5496 9.57539L17.4083 4.54102H11.8879Z" fill="#FF9100"/>
<path d="M23.8442 18.186H63.999V38.6962H23.8442V18.186Z" fill="#737EE6"/>
<path d="M0 18.186H23.844V38.6962H0V18.186Z" fill="#F27281"/>
<path d="M56.8032 9.70468H24.3927C24.0897 9.70468 23.8442 9.45905 23.8442 9.15618V5.10368C23.8442 4.80068 24.0899 4.55518 24.3927 4.55518H56.8032C57.1062 4.55518 57.3517 4.8008 57.3517 5.10368V9.15618C57.3517 9.45918 57.1062 9.70468 56.8032 9.70468Z" fill="#B3DAFE"/>
<path d="M31.2648 26.4517C32.4295 26.4517 33.3738 25.5073 33.3738 24.3423C33.3738 23.1773 32.4295 22.2329 31.2648 22.2329C30.1 22.2329 29.1558 23.1773 29.1558 24.3423C29.1558 25.5073 30.1 26.4517 31.2648 26.4517Z" fill="#FD9468"/>
<path d="M58.7561 27.0815H37.5278C37.01 27.0815 36.5903 26.6618 36.5903 26.144C36.5903 25.6263 37.01 25.2065 37.5278 25.2065H58.7561C59.274 25.2065 59.6936 25.6263 59.6936 26.144C59.6936 26.6618 59.2738 27.0815 58.7561 27.0815Z" fill="#FDFDFD"/>
<path d="M58.756 31.3755H29.1558C28.638 31.3755 28.2183 30.9557 28.2183 30.438C28.2183 29.9202 28.638 29.5005 29.1558 29.5005H58.756C59.2739 29.5005 59.6935 29.9202 59.6935 30.438C59.6935 30.9557 59.2738 31.3755 58.756 31.3755Z" fill="#FDFDFD"/>
<path d="M58.756 35.6694H29.1558C28.638 35.6694 28.2183 35.2497 28.2183 34.7319C28.2183 34.2142 28.638 33.7944 29.1558 33.7944H58.756C59.2739 33.7944 59.6935 34.2142 59.6935 34.7319C59.6935 35.2497 59.2738 35.6694 58.756 35.6694Z" fill="#FDFDFD"/>
<defs>
<linearGradient id="paint0_linear" x1="31.9996" y1="0.161621" x2="31.9996" y2="46.1637" gradientUnits="userSpaceOnUse">
<stop stop-color="white"/>
<stop offset="1" stop-color="#E5E4FB"/>
</linearGradient>
</defs>
</svg>
