<svg width="36" height="32" viewBox="0 0 36 32" fill="none" xmlns="http://www.w3.org/2000/svg">
<path d="M35.9406 15.7335L28.7406 0.348895C28.6409 0.135938 28.431 0 28.1999 0H7.79994C7.56897 0 7.35894 0.13601 7.25931 0.348895L0.0593789 15.7335C-0.019793 15.9021 -0.019793 16.0979 0.0593789 16.2665L7.25938 31.6511C7.35901 31.8641 7.56897 32 7.80001 32H28.2C28.431 32 28.641 31.864 28.7406 31.6511L35.9406 16.2665C36.0198 16.0979 36.0198 15.9021 35.9406 15.7335Z" fill="url(#paint0_linear)"/>
<path d="M13.5735 8L25.5404 24H22.433L10.3999 8L13.5735 8Z" fill="url(#paint1_linear)"/>
<path d="M10.3999 23.9995H13.5735L16.4164 20.2309L14.8297 18.1152L10.3999 23.9995Z" fill="url(#paint2_linear)"/>
<path d="M25.5407 8H22.3672L19.5903 11.7686L21.1771 13.8843L25.5407 8Z" fill="url(#paint3_linear)"/>
<defs>
<linearGradient id="paint0_linear" x1="2.01166e-07" y1="16" x2="36" y2="16" gradientUnits="userSpaceOnUse">
<stop stop-color="#5B70F6"/>
<stop offset="1" stop-color="#8658F3"/>
</linearGradient>
<linearGradient id="paint1_linear" x1="17.9702" y1="8" x2="17.9702" y2="24" gradientUnits="userSpaceOnUse">
<stop stop-color="white"/>
<stop offset="1" stop-color="#E5E4FB"/>
</linearGradient>
<linearGradient id="paint2_linear" x1="13.4082" y1="18.1152" x2="13.4082" y2="23.9995" gradientUnits="userSpaceOnUse">
<stop stop-color="white"/>
<stop offset="1" stop-color="#E5E4FB"/>
</linearGradient>
<linearGradient id="paint3_linear" x1="22.5655" y1="8" x2="22.5655" y2="13.8843" gradientUnits="userSpaceOnUse">
<stop stop-color="white"/>
<stop offset="1" stop-color="#E5E4FB"/>
</linearGradient>
</defs>
</svg>
