<svg width="48" height="48" viewBox="0 0 48 48" fill="none" xmlns="http://www.w3.org/2000/svg">
<path d="M33.8438 36.6562L31.0312 39.4688V45.1875L33.8438 48H48V36.6562H33.8438Z" fill="#737EE6"/>
<path d="M0 33.8438V48H14.1562L16.9688 45.1875V36.6562L14.1562 33.8438H0Z" fill="#F27281"/>
<path d="M14.1562 28.2188H33.8438V48H14.1562V28.2188Z" fill="#FDBF00"/>
<path d="M29.6252 14.1562H28.8892V11.3438H29.6252C31.9514 11.3438 33.844 9.35742 33.844 7.03125V5.625H29.6252V2.8125H36.6565V7.03125C36.6565 10.908 33.502 14.1562 29.6252 14.1562Z" fill="#FDBF00"/>
<path d="M19.1111 14.1562H18.375C14.4983 14.1562 11.3438 10.908 11.3438 7.03125V2.8125H18.375V5.625H14.1562V7.03125C14.1562 9.35742 16.0488 11.3438 18.375 11.3438H19.1111V14.1562Z" fill="#FDBF00"/>
<path d="M16.9688 0V9.9375C16.9688 11.0343 17.2218 12.0751 17.7001 13.0312C18.2626 14.1844 19.1627 15.2812 20.0625 16.3217C21.2999 17.8125 22.5938 19.3312 22.5938 20.625V24H25.4062V20.625C25.4062 19.3312 26.7001 17.8125 27.9375 16.3217C28.8373 15.2812 29.7374 14.1844 30.2999 13.0594C30.7782 12.0751 31.0312 11.0343 31.0312 9.9375V0H16.9688Z" fill="#FFDA2D"/>
<path d="M44.4662 28.6252L39.1873 25.8511L33.9113 28.6252L34.9191 22.749L30.6509 18.5877L36.5494 17.7308L39.1873 12.3845L41.8254 17.7308L47.8203 18.5877L43.4554 22.749L44.4662 28.6252Z" fill="#FF9100"/>
<path d="M14.0887 28.625L8.81274 25.851L3.53381 28.625L4.54456 22.7488L0.179688 18.5875L6.17456 17.7306L8.81274 12.3846L11.4509 17.7306L17.3491 18.5875L13.0809 22.7488L14.0887 28.625Z" fill="#FDBF00"/>
<path d="M28.2188 39.4688V42.2812H19.7812V39.4688H22.5938V36.6562H19.7812V33.8438H25.4062V39.4688H28.2188Z" fill="#596C76"/>
<path d="M19.7812 22.5938H28.2188V25.4062H19.7812V22.5938Z" fill="#FDBF00"/>
<path d="M24 22.5938H28.2188V25.4062H24V22.5938Z" fill="#FDBF00"/>
</svg>
