<svg width="16" height="16" viewBox="0 0 16 16" fill="none" xmlns="http://www.w3.org/2000/svg">
  <path d="M14.7841 4.49417C14.7484 4.5888 14.7075 4.68193 14.6605 4.77362C14.5907 4.90988 14.421 4.94976 14.2923 4.86675L10.157 2.19923C10.027 2.11532 10.0005 1.93669 10.0975 1.81612C10.776 0.973383 11.8811 0.626164 12.8972 0.882926C12.9047 0.884804 12.9121 0.88673 12.9196 0.888701C12.9208 0.889004 12.922 0.889308 12.9231 0.889613C13.1939 0.961241 13.4582 1.07603 13.7063 1.23607C14.8078 1.94657 15.2281 3.31553 14.7841 4.49417Z" fill="#DC8B02" />
  <path d="M14.1896 9.03929C14.1896 10.6492 13.5748 12.1155 12.567 13.2162C11.4358 14.4518 9.80956 15.0781 8.00235 15.0781C4.58521 15.0781 2 12.4564 2 9.03929C2 7.23233 2.58962 5.60633 3.82486 4.47512C4.9256 3.46708 6.39216 2.85199 8.00235 2.85199C11.4195 2.85199 14.1896 5.62214 14.1896 9.03929Z" fill="#F7B84E" />
  <path d="M8.0018 13.4219C10.4223 13.4219 12.3845 11.4597 12.3845 9.03927C12.3845 6.6188 10.4223 4.65662 8.0018 4.65662C5.58132 4.65662 3.61914 6.6188 3.61914 9.03927C3.61914 11.4597 5.58132 13.4219 8.0018 13.4219Z" fill="white" />
  <path d="M8.0019 10.0705C8.57142 10.0705 9.0331 9.60877 9.0331 9.03926C9.0331 8.46974 8.57142 8.00806 8.0019 8.00806C7.43239 8.00806 6.9707 8.46974 6.9707 9.03926C6.9707 9.60877 7.43239 10.0705 8.0019 10.0705Z" fill="#FAF5DC" />
  <path d="M8.00183 6.20337C7.85932 6.20337 7.74403 6.31869 7.74403 6.46116V8.78139H5.42381C5.2813 8.78139 5.16602 8.8967 5.16602 9.03918C5.16602 9.18169 5.28133 9.29697 5.42381 9.29697H8.00186C8.14436 9.29697 8.25965 9.18165 8.25965 9.03918V6.46113C8.25962 6.31869 8.14433 6.20337 8.00183 6.20337Z" fill="#6F6571" />
  <path d="M8.00193 5.68781C7.85943 5.68781 7.74414 5.57249 7.74414 5.43001V5.17222C7.74414 5.02972 7.85946 4.91443 8.00193 4.91443C8.14444 4.91443 8.25972 5.02975 8.25972 5.17222V5.43001C8.25972 5.57252 8.14444 5.68781 8.00193 5.68781Z" fill="#EAC89F" />
  <path d="M8.00193 13.1641C7.85943 13.1641 7.74414 13.0488 7.74414 12.9063V12.6485C7.74414 12.506 7.85946 12.3907 8.00193 12.3907C8.14444 12.3907 8.25972 12.5061 8.25972 12.6485V12.9063C8.25972 13.0488 8.14444 13.1641 8.00193 13.1641Z" fill="#EAC89F" />
  <path d="M11.8691 9.29702H11.6113C11.4688 9.29702 11.3535 9.1817 11.3535 9.03922C11.3535 8.89672 11.4688 8.78143 11.6113 8.78143H11.8691C12.0116 8.78143 12.1269 8.89675 12.1269 9.03922C12.1269 9.18173 12.0116 9.29702 11.8691 9.29702Z" fill="#EAC89F" />
  <path d="M4.39254 9.29702H4.13475C3.99224 9.29702 3.87695 9.1817 3.87695 9.03922C3.87695 8.89672 3.99227 8.78143 4.13475 8.78143H4.39254C4.53504 8.78143 4.65033 8.89675 4.65033 9.03922C4.65033 9.18173 4.53501 9.29702 4.39254 9.29702Z" fill="#EAC89F" />
  <path d="M8.00194 9.55485C8.28671 9.55485 8.51756 9.324 8.51756 9.03924C8.51756 8.75447 8.28671 8.52362 8.00194 8.52362C7.71718 8.52362 7.48633 8.75447 7.48633 9.03924C7.48633 9.324 7.71718 9.55485 8.00194 9.55485Z" fill="#5D5360" />
  <path d="M1.6422 1.82314C1.6422 1.82315 1.6422 1.82314 1.6422 1.82314C0.980795 2.64893 0.843696 3.81057 1.34272 4.78086C1.41353 4.91852 1.58751 4.96681 1.71702 4.88196L5.83328 2.18525C5.96135 2.10134 5.99379 1.93008 5.8976 1.81095C5.83288 1.73079 5.76441 1.6556 5.6924 1.58466C4.79536 0.70049 3.37364 0.529009 2.27726 1.24725C2.03001 1.40922 1.81764 1.60443 1.6422 1.82314Z" fill="#DC8B02" />
</svg>