<svg width="64" height="64" viewBox="0 0 64 64" fill="none" xmlns="http://www.w3.org/2000/svg">
<path fill-rule="evenodd" clip-rule="evenodd" d="M14.6589 18.6663C13.7837 17.2353 13.3335 15.474 13.3335 13.333C13.3335 9.1119 16.5078 5.33301 21.3335 5.33301C26.1655 5.33301 30.0622 8.56935 32.0002 13.6365C33.9381 8.56935 37.8349 5.33301 42.6668 5.33301C47.4926 5.33301 50.6668 9.1119 50.6668 13.333C50.6668 15.474 50.2166 17.2353 49.3414 18.6663H53.3335C56.279 18.6663 58.6668 21.0542 58.6668 23.9997V29.333C58.6668 32.2785 56.279 34.6663 53.3335 34.6663V53.333C53.3335 56.2785 50.9457 58.6663 48.0002 58.6663H16.0002C13.0546 58.6663 10.6668 56.2785 10.6668 53.333V34.6663C7.72131 34.6663 5.3335 32.2785 5.3335 29.333V23.9997C5.3335 21.0542 7.72131 18.6663 10.6668 18.6663H14.6589ZM29.3335 23.9997H10.6668V29.333H29.3335V23.9997ZM53.3335 29.333H34.6668V23.9997H53.3335V29.333ZM29.3335 53.333V34.6663H16.0002V53.333H29.3335ZM48.0002 53.333H34.6668V34.6663H48.0002V53.333ZM21.3335 10.6663C19.6792 10.6663 18.6668 11.8716 18.6668 13.333C18.6668 16.675 21.3788 18.264 27.8119 18.5983C27.097 13.6306 24.4326 10.6663 21.3335 10.6663ZM36.0002 18.5983C36.7151 13.6306 39.3795 10.6663 42.4786 10.6663C44.1329 10.6663 45.1453 11.8716 45.1453 13.333C45.1453 16.675 42.4333 18.264 36.0002 18.5983Z" fill="url(#paint0_linear)"/>
<defs>
<linearGradient id="paint0_linear" x1="5.3335" y1="31.9997" x2="58.6668" y2="31.9997" gradientUnits="userSpaceOnUse">
<stop stop-color="#F8B02E"/>
<stop offset="1" stop-color="#F08A41"/>
</linearGradient>
</defs>
</svg>
