<svg width="24" height="24" viewBox="0 0 24 24" fill="none" xmlns="http://www.w3.org/2000/svg">
<path d="M11.9993 0C18.6271 0 23.9986 5.37266 23.9986 12C23.9986 18.6273 18.6257 24 11.9993 24C5.3729 24 0 18.6273 0 12C0 5.37266 5.3729 0 11.9993 0Z" fill="#22336C"/>
<path fill-rule="evenodd" clip-rule="evenodd" d="M11.9994 2.42383C17.2868 2.42383 21.5729 6.71016 21.5729 11.9965C21.5729 16.6497 18.2526 20.5274 13.8512 21.3907C12.9011 22.5145 10.5408 23.2454 8.99104 22.8425C9.397 22.5735 9.81293 21.8353 9.78872 21.313C5.56674 20.3159 2.42163 16.5231 2.42163 11.9979C2.42163 6.71016 6.7077 2.42527 11.9951 2.42527" fill="white"/>
<path d="M14.3467 3.52734L14.3866 3.53742C16.2405 4.03361 17.8752 5.14523 19.028 6.6935C20.1807 8.24176 20.7844 10.1367 20.742 12.0735C20.6996 14.0103 20.0135 15.8764 18.7941 17.3716C17.5747 18.8669 15.8929 19.9044 14.0191 20.3173C12.7243 21.959 11.5976 22.5576 9.67177 22.6381C10.4324 21.9187 10.5706 21.4511 10.9067 20.4612C11.1916 19.7187 11.1318 17.8712 10.6774 16.6065L8.92822 15.618C8.94959 12.8755 10.4794 9.39209 12.2785 7.88993C13.4564 8.52591 14.4236 8.34749 15.5162 7.66116C15.8663 7.43562 16.2341 7.23929 16.6158 7.07411C16.254 6.03238 15.0874 4.27698 14.3695 3.55756L14.3396 3.52878L14.3467 3.52734Z" fill="#0095DA"/>
<path d="M12.0649 3.2241C12.8306 3.22375 13.593 3.32485 14.3326 3.52481H14.3483L14.3297 3.53633C8.9953 6.3205 5.69777 12.1277 6.85582 18.7996C5.78513 17.9992 4.91498 16.9565 4.31513 15.7551C3.71528 14.5538 3.40241 13.2272 3.40161 11.8816C3.40161 7.10035 7.2803 3.22266 12.0649 3.22266" fill="#ED1C24"/>
</svg>
