<svg width="75" height="75" viewBox="0 0 75 75" fill="none" xmlns="http://www.w3.org/2000/svg">
<path d="M54.25 74.25H48C47.6685 74.25 47.3505 74.1183 47.1161 73.8839C46.8817 73.6495 46.75 73.3315 46.75 73C46.75 72.6685 46.8817 72.3505 47.1161 72.1161C47.3505 71.8817 47.6685 71.75 48 71.75H54.25C54.5815 71.75 54.8995 71.8817 55.1339 72.1161C55.3683 72.3505 55.5 72.6685 55.5 73C55.5 73.3315 55.3683 73.6495 55.1339 73.8839C54.8995 74.1183 54.5815 74.25 54.25 74.25Z" fill="#EA9D2D"/>
<path d="M53 61.75H49.25C48.9185 61.75 48.6005 61.6183 48.3661 61.3839C48.1317 61.1495 48 60.8315 48 60.5C48 60.1685 48.1317 59.8505 48.3661 59.6161C48.6005 59.3817 48.9185 59.25 49.25 59.25H53C53.3315 59.25 53.6495 59.3817 53.8839 59.6161C54.1183 59.8505 54.25 60.1685 54.25 60.5C54.25 60.8315 54.1183 61.1495 53.8839 61.3839C53.6495 61.6183 53.3315 61.75 53 61.75Z" fill="#EA9D2D"/>
<path d="M41.75 36.75H57.1038C57.6894 36.75 58.2633 36.9146 58.76 37.225L68 43L66.75 48L57.8369 42.9453L54.875 41.0083L41.75 36.75Z" fill="#55300B"/>
<path d="M52.5059 23.7413L55.4999 19.25L59.2499 25.5L52.5059 23.7413Z" fill="#027E2A"/>
<path d="M49.25 21.75L59.25 25.5L54.25 36.75L44.25 33L49.25 21.75Z" fill="#02A437"/>
<path d="M30.5 28L23 44.25H28L31.75 36.75L30.5 28Z" fill="#FDC9A6"/>
<path d="M28.1426 33.1072L32.9998 36.75L35.4998 33L31.7498 26.75L30.4998 28L28.1426 33.1072Z" fill="#2CBFF4"/>
<path d="M15.5 44.25H48C49.9891 44.25 51.8968 45.0402 53.3033 46.4467C54.7098 47.8532 55.5 49.7609 55.5 51.75C55.5 53.7391 54.7098 55.6468 53.3033 57.0533C51.8968 58.4598 49.9891 59.25 48 59.25H15.5V44.25Z" fill="#D32B39"/>
<path d="M40.5 16.75C40.5 13.9886 38.2614 11.75 35.5 11.75C32.7386 11.75 30.5 13.9886 30.5 16.75V19.25C30.5 22.0114 32.7386 24.25 35.5 24.25C38.2614 24.25 40.5 22.0114 40.5 19.25V16.75Z" fill="#FDC9A6"/>
<path d="M40.4999 15.5001H32.9999L30.4999 18.0001L28.6826 13.4566C28.472 12.9304 28.3927 12.3608 28.4514 11.797C28.5101 11.2333 28.705 10.6923 29.0194 10.2207C29.4446 9.58298 30.0676 9.10274 30.7925 8.85394C31.5174 8.60514 32.304 8.60158 33.0312 8.8438L34.2499 9.25005L35.2302 7.28927C35.6445 6.46074 36.355 5.81816 37.2209 5.48897C38.0868 5.15978 39.0447 5.16803 39.9048 5.51209C40.7536 5.8516 41.4463 6.49388 41.8489 7.31466C42.2514 8.13543 42.3353 9.07635 42.0842 9.95537L40.4999 15.5001Z" fill="#683B0D"/>
<path d="M33 24.25L30.5 28V33.2172C30.5 33.8964 30.6581 34.5663 30.9619 35.1737L35.5 44.25L41.75 36.75L39.25 33L38 24.25H33Z" fill="#0296E5"/>
<path d="M34.25 33L48.3633 36.2569C48.9723 36.3974 49.611 36.329 50.1764 36.0626C50.7419 35.7962 51.2013 35.3473 51.4806 34.7881C51.6649 34.4196 51.7651 34.0147 51.774 33.6027C51.7829 33.1908 51.7002 32.782 51.5321 32.4058C51.3639 32.0296 51.1143 31.6955 50.8013 31.4274C50.4884 31.1593 50.1199 30.9641 49.7223 30.8556L39.25 28L34.25 33Z" fill="#FDC9A6"/>
<path d="M39.2495 28L38.5736 25.2969C38.4098 24.6408 38.0313 24.0584 37.4984 23.6422C36.9655 23.226 36.3087 23 35.6325 23C35.1717 22.9999 34.717 23.1048 34.3029 23.3068C33.8888 23.5088 33.5262 23.8026 33.2426 24.1658C32.959 24.5289 32.762 24.952 32.6665 25.4027C32.5709 25.8535 32.5794 26.3201 32.6912 26.767L34.2495 33L39.2495 28Z" fill="#2CBFF4"/>
<path d="M41.75 36.75L55.2713 40.1303C55.7318 40.2454 56.1601 40.464 56.5236 40.7694C56.8871 41.0748 57.1762 41.459 57.3691 41.8928L61.75 51.75L58 55.5L53 44.25H35.5L41.75 36.75Z" fill="#683B0D"/>
<path d="M68 43L70.5 41.75L74.25 43L71.75 49.25L66.75 48L68 43Z" fill="#CBCBCB"/>
<path d="M61.75 51.75L66.75 54.25V58L59.25 59.25L58 55.5L61.75 51.75Z" fill="#CBCBCB"/>
<path d="M15.3438 46.75H11.5938C11.2622 46.75 10.9443 46.6183 10.7099 46.3839C10.4754 46.1495 10.3438 45.8315 10.3438 45.5C10.3438 45.1685 10.4754 44.8505 10.7099 44.6161C10.9443 44.3817 11.2622 44.25 11.5938 44.25H15.3438C15.6753 44.25 15.9932 44.3817 16.2276 44.6161C16.4621 44.8505 16.5938 45.1685 16.5938 45.5C16.5938 45.8315 16.4621 46.1495 16.2276 46.3839C15.9932 46.6183 15.6753 46.75 15.3438 46.75Z" fill="#D32B39"/>
<path d="M18 60.5H11.75C11.4185 60.5 11.1005 60.3683 10.8661 60.1339C10.6317 59.8995 10.5 59.5815 10.5 59.25C10.5 58.9185 10.6317 58.6005 10.8661 58.3661C11.1005 58.1317 11.4185 58 11.75 58H18C18.3315 58 18.6495 58.1317 18.8839 58.3661C19.1183 58.6005 19.25 58.9185 19.25 59.25C19.25 59.5815 19.1183 59.8995 18.8839 60.1339C18.6495 60.3683 18.3315 60.5 18 60.5Z" fill="#D32B39"/>
<path d="M15.5 49.25H48C48.663 49.25 49.2989 49.5134 49.7678 49.9822C50.2366 50.4511 50.5 51.087 50.5 51.75C50.5 52.413 50.2366 53.0489 49.7678 53.5178C49.2989 53.9866 48.663 54.25 48 54.25H15.5V49.25Z" fill="#CBCBCB"/>
<path d="M50.5 74.25H18C16.0109 74.25 14.1032 73.4598 12.6967 72.0533C11.2902 70.6468 10.5 68.7391 10.5 66.75C10.5 64.7609 11.2902 62.8532 12.6967 61.4467C14.1032 60.0402 16.0109 59.25 18 59.25H50.5V74.25Z" fill="#EA9D2D"/>
<path d="M50.5 64.25H18C17.337 64.25 16.7011 64.5134 16.2322 64.9822C15.7634 65.4511 15.5 66.087 15.5 66.75C15.5 67.413 15.7634 68.0489 16.2322 68.5178C16.7011 68.9866 17.337 69.25 18 69.25H50.5V64.25Z" fill="#CBCBCB"/>
<path d="M19.4645 25.2855L19.25 25.5H11.75L11.5355 25.2855C10.4146 24.1646 9.52545 22.8339 8.91883 21.3694C8.31221 19.9048 7.99999 18.3352 8 16.75C8 14.7609 8.79018 12.8532 10.1967 11.4467C11.6032 10.0402 13.5109 9.25 15.5 9.25C17.4891 9.25 19.3968 10.0402 20.8033 11.4467C22.2098 12.8532 23 14.7609 23 16.75C23 18.3352 22.6878 19.9048 22.0812 21.3694C21.4746 22.8339 20.5854 24.1646 19.4645 25.2855Z" fill="#EA9D2D"/>
<path d="M18.8839 15.866C18.7679 15.7499 18.6301 15.6579 18.4784 15.595C18.3267 15.5322 18.1642 15.4999 18 15.4999C17.8359 15.4999 17.6733 15.5322 17.5217 15.595C17.37 15.6579 17.2322 15.7499 17.1161 15.866L15.5 17.4823L13.8839 15.866C13.6495 15.6316 13.3316 15.4999 13 15.4999C12.6685 15.4999 12.3506 15.6316 12.1161 15.866C11.8817 16.1004 11.75 16.4184 11.75 16.7499C11.75 17.0815 11.8817 17.3994 12.1161 17.6338L14.25 19.7677V25.4999C14.25 25.8314 14.3817 26.1494 14.6162 26.3838C14.8506 26.6182 15.1685 26.7499 15.5 26.7499C15.8316 26.7499 16.1495 26.6182 16.3839 26.3838C16.6183 26.1494 16.75 25.8314 16.75 25.4999V19.7677L18.8839 17.6338C19 17.5178 19.0921 17.38 19.1549 17.2283C19.2178 17.0766 19.2501 16.9141 19.2501 16.7499C19.2501 16.5858 19.2178 16.4232 19.1549 16.2716C19.0921 16.1199 19 15.9821 18.8839 15.866Z" fill="#C38325"/>
<path d="M15.5 5.5C15.1685 5.5 14.8505 5.3683 14.6161 5.13388C14.3817 4.89946 14.25 4.58152 14.25 4.25V1.75C14.25 1.41848 14.3817 1.10054 14.6161 0.866116C14.8505 0.631696 15.1685 0.5 15.5 0.5C15.8315 0.5 16.1495 0.631696 16.3839 0.866116C16.6183 1.10054 16.75 1.41848 16.75 1.75V4.25C16.75 4.58152 16.6183 4.89946 16.3839 5.13388C16.1495 5.3683 15.8315 5.5 15.5 5.5Z" fill="#FBB540"/>
<path d="M9.87551 7.00738C9.65589 7.0076 9.44008 6.94994 9.24982 6.84022C9.05957 6.7305 8.90158 6.57259 8.79176 6.38238L7.54176 4.21738C7.45839 4.07517 7.40397 3.91787 7.38164 3.75454C7.35931 3.59121 7.3695 3.42508 7.41164 3.2657C7.45378 3.10633 7.52702 2.95686 7.62716 2.82591C7.72729 2.69496 7.85234 2.58511 7.9951 2.50268C8.13787 2.42025 8.29552 2.36688 8.459 2.34563C8.62247 2.32438 8.78854 2.33568 8.94763 2.37887C9.10672 2.42207 9.2557 2.4963 9.38598 2.5973C9.51627 2.6983 9.62529 2.82408 9.70676 2.96739L10.9568 5.13238C11.0664 5.32231 11.1242 5.53775 11.1242 5.75706C11.1243 5.97638 11.0666 6.19184 10.9571 6.38183C10.8475 6.57182 10.6899 6.72963 10.5001 6.83944C10.3102 6.94924 10.0948 7.00716 9.87551 7.00738Z" fill="#FBB540"/>
<path d="M5.75634 11.125C5.53723 11.125 5.32199 11.0672 5.13243 10.9573L2.96743 9.70733C2.68267 9.54039 2.4755 9.26759 2.39113 8.94847C2.30676 8.62935 2.35204 8.28982 2.51709 8.00396C2.68213 7.7181 2.95355 7.50912 3.2721 7.42264C3.59065 7.33615 3.93048 7.37918 4.21743 7.54232L6.38243 8.79232C6.62088 8.92993 6.80723 9.1424 6.91255 9.39676C7.01788 9.65111 7.03629 9.93313 6.96492 10.199C6.89355 10.4649 6.73641 10.6998 6.51787 10.8672C6.29934 11.0347 6.03164 11.1253 5.75634 11.125Z" fill="#FBB540"/>
<path d="M4.25 16.75H1.75C1.41848 16.75 1.10054 16.6183 0.866116 16.3839C0.631696 16.1495 0.5 15.8315 0.5 15.5C0.5 15.1685 0.631696 14.8505 0.866116 14.6161C1.10054 14.3817 1.41848 14.25 1.75 14.25H4.25C4.58152 14.25 4.89946 14.3817 5.13388 14.6161C5.3683 14.8505 5.5 15.1685 5.5 15.5C5.5 15.8315 5.3683 16.1495 5.13388 16.3839C4.89946 16.6183 4.58152 16.75 4.25 16.75Z" fill="#FBB540"/>
<path d="M3.59326 23.625C3.31795 23.6253 3.05023 23.5347 2.83167 23.3673C2.61311 23.1999 2.45593 22.965 2.38455 22.6991C2.31316 22.4332 2.33156 22.1512 2.43688 21.8968C2.5422 21.6424 2.72856 21.4299 2.96701 21.2923L5.13201 20.0423C5.41896 19.8792 5.75879 19.8362 6.07735 19.9226C6.3959 20.0091 6.66731 20.2181 6.83236 20.504C6.9974 20.7898 7.04268 21.1294 6.95831 21.4485C6.87394 21.7676 6.66677 22.0404 6.38201 22.2073L4.21701 23.4573C4.02746 23.5671 3.81231 23.6249 3.59326 23.625Z" fill="#FBB540"/>
<path d="M21.1237 7.00738C20.9044 7.00716 20.689 6.94924 20.4992 6.83944C20.3093 6.72963 20.1517 6.57182 20.0421 6.38183C19.9326 6.19184 19.8749 5.97638 19.875 5.75706C19.8751 5.53775 19.9328 5.32231 20.0425 5.13238L21.2925 2.96739C21.3739 2.82408 21.483 2.6983 21.6133 2.5973C21.7435 2.4963 21.8925 2.42207 22.0516 2.37887C22.2107 2.33568 22.3768 2.32438 22.5402 2.34563C22.7037 2.36688 22.8614 2.42025 23.0041 2.50268C23.1469 2.58511 23.2719 2.69496 23.3721 2.82591C23.4722 2.95686 23.5455 3.10633 23.5876 3.2657C23.6297 3.42508 23.6399 3.59121 23.6176 3.75454C23.5953 3.91787 23.5408 4.07517 23.4575 4.21738L22.2075 6.38238C22.0977 6.57259 21.9397 6.7305 21.7494 6.84022C21.5592 6.94994 21.3433 7.0076 21.1237 7.00738Z" fill="#FBB540"/>
<path d="M19.25 30.5L16.75 33H14.25L11.75 30.5V25.5H19.25V30.5Z" fill="#CBCBCB"/>
<path d="M11.75 30.5H19.25L16.75 33H14.25L11.75 30.5Z" fill="#EAEAE8"/>
</svg>
