<svg width="64" height="64" viewBox="0 0 64 64" fill="none" xmlns="http://www.w3.org/2000/svg">
<path d="M53.8535 28.8111C54.5663 28.1322 54.8471 27.1157 54.5839 26.1671C54.3207 25.2186 53.5563 24.4921 52.5955 24.2776C51.6347 24.0631 50.6339 24.3953 49.9922 25.1418L49.5122 25.6431C48.1789 24.7151 44.4882 21.9524 36.9149 21.0671C36.4696 21.0241 36.043 21.2564 35.8375 21.6538L31.9975 29.3338L28.1575 21.6538C27.9521 21.2564 27.5255 21.0241 27.0802 21.0671C19.2615 21.9631 15.5922 24.8431 14.3549 25.7284L13.9175 25.2698C13.4143 24.7409 12.7169 24.4404 11.9869 24.4378C10.9221 24.4396 9.96039 25.0747 9.54067 26.0533C9.12094 27.0319 9.3236 28.1664 10.0562 28.9391L14.4829 33.6004L18.1522 37.4724L17.2135 38.3044C16.3589 39.0652 15.845 40.137 15.7868 41.2797C15.7287 42.4225 16.1312 43.5408 16.9042 44.3844L20.0829 47.8298C20.4872 48.2279 20.7148 48.7717 20.7148 49.3391C20.7148 49.9066 20.4872 50.4503 20.0829 50.8484L18.4509 52.4804L17.6829 51.8084C17.2774 51.4513 16.6696 51.4513 16.2642 51.8084L7.45353 59.7444C6.79386 60.3351 6.56763 61.2718 6.88501 62.0985C7.20239 62.9251 7.99741 63.4697 8.88286 63.4671H23.2935C23.8208 63.4687 24.33 63.2749 24.7229 62.9231L26.6215 61.2164C26.849 61.0142 26.9783 60.7237 26.9762 60.4194C26.9742 60.115 26.841 59.8263 26.6109 59.6271L25.8429 58.9551L27.9335 56.9178C28.536 56.3311 29.3433 56.0021 30.1842 56.0004H32.1895C35.3121 56.0068 38.2403 54.485 40.0295 51.9258C41.2645 50.1399 42.5925 48.4202 44.0082 46.7738C44.1267 46.6395 44.2304 46.4929 44.3175 46.3364L44.3389 46.3044L51.2402 38.9338C52.3844 37.7198 52.3465 35.8133 51.1549 34.6458C50.6171 34.112 49.8963 33.803 49.1389 33.7818L49.3095 33.6004L53.8535 28.8111Z" fill="#FDD7AD"/>
<path d="M49.5128 25.6431L41.9608 33.6004L40.2221 35.4244L33.8541 42.1338H29.9395L21.8328 33.6004L14.3555 25.7284C15.5928 24.8431 19.2621 21.9631 27.0808 21.0671C27.5261 21.0241 27.9527 21.2564 28.1581 21.6538L31.9981 29.3338L35.8381 21.6538C36.0436 21.2564 36.4702 21.0241 36.9155 21.0671C44.4888 21.9524 48.1795 24.7151 49.5128 25.6431Z" fill="#F5EFCA"/>
<path d="M31.9987 45.3337C31.5844 45.3336 31.2076 45.0937 31.0323 44.7182L23.5657 28.7182C23.3975 28.3719 23.4289 27.9619 23.648 27.6453C23.8671 27.3287 24.2397 27.1547 24.6231 27.1901C25.0064 27.2254 25.341 27.4646 25.4985 27.8158L31.9987 41.7444L38.499 27.8158C38.7536 27.2917 39.3817 27.0688 39.9097 27.3153C40.4378 27.5619 40.6702 28.1865 40.4318 28.7182L32.9651 44.7182C32.7899 45.0937 32.4131 45.3336 31.9987 45.3337Z" fill="#CBB292"/>
<path d="M26.6215 61.2169L24.7229 62.9236C24.33 63.2753 23.8208 63.4691 23.2935 63.4676H8.88286C7.99741 63.4702 7.20239 62.9256 6.88501 62.0989C6.56763 61.2723 6.79386 60.3356 7.45353 59.7449L16.2642 51.8089C16.6696 51.4517 17.2774 51.4517 17.6829 51.8089L18.4509 52.4809L25.8429 58.9556L26.6109 59.6276C26.841 59.8267 26.9742 60.1155 26.9762 60.4198C26.9783 60.7242 26.849 61.0147 26.6215 61.2169Z" fill="#955BA5"/>
<path d="M21.3333 61.3336C21.0504 61.3335 20.7791 61.2211 20.5792 61.021L18.6954 59.1373C18.2912 58.7187 18.297 58.0535 18.7084 57.642C19.1199 57.2306 19.7852 57.2248 20.2037 57.629L22.0874 59.5128C22.3924 59.8178 22.4836 60.2765 22.3185 60.6751C22.1535 61.0736 21.7646 61.3335 21.3333 61.3336Z" fill="#3D324C"/>
<path d="M53.8556 28.8111L49.3116 33.6004L49.141 33.7817L44.7996 38.3471V37.3337C44.8016 36.2537 44.1518 35.2791 43.1541 34.8655C42.1564 34.452 41.0077 34.6811 40.245 35.4457L40.2236 35.4244L41.9623 33.6004L49.5143 25.6431L49.9943 25.1417C50.636 24.3952 51.6369 24.063 52.5976 24.2776C53.5584 24.4921 54.3228 25.2185 54.586 26.1671C54.8492 27.1157 54.5685 28.1321 53.8556 28.8111Z" fill="#E64C3C"/>
<path d="M40.2447 35.4461C39.7449 35.9472 39.4648 36.6264 39.466 37.3341V43.9688L37.5567 45.9741C36.7729 46.7762 35.7373 47.2846 34.6234 47.4141C34.4439 47.4477 34.2619 47.4656 34.0794 47.4675H29.7167C29.5341 47.4656 29.3521 47.4477 29.1727 47.4141C28.0685 47.2876 27.0409 46.7869 26.2607 45.9955L18.154 37.4728L14.4847 33.6008L10.058 28.9395C9.3452 28.2605 9.06441 27.2441 9.32764 26.2955C9.59086 25.3469 10.3553 24.6205 11.316 24.406C12.2768 24.1914 13.2776 24.5236 13.9194 25.2701L14.3567 25.7288L21.834 33.6008L29.9407 42.1341H33.8554L40.2234 35.4248L40.2447 35.4461Z" fill="#E64C3C"/>
<path d="M51.2407 38.9342L44.3394 46.3049C44.6388 45.8171 44.7975 45.2559 44.798 44.6836V38.3476L49.1393 33.7822C49.8967 33.8035 50.6176 34.1124 51.1553 34.6462C52.347 35.8137 52.3849 37.7202 51.2407 38.9342Z" fill="#F9C795"/>
<path d="M29.8666 5.86703H25.6V1.60036C25.6 1.01125 25.1224 0.533691 24.5333 0.533691C23.9442 0.533691 23.4666 1.01125 23.4666 1.60036V5.86703H19.2C18.6109 5.86703 18.1333 6.34459 18.1333 6.93369C18.1333 7.5228 18.6109 8.00036 19.2 8.00036H23.4666V12.267C23.4666 12.8561 23.9442 13.3337 24.5333 13.3337C25.1224 13.3337 25.6 12.8561 25.6 12.267V8.00036H29.8666C30.4557 8.00036 30.9333 7.5228 30.9333 6.93369C30.9333 6.34459 30.4557 5.86703 29.8666 5.86703Z" fill="#FF5364"/>
<path d="M46.9325 5.86719H36.2659C35.6768 5.86719 35.1992 6.34475 35.1992 6.93385C35.1992 7.52296 35.6768 8.00052 36.2659 8.00052H46.9325C47.5216 8.00052 47.9992 7.52296 47.9992 6.93385C47.9992 6.34475 47.5216 5.86719 46.9325 5.86719Z" fill="#3B97D3"/>
<path d="M59.1033 13.295L63.69 8.67531C63.9585 8.40475 64.0622 8.0115 63.9621 7.64371C63.862 7.27592 63.5733 6.98947 63.2048 6.89225C62.8362 6.79503 62.4438 6.90181 62.1753 7.17238L57.5993 11.7814L53.0233 7.17238C52.6083 6.75412 51.9328 6.75149 51.5145 7.16652C51.0963 7.58154 51.0936 8.25705 51.5087 8.67531L56.0953 13.295L51.5087 17.9201C51.0933 18.3384 51.0957 19.0141 51.514 19.4294C51.9323 19.8448 52.608 19.8424 53.0233 19.4241L57.5993 14.8097L62.1753 19.4134C62.444 19.684 62.8366 19.7907 63.2053 19.6933C63.5739 19.5959 63.8626 19.3093 63.9626 18.9413C64.0626 18.5734 63.9587 18.18 63.69 17.9094L59.1033 13.295Z" fill="#F29C1F"/>
<path d="M41.5999 2.66702C42.189 2.66702 42.6665 2.18946 42.6665 1.60036C42.6665 1.01125 42.189 0.533691 41.5999 0.533691C41.0108 0.533691 40.5332 1.01125 40.5332 1.60036C40.5332 2.18946 41.0108 2.66702 41.5999 2.66702Z" fill="#3B97D3"/>
<path d="M41.5999 13.333C42.189 13.333 42.6665 12.8555 42.6665 12.2664C42.6665 11.6773 42.189 11.1997 41.5999 11.1997C41.0108 11.1997 40.5332 11.6773 40.5332 12.2664C40.5332 12.8555 41.0108 13.333 41.5999 13.333Z" fill="#3B97D3"/>
<path d="M12.7988 8.00026C12.7988 7.41116 12.3213 6.93359 11.7322 6.93359H1.06549C0.634138 6.93369 0.245297 7.19357 0.080237 7.5921C-0.0848232 7.99062 0.00639172 8.44933 0.31136 8.75439L4.89056 13.3336L0.31136 17.9128C0.00639172 18.2179 -0.0848232 18.6766 0.080237 19.0751C0.245297 19.4736 0.634138 19.7335 1.06549 19.7336H11.7322C12.3213 19.7336 12.7988 19.256 12.7988 18.6669C12.7988 18.0778 12.3213 17.6003 11.7322 17.6003H3.64043L7.15296 14.0877C7.56937 13.6712 7.56937 12.996 7.15296 12.5795L3.64043 9.06693H11.7322C12.3213 9.06693 12.7988 8.58936 12.7988 8.00026Z" fill="#65DDB9"/>
</svg>
