<svg width="33" height="34" viewBox="0 0 33 34" fill="none" xmlns="http://www.w3.org/2000/svg">
<path d="M3.0001 3.17723C0.485436 5.78923 1.0001 8.5639 1.0001 16.9932C1.0001 23.9932 -0.221231 31.0106 6.17077 32.6626C8.16677 33.1759 25.8521 33.1759 27.8454 32.6599C30.5068 31.9732 32.6721 29.8146 32.9681 26.0506C33.0094 25.5252 33.0094 8.47057 32.9668 7.93457C32.6521 3.92523 30.1841 1.61457 26.9321 1.14657C26.1868 1.03857 26.0374 1.00657 22.2134 0.999899C8.64944 1.00657 5.6761 0.402566 3.0001 3.17723V3.17723Z" fill="url(#paint0_linear)"/>
<path d="M16.9977 5.18523C12.1564 5.18523 7.55907 4.75456 5.80307 9.26123C5.07774 11.1226 5.18307 13.5399 5.18307 17.0012C5.18307 20.0386 5.08574 22.8932 5.80307 24.7399C7.55507 29.2492 12.1897 28.8172 16.9951 28.8172C21.6311 28.8172 26.4111 29.2999 28.1884 24.7399C28.9151 22.8599 28.8084 20.4786 28.8084 17.0012C28.8084 12.3852 29.0631 9.40523 26.8244 7.1679C24.5577 4.90123 21.4924 5.18523 16.9924 5.18523H16.9977ZM15.9391 7.31456C26.0377 7.29856 27.3231 6.1759 26.6137 21.7719C26.3617 27.2879 22.1617 26.6826 16.9991 26.6826C7.58574 26.6826 7.31507 26.4132 7.31507 16.9959C7.31507 7.46923 8.06174 7.3199 15.9391 7.3119V7.31456ZM23.3044 9.2759C22.5217 9.2759 21.8871 9.91056 21.8871 10.6932C21.8871 11.4759 22.5217 12.1106 23.3044 12.1106C24.0871 12.1106 24.7217 11.4759 24.7217 10.6932C24.7217 9.91056 24.0871 9.2759 23.3044 9.2759V9.2759ZM16.9977 10.9332C13.6471 10.9332 10.9311 13.6506 10.9311 17.0012C10.9311 20.3519 13.6471 23.0679 16.9977 23.0679C20.3484 23.0679 23.0631 20.3519 23.0631 17.0012C23.0631 13.6506 20.3484 10.9332 16.9977 10.9332V10.9332ZM16.9977 13.0626C22.2044 13.0626 22.2111 20.9399 16.9977 20.9399C11.7924 20.9399 11.7844 13.0626 16.9977 13.0626Z" fill="white"/>
<defs>
<linearGradient id="paint0_linear" x1="3.06146" y1="30.956" x2="32.8021" y2="5.21587" gradientUnits="userSpaceOnUse">
<stop stop-color="#FFDD55"/>
<stop offset="0.5" stop-color="#FF543E"/>
<stop offset="1" stop-color="#C837AB"/>
</linearGradient>
</defs>
</svg>
