<svg width="80" height="80" viewBox="0 0 80 80" fill="none" xmlns="http://www.w3.org/2000/svg">
<path fill-rule="evenodd" clip-rule="evenodd" d="M39.9976 79.9995L72.9852 79.9586C77.403 79.9543 79.8438 76.7671 79.8438 73.4071V31.1879C79.8438 28.5328 77.6715 26.3594 75.0171 26.3594H4.97864C2.32422 26.3594 0.15625 28.5328 0.15625 31.1879V73.4071C0.15625 76.7671 2.59216 79.9543 7.01477 79.9586L39.9976 79.9995Z" fill="#8EBFE8"/>
<path fill-rule="evenodd" clip-rule="evenodd" d="M73.7542 25.1681V70.6478H39.998V23.1045C40.3478 22.9025 40.7506 22.7047 41.209 22.5155C44.1765 21.2863 49.4438 20.3555 57.2136 20.1357C63.2311 20.303 66.6674 20.7534 69.9126 21.6763C72.7806 22.4899 73.7542 22.7499 73.7542 25.1681Z" fill="#ECEFF1"/>
<path fill-rule="evenodd" clip-rule="evenodd" d="M44.7057 44.4686L41.209 63.9163L39.998 70.6478H6.24561V25.1681C6.24561 22.7499 7.21912 22.4899 10.0823 21.6763C13.3324 20.7534 16.7638 20.3024 22.7861 20.1357C30.5547 20.3555 35.8184 21.2844 38.7859 22.5137C39.2449 22.7047 39.6489 22.9019 39.998 23.1045L41.209 28.5983L44.7057 44.4686Z" fill="#ECEFF1"/>
<path fill-rule="evenodd" clip-rule="evenodd" d="M8.74121 73.8761H39.9973L41.8656 72.0078L39.9973 70.648C34.6799 67.5608 16.8455 65.7743 6.24609 70.648V71.312C6.24609 72.7213 7.36914 73.8761 8.74121 73.8761Z" fill="#90A4AE"/>
<path fill-rule="evenodd" clip-rule="evenodd" d="M73.7537 70.648C63.15 65.7743 45.3198 67.5608 39.9976 70.648V73.8761H71.2537C72.6263 73.8761 73.7531 72.7213 73.7531 71.312V70.648H73.7537Z" fill="#90A4AE"/>
<path fill-rule="evenodd" clip-rule="evenodd" d="M52.1373 33.6116L55.9191 35.8577L59.7045 33.6116H59.9956C59.9956 27.0558 66.3402 26.2098 66.3317 19.1584C66.3225 12.4385 61.1229 9.1328 55.9191 9.21032C50.7195 9.1328 45.5199 12.4385 45.5108 19.1584C45.5016 26.2098 51.8462 27.0558 51.8462 33.6116H52.1373Z" fill="#FCD968"/>
<path d="M12.4601 51.0375C12.0018 51.0375 11.5629 50.7756 11.3584 50.3313C11.0783 49.7228 11.345 49.0026 11.9529 48.7224C16.1723 46.7803 21.4701 46.6521 24.2521 46.7485C28.4251 46.8932 32.1995 47.6702 34.102 48.7755C34.6812 49.1118 34.8777 49.854 34.5414 50.4332C34.2057 51.0131 33.4642 51.2096 32.8849 50.8733C29.9656 49.1771 19.3046 48.0095 12.9655 50.9264C12.8019 51.0021 12.6298 51.0375 12.4601 51.0375Z" fill="#37474F"/>
<path d="M12.4601 59.9398C12.0018 59.9398 11.5629 59.678 11.3584 59.2336C11.0783 58.6251 11.345 57.9049 11.9529 57.6248C16.1723 55.6826 21.4701 55.5544 24.2521 55.6509C28.4251 55.7961 32.1995 56.5725 34.102 57.6779C34.6812 58.0142 34.8777 58.7563 34.5414 59.3356C34.2057 59.9154 33.4642 60.1119 32.8849 59.7756C29.9656 58.0801 19.3046 56.9113 12.9655 59.8287C12.8019 59.9044 12.6298 59.9398 12.4601 59.9398Z" fill="#37474F"/>
<path d="M12.4602 42.1362C12.0019 42.1362 11.563 41.8744 11.3585 41.43C11.0784 40.8221 11.3445 40.1013 11.9524 39.8211C16.1712 37.8766 21.4696 37.7484 24.2528 37.8454C28.4246 37.9907 32.1984 38.7677 34.1021 39.8736C34.6813 40.2099 34.8778 40.9527 34.5415 41.5319C34.2058 42.1112 33.4643 42.3077 32.885 41.972C29.9633 40.274 19.3004 39.1046 12.9662 42.0245C12.802 42.1002 12.6299 42.1362 12.4602 42.1362Z" fill="#37474F"/>
<path d="M67.5348 51.0376C67.3657 51.0376 67.193 51.0022 67.0288 50.9266C60.6903 48.0066 50.0329 49.1761 47.1149 50.8735C46.5369 51.2098 45.7947 51.0138 45.4584 50.434C45.1221 49.8554 45.318 49.1126 45.8972 48.7757C47.7972 47.6703 51.571 46.8933 55.7452 46.7487C58.5272 46.6516 63.8257 46.781 68.0426 48.7226C68.6505 49.0027 68.9166 49.7229 68.6365 50.3315C68.4326 50.7758 67.9938 51.0376 67.5348 51.0376Z" fill="#37474F"/>
<path d="M67.5348 59.9398C67.3657 59.9398 67.193 59.9044 67.0288 59.8287C60.6903 56.9088 50.0329 58.0782 47.1149 59.7756C46.5369 60.1119 45.7947 59.916 45.4584 59.3368C45.1221 58.7575 45.318 58.0153 45.8972 57.6784C47.7972 56.5725 51.571 55.7955 55.7452 55.6508C58.5272 55.5544 63.8257 55.6832 68.0426 57.6247C68.6505 57.9049 68.9166 58.6251 68.6365 59.2342C68.4326 59.6779 67.9938 59.9398 67.5348 59.9398Z" fill="#37474F"/>
<path d="M41.2092 22.5155V70.6478C41.2092 71.3168 40.6672 71.8612 39.9983 71.8612C39.3281 71.8612 38.7861 71.3174 38.7861 70.6478V22.5137C39.2445 22.7047 39.6492 22.9019 39.9983 23.1045C40.348 22.9025 40.7502 22.7047 41.2092 22.5155Z" fill="#90A4AE"/>
<path d="M59.0317 21.5684H52.6829C52.0133 21.5684 51.4707 22.1116 51.4707 22.7817C51.4707 23.4513 52.0133 23.9945 52.6829 23.9945H54.7068V33.6112C54.7068 34.2808 55.2494 34.824 55.9189 34.824C56.5879 34.824 57.1305 34.2808 57.1305 33.6112V23.9945H59.0317C59.7013 23.9945 60.2439 23.4513 60.2439 22.7817C60.2439 22.1116 59.7013 21.5684 59.0317 21.5684Z" fill="#ECEFF1"/>
<path d="M55.9279 5.60852C55.2589 5.60852 54.7163 5.06531 54.7163 4.39575V1.21277C54.7163 0.543213 55.2589 0 55.9279 0C56.5974 0 57.14 0.543213 57.14 1.21277V4.39575C57.14 5.06531 56.5974 5.60852 55.9279 5.60852Z" fill="#FCD968"/>
<path d="M45.6152 8.44551C45.3051 8.44551 44.9951 8.3271 44.7583 8.09029L42.5042 5.83565C42.0306 5.36201 42.0306 4.59358 42.5036 4.11995C42.9772 3.64632 43.7445 3.64632 44.2175 4.11934L46.4721 6.37459C46.9458 6.84822 46.9458 7.61604 46.4727 8.09029C46.2359 8.3271 45.9259 8.44551 45.6152 8.44551Z" fill="#FCD968"/>
<path d="M66.2408 8.44574C65.9308 8.44574 65.6207 8.32794 65.3845 8.09113C64.9109 7.6181 64.9102 6.84967 65.3827 6.37604L67.6324 4.12079C68.1054 3.64655 68.8726 3.64594 69.3463 4.11896C69.8199 4.59259 69.8205 5.36041 69.3481 5.83466L67.0984 8.0899C66.8615 8.32733 66.5509 8.44574 66.2408 8.44574Z" fill="#FCD968"/>
<path d="M12.4601 33.2291C12.0018 33.2291 11.5629 32.9672 11.3584 32.5229C11.0783 31.9144 11.345 31.1942 11.9529 30.914C16.1711 28.9725 21.4701 28.8455 24.2527 28.942C28.4233 29.0872 32.1971 29.863 34.1008 30.9665C34.68 31.3022 34.8777 32.0444 34.542 32.6236C34.207 33.204 33.4648 33.4012 32.8862 33.0655C29.9626 31.3712 19.2979 30.2036 12.9655 33.118C12.8019 33.1937 12.6298 33.2291 12.4601 33.2291Z" fill="#37474F"/>
<path fill-rule="evenodd" clip-rule="evenodd" d="M55.9191 33.6113H52.1373C50.4967 33.6113 49.1606 34.9529 49.1606 36.5892C49.1606 38.2262 50.4967 39.5629 52.1373 39.5629H59.7051C61.3414 39.5629 62.6818 38.2262 62.6818 36.5892C62.6818 34.9529 61.3414 33.6113 59.7051 33.6113H55.9191Z" fill="#C4CCCF"/>
<path fill-rule="evenodd" clip-rule="evenodd" d="M62.682 36.5892C62.682 34.9529 61.3411 33.6113 59.7047 33.6113H55.7734C56.6597 33.6113 57.4598 34.0026 58.0049 34.6208C58.4688 35.1482 58.7507 35.8348 58.7507 36.5892C58.7507 38.2262 57.4141 39.5629 55.7734 39.5629H59.7047C61.3411 39.5629 62.682 38.2262 62.682 36.5892Z" fill="#90A4AE"/>
</svg>
