<svg width="48" height="48" viewBox="0 0 48 48" fill="none" xmlns="http://www.w3.org/2000/svg">
<path d="M39.5702 13.6851L39.6444 13.2526L39.0449 13.6082C36.9239 14.6912 35.6849 14.3772 34.5135 12.1857C24.2145 16.6511 18.6091 19.6274 9.3838 27.0898C10.5871 29.3413 10.131 30.7088 8.02542 32.0152L8.02188 32.0086L7.31248 32.4277L7.70261 32.5854L7.62843 33.0179L8.01715 33.1752L7.94245 33.6067L8.33208 33.7635L8.25789 34.196L8.64752 34.3528L8.57282 34.7843L8.96155 34.9416L8.88645 35.3746L9.27749 35.5319L9.20189 35.9639L9.59152 36.1207L9.51733 36.5532L9.90605 36.7105L9.83114 37.1372L10.2204 37.2954L10.1457 37.727L10.5357 37.8823L10.4601 38.3143L10.8488 38.4716L10.7746 38.9041L11.1634 39.0614L11.0892 39.4939L11.4788 39.6507L11.4041 40.0822L11.7937 40.239L11.719 40.6706L12.1083 40.8288L12.0336 41.2604L12.4237 41.4181L12.349 41.8496L12.7386 42.0064L12.6635 42.4394L13.0536 42.5947L12.9794 43.0272L13.3685 43.183L13.2943 43.6155L13.6834 43.7714L13.6092 44.2038L14.3181 43.7838L14.3161 43.78C16.4677 42.5602 17.8151 42.8592 19.0202 45.1096C29.5159 40.2151 34.907 36.7998 44.1495 30.2069C42.969 28.0007 43.3721 26.7032 45.3787 25.3625L45.9402 25.0293L45.5515 24.872L45.6262 24.4405L45.2361 24.2827L45.3113 23.8521L44.9211 23.6944L44.9972 23.2633L44.6071 23.1056L44.6809 22.6746L44.2922 22.5172L44.3654 22.0853L43.9763 21.9295L44.0505 21.497L43.6623 21.3406L43.7365 20.9081L43.3469 20.7513L43.4216 20.3198L43.0323 20.1615L43.107 19.73L42.7169 19.5723L42.7916 19.1407L42.4029 18.9834L42.4766 18.5524L42.0879 18.3951L42.1612 17.9632L41.7721 17.8073L41.8477 17.3753L41.4576 17.2175L41.5322 16.786L41.1431 16.6302L41.2173 16.1977L40.8281 16.0394L40.9028 15.6079L40.5137 15.452L40.5884 15.0205L40.1991 14.8622L40.2729 14.4312L39.8842 14.2739L39.958 13.8429L39.5702 13.6851Z" fill="#83B3E0"/>
<path d="M18.9618 30.9316L19.4769 31.8945L19.3874 31.9473C19.2153 31.7574 19.0701 31.6316 18.9534 31.5728C18.8367 31.5141 18.7066 31.4882 18.5623 31.4982C18.4805 31.5051 18.363 31.5543 18.2047 31.6475L17.952 31.7976L19.4221 34.5446C19.5196 34.7259 19.5897 34.8333 19.6344 34.8683C19.6777 34.9028 19.736 34.9209 19.8103 34.9222C19.885 34.922 19.9696 34.8958 20.0659 34.8379L20.178 34.7718L20.2296 34.869L18.4584 35.9198L18.4059 35.8232L18.518 35.7571C18.6157 35.6996 18.686 35.6331 18.7251 35.5614C18.7553 35.5111 18.7666 35.4495 18.76 35.3746C18.7553 35.3211 18.7062 35.2062 18.6097 35.0268L17.1396 32.2799L16.896 32.4247C16.6681 32.5589 16.5295 32.7093 16.4805 32.8719C16.4117 33.0999 16.429 33.356 16.5312 33.6421L16.4362 33.698L15.9211 32.7351L18.9618 30.9316Z" fill="#4A4FA2"/>
<path d="M22.8696 33.1763L22.9207 33.2725L21.1525 34.3202L21.1005 34.2245L21.2122 34.1575C21.3107 34.0995 21.3793 34.0341 21.4198 33.9628C21.45 33.9124 21.4612 33.8508 21.4529 33.777C21.4482 33.7235 21.3991 33.6087 21.3025 33.4292L20.0498 31.0869C19.9523 30.9055 19.8816 30.7971 19.8401 30.7616C19.7964 30.7261 19.738 30.7079 19.6643 30.7076C19.59 30.7064 19.5058 30.7335 19.4114 30.7903L19.3001 30.8559L19.2476 30.7593L21.0167 29.711L21.0678 29.8072L20.9571 29.8737C20.8576 29.9323 20.7894 29.9962 20.7486 30.069C20.7188 30.1203 20.7076 30.1819 20.7137 30.2558C20.7192 30.3088 20.7689 30.4246 20.864 30.6036L22.1167 32.9459C22.2143 33.1273 22.2849 33.2357 22.3291 33.2696C22.3723 33.3042 22.4307 33.3223 22.505 33.3236C22.5787 33.3239 22.6629 33.2968 22.7587 33.2403L22.8691 33.1753L22.8696 33.1763Z" fill="#4A4FA2"/>
<path d="M24.5007 27.5392L25.1609 28.773L25.0646 28.8309C24.819 28.5518 24.55 28.3852 24.2582 28.3321C23.9664 28.2789 23.6939 28.3269 23.4421 28.4765C23.2305 28.6011 23.0713 28.7799 22.9629 29.0138C22.8557 29.2456 22.8159 29.4903 22.8452 29.7444C22.8815 30.0718 22.9862 30.3964 23.1587 30.7211C23.3295 31.038 23.5232 31.3065 23.7405 31.5235C23.9561 31.7415 24.1829 31.8667 24.4165 31.9041C24.6515 31.942 24.898 31.883 25.1571 31.7292C25.3691 31.6031 25.539 31.438 25.6642 31.2355C25.7874 31.0316 25.8846 30.7519 25.9528 30.3954L26.1162 30.703C26.0394 31.0232 25.9218 31.2913 25.7666 31.5065C25.6114 31.7216 25.3975 31.9113 25.1231 32.0742C24.7619 32.2882 24.4009 32.4021 24.0396 32.4149C23.677 32.4297 23.3441 32.3395 23.0386 32.1444C22.7346 31.9497 22.4949 31.6908 22.3234 31.3681C22.1414 31.0277 22.0541 30.6554 22.059 30.2512C22.0653 29.8475 22.1662 29.4742 22.3638 29.1354C22.5604 28.797 22.8206 28.5337 23.1439 28.3421C23.3821 28.2005 23.6619 28.1058 23.984 28.0573C24.1706 28.0286 24.285 28.0025 24.3271 27.979C24.3795 27.9481 24.4154 27.8994 24.432 27.8346C24.4501 27.7703 24.4396 27.6902 24.4029 27.5943L24.4997 27.5373L24.5007 27.5392Z" fill="#4A4FA2"/>
<path d="M27.6814 27.5545L29.7105 28.4171C29.9969 28.5384 30.2205 28.6017 30.3841 28.6078C30.5026 28.6118 30.6118 28.585 30.709 28.5265L30.7601 28.6227L28.9987 29.6676L28.9476 29.5714C29.0537 29.494 29.1164 29.4332 29.1339 29.3879C29.1518 29.3412 29.1514 29.3001 29.1307 29.2611C29.0917 29.1878 28.9406 29.0955 28.6782 28.9838L27.3534 28.4166L27.2881 28.6L27.8069 29.572C27.9065 29.7571 27.9781 29.8675 28.0223 29.9014C28.0674 29.9349 28.1256 29.9506 28.1998 29.9494C28.2745 29.9492 28.373 29.9112 28.4973 29.8367L28.5489 29.9338L26.8427 30.9463L26.7911 30.8491L26.9042 30.7826C27.0018 30.725 27.0704 30.6596 27.1113 30.5868C27.1415 30.5365 27.1527 30.4749 27.1444 30.4011C27.1406 30.347 27.0906 30.2327 26.9941 30.0533L25.7422 27.7104C25.6447 27.5291 25.5749 27.4201 25.5322 27.3866C25.4879 27.3502 25.4296 27.332 25.3563 27.3327C25.282 27.3314 25.1978 27.3585 25.1029 27.4144L24.9908 27.4805L24.9397 27.3843L26.6232 26.3852L26.6748 26.4823C26.56 26.5499 26.4818 26.6197 26.4405 26.6916C26.4097 26.7409 26.3976 26.8031 26.405 26.875C26.4078 26.9296 26.459 27.0482 26.5551 27.2291L27.1471 28.3368L27.8299 26.5245C27.9254 26.2707 27.949 26.1005 27.9006 26.0116C27.8652 25.9449 27.8021 25.9133 27.7095 25.9179C27.6623 25.9206 27.5653 25.9615 27.4181 26.042L27.3665 25.9449L28.6857 25.1629L28.7382 25.2594C28.6248 25.3387 28.5442 25.415 28.4961 25.4921C28.4475 25.5682 28.3562 25.7807 28.2255 26.1315L27.6814 27.5545Z" fill="#4A4FA2"/>
<path d="M30.2986 24.4754L31.0751 25.9257L31.142 25.8863C31.3558 25.7591 31.4744 25.5956 31.4948 25.3972C31.5157 25.1974 31.4664 24.9527 31.3441 24.6597L31.439 24.6038L32.436 26.4693L32.3411 26.5252C32.2129 26.3331 32.0824 26.1925 31.948 26.1004C31.8141 26.0093 31.6939 25.9663 31.5846 25.9707C31.4763 25.9769 31.3422 26.0284 31.1803 26.1238L31.7167 27.1267C31.8209 27.3228 31.8933 27.439 31.9323 27.4722C31.9715 27.5079 32.02 27.5256 32.0776 27.5267C32.1371 27.5291 32.2143 27.5024 32.3111 27.4454L32.5123 27.3257C32.8283 27.1383 33.04 26.9111 33.1484 26.6435C33.2563 26.3774 33.2665 26.0613 33.1818 25.6962L33.2735 25.6409L33.7273 26.8638L30.8041 28.5981L30.753 28.5019L30.8652 28.4358C30.9628 28.3783 31.0323 28.3124 31.0722 28.2401C31.1016 28.1903 31.1128 28.1287 31.1053 28.0543C31.1007 28.0008 31.0506 27.8866 30.955 27.7066L29.7023 25.3642C29.6168 25.2033 29.5591 25.106 29.5304 25.0742C29.4822 25.0238 29.4262 24.9943 29.3628 24.9867C29.2737 24.9754 29.1737 25.0018 29.0648 25.0672L28.9526 25.1332L28.901 25.0361L31.7325 23.3571L32.2952 24.4095L32.2002 24.4655C32.0148 24.2372 31.8474 24.092 31.7 24.0313C31.5531 23.9715 31.3857 23.9626 31.1978 24.0045C31.088 24.028 30.9053 24.1156 30.649 24.2678L30.2986 24.4754Z" fill="#4A4FA2"/>
<path d="M35.4288 21.165L35.944 22.1279L35.8544 22.1807C35.6818 21.9898 35.5371 21.865 35.4204 21.8062C35.3037 21.7475 35.1732 21.7231 35.0298 21.7325C34.9498 21.7384 34.8305 21.7887 34.6722 21.8819L34.4213 22.0309L35.8919 24.7788C35.9885 24.9607 36.0587 25.0681 36.1024 25.1036C36.1466 25.1376 36.2049 25.1557 36.2792 25.157C36.353 25.1573 36.4381 25.1297 36.5348 25.0727L36.6474 25.0051L36.6985 25.1013L34.9272 26.1521L34.8761 26.0559L34.9882 25.9899C35.0868 25.9318 35.1558 25.865 35.1962 25.7936C35.2265 25.7433 35.2377 25.6817 35.2293 25.6079C35.2256 25.5538 35.1764 25.439 35.0799 25.2596L33.6108 22.5121L33.3671 22.6569C33.1374 22.7922 33.0006 22.9415 32.9517 23.1041C32.8829 23.3321 32.9002 23.5882 33.0018 23.8734L32.9059 23.9299L32.3908 22.9669L35.4288 21.165Z" fill="#4A4FA2"/>
<path d="M24.5503 3.0823L24.4311 2.66114L24.0486 3.2634C22.6205 5.23804 21.3803 5.5468 19.3954 4.1482C12.1205 13.0285 8.39499 18.3488 3.36306 29.3928C5.40212 30.8298 5.58151 32.2668 4.2629 34.4335L4.25688 34.4292L3.8036 35.1404L4.21934 35.0957L4.33858 35.5168L4.75289 35.4724L4.87127 35.893L5.28615 35.8477L5.40539 36.2688L5.82028 36.2235L5.93866 36.6441L6.35296 36.5996L6.47162 37.0217L6.88795 36.9761L7.00575 37.3976L7.42063 37.3522L7.53987 37.7734L7.95418 37.729L8.07028 38.1453L8.48544 38.1015L8.60382 38.5221L9.01843 38.4752L9.13623 38.8967L9.55053 38.8523L9.66977 39.2734L10.0841 39.229L10.2033 39.6502L10.6182 39.6049L10.7366 40.0254L11.1515 39.9801L11.2699 40.4007L11.685 40.3569L11.8034 40.7774L12.2191 40.7327L12.3375 41.1532L12.7524 41.1079L12.8711 41.53L13.2857 41.4832L13.4049 41.9043L13.8189 41.8584L13.9382 42.2796L14.3522 42.2336L14.4714 42.6548L14.9239 41.943L14.9204 41.9406C16.3173 39.8293 17.6477 39.4556 19.6879 40.8908C26.9544 31.5341 30.3004 25.924 35.7205 15.6477C33.7213 14.2402 33.5245 12.8909 34.7402 10.7407L35.0983 10.1765L34.684 10.2209L34.5656 9.80033L34.1499 9.84503L34.0324 9.42509L33.6166 9.4698L33.4997 9.04895L33.0839 9.09365L32.965 8.67401L32.5507 8.71842L32.4309 8.29816L32.0168 8.34409L31.8976 7.92293L31.4842 7.96794L31.3649 7.54678L30.95 7.5921L30.8316 7.17155L30.4165 7.21535L30.2981 6.7948L29.8824 6.8395L29.764 6.41895L29.3497 6.46336L29.2307 6.04371L28.8164 6.08813L28.6966 5.66787L28.2826 5.7138L28.1648 5.29234L27.749 5.33704L27.6306 4.91649L27.2166 4.96242L27.0974 4.54126L26.6822 4.58506L26.5638 4.1645L26.1498 4.21043L26.0314 3.78988L25.6163 3.83368L25.4973 3.41403L25.083 3.45845L24.964 3.0388L24.5503 3.0823Z" fill="#83B3E0"/>
<path d="M13.5559 28.2675L14.4284 28.8819L14.3712 28.9715C14.1362 28.8839 13.9527 28.8406 13.8234 28.8437C13.694 28.8467 13.5669 28.8855 13.4424 28.963C13.3724 29.0081 13.2886 29.1079 13.1874 29.2663L13.0262 29.5203L15.5157 31.2725C15.6805 31.388 15.7892 31.4505 15.844 31.4604C15.8974 31.4707 15.9573 31.4591 16.0241 31.4249C16.0906 31.3892 16.155 31.3257 16.216 31.2282L16.2877 31.116L16.3754 31.1781L15.2455 32.9577L15.1572 32.8965L15.229 32.7842C15.2915 32.6865 15.3258 32.5937 15.3298 32.5111C15.3353 32.4519 15.3188 32.3916 15.2809 32.3279C15.2538 32.2823 15.1607 32.2032 14.9977 32.089L12.5081 30.3368L12.3528 30.5818C12.207 30.8099 12.1478 31.01 12.1739 31.1783C12.2102 31.4145 12.3355 31.6348 12.5493 31.8415L12.4886 31.9366L11.616 31.3223L13.5559 28.2675Z" fill="#4A4FA2"/>
<path d="M18.0059 28.4126L18.0927 28.4741L16.9642 30.2495L16.8768 30.1889L16.9477 30.0761C17.0108 29.9774 17.0439 29.8865 17.0494 29.8036C17.0548 29.7443 17.0384 29.684 16.9993 29.6221C16.9722 29.5766 16.8791 29.4975 16.7161 29.3833L14.5939 27.8887C14.4291 27.7733 14.3196 27.7101 14.2674 27.6981C14.2131 27.6873 14.1533 27.6988 14.0873 27.7336C14.0205 27.7678 13.957 27.832 13.8971 27.9276L13.826 28.0389L13.7377 27.9777L14.8667 26.2014L14.9536 26.263L14.8833 26.3749C14.8196 26.4745 14.7862 26.5639 14.781 26.6483C14.7764 26.7082 14.7928 26.7685 14.8299 26.8316C14.8576 26.8762 14.9515 26.9559 15.1132 27.0704L17.2353 28.565C17.4001 28.6804 17.5096 28.7435 17.5636 28.7529C17.617 28.7631 17.6768 28.7516 17.7436 28.7174C17.8096 28.6826 17.8731 28.6184 17.9344 28.5224L18.005 28.412L18.0059 28.4126Z" fill="#4A4FA2"/>
<path d="M17.044 22.6074L18.1621 23.3944L18.1011 23.4919C17.7622 23.3596 17.4508 23.3388 17.1676 23.4301C16.8844 23.5214 16.6619 23.6938 16.5013 23.947C16.3659 24.1588 16.3006 24.3939 16.3041 24.6542C16.3079 24.912 16.3773 25.1492 16.5124 25.362C16.6851 25.6369 16.9178 25.8767 17.2109 26.0845C17.4992 26.2861 17.7871 26.4336 18.0741 26.5238C18.36 26.6159 18.616 26.6198 18.8405 26.5421C19.0664 26.4642 19.2611 26.2944 19.4263 26.034C19.5614 25.8207 19.6422 25.5926 19.6671 25.3524C19.6896 25.112 19.6564 24.8162 19.5644 24.4657L19.8421 24.6624C19.9109 24.9847 19.9208 25.2798 19.8746 25.5455C19.8284 25.8113 19.7189 26.0823 19.5439 26.358C19.3134 26.7207 19.0401 26.9939 18.7232 27.1771C18.406 27.3626 18.0703 27.4404 17.7141 27.4115C17.3593 27.3824 17.0344 27.2653 16.743 27.0588C16.4347 26.8417 16.1971 26.551 16.0282 26.188C15.8607 25.8247 15.7907 25.4437 15.8217 25.0475C15.8521 24.6521 15.9714 24.2934 16.1776 23.9688C16.3295 23.7292 16.5385 23.5117 16.8051 23.3153C16.9593 23.201 17.0502 23.1233 17.0777 23.0823C17.1112 23.0298 17.1224 22.9693 17.1094 22.9036C17.0979 22.8376 17.0542 22.7711 16.9804 22.703L17.0423 22.6062L17.044 22.6074Z" fill="#4A4FA2"/>
<path d="M19.8891 21.1091L22.0694 20.9142C22.3771 20.8862 22.6037 20.8364 22.7523 20.7642C22.8597 20.7114 22.9457 20.6355 23.0073 20.5372L23.0941 20.5987L21.9706 22.3683L21.8837 22.3068C21.9452 22.1873 21.9751 22.1033 21.9713 22.0545C21.9672 22.0043 21.9492 21.9679 21.914 21.9429C21.8478 21.896 21.6734 21.8855 21.3914 21.9106L19.966 22.0342L19.9865 22.2289L20.8662 22.8496C21.0344 22.9675 21.1456 23.0318 21.1996 23.0412C21.2542 23.0496 21.3128 23.0359 21.3785 22.9996C21.4451 22.9639 21.5167 22.8831 21.5956 22.7576L21.6833 22.8197L20.5951 24.5342L20.5074 24.472L20.5797 24.3589C20.6422 24.2611 20.6753 24.1702 20.6805 24.0858C20.686 24.0265 20.6695 23.9662 20.6304 23.9043C20.6039 23.8579 20.5102 23.7797 20.3472 23.6655L18.2256 22.17C18.0608 22.0546 17.9519 21.9905 17.8994 21.9809C17.8442 21.9695 17.7844 21.981 17.7193 22.0164C17.6525 22.0506 17.589 22.1148 17.5283 22.2098L17.4565 22.3221L17.3697 22.2605L18.4435 20.5687L18.5312 20.6309C18.4577 20.7458 18.4179 20.8452 18.4118 20.929C18.4055 20.9877 18.4214 21.0489 18.4588 21.1096C18.4847 21.1569 18.5812 21.2384 18.7446 21.3542L19.7478 22.0611L19.58 20.1194C19.5564 19.8475 19.5045 19.6845 19.4231 19.6282C19.3629 19.5855 19.2931 19.5873 19.2124 19.6354C19.1715 19.6603 19.1024 19.7429 19.0056 19.8847L18.9179 19.8226L19.7597 18.4977L19.848 18.5589C19.7808 18.6835 19.7415 18.7899 19.7317 18.8815C19.7209 18.9726 19.7306 19.2056 19.7644 19.5807L19.8891 21.1091Z" fill="#4A4FA2"/>
<path d="M20.904 17.1176L22.2187 18.0426L22.2615 17.9756C22.3978 17.7605 22.4334 17.5582 22.3666 17.3715C22.2996 17.1833 22.1507 16.9883 21.9159 16.7851L21.9766 16.6901L23.6661 17.8806L23.6053 17.9757C23.4087 17.8652 23.2319 17.8018 23.0725 17.7835C22.9139 17.7659 22.7882 17.7846 22.6926 17.8405C22.5987 17.8976 22.5011 18.0073 22.3975 18.1693L23.3062 18.8092C23.4832 18.9347 23.5976 19.0039 23.6467 19.015C23.697 19.0282 23.7479 19.0209 23.7997 18.9945C23.8538 18.9684 23.9113 18.9079 23.9732 18.811L24.1013 18.6086C24.303 18.2911 24.3945 17.9877 24.3764 17.6975C24.3586 17.4087 24.2322 17.1219 24.0001 16.8364L24.0582 16.7434L24.9874 17.6188L23.1227 20.5559L23.0359 20.4944L23.1077 20.3821C23.1701 20.2844 23.2039 20.1925 23.2085 20.109C23.2134 20.0507 23.1969 19.9904 23.1584 19.9276C23.1313 19.882 23.0376 19.8038 22.8752 19.6887L20.753 18.1942C20.6077 18.0912 20.5146 18.0318 20.4753 18.0171C20.4107 17.995 20.348 17.9953 20.2882 18.0187C20.2038 18.051 20.1259 18.122 20.0568 18.2322L19.9851 18.3444L19.8974 18.2823L21.7039 15.4382L22.6573 16.1097L22.5965 16.2048C22.3332 16.0892 22.1216 16.0392 21.964 16.0551C21.8073 16.0717 21.6541 16.1433 21.5045 16.27C21.4165 16.3432 21.2911 16.5081 21.1277 16.7658L20.904 17.1176Z" fill="#4A4FA2"/>
<path d="M24.062 11.725L24.9345 12.3393L24.8772 12.429C24.6414 12.3407 24.4588 12.2981 24.3295 12.3012C24.2001 12.3042 24.0732 12.3445 23.9493 12.4211C23.8805 12.4644 23.7955 12.5659 23.6943 12.7244L23.5343 12.9766L26.0247 14.7294C26.1889 14.8458 26.2976 14.9083 26.3518 14.9191C26.4058 14.9285 26.4656 14.9169 26.5325 14.8827C26.5984 14.8479 26.6625 14.7829 26.7244 14.686L26.7958 14.5723L26.8827 14.6338L25.7527 16.4134L25.6659 16.3519L25.7377 16.2396C25.8007 16.141 25.8336 16.0485 25.8391 15.9656C25.8445 15.9063 25.8281 15.846 25.789 15.7841C25.7624 15.7377 25.6694 15.6586 25.5063 15.5444L23.0174 13.7913L22.862 14.0363C22.7151 14.2662 22.6571 14.4644 22.6831 14.6328C22.7195 14.869 22.8447 15.0893 23.0577 15.2954L22.9964 15.3914L22.1238 14.777L24.062 11.725Z" fill="#4A4FA2"/>
</svg>
