<svg width="48" height="48" viewBox="0 0 48 48" fill="none" xmlns="http://www.w3.org/2000/svg">
<g clip-path="url(#clip0)">
<path d="M25.1993 8.60968H10.5788C10.1846 8.60968 9.86523 8.29027 9.86523 7.89615C9.86523 7.50202 10.1847 7.18262 10.5788 7.18262H25.1993C25.5934 7.18262 25.9129 7.50202 25.9129 7.89615C25.9129 8.29027 25.5935 8.60968 25.1993 8.60968Z" fill="#78C2A4"/>
<path d="M11.2246 13.8401H3.69888C3.30476 13.8401 2.98535 13.5207 2.98535 13.1266C2.98535 12.7325 3.30485 12.4131 3.69888 12.4131H11.2246C11.6187 12.4131 11.9381 12.7325 11.9381 13.1266C11.9381 13.5207 11.6187 13.8401 11.2246 13.8401Z" fill="#78C2A4"/>
<path d="M10.9656 18.7025H7.99283C7.5987 18.7025 7.2793 18.383 7.2793 17.9889C7.2793 17.5948 7.5988 17.2754 7.99283 17.2754H10.9657C11.3599 17.2754 11.6793 17.5948 11.6793 17.9889C11.6793 18.383 11.3598 18.7025 10.9656 18.7025Z" fill="#78C2A4"/>
<path d="M7.99322 22.2239H0.713531C0.319406 22.2239 0 21.9045 0 21.5104C0 21.1163 0.3195 20.7969 0.713531 20.7969H7.99312C8.38725 20.7969 8.70666 21.1163 8.70666 21.5104C8.70666 21.9045 8.38725 22.2239 7.99322 22.2239Z" fill="#78C2A4"/>
<path d="M26.1507 40.8188H10.5788C10.1846 40.8188 9.86523 40.4994 9.86523 40.1051C9.86523 39.7109 10.1847 39.3916 10.5788 39.3916H26.1507C26.5449 39.3916 26.8643 39.711 26.8643 40.1051C26.8643 40.4993 26.5449 40.8188 26.1507 40.8188Z" fill="#78C2A4"/>
<path d="M11.2246 35.5883H3.69888C3.30476 35.5883 2.98535 35.2689 2.98535 34.8748C2.98535 34.4806 3.30485 34.1611 3.69888 34.1611H11.2246C11.6187 34.1611 11.9381 34.4805 11.9381 34.8748C11.9381 35.269 11.6187 35.5883 11.2246 35.5883Z" fill="#78C2A4"/>
<path d="M10.9656 30.725H7.99283C7.5987 30.725 7.2793 30.4056 7.2793 30.0114C7.2793 29.6172 7.5988 29.2979 7.99283 29.2979H10.9657C11.3599 29.2979 11.6793 29.6173 11.6793 30.0114C11.6793 30.4055 11.3598 30.725 10.9656 30.725Z" fill="#78C2A4"/>
<path d="M7.99322 27.2045H0.713531C0.319406 27.2045 0 26.8851 0 26.491C0 26.0968 0.3195 25.7773 0.713531 25.7773H7.99312C8.38725 25.7773 8.70666 26.0967 8.70666 26.491C8.70666 26.8852 8.38725 27.2045 7.99322 27.2045Z" fill="#78C2A4"/>
<path d="M30.4016 41.5991C40.1212 41.5991 48.0004 33.7198 48.0004 24.0002C48.0004 14.2806 40.1212 6.40137 30.4016 6.40137C20.682 6.40137 12.8027 14.2806 12.8027 24.0002C12.8027 33.7198 20.682 41.5991 30.4016 41.5991Z" fill="#95D6A4"/>
<path d="M30.4003 6.40137C29.9548 6.40137 29.5133 6.41824 29.0762 6.45077C38.1772 7.12784 45.3509 14.7261 45.3509 24.0002C45.3509 33.2743 38.1772 40.8726 29.0762 41.5496C29.5133 41.5822 29.9548 41.5991 30.4003 41.5991C40.1199 41.5991 47.9992 33.7198 47.9992 24.0002C47.9992 14.2806 40.1199 6.40137 30.4003 6.40137Z" fill="#78C2A4"/>
<path d="M30.4012 37.5133C37.8645 37.5133 43.9147 31.4631 43.9147 23.9998C43.9147 16.5365 37.8645 10.4863 30.4012 10.4863C22.9379 10.4863 16.8877 16.5365 16.8877 23.9998C16.8877 31.4631 22.9379 37.5133 30.4012 37.5133Z" fill="#F4FBFF"/>
<path d="M30.4011 10.4863C29.99 10.4863 29.5835 10.5057 29.1816 10.5417C36.0734 11.1583 41.4756 16.9478 41.4756 23.9999C41.4756 31.0521 36.0734 36.8414 29.1816 37.458C29.5835 37.4939 29.99 37.5133 30.4011 37.5133C37.8645 37.5133 43.9146 31.4632 43.9146 23.9998C43.9147 16.5366 37.8645 10.4863 30.4011 10.4863Z" fill="#DAF1F4"/>
<path d="M30.4011 15.4206C30.007 15.4206 29.6875 15.1012 29.6875 14.7071V13.6178C29.6875 13.2237 30.0069 12.9043 30.4011 12.9043C30.7953 12.9043 31.1147 13.2237 31.1147 13.6178V14.707C31.1147 15.1011 30.7952 15.4206 30.4011 15.4206Z" fill="#365E7D"/>
<path d="M36.9714 18.1425C36.7889 18.1425 36.6062 18.0729 36.4668 17.9336C36.1882 17.6549 36.1882 17.2031 36.4668 16.9244L37.2369 16.1542C37.5157 15.8757 37.9674 15.8757 38.2462 16.1542C38.5248 16.4329 38.5248 16.8847 38.2462 17.1634L37.476 17.9336C37.3367 18.0729 37.1541 18.1425 36.9714 18.1425Z" fill="#365E7D"/>
<path d="M40.7822 24.7133H39.6931C39.299 24.7133 38.9795 24.3939 38.9795 23.9997C38.9795 23.6054 39.2989 23.2861 39.6931 23.2861H40.7822C41.1763 23.2861 41.4958 23.6055 41.4958 23.9997C41.4958 24.3938 41.1763 24.7133 40.7822 24.7133Z" fill="#365E7D"/>
<path d="M37.7416 32.0537C37.5591 32.0537 37.3763 31.984 37.2369 31.8447L36.4668 31.0746C36.1882 30.7958 36.1882 30.3441 36.4668 30.0653C36.7455 29.7868 37.1973 29.7868 37.476 30.0653L38.2462 30.8355C38.5248 31.1142 38.5248 31.566 38.2462 31.8447C38.1068 31.984 37.9242 32.0537 37.7416 32.0537Z" fill="#365E7D"/>
<path d="M30.4011 35.0944C30.007 35.0944 29.6875 34.775 29.6875 34.3808V33.2917C29.6875 32.8975 30.0069 32.5781 30.4011 32.5781C30.7953 32.5781 31.1147 32.8975 31.1147 33.2917V34.3808C31.1147 34.775 30.7952 35.0944 30.4011 35.0944Z" fill="#365E7D"/>
<path d="M23.0593 32.0537C22.8767 32.0537 22.6941 31.984 22.5547 31.8447C22.276 31.566 22.276 31.1142 22.5547 30.8355L23.3249 30.0653C23.6035 29.7868 24.0554 29.7868 24.334 30.0653C24.6128 30.3441 24.6128 30.7958 24.334 31.0746L23.5639 31.8447C23.4246 31.984 23.2419 32.0537 23.0593 32.0537Z" fill="#365E7D"/>
<path d="M21.1084 24.7133H20.0192C19.6251 24.7133 19.3057 24.3939 19.3057 23.9997C19.3057 23.6054 19.6252 23.2861 20.0192 23.2861H21.1084C21.5025 23.2861 21.8219 23.6055 21.8219 23.9997C21.8219 24.3938 21.5024 24.7133 21.1084 24.7133Z" fill="#365E7D"/>
<path d="M23.8295 18.1425C23.6468 18.1425 23.4642 18.0729 23.3249 17.9336L22.5547 17.1634C22.276 16.8847 22.276 16.4329 22.5547 16.1542C22.8334 15.8757 23.2852 15.8757 23.5639 16.1542L24.334 16.9244C24.6128 17.2031 24.6128 17.6549 24.334 17.9336C24.1947 18.0729 24.0121 18.1425 23.8295 18.1425Z" fill="#365E7D"/>
<path d="M33.5247 24.7131H30.4011C30.007 24.7131 29.6875 24.3937 29.6875 23.9995V17.9879C29.6875 17.5938 30.0069 17.2744 30.4011 17.2744C30.7953 17.2744 31.1147 17.5938 31.1147 17.9879V23.2858H33.5247C33.9188 23.2858 34.2383 23.6052 34.2383 23.9994C34.2383 24.3935 33.9188 24.7131 33.5247 24.7131Z" fill="#2B4D66"/>
</g>
<defs>
<clipPath id="clip0">
<rect width="48" height="48" fill="white"/>
</clipPath>
</defs>
</svg>
