<svg width="64" height="64" viewBox="0 0 64 64" fill="none" xmlns="http://www.w3.org/2000/svg">
<g clip-path="url(#clip0)">
<path d="M52.625 21.2002V35.75C52.625 41.8252 42.0122 45.125 32 45.125C21.9878 45.125 11.375 41.8252 11.375 35.75V21.2002C11.375 20.1875 12.1997 19.3252 13.25 19.3252H50.75C51.8003 19.3252 52.625 20.1875 52.625 21.2002Z" fill="#444444"/>
<path d="M52.625 21.2002V35.75C52.625 41.8252 42.0122 45.125 32 45.125V19.3252H50.75C51.8003 19.3252 52.625 20.1875 52.625 21.2002Z" fill="#292929"/>
<path d="M63.9995 17C63.9995 17.7876 63.5122 18.5 62.7993 18.7622L32.6743 30.0122C32.4497 30.0874 32.2246 30.125 31.9995 30.125C31.7744 30.125 31.5493 30.0874 31.3247 30.0122L1.19971 18.7622V15.2373L31.3247 3.9873C31.5493 3.9126 31.7744 3.875 31.9995 3.875C32.2246 3.875 32.4497 3.9126 32.6743 3.9873L62.7993 15.2373C63.5122 15.5 63.9995 16.2124 63.9995 17Z" fill="#6E6E6E"/>
<path d="M64 17C64 17.7876 63.5127 18.5 62.7998 18.7622L32.6748 30.0122C32.4502 30.0874 32.2251 30.125 32 30.125V3.875C32.2251 3.875 32.4502 3.9126 32.6748 3.9873L62.7998 15.2373C63.5127 15.5 64 16.2124 64 17Z" fill="#5A5A5A"/>
<path d="M33.875 17C33.875 18.0498 33.0503 18.875 32 18.875H3.75V46.6997L7.38721 57.6499C7.7251 58.6245 7.19971 59.7124 6.2251 60.0122C5.2124 60.3501 4.1626 59.8247 3.86279 58.8496L3.75 58.5127C3.6001 59.4126 2.8125 60.125 1.875 60.125C0.824707 60.125 0 59.2998 0 58.25V17C0 15.9497 0.824707 15.125 1.875 15.125H32C33.0503 15.125 33.875 15.9497 33.875 17Z" fill="#FDBF00"/>
</g>
<defs>
<clipPath id="clip0">
<rect width="64" height="64" fill="white"/>
</clipPath>
</defs>
</svg>
