<svg width="48" height="48" viewBox="0 0 48 48" fill="none" xmlns="http://www.w3.org/2000/svg">
<path d="M33.75 45.75H30C29.8011 45.75 29.6103 45.671 29.4697 45.5303C29.329 45.3897 29.25 45.1989 29.25 45C29.25 44.8011 29.329 44.6103 29.4697 44.4697C29.6103 44.329 29.8011 44.25 30 44.25H33.75C33.9489 44.25 34.1397 44.329 34.2803 44.4697C34.421 44.6103 34.5 44.8011 34.5 45C34.5 45.1989 34.421 45.3897 34.2803 45.5303C34.1397 45.671 33.9489 45.75 33.75 45.75Z" fill="#EA9D2D"/>
<path d="M33 38.25H30.75C30.5511 38.25 30.3603 38.171 30.2197 38.0303C30.079 37.8897 30 37.6989 30 37.5C30 37.3011 30.079 37.1103 30.2197 36.9697C30.3603 36.829 30.5511 36.75 30.75 36.75H33C33.1989 36.75 33.3897 36.829 33.5303 36.9697C33.671 37.1103 33.75 37.3011 33.75 37.5C33.75 37.6989 33.671 37.8897 33.5303 38.0303C33.3897 38.171 33.1989 38.25 33 38.25Z" fill="#EA9D2D"/>
<path d="M26.25 23.25H35.4623C35.8137 23.25 36.158 23.3488 36.456 23.535L42 27L41.25 30L35.9021 26.9672L34.125 25.805L26.25 23.25Z" fill="#55300B"/>
<path d="M32.7041 15.4448L34.5005 12.75L36.7505 16.5L32.7041 15.4448Z" fill="#027E2A"/>
<path d="M30.75 14.25L36.75 16.5L33.75 23.25L27.75 21L30.75 14.25Z" fill="#02A437"/>
<path d="M19.5 18L15 27.75H18L20.25 23.25L19.5 18Z" fill="#FDC9A6"/>
<path d="M18.0859 21.0643L21.0002 23.25L22.5002 21L20.2502 17.25L19.5002 18L18.0859 21.0643Z" fill="#2CBFF4"/>
<path d="M10.5 27.75H30C31.1935 27.75 32.3381 28.2241 33.182 29.068C34.0259 29.9119 34.5 31.0565 34.5 32.25C34.5 33.4435 34.0259 34.5881 33.182 35.432C32.3381 36.2759 31.1935 36.75 30 36.75H10.5V27.75Z" fill="#D32B39"/>
<path d="M25.5 11.25C25.5 9.59315 24.1569 8.25 22.5 8.25C20.8431 8.25 19.5 9.59315 19.5 11.25V12.75C19.5 14.4069 20.8431 15.75 22.5 15.75C24.1569 15.75 25.5 14.4069 25.5 12.75V11.25Z" fill="#FDC9A6"/>
<path d="M25.5002 10.4999H21.0001L19.5001 11.9999L18.4097 9.27385C18.2834 8.9581 18.2358 8.61636 18.271 8.27811C18.3062 7.93985 18.4232 7.61525 18.6119 7.33229C18.8669 6.94966 19.2407 6.66152 19.6757 6.51224C20.1106 6.36296 20.5826 6.36082 21.0189 6.50616L21.7502 6.74991L22.3383 5.57344C22.5869 5.07632 23.0132 4.69077 23.5327 4.49326C24.0522 4.29575 24.627 4.3007 25.1431 4.50713C25.6523 4.71084 26.068 5.09621 26.3095 5.58867C26.5511 6.08113 26.6014 6.64569 26.4507 7.1731L25.5002 10.4999Z" fill="#683B0D"/>
<path d="M21 15.75L19.5 18V21.1303C19.5 21.5378 19.5949 21.9398 19.7771 22.3043L22.5 27.75L26.25 23.25L24.75 21L24 15.75H21Z" fill="#0296E5"/>
<path d="M21.75 21L30.218 22.9541C30.5834 23.0385 30.9666 22.9974 31.3059 22.8376C31.6451 22.6777 31.9208 22.4084 32.0884 22.0729C32.1989 21.8517 32.2591 21.6088 32.2644 21.3616C32.2697 21.1145 32.2201 20.8692 32.1192 20.6435C32.0183 20.4178 31.8686 20.2173 31.6808 20.0564C31.493 19.8956 31.2719 19.7784 31.0334 19.7134L24.75 18L21.75 21Z" fill="#FDC9A6"/>
<path d="M24.7491 18L24.3436 16.3781C24.2453 15.9845 24.0182 15.635 23.6984 15.3853C23.3787 15.1356 22.9846 15 22.5789 15C22.3025 14.9999 22.0296 15.0629 21.7812 15.1841C21.5327 15.3053 21.3151 15.4816 21.145 15.6995C20.9748 15.9174 20.8566 16.1712 20.7993 16.4416C20.742 16.7121 20.7471 16.992 20.8142 17.2602L21.7491 21L24.7491 18Z" fill="#2CBFF4"/>
<path d="M26.25 23.25L34.3628 25.2782C34.6391 25.3473 34.8961 25.4784 35.1142 25.6616C35.3323 25.8449 35.5057 26.0754 35.6214 26.3357L38.25 32.25L36 34.5L33 27.75H22.5L26.25 23.25Z" fill="#683B0D"/>
<path d="M42 27L43.5 26.25L45.75 27L44.25 30.75L41.25 30L42 27Z" fill="#CBCBCB"/>
<path d="M38.25 32.25L41.25 33.75V36L36.75 36.75L36 34.5L38.25 32.25Z" fill="#CBCBCB"/>
<path d="M10.4062 29.25H8.15625C7.95734 29.25 7.76657 29.171 7.62592 29.0303C7.48527 28.8897 7.40625 28.6989 7.40625 28.5C7.40625 28.3011 7.48527 28.1103 7.62592 27.9697C7.76657 27.829 7.95734 27.75 8.15625 27.75H10.4062C10.6052 27.75 10.7959 27.829 10.9366 27.9697C11.0772 28.1103 11.1562 28.3011 11.1562 28.5C11.1562 28.6989 11.0772 28.8897 10.9366 29.0303C10.7959 29.171 10.6052 29.25 10.4062 29.25Z" fill="#D32B39"/>
<path d="M12 37.5H8.25C8.05109 37.5 7.86032 37.421 7.71967 37.2803C7.57902 37.1397 7.5 36.9489 7.5 36.75C7.5 36.5511 7.57902 36.3603 7.71967 36.2197C7.86032 36.079 8.05109 36 8.25 36H12C12.1989 36 12.3897 36.079 12.5303 36.2197C12.671 36.3603 12.75 36.5511 12.75 36.75C12.75 36.9489 12.671 37.1397 12.5303 37.2803C12.3897 37.421 12.1989 37.5 12 37.5Z" fill="#D32B39"/>
<path d="M10.5 30.75H30C30.3978 30.75 30.7794 30.908 31.0607 31.1893C31.342 31.4706 31.5 31.8522 31.5 32.25C31.5 32.6478 31.342 33.0294 31.0607 33.3107C30.7794 33.592 30.3978 33.75 30 33.75H10.5V30.75Z" fill="#CBCBCB"/>
<path d="M31.5 45.75H12C10.8065 45.75 9.66193 45.2759 8.81802 44.432C7.97411 43.5881 7.5 42.4435 7.5 41.25C7.5 40.0565 7.97411 38.9119 8.81802 38.068C9.66193 37.2241 10.8065 36.75 12 36.75H31.5V45.75Z" fill="#EA9D2D"/>
<path d="M31.5 39.75H12C11.6022 39.75 11.2206 39.908 10.9393 40.1893C10.658 40.4706 10.5 40.8522 10.5 41.25C10.5 41.6478 10.658 42.0294 10.9393 42.3107C11.2206 42.592 11.6022 42.75 12 42.75H31.5V39.75Z" fill="#CBCBCB"/>
<path d="M12.8787 16.3713L12.75 16.5H8.25L8.12128 16.3713C7.44875 15.6987 6.91527 14.9003 6.5513 14.0216C6.18733 13.1429 6 12.2011 6 11.25C6 10.0565 6.47411 8.91193 7.31802 8.06802C8.16193 7.22411 9.30653 6.75 10.5 6.75C11.6935 6.75 12.8381 7.22411 13.682 8.06802C14.5259 8.91193 15 10.0565 15 11.25C15 12.2011 14.8127 13.1429 14.4487 14.0216C14.0847 14.9003 13.5513 15.6987 12.8787 16.3713Z" fill="#EA9D2D"/>
<path d="M12.5304 10.7197C12.4607 10.65 12.378 10.5948 12.287 10.5571C12.1961 10.5194 12.0985 10.5 12 10.5C11.9015 10.5 11.804 10.5194 11.713 10.5571C11.622 10.5948 11.5393 10.65 11.4697 10.7197L10.5 11.6894L9.53036 10.7197C9.38971 10.579 9.19894 10.5 9.00002 10.5C8.8011 10.5 8.61033 10.579 8.46968 10.7197C8.32902 10.8603 8.25 11.0511 8.25 11.25C8.25 11.4489 8.32902 11.6397 8.46968 11.7804L9.75002 13.0607V16.5C9.75002 16.6989 9.82904 16.8897 9.96969 17.0304C10.1103 17.171 10.3011 17.25 10.5 17.25C10.6989 17.25 10.8897 17.171 11.0304 17.0304C11.171 16.8897 11.25 16.6989 11.25 16.5V13.0607L12.5304 11.7804C12.6 11.7107 12.6553 11.628 12.693 11.537C12.7307 11.4461 12.7501 11.3485 12.7501 11.25C12.7501 11.1515 12.7307 11.054 12.693 10.963C12.6553 10.872 12.6 10.7893 12.5304 10.7197Z" fill="#C38325"/>
<path d="M10.5 4.5C10.3011 4.5 10.1103 4.42098 9.96967 4.28033C9.82902 4.13968 9.75 3.94891 9.75 3.75V2.25C9.75 2.05109 9.82902 1.86032 9.96967 1.71967C10.1103 1.57902 10.3011 1.5 10.5 1.5C10.6989 1.5 10.8897 1.57902 11.0303 1.71967C11.171 1.86032 11.25 2.05109 11.25 2.25V3.75C11.25 3.94891 11.171 4.13968 11.0303 4.28033C10.8897 4.42098 10.6989 4.5 10.5 4.5Z" fill="#FBB540"/>
<path d="M7.12531 5.40389C6.99353 5.40402 6.86405 5.36943 6.74989 5.30359C6.63574 5.23776 6.54095 5.14301 6.47506 5.02889L5.72506 3.72989C5.67503 3.64457 5.64238 3.55019 5.62898 3.45219C5.61558 3.35419 5.6217 3.25451 5.64698 3.15888C5.67227 3.06326 5.71621 2.97358 5.77629 2.89501C5.83637 2.81644 5.9114 2.75053 5.99706 2.70107C6.08272 2.65162 6.17731 2.61959 6.2754 2.60684C6.37348 2.59409 6.47312 2.60087 6.56858 2.62679C6.66403 2.6527 6.75342 2.69724 6.83159 2.75784C6.90976 2.81845 6.97517 2.89391 7.02406 2.97989L7.77406 4.27889C7.83985 4.39285 7.87451 4.52211 7.87454 4.6537C7.87457 4.78529 7.83999 4.91457 7.77425 5.02856C7.70852 5.14255 7.61395 5.23724 7.50004 5.30312C7.38613 5.369 7.2569 5.40376 7.12531 5.40389Z" fill="#FBB540"/>
<path d="M4.65341 7.87554C4.52195 7.87558 4.39281 7.84088 4.27907 7.77495L2.98007 7.02495C2.80921 6.92478 2.68491 6.76111 2.63429 6.56963C2.58367 6.37816 2.61084 6.17444 2.70986 6.00292C2.80889 5.83141 2.97174 5.70602 3.16287 5.65413C3.354 5.60224 3.5579 5.62806 3.73007 5.72594L5.02907 6.47594C5.17214 6.55851 5.28395 6.68599 5.34714 6.8386C5.41033 6.99122 5.42138 7.16043 5.37856 7.31996C5.33574 7.4795 5.24145 7.62043 5.11033 7.72089C4.97921 7.82135 4.81859 7.87571 4.65341 7.87554Z" fill="#FBB540"/>
<path d="M3.75 11.25H2.25C2.05109 11.25 1.86032 11.171 1.71967 11.0303C1.57902 10.8897 1.5 10.6989 1.5 10.5C1.5 10.3011 1.57902 10.1103 1.71967 9.96967C1.86032 9.82902 2.05109 9.75 2.25 9.75H3.75C3.94891 9.75 4.13968 9.82902 4.28033 9.96967C4.42098 10.1103 4.5 10.3011 4.5 10.5C4.5 10.6989 4.42098 10.8897 4.28033 11.0303C4.13968 11.171 3.94891 11.25 3.75 11.25Z" fill="#FBB540"/>
<path d="M3.35635 15.3755C3.19116 15.3757 3.03053 15.3214 2.89939 15.2209C2.76826 15.1205 2.67395 14.9795 2.63112 14.82C2.58829 14.6605 2.59933 14.4913 2.66252 14.3386C2.72571 14.186 2.83752 14.0585 2.9806 13.9759L4.2796 13.2259C4.45177 13.1281 4.65567 13.1022 4.8468 13.1541C5.03793 13.206 5.20078 13.3314 5.29981 13.5029C5.39883 13.6744 5.426 13.8782 5.37538 14.0696C5.32476 14.2611 5.20045 14.4248 5.0296 14.5249L3.7306 15.2749C3.61687 15.3408 3.48778 15.3755 3.35635 15.3755Z" fill="#FBB540"/>
<path d="M13.8742 5.40389C13.7426 5.40376 13.6134 5.369 13.4995 5.30312C13.3856 5.23724 13.291 5.14255 13.2253 5.02856C13.1596 4.91457 13.125 4.78529 13.125 4.6537C13.125 4.52211 13.1597 4.39285 13.2255 4.27889L13.9755 2.97989C14.0244 2.89391 14.0898 2.81845 14.168 2.75784C14.2461 2.69724 14.3355 2.6527 14.431 2.62679C14.5264 2.60087 14.6261 2.59409 14.7241 2.60684C14.8222 2.61959 14.9168 2.65162 15.0025 2.70107C15.0881 2.75053 15.1632 2.81644 15.2232 2.89501C15.2833 2.97358 15.3273 3.06326 15.3526 3.15888C15.3778 3.25451 15.384 3.35419 15.3706 3.45219C15.3572 3.55019 15.3245 3.64457 15.2745 3.72989L14.5245 5.02889C14.4586 5.14301 14.3638 5.23776 14.2496 5.30359C14.1355 5.36943 14.006 5.40402 13.8742 5.40389Z" fill="#FBB540"/>
<path d="M12.75 19.5L11.25 21H9.75L8.25 19.5V16.5H12.75V19.5Z" fill="#CBCBCB"/>
<path d="M8.25 19.5H12.75L11.25 21H9.75L8.25 19.5Z" fill="#EAEAE8"/>
</svg>
