<svg width="16" height="16" viewBox="0 0 16 16" fill="none" xmlns="http://www.w3.org/2000/svg">
<path fill-rule="evenodd" clip-rule="evenodd" d="M7.99996 1.99996C4.68625 1.99996 1.99996 4.68625 1.99996 7.99996C1.99996 11.3137 4.68625 14 7.99996 14C11.3137 14 14 11.3137 14 7.99996C14 4.68625 11.3137 1.99996 7.99996 1.99996ZM0.666626 7.99996C0.666626 3.94987 3.94987 0.666626 7.99996 0.666626C12.05 0.666626 15.3333 3.94987 15.3333 7.99996C15.3333 12.05 12.05 15.3333 7.99996 15.3333C3.94987 15.3333 0.666626 12.05 0.666626 7.99996Z" fill="#333333"/>
<path fill-rule="evenodd" clip-rule="evenodd" d="M8.00004 7.33337C8.36823 7.33337 8.66671 7.63185 8.66671 8.00004V10.6667C8.66671 11.0349 8.36823 11.3334 8.00004 11.3334C7.63185 11.3334 7.33337 11.0349 7.33337 10.6667V8.00004C7.33337 7.63185 7.63185 7.33337 8.00004 7.33337Z" fill="#333333"/>
<path fill-rule="evenodd" clip-rule="evenodd" d="M7.33337 5.33329C7.33337 4.9651 7.63185 4.66663 8.00004 4.66663H8.00671C8.3749 4.66663 8.67337 4.9651 8.67337 5.33329C8.67337 5.70148 8.3749 5.99996 8.00671 5.99996H8.00004C7.63185 5.99996 7.33337 5.70148 7.33337 5.33329Z" fill="#333333"/>
</svg>
