<svg width="18" height="20" viewBox="0 0 18 20" fill="none" xmlns="http://www.w3.org/2000/svg">
<path fill-rule="evenodd" clip-rule="evenodd" d="M14.8334 8.33334C14.8334 4.9507 12.968 2.60293 10.5545 1.8981C10.4671 1.67198 10.329 1.46176 10.1413 1.28537C9.49979 0.682669 8.50025 0.682669 7.85878 1.28537C7.67146 1.46137 7.53353 1.67105 7.44611 1.89661C5.02948 2.59836 3.16669 4.941 3.16669 8.33334C3.16669 10.5283 2.72417 11.7582 1.90499 12.6495C1.76802 12.7985 1.39694 13.1398 1.14557 13.3711C1.02665 13.4805 0.934516 13.5652 0.906658 13.5933L0.666687 13.8366V16.6784H5.74C5.91155 17.5634 6.39176 18.1556 7.26019 18.6855C8.32847 19.3374 9.67157 19.3374 10.7399 18.6855C11.5063 18.2178 12.0201 17.4991 12.2286 16.6784H17.3334V13.8366L17.0934 13.5933C17.0681 13.5677 16.9797 13.4861 16.8642 13.3796L16.8642 13.3795C16.6136 13.1484 16.2352 12.7994 16.0962 12.6475C15.2764 11.752 14.8334 10.5205 14.8334 8.33334ZM10.4473 16.6784H7.4822C7.59994 16.8974 7.80061 17.0628 8.12837 17.2628C8.66358 17.5894 9.33646 17.5894 9.87167 17.2628C10.1195 17.1116 10.3132 16.9115 10.4473 16.6784ZM14.8668 13.7729C15.0422 13.9644 15.418 14.3145 15.6667 14.5433V15.0117H2.33335V14.5437C2.58008 14.3176 2.95705 13.9677 3.13209 13.7773C4.2452 12.5662 4.83335 10.9315 4.83335 8.33334C4.83335 5.18325 6.77733 3.34366 9.00002 3.34366C11.2164 3.34366 13.1667 5.19275 13.1667 8.33334C13.1667 10.9232 13.755 12.5583 14.8668 13.7729Z" fill="#5B617C"/>
</svg>
