<svg width="48" height="48" viewBox="0 0 48 48" fill="none" xmlns="http://www.w3.org/2000/svg">
<g clip-path="url(#clip0)">
<path d="M14.196 20.752L3.71362 40.5012L13.2326 39.6218L17.8397 47.9987L28.3222 28.2495L14.196 20.752Z" fill="#E95454"/>
<path d="M15.3967 42.2472C15.6908 41.6155 15.3832 40.8606 14.7679 40.5334L14.1646 40.2123C13.5613 39.8686 13.3317 39.1048 13.6604 38.4865C13.9935 37.8577 14.7769 37.6176 15.4057 37.9507L17.1105 38.8557C17.6372 39.1348 18.2975 38.9322 18.5692 38.4024L18.6112 38.3214C18.9233 37.8217 18.7387 37.1614 18.2195 36.8867L13.1201 34.181C12.4988 33.8508 12.1942 33.099 12.4838 32.4657C12.8035 31.7919 13.6108 31.5262 14.2606 31.8714L18.9909 34.3821C19.5176 34.6612 20.1779 34.4586 20.457 33.9319L20.4841 33.8628L20.4916 33.8478C20.7932 33.2956 20.5816 32.6022 20.0248 32.3066L17.3716 30.8989C16.7503 30.5688 16.4457 29.8169 16.7398 29.1761C17.0565 28.5098 17.8668 28.2367 18.5166 28.5818L21.4475 30.1381C21.9953 30.4292 22.6496 30.1861 22.9332 29.6338C22.9377 29.6263 22.9377 29.6263 22.9407 29.6188C22.9452 29.6113 22.9452 29.6113 22.9482 29.6038C23.2469 29.0591 23.0818 28.3807 22.5325 28.0911L19.3705 26.4133C18.7568 26.0877 18.4521 25.3358 18.7417 24.7025C19.0614 24.0287 19.8688 23.7631 20.5186 24.1082L28.3192 28.2487L17.8368 47.9979L14.948 42.747C15.1341 42.6209 15.2961 42.4649 15.3967 42.2472Z" fill="#ED6362"/>
<path d="M33.8041 20.752L44.2865 40.5012L34.7676 39.6218L30.1604 47.9987L19.678 28.2495L33.8041 20.752Z" fill="#ED6362"/>
<path d="M32.6035 42.2477C32.3094 41.6159 32.617 40.8611 33.2323 40.5339L33.8356 40.2127C34.4389 39.8691 34.6685 39.1052 34.3398 38.4869C34.0067 37.8581 33.2233 37.618 32.5945 37.9512L30.8897 38.8561C30.363 39.1352 29.7026 38.9326 29.431 38.4029L29.389 38.3219C29.0768 37.8221 29.2614 37.1618 29.7807 36.8872L34.8816 34.1799C35.5029 33.8498 35.8075 33.0979 35.5179 32.4646C35.1982 31.7908 34.3908 31.5252 33.741 31.8703L29.0108 34.381C28.4841 34.6601 27.8238 34.4576 27.5446 33.9308L27.5176 33.8618L27.5101 33.8468C27.2085 33.2945 27.4201 32.6012 27.9768 32.3055L30.6301 30.8979C31.2514 30.5677 31.556 29.8159 31.2619 29.1751C30.9452 28.5088 30.1348 28.2356 29.485 28.5808L26.5512 30.14C26.0034 30.4312 25.3491 30.188 25.0655 29.6358C25.061 29.6283 25.061 29.6283 25.058 29.6208C25.0535 29.6133 25.0535 29.6133 25.0505 29.6058C24.7518 29.061 24.9169 28.3827 25.4662 28.0931L28.6281 26.4153C29.2419 26.0896 29.5466 25.3378 29.2569 24.7045C28.9373 24.0307 28.1299 23.765 27.4801 24.1102L19.6794 28.2506L30.1619 47.9999L33.0507 42.7489C32.8661 42.6214 32.704 42.4653 32.6035 42.2477Z" fill="#E95454"/>
<path d="M23.9998 35.0294C33.6729 35.0294 41.5145 27.1878 41.5145 17.5147C41.5145 7.8416 33.6729 0 23.9998 0C14.3267 0 6.48511 7.8416 6.48511 17.5147C6.48511 27.1878 14.3267 35.0294 23.9998 35.0294Z" fill="#FFCC5B"/>
<path d="M26.3759 15.5051H15.2767C14.4138 15.5051 13.7055 14.7968 13.7055 13.9339L13.7175 13.8258V13.8018C13.7055 12.8909 14.4483 12.1465 15.3608 12.1465H23.0534C24.0723 12.1465 24.9728 11.3917 25.0328 10.3712C25.0808 9.3042 24.2299 8.40378 23.1614 8.40378H15.0126C14.1137 8.40378 13.4414 7.64892 13.4534 6.7485C13.4534 6.7365 13.4534 6.7365 13.4534 6.72449C13.4534 6.71248 13.4534 6.71248 13.4534 6.70048C13.4414 5.80156 14.1122 5.0452 15.0126 5.0452H23.5396C24.5466 5.0452 25.447 4.29035 25.507 3.28188C25.555 2.20287 24.7041 1.31445 23.6356 1.31445H17.3912C11.0237 3.93918 6.53662 10.2001 6.53662 17.5145C6.53662 24.829 11.0237 31.0884 17.3927 33.7101H25.3209C26.3279 33.7101 27.2283 32.9553 27.2883 31.9468C27.3364 30.8678 26.4855 29.9809 25.417 29.9809L16.3977 29.9794C15.3337 29.9794 14.4768 29.0895 14.5339 28.012C14.5864 27.0035 15.4928 26.2456 16.5028 26.2456H19.9994C21.0049 26.2171 21.8168 25.3932 21.8168 24.3803C21.8168 23.3493 20.9779 22.5089 19.9454 22.5089H14.6449C13.782 22.5089 13.0737 21.8021 13.0857 20.9377V20.8056C13.0257 19.9547 13.71 19.2344 14.5609 19.2344H26.2679C27.2868 19.2344 28.1873 18.4795 28.2473 17.471C28.2953 16.3935 27.4429 15.5051 26.3759 15.5051Z" fill="#FDBC4B"/>
<path d="M23.9997 30.0149C17.1054 30.0149 11.4973 24.4053 11.4973 17.5126C11.4973 10.6198 17.1054 5.01172 23.9997 5.01172C30.8939 5.01172 36.502 10.6213 36.502 17.5141C36.502 24.4068 30.8939 30.0149 23.9997 30.0149Z" fill="#FFDB70"/>
<path d="M17.9761 22.4644C17.7795 22.643 17.664 22.8561 17.5724 23.0812C17.4854 23.3078 17.4224 23.5464 17.4389 23.8135C17.4569 24.0821 17.5664 24.3778 17.5814 24.6434C17.5844 24.6779 17.5754 24.7109 17.5769 24.744C17.0727 24.0776 16.642 23.3708 16.2863 22.6355C16.2953 22.4869 16.3179 22.3458 16.3719 22.2213C16.4589 22.0052 16.6435 21.8431 16.7606 21.6465C16.8761 21.4499 16.9331 21.2248 16.9827 20.9952C17.0277 20.7626 17.0637 20.527 17.0412 20.2508C17.0202 20.2373 16.9977 20.2238 16.9767 20.2088C16.7531 20.3274 16.5985 20.494 16.4634 20.677C16.3344 20.8631 16.2233 21.0642 16.1813 21.3103C16.1423 21.558 16.1813 21.8506 16.1378 22.0922C16.1303 22.1387 16.1093 22.1793 16.0972 22.2243C15.7731 21.4889 15.521 20.7281 15.3424 19.9522C15.3829 19.7841 15.4384 19.6281 15.53 19.505C15.656 19.3294 15.8661 19.2259 16.0162 19.0758C16.1648 18.9227 16.2623 18.7306 16.3524 18.5295C16.4394 18.3239 16.5174 18.1138 16.5445 17.8497C16.5264 17.8317 16.5084 17.8137 16.4904 17.7957C16.2563 17.8512 16.0777 17.9698 15.9157 18.1063C15.7566 18.2459 15.614 18.408 15.5255 18.6226C15.4399 18.8402 15.4204 19.1193 15.3304 19.3294C15.3079 19.3864 15.2719 19.43 15.2418 19.481C15.0948 18.7126 15.0182 17.9323 15.0137 17.1504C15.0933 16.9658 15.1863 16.7977 15.3214 16.6867C15.4745 16.5546 15.6906 16.5126 15.8601 16.409C16.0282 16.304 16.1558 16.1449 16.2773 15.9783C16.3959 15.8058 16.5069 15.6242 16.5805 15.3781C16.567 15.3556 16.5535 15.3345 16.54 15.312C16.3088 15.306 16.1213 15.3766 15.9442 15.4651C15.7701 15.5597 15.605 15.6737 15.4835 15.8568C15.3619 16.0414 15.2929 16.298 15.1683 16.4721C15.1263 16.5336 15.0738 16.5786 15.0227 16.6267C15.0498 15.8628 15.1443 15.1004 15.3064 14.3471C15.3139 14.3351 15.3214 14.3246 15.3289 14.3126C15.4504 14.128 15.5855 13.9644 15.7551 13.8819C15.9217 13.7948 16.1288 13.8113 16.3058 13.7543C16.4814 13.6958 16.6285 13.5757 16.7726 13.4422C16.9136 13.3041 17.0502 13.1555 17.1657 12.9319C17.1567 12.9079 17.1492 12.8824 17.1402 12.8569C16.9286 12.7954 16.7426 12.8179 16.5625 12.8599C16.3839 12.9079 16.2098 12.9784 16.0627 13.124C15.9157 13.2726 15.8016 13.5022 15.653 13.6342C15.5885 13.6958 15.518 13.7363 15.4444 13.7753C15.6425 13.028 15.9112 12.2926 16.2473 11.5798C16.2533 11.5888 16.2608 11.5963 16.2668 11.6053C16.2953 11.5753 16.3254 11.5468 16.3539 11.5168C16.5039 11.3682 16.66 11.2436 16.8296 11.2061C16.9992 11.1626 17.1838 11.2301 17.3548 11.2166C17.5259 11.2016 17.685 11.1191 17.8441 11.0215C18.0016 10.918 18.1577 10.8024 18.3108 10.6073C18.3093 10.5803 18.3063 10.5533 18.3048 10.5278C18.1262 10.4182 17.9536 10.3957 17.7795 10.3957C17.607 10.4002 17.4344 10.4287 17.2693 10.5368C17.1042 10.6478 16.9511 10.8444 16.7891 10.9375C16.7095 10.987 16.6255 11.0155 16.5415 11.0335C16.5445 11.017 16.5445 11.002 16.5475 10.9855C17.0937 9.97103 17.7885 9.01208 18.6334 8.13867C17.8336 8.91153 17.1537 9.76393 16.5925 10.6719C16.594 10.6448 16.606 10.6133 16.606 10.5863C16.6195 10.3912 16.6285 10.1976 16.6105 10.0146C16.552 9.65588 16.4544 9.30922 16.1888 9.01658C16.1603 9.02709 16.1318 9.03759 16.1033 9.0481C15.8211 9.54483 15.7476 9.97853 15.7461 10.3747C15.7581 10.5683 15.8016 10.7454 15.8601 10.915C15.9082 11.0906 15.9952 11.2451 16.1033 11.3877C16.1183 11.4087 16.1333 11.4282 16.1498 11.4492C15.8286 12.06 15.5585 12.6933 15.3409 13.3401C15.3394 13.3341 15.3409 13.3266 15.3394 13.3191C15.2959 13.1195 15.2539 12.9169 15.1893 12.7293C15.0393 12.3677 14.8562 12.024 14.523 11.7674C14.4975 11.7839 14.4735 11.8004 14.448 11.8169C14.2964 12.3872 14.3324 12.8539 14.4345 13.2651C14.4945 13.4632 14.586 13.6387 14.6881 13.8038C14.7811 13.9764 14.9087 14.1205 15.0528 14.248C15.0573 14.251 15.0618 14.2555 15.0648 14.2585C14.8997 14.9008 14.7826 15.5536 14.7166 16.2125C14.6281 16.0189 14.538 15.8268 14.43 15.6542C14.1869 15.309 13.9182 14.9864 13.522 14.7793C13.501 14.8003 13.48 14.8213 13.459 14.8438C13.45 15.4621 13.6046 15.9363 13.8117 16.3415C13.9242 16.5351 14.0608 16.6987 14.2064 16.8488C14.3339 16.9958 14.4885 17.1069 14.6521 17.2059C14.6356 17.8557 14.6656 18.5085 14.7451 19.1568C14.6131 18.9888 14.4825 18.8192 14.3384 18.6736C14.0038 18.3675 13.6496 18.0853 13.1994 17.9398C13.1829 17.9653 13.1679 17.9908 13.1514 18.0163C13.2954 18.6511 13.5746 19.1088 13.8897 19.4825C14.0533 19.6596 14.2349 19.8006 14.4225 19.9252C14.5725 20.0377 14.7406 20.1098 14.9117 20.1743C15.0393 20.8076 15.2148 21.4334 15.4369 22.0487C15.2674 21.9136 15.1008 21.7756 14.9252 21.66C14.502 21.4124 14.0683 21.1903 13.5701 21.1243C13.5596 21.1528 13.5506 21.1813 13.54 21.2098C13.8477 21.8296 14.2499 22.2423 14.6716 22.5604C14.8862 22.709 15.1098 22.8156 15.3364 22.9056C15.5015 22.9806 15.674 23.0136 15.8451 23.0452C16.1153 23.6364 16.4334 24.2127 16.7966 24.768C16.5955 24.6719 16.3959 24.5699 16.1948 24.4948C15.6906 24.3298 15.1833 24.1872 14.6506 24.2097C14.6476 24.2412 14.6446 24.2712 14.6416 24.3027C15.1173 24.873 15.644 25.2107 16.1663 25.4478C16.4289 25.5543 16.6915 25.6174 16.9526 25.6624C17.1237 25.6999 17.2918 25.6939 17.4614 25.6954C17.7435 26.0556 18.0482 26.4037 18.3723 26.7399C18.5434 26.5688 18.716 26.3962 18.8871 26.2251C18.5134 25.865 18.1667 25.4853 17.8456 25.0921C17.8291 24.9631 17.8231 24.8385 17.8411 24.7199C17.8726 24.4693 18.0151 24.2532 18.0842 24.0191C18.1502 23.7835 18.1547 23.5344 18.1517 23.2823C18.1442 23.0286 18.1277 22.775 18.0467 22.4944C18.0242 22.4824 18.0001 22.4734 17.9761 22.4644Z" fill="#ED6362"/>
<path d="M30.0239 22.4643C30.2205 22.6429 30.336 22.856 30.4276 23.0811C30.5146 23.3077 30.5777 23.5463 30.5611 23.8134C30.5431 24.0821 30.4336 24.3777 30.4186 24.6433C30.4156 24.6779 30.4246 24.7109 30.4231 24.7439C30.9273 24.0776 31.358 23.3707 31.7137 22.6354C31.7047 22.4868 31.6822 22.3458 31.6281 22.2212C31.5411 22.0051 31.3565 21.843 31.2395 21.6464C31.1239 21.4498 31.0669 21.2247 31.0174 20.9951C30.9723 20.7625 30.9363 20.5269 30.9588 20.2508C30.9798 20.2373 31.0024 20.2238 31.0234 20.2088C31.247 20.3273 31.4015 20.4939 31.5366 20.677C31.6657 20.8631 31.7767 21.0642 31.8187 21.3103C31.8577 21.5579 31.8187 21.8505 31.8623 22.0921C31.8698 22.1387 31.8908 22.1792 31.9028 22.2242C32.2269 21.4889 32.479 20.728 32.6576 19.9521C32.6171 19.7841 32.5616 19.628 32.47 19.5049C32.344 19.3293 32.1339 19.2258 31.9838 19.0757C31.8352 18.9227 31.7377 18.7306 31.6477 18.5295C31.5606 18.3239 31.4826 18.1138 31.4556 17.8497C31.4736 17.8316 31.4916 17.8136 31.5096 17.7956C31.7437 17.8512 31.9223 17.9697 32.0844 18.1063C32.2434 18.2458 32.386 18.4079 32.4745 18.6225C32.5601 18.8401 32.5796 19.1192 32.6696 19.3293C32.6921 19.3864 32.7282 19.4299 32.7582 19.4809C32.9052 18.7126 32.9818 17.9322 32.9863 17.1503C32.9067 16.9657 32.8137 16.7977 32.6786 16.6866C32.5256 16.5545 32.3095 16.5125 32.1399 16.409C31.9718 16.3039 31.8442 16.1449 31.7227 15.9783C31.6041 15.8057 31.4931 15.6241 31.4195 15.378C31.4331 15.3555 31.4466 15.3345 31.4601 15.312C31.6912 15.306 31.8788 15.3765 32.0558 15.465C32.2299 15.5596 32.395 15.6736 32.5166 15.8567C32.6381 16.0413 32.7071 16.2979 32.8317 16.472C32.8737 16.5335 32.9263 16.5786 32.9773 16.6266C32.9503 15.8627 32.8557 15.1004 32.6936 14.347C32.6861 14.335 32.6786 14.3245 32.6711 14.3125C32.5496 14.1279 32.4145 13.9643 32.2449 13.8818C32.0784 13.7948 31.8713 13.8113 31.6942 13.7542C31.5186 13.6957 31.3715 13.5756 31.2275 13.4421C31.0864 13.304 30.9498 13.1555 30.8343 12.9318C30.8433 12.9078 30.8508 12.8823 30.8598 12.8568C31.0714 12.7953 31.2575 12.8178 31.4376 12.8598C31.6161 12.9078 31.7902 12.9784 31.9373 13.1239C32.0844 13.2725 32.1984 13.5021 32.347 13.6342C32.4115 13.6957 32.482 13.7362 32.5556 13.7752C32.3605 13.0294 32.0934 12.294 31.7557 11.5812C31.7497 11.5902 31.7422 11.5977 31.7362 11.6067C31.7077 11.5767 31.6777 11.5482 31.6492 11.5182C31.4991 11.3696 31.343 11.2451 31.1734 11.2075C31.0038 11.164 30.8193 11.2315 30.6482 11.218C30.4771 11.203 30.318 11.1205 30.159 11.023C30.0014 10.9194 29.8453 10.8038 29.6922 10.6088C29.6937 10.5817 29.6967 10.5547 29.6982 10.5292C29.8768 10.4197 30.0494 10.3972 30.2235 10.3972C30.3961 10.4017 30.5686 10.4302 30.7337 10.5382C30.8988 10.6493 31.0519 10.8459 31.2139 10.9389C31.2935 10.9884 31.3775 11.0169 31.4616 11.035C31.4586 11.02 31.4571 11.0034 31.4556 10.9884C30.9093 9.97396 30.2145 9.01501 29.3696 8.1416C30.1695 8.91446 30.8493 9.76686 31.4105 10.6748C31.409 10.6478 31.397 10.6163 31.397 10.5892C31.3835 10.3942 31.3745 10.2006 31.3925 10.0175C31.4511 9.65881 31.5486 9.31215 31.8142 9.01951C31.8427 9.03002 31.8713 9.04052 31.8998 9.05103C32.1819 9.54776 32.2554 9.98146 32.2569 10.3776C32.2449 10.5712 32.2014 10.7483 32.1429 10.9179C32.0949 11.0935 32.0078 11.2481 31.8998 11.3906C31.8848 11.4116 31.8698 11.4311 31.8532 11.4522C32.1744 12.0629 32.4445 12.6962 32.6621 13.343C32.6636 13.337 32.6621 13.3295 32.6636 13.322C32.7041 13.1194 32.7462 12.9168 32.8107 12.7293C32.9608 12.3676 33.1439 12.0239 33.477 11.7673C33.5025 11.7838 33.528 11.7988 33.5535 11.8153C33.7051 12.3856 33.6691 12.8523 33.5686 13.2635C33.5085 13.4616 33.417 13.6372 33.3149 13.8023C33.2219 13.9748 33.0943 14.1189 32.9503 14.2465C32.9458 14.2495 32.9413 14.254 32.9383 14.257C33.1033 14.8993 33.2204 15.5521 33.2864 16.2109C33.375 16.0173 33.465 15.8252 33.5731 15.6526C33.8162 15.3075 34.0848 14.9848 34.481 14.7777C34.502 14.7987 34.523 14.8197 34.544 14.8407C34.553 15.459 34.3984 15.9333 34.1913 16.3384C34.0788 16.532 33.9422 16.6956 33.7967 16.8457C33.6691 16.9928 33.5145 17.1038 33.3509 17.2028C33.3675 17.8527 33.3374 18.5055 33.2579 19.1538C33.39 18.9857 33.5205 18.8161 33.6646 18.6705C33.9993 18.3644 34.3534 18.0823 34.8036 17.9367C34.8201 17.9622 34.8351 17.9877 34.8517 18.0132C34.7076 18.648 34.4285 19.1057 34.1133 19.4794C33.9497 19.6565 33.7681 19.7976 33.5806 19.9221C33.4305 20.0347 33.2624 20.1067 33.0913 20.1712C32.9638 20.8045 32.7882 21.4303 32.5661 22.0456C32.7357 21.9106 32.9022 21.7725 33.0778 21.6569C33.501 21.4093 33.9347 21.1872 34.433 21.1212C34.4435 21.1497 34.4525 21.1782 34.463 21.2067C34.1553 21.8265 33.7531 22.2392 33.3314 22.5574C33.1168 22.7059 32.8932 22.8125 32.6666 22.9025C32.5016 22.9776 32.329 23.0106 32.1579 23.0421C31.8878 23.6334 31.5696 24.2096 31.2064 24.7649C31.4075 24.6688 31.6071 24.5668 31.8082 24.4918C32.3125 24.3267 32.8197 24.1841 33.3525 24.2066C33.3555 24.2381 33.3585 24.2682 33.3615 24.2997C32.8857 24.8699 32.359 25.2076 31.8367 25.4447C31.5741 25.5513 31.3115 25.6143 31.0504 25.6593C30.8793 25.6968 30.7112 25.6908 30.5416 25.6923C30.2595 26.0525 29.9549 26.4007 29.6307 26.7368C29.4596 26.5657 29.287 26.3932 29.116 26.2221C29.4896 25.8619 29.8363 25.4822 30.1575 25.089C30.174 24.96 30.18 24.8354 30.162 24.7169C30.1304 24.4663 29.9879 24.2502 29.9188 24.016C29.8528 23.7804 29.8483 23.5313 29.8513 23.2792C29.8588 23.0256 29.8753 22.772 29.9564 22.4913C29.9759 22.4823 29.9999 22.4733 30.0239 22.4643Z" fill="#ED6362"/>
<path d="M23.7523 9.23535C23.3921 10.2408 22.7288 11.1187 21.7608 11.8736C21.2671 12.2593 20.8019 12.5429 20.3472 12.7935V15.6824C21.3767 15.2082 22.3386 14.6439 23.155 13.88V25.7911H26.3155V9.23535H23.7523Z" fill="#E95454"/>
</g>
<defs>
<clipPath id="clip0">
<rect width="48" height="48" fill="white"/>
</clipPath>
</defs>
</svg>
