<svg width="48" height="48" viewBox="0 0 48 48" fill="none" xmlns="http://www.w3.org/2000/svg">
<path d="M47.2042 20.4605C47.0888 20.1057 46.8764 19.7903 46.5911 19.5499C46.3058 19.3095 45.9589 19.1536 45.5897 19.1L31.9107 17.1123L25.7932 4.71728C25.628 4.38262 25.3726 4.10084 25.0556 3.90381C24.7387 3.70678 24.3729 3.60236 23.9997 3.60236C23.6265 3.60236 23.2607 3.70678 22.9438 3.90381C22.6269 4.10084 22.3714 4.38262 22.2062 4.71728L16.0887 17.1123L2.4097 19.1C2.04059 19.1538 1.69388 19.3098 1.40875 19.5503C1.12362 19.7908 0.911426 20.1063 0.796148 20.461C0.680869 20.8158 0.667098 21.1957 0.75639 21.5579C0.845683 21.92 1.03448 22.25 1.30145 22.5105L11.1997 32.159L8.86295 45.784C8.79988 46.1519 8.84097 46.53 8.98159 46.8757C9.12221 47.2214 9.35674 47.5208 9.65867 47.7401C9.9606 47.9595 10.3179 48.09 10.6901 48.1169C11.0623 48.1438 11.4346 48.066 11.765 47.8923L23.9997 41.4588L36.2345 47.891C36.5648 48.0647 36.9371 48.1425 37.3093 48.1156C37.6815 48.0887 38.0388 47.9582 38.3407 47.7389C38.6427 47.5196 38.8772 47.2201 39.0178 46.8744C39.1584 46.5287 39.1995 46.1506 39.1365 45.7828L36.7997 32.159L46.698 22.5105C46.9652 22.2501 47.1542 21.9201 47.2437 21.5578C47.3331 21.1955 47.3195 20.8154 47.2042 20.4605Z" fill="url(#paint0_linear)"/>
<path d="M47.3274 10.7082C46.6381 10.7071 45.9775 10.4328 45.4901 9.94548C45.0028 9.45813 44.7285 8.79747 44.7273 8.10825C44.7291 8.01889 44.713 7.93009 44.68 7.84704C44.647 7.76398 44.5977 7.68834 44.5351 7.62454C44.4726 7.56074 44.3979 7.51005 44.3155 7.47545C44.2331 7.44086 44.1446 7.42303 44.0552 7.42303C43.9659 7.42303 43.8774 7.44086 43.795 7.47545C43.7126 7.51005 43.6379 7.56074 43.5753 7.62454C43.5127 7.68834 43.4635 7.76398 43.4305 7.84704C43.3975 7.93009 43.3814 8.01889 43.3831 8.10825C43.382 8.79747 43.1077 9.45813 42.6203 9.94548C42.133 10.4328 41.4723 10.7071 40.7831 10.7082C40.6048 10.7082 40.4338 10.7791 40.3077 10.9051C40.1817 11.0312 40.1108 11.2022 40.1108 11.3805C40.1108 11.5588 40.1817 11.7298 40.3077 11.8559C40.4338 11.9819 40.6048 12.0527 40.7831 12.0527C41.4725 12.0535 42.1336 12.3276 42.6212 12.815C43.1088 13.3024 43.3833 13.9633 43.3843 14.6527C43.3826 14.7421 43.3987 14.8309 43.4317 14.914C43.4647 14.997 43.514 15.0727 43.5766 15.1365C43.6391 15.2003 43.7138 15.2509 43.7962 15.2855C43.8786 15.3201 43.9671 15.338 44.0565 15.338C44.1458 15.338 44.2343 15.3201 44.3167 15.2855C44.3991 15.2509 44.4738 15.2003 44.5364 15.1365C44.599 15.0727 44.6482 14.997 44.6812 14.914C44.7142 14.8309 44.7303 14.7421 44.7286 14.6527C44.7297 13.9633 45.0041 13.3024 45.4917 12.815C45.9794 12.3276 46.6404 12.0535 47.3299 12.0527C47.5081 12.0527 47.6791 11.9819 47.8052 11.8559C47.9313 11.7298 48.0021 11.5588 48.0021 11.3805C48.0021 11.2022 47.9313 11.0312 47.8052 10.9051C47.6791 10.7791 47.5081 10.7082 47.3299 10.7082H47.3274Z" fill="#F2C94C"/>
<path d="M37.3278 3.20825C36.6386 3.20712 35.9779 2.93284 35.4906 2.44548C35.0032 1.95813 34.7289 1.29747 34.7278 0.608248C34.7295 0.518893 34.7134 0.43009 34.6804 0.347035C34.6474 0.26398 34.5982 0.18834 34.5356 0.124538C34.473 0.0607357 34.3984 0.0100531 34.3159 -0.0245458C34.2335 -0.0591447 34.1451 -0.0769653 34.0557 -0.0769653C33.9663 -0.0769653 33.8779 -0.0591447 33.7954 -0.0245458C33.713 0.0100531 33.6384 0.0607357 33.5758 0.124538C33.5132 0.18834 33.464 0.26398 33.431 0.347035C33.398 0.43009 33.3818 0.518893 33.3836 0.608248C33.3824 1.29747 33.1082 1.95813 32.6208 2.44548C32.1335 2.93284 31.4728 3.20712 30.7836 3.20825C30.6953 3.20825 30.6079 3.22564 30.5263 3.25942C30.4448 3.2932 30.3706 3.34272 30.3082 3.40515C30.2458 3.46757 30.1963 3.54168 30.1625 3.62324C30.1287 3.7048 30.1113 3.79222 30.1113 3.8805C30.1113 3.96878 30.1287 4.0562 30.1625 4.13776C30.1963 4.21932 30.2458 4.29343 30.3082 4.35585C30.3706 4.41828 30.4448 4.46779 30.5263 4.50158C30.6079 4.53536 30.6953 4.55275 30.7836 4.55275C31.473 4.55348 32.1341 4.8276 32.6217 5.315C33.1093 5.8024 33.3838 6.46329 33.3848 7.15275C33.3831 7.2421 33.3992 7.33091 33.4322 7.41396C33.4652 7.49702 33.5145 7.57266 33.577 7.63646C33.6396 7.70026 33.7143 7.75094 33.7967 7.78554C33.8791 7.82014 33.9676 7.83796 34.0569 7.83796C34.1463 7.83796 34.2348 7.82014 34.3172 7.78554C34.3996 7.75094 34.4743 7.70026 34.5369 7.63646C34.5994 7.57266 34.6487 7.49702 34.6817 7.41396C34.7147 7.33091 34.7308 7.2421 34.7291 7.15275C34.7301 6.46329 35.0046 5.8024 35.4922 5.315C35.9798 4.8276 36.6409 4.55348 37.3303 4.55275C37.5086 4.55275 37.6796 4.48192 37.8057 4.35585C37.9317 4.22978 38.0026 4.05879 38.0026 3.8805C38.0026 3.70221 37.9317 3.53122 37.8057 3.40515C37.6796 3.27907 37.5086 3.20825 37.3303 3.20825H37.3278Z" fill="#F2C94C"/>
<path d="M15.3273 9.45825C14.6381 9.45712 13.9775 9.18284 13.4901 8.69548C13.0028 8.20813 12.7285 7.54747 12.7273 6.85825C12.7291 6.76889 12.713 6.68009 12.6799 6.59704C12.6469 6.51398 12.5977 6.43834 12.5351 6.37454C12.4725 6.31074 12.3979 6.26005 12.3155 6.22545C12.2331 6.19086 12.1446 6.17303 12.0552 6.17303C11.9658 6.17303 11.8774 6.19086 11.795 6.22545C11.7126 6.26005 11.6379 6.31074 11.5753 6.37454C11.5127 6.43834 11.4635 6.51398 11.4305 6.59704C11.3975 6.68009 11.3814 6.76889 11.3831 6.85825C11.382 7.54747 11.1077 8.20813 10.6203 8.69548C10.133 9.18284 9.47231 9.45712 8.78309 9.45825C8.6048 9.45825 8.43381 9.52907 8.30774 9.65515C8.18167 9.78122 8.11084 9.95221 8.11084 10.1305C8.11084 10.3088 8.18167 10.4798 8.30774 10.6059C8.43381 10.7319 8.6048 10.8027 8.78309 10.8027C9.47254 10.8035 10.1336 11.0776 10.6212 11.565C11.1088 12.0524 11.3833 12.7133 11.3843 13.4027C11.3826 13.4921 11.3987 13.5809 11.4317 13.664C11.4647 13.747 11.514 13.8227 11.5766 13.8865C11.6391 13.9503 11.7138 14.0009 11.7962 14.0355C11.8786 14.0701 11.9671 14.088 12.0565 14.088C12.1458 14.088 12.2343 14.0701 12.3167 14.0355C12.3991 14.0009 12.4738 13.9503 12.5364 13.8865C12.599 13.8227 12.6482 13.747 12.6812 13.664C12.7142 13.5809 12.7303 13.4921 12.7286 13.4027C12.7296 12.7133 13.0041 12.0524 13.4917 11.565C13.9794 11.0776 14.6404 10.8035 15.3298 10.8027C15.5081 10.8027 15.6791 10.7319 15.8052 10.6059C15.9313 10.4798 16.0021 10.3088 16.0021 10.1305C16.0021 9.95221 15.9313 9.78122 15.8052 9.65515C15.6791 9.52907 15.5081 9.45825 15.3298 9.45825H15.3273Z" fill="#F2C94C"/>
<defs>
<linearGradient id="paint0_linear" x1="0.698242" y1="25.8622" x2="47.302" y2="25.8622" gradientUnits="userSpaceOnUse">
<stop stop-color="#F8B02E"/>
<stop offset="1" stop-color="#F08A41"/>
</linearGradient>
</defs>
</svg>
