<svg width="80" height="80" viewBox="0 0 80 80" fill="none" xmlns="http://www.w3.org/2000/svg">
<g clip-path="url(#clip0)">
<path d="M2.34503 79.9972C1.74521 79.9972 1.14555 79.7684 0.687918 79.3107C-0.227353 78.3955 -0.227353 76.9115 0.687918 75.9963L4.94866 71.7355C5.86394 70.8203 7.34778 70.8203 8.26305 71.7355C9.17832 72.6506 9.17832 74.1346 8.26305 75.0499L4.0023 79.3107C3.54451 79.7683 2.94469 79.9972 2.34503 79.9972Z" fill="#00429D"/>
<path d="M0.72998 79.3486C1.18215 79.7799 1.76306 79.9972 2.34522 79.9972C2.94488 79.9972 3.54485 79.7683 4.00233 79.3107L8.26308 75.0499C9.16491 74.1482 9.17616 72.6953 8.30089 71.7774L0.72998 79.3486Z" fill="#00347B"/>
<path d="M0.530386 63.3274C0.873027 62.4951 1.38175 61.7158 2.05688 61.0407L3.72446 59.3731L6.8926 59.2701L7.05212 56.0454L10.3498 52.7478L12.8364 52.4087L13.6342 49.4634L17.0117 46.0859C17.0117 46.0859 21.0281 43.5533 21.9432 44.4687L35.5322 58.0578C36.4475 58.9729 33.8753 63.0292 33.8753 63.0292L30.5509 66.3535L27.6164 66.6901L27.24 69.6646L23.9489 72.9558L21.3168 72.9897L20.6079 76.2967L18.9602 77.9444C18.341 78.5636 17.6343 79.0428 16.8793 79.3823C15.9631 79.794 -0.518161 65.8747 0.530386 63.3274Z" fill="#7DD5F4"/>
<path d="M28.7768 51.3018L7.78369 72.2949C11.9408 76.1084 16.4147 79.5911 16.8798 79.382C17.6348 79.0425 18.3417 78.5633 18.9607 77.9441L20.6084 76.2964L21.3173 72.9894L23.9494 72.9555L27.2405 69.6644L27.6169 66.6898L30.5514 66.3533L33.8758 63.0289C33.8758 63.0289 36.448 58.9727 35.5328 58.0575L28.7768 51.3018Z" fill="#4793FF"/>
<path d="M10.3354 52.7515L13.6494 49.4375L30.5502 66.3384L27.2363 69.6523L10.3354 52.7515Z" fill="#4793FF"/>
<path d="M21.9437 44.4687C21.0286 43.5533 19.5447 43.5536 18.6293 44.4687L16.9727 46.1255L33.8761 63.0289L35.5328 61.3721C36.448 60.457 36.448 58.973 35.5328 58.0578L21.9437 44.4687Z" fill="#4793FF"/>
<path d="M0.698837 62.9552C-0.475485 65.3924 -0.163624 68.3704 1.63473 70.5199L9.48235 78.3675C10.7824 79.4551 12.3853 80.0004 13.9893 80.0004C15.0368 80.0004 16.0836 79.7668 17.0464 79.3029L0.698837 62.9552Z" fill="#4793FF"/>
<path d="M3.70752 59.3789L7.02143 56.065L23.9224 72.9659L20.6085 76.2799L3.70752 59.3789Z" fill="#4793FF"/>
<path d="M77.6538 54.0229C77.0648 54.0229 76.4754 53.8024 76.02 53.3593C70.8574 48.338 64.0483 45.5728 56.8468 45.5728C50.9508 45.5728 45.1031 47.5171 40.3808 51.0476C39.3443 51.8227 37.8756 51.6107 37.1005 50.5738C36.3255 49.5372 36.5375 48.0686 37.5742 47.2935C43.1013 43.1613 49.9457 40.8855 56.8468 40.8855C65.2758 40.8855 73.2456 44.1222 79.288 49.9992C80.2159 50.9016 80.2364 52.3853 79.3341 53.3132C78.8745 53.7856 78.2644 54.0229 77.6538 54.0229Z" fill="#CA75F5"/>
<path d="M28.6289 40.5712C28.1462 40.5712 27.6596 40.4227 27.2411 40.1146C26.1988 39.3472 25.976 37.88 26.7435 36.8377C28.6445 34.2561 29.6492 31.1967 29.6492 27.9906C29.6492 21.5937 25.579 15.9151 19.5212 13.8603C18.2954 13.4446 17.6388 12.1139 18.0545 10.8881C18.4704 9.66224 19.801 9.00555 21.0267 9.42147C28.9876 12.1218 34.3364 19.5841 34.3364 27.9908C34.3364 32.204 33.016 36.2243 30.5179 39.617C30.0585 40.2409 29.3484 40.5712 28.6289 40.5712Z" fill="#FDBF00"/>
<path d="M45.2606 28.7759C44.6607 28.7759 44.0609 28.547 43.6034 28.0894C42.6882 27.1743 42.6882 25.6903 43.6034 24.775C45.8371 22.5413 48.9132 21.9858 51.6275 21.4956C53.8627 21.0919 55.974 20.7106 57.1702 19.5145C58.3661 18.3184 58.7476 16.2071 59.1513 13.9717C59.6415 11.2576 60.1971 8.18121 62.4307 5.94772C65.1809 3.19769 68.8165 2.30866 72.3328 1.44901C73.9318 1.05794 75.4422 0.68858 76.8074 0.159229C78.0146 -0.309032 79.3718 0.29016 79.8398 1.49714C80.3077 2.70396 79.7087 4.06155 78.5019 4.5295C76.852 5.16932 75.1205 5.59273 73.446 6.00209C70.4232 6.74128 67.5678 7.43937 65.7451 9.2621C64.5491 10.4583 64.1675 12.5696 63.7638 14.805C63.2737 17.5191 62.7181 20.5953 60.4846 22.8288C58.2509 25.0625 55.1748 25.6181 52.4605 26.1082C50.2253 26.512 48.114 26.8932 46.9178 28.0894C46.46 28.547 45.8602 28.7759 45.2606 28.7759Z" fill="#FF8856"/>
<path fill-rule="evenodd" clip-rule="evenodd" d="M52.1864 8.90653C53.4773 8.90653 54.5301 7.85376 54.5301 6.56288C54.5301 5.27216 53.4773 4.21924 52.1864 4.21924C50.8955 4.21924 49.8428 5.27216 49.8428 6.56288C49.8428 7.85361 50.8955 8.90653 52.1864 8.90653Z" fill="#BEE75E"/>
<path fill-rule="evenodd" clip-rule="evenodd" d="M7.57558 33.5832C8.86646 33.5832 9.91923 32.5304 9.91923 31.2395C9.91923 29.9486 8.86646 28.8959 7.57558 28.8959C6.2847 28.8959 5.23193 29.9486 5.23193 31.2395C5.23193 32.5304 6.2847 33.5832 7.57558 33.5832Z" fill="#D98FF8"/>
<path fill-rule="evenodd" clip-rule="evenodd" d="M5.15761 8.28159C6.44849 8.28159 7.50125 7.22882 7.50125 5.93794C7.50125 4.64706 6.44833 3.5943 5.15761 3.5943C3.86673 3.5943 2.81396 4.64706 2.81396 5.93794C2.81396 7.22867 3.86673 8.28159 5.15761 8.28159Z" fill="#7DD5F4"/>
<path fill-rule="evenodd" clip-rule="evenodd" d="M57.0307 57.9666C58.3215 57.9666 59.3743 56.9139 59.3743 55.623C59.3743 54.3321 58.3215 53.2794 57.0307 53.2794C55.7398 53.2794 54.687 54.3321 54.687 55.623C54.687 56.9139 55.7398 57.9666 57.0307 57.9666Z" fill="#FF8856"/>
<path fill-rule="evenodd" clip-rule="evenodd" d="M70.6239 79.372C71.9148 79.372 72.9676 78.3193 72.9676 77.0284C72.9676 75.7375 71.9148 74.6848 70.6239 74.6848C69.333 74.6848 68.2803 75.7375 68.2803 77.0284C68.2803 78.3193 69.333 79.372 70.6239 79.372Z" fill="#4793FF"/>
<path fill-rule="evenodd" clip-rule="evenodd" d="M38.9057 76.8722C40.1965 76.8722 41.2493 75.8195 41.2493 74.5286C41.2493 73.2377 40.1964 72.1849 38.9057 72.1849C37.6148 72.1849 36.562 73.2377 36.562 74.5286C36.562 75.8193 37.6148 76.8722 38.9057 76.8722Z" fill="#FF435B"/>
<path d="M40.5626 15.2291C40.4978 15.2291 40.4328 15.2263 40.367 15.221C39.0771 15.1143 38.1178 13.9821 38.2245 12.6922C38.4866 9.52001 37.7053 6.28468 36.0243 3.58215C35.3407 2.48298 35.6774 1.03789 36.7764 0.354167C37.8753 -0.329552 39.3205 0.00730787 40.0042 1.10632C42.2133 4.65788 43.2402 8.90956 42.8957 13.0781C42.7946 14.3026 41.7695 15.2291 40.5626 15.2291Z" fill="#D98FF8"/>
<path d="M59.3504 34.1404C58.3692 34.1404 57.4547 33.5194 57.1272 32.5374C56.718 31.3095 57.3816 29.9822 58.6093 29.5727C63.5152 27.9374 68.8068 27.5082 73.9132 28.3315C75.1909 28.5375 76.0598 29.7406 75.8537 31.0184C75.6476 32.2961 74.4449 33.1659 73.1668 32.9589C68.8043 32.255 64.2831 32.6221 60.0918 34.0195C59.846 34.1015 59.5962 34.1404 59.3504 34.1404Z" fill="#FF435B"/>
<path fill-rule="evenodd" clip-rule="evenodd" d="M41.7553 40.6903C43.0461 40.6903 44.0989 39.6376 44.0989 38.3467C44.0989 37.056 43.0461 36.0031 41.7553 36.0031C40.4644 36.0031 39.4116 37.0558 39.4116 38.3467C39.4116 39.6376 40.4644 40.6903 41.7553 40.6903Z" fill="#7DD5F4"/>
<path fill-rule="evenodd" clip-rule="evenodd" d="M74.6859 17.1875C75.9768 17.1875 77.0296 16.1346 77.0296 14.8438C77.0296 13.5531 75.9768 12.5002 74.6859 12.5002C73.395 12.5002 72.3423 13.5531 72.3423 14.8438C72.3423 16.1346 73.395 17.1875 74.6859 17.1875Z" fill="#00CB75"/>
<path d="M54.3286 25.75C56.5127 25.2841 58.7519 24.5613 60.4843 22.8288C62.2166 21.0964 62.9393 18.8573 63.4053 16.6733L54.3286 25.75Z" fill="#FF435B"/>
<path d="M79.3509 0.7276L74.2827 5.79581C75.6923 5.44583 77.1252 5.06319 78.5018 4.5293C79.7086 4.06136 80.3076 2.70361 79.8397 1.49694C79.725 1.2018 79.5567 0.943528 79.3509 0.7276Z" fill="#FF435B"/>
<path fill-rule="evenodd" clip-rule="evenodd" d="M43.3985 36.6797L40.0879 39.9904C40.5133 40.4218 41.1035 40.6903 41.7548 40.6903C43.0457 40.6903 44.0985 39.6374 44.0985 38.3465C44.0985 37.6953 43.8299 37.1052 43.3985 36.6797Z" fill="#4793FF"/>
<path d="M28.7768 51.3018L25.4629 54.6157L33.8759 63.0287L35.5326 61.3719C36.4479 60.4568 36.4479 58.9728 35.5326 58.0576L28.7768 51.3018Z" fill="#525CDD"/>
<path d="M18.8242 61.2413L22.1381 57.9274L30.5499 66.3392L27.236 69.6531L18.8242 61.2413Z" fill="#525CDD"/>
<path d="M12.1958 67.8688L15.5097 64.5549L23.9215 72.9667L20.6076 76.2806L12.1958 67.8688Z" fill="#525CDD"/>
<path d="M5.59619 74.4818L9.48164 78.3673C10.7817 79.4549 12.3846 80.0002 13.9886 80.0002C15.0361 80.0002 16.0829 79.7666 17.0457 79.3027L8.91057 71.1676L5.59619 74.4818Z" fill="#525CDD"/>
</g>
<defs>
<clipPath id="clip0">
<rect width="80" height="80" fill="white"/>
</clipPath>
</defs>
</svg>
