<svg width="64" height="64" viewBox="0 0 64 64" fill="none" xmlns="http://www.w3.org/2000/svg">
<path d="M52.7434 55.25C58.4165 49.6914 61.938 41.9451 61.938 33.3752C61.938 16.4614 48.2266 2.75 31.3128 2.75C14.3989 2.75 0.6875 16.4614 0.6875 33.3752C0.6875 37.224 1.3995 40.906 2.69562 44.2993L52.7434 55.25Z" fill="#6FCF97"/>
<path d="M47.6747 0H7.81742C4.96017 0 2.64404 2.31625 2.64404 5.1735V44.1625C3.56417 46.6066 4.78892 48.9014 6.27017 51.0021L49.1812 58.2456C50.4834 57.3083 51.7103 56.2729 52.8482 55.1473V5.1735C52.8482 2.31625 50.5319 0 47.6747 0V0Z" fill="#167CC1"/>
<path d="M20.6602 27.9855C15.0742 21.1817 8.93382 21.9854 6.16895 22.8565V50.8602C11.7022 58.8019 20.8997 64.0002 31.3127 64.0002C38.0447 64.0002 44.2679 61.8263 49.3227 58.1447C49.3227 53.1104 49.3227 45.7395 49.3227 38.1833C48.5962 37.5983 47.8478 36.9228 47.0748 36.1498C39.5088 28.5838 33.2689 43.3435 20.6602 27.9855Z" fill="#E9EFFF"/>
<path d="M20.6601 28.247C33.2687 43.6049 39.5086 28.8451 47.0747 36.4112C47.8477 37.1842 48.5961 37.8597 49.3226 38.4447V7.97949H6.16895V23.118C8.93382 22.2467 15.0742 21.443 20.6601 28.247Z" fill="#9BD8F9"/>
<path d="M41.5241 27.7545H13.4591C12.7976 27.7545 12.2563 27.2132 12.2563 26.5517V16.4283C12.2563 15.7668 12.7976 15.2256 13.4591 15.2256H41.5241C42.1856 15.2256 42.7269 15.7668 42.7269 16.4283V26.5517C42.7269 27.2132 42.1856 27.7545 41.5241 27.7545Z" fill="#4FABF7"/>
<path d="M47.6746 3.52588H7.81732C6.91069 3.52588 6.16895 4.26763 6.16895 5.17426V8.24101H49.3226V5.17413C49.3227 4.26763 48.5809 3.52588 47.6746 3.52588Z" fill="#2A428C"/>
<path d="M17.1446 7.99526C16.9831 7.68726 17.1104 7.42963 17.2192 7.28726C17.2891 7.19576 17.3308 7.08588 17.3308 6.97063V4.76225C17.3308 4.66313 17.2941 4.56925 17.2359 4.489C17.0491 4.23125 17.0902 3.97275 17.1683 3.7885C17.2042 3.704 17.2153 3.6135 17.2042 3.52588H7.81732C6.91082 3.52588 6.16895 4.26763 6.16895 5.17426V8.24101H17.1966C17.2006 8.15688 17.1849 8.07226 17.1446 7.99526Z" fill="#1C2E7A"/>
<path d="M11.515 5.883C11.515 6.59212 10.9401 7.16687 10.2311 7.16687C9.52201 7.16687 8.94727 6.592 8.94727 5.883C8.94727 5.174 9.52214 4.59912 10.2311 4.59912C10.9401 4.59912 11.515 5.17387 11.515 5.883Z" fill="#FF4155"/>
<path d="M15.0648 5.883C15.0648 6.59212 14.4899 7.16687 13.7809 7.16687C13.0719 7.16687 12.4971 6.592 12.4971 5.883C12.4971 5.174 13.0719 4.59912 13.7809 4.59912C14.4899 4.59912 15.0648 5.17387 15.0648 5.883Z" fill="#FFDD40"/>
<path d="M18.6146 5.883C18.6146 6.59212 18.0399 7.16687 17.3307 7.16687C16.6216 7.16687 16.0469 6.592 16.0469 5.883C16.0469 5.174 16.6217 4.59912 17.3307 4.59912C18.0397 4.59912 18.6146 5.17387 18.6146 5.883Z" fill="#38C674"/>
<path d="M35.7133 6.86231H22.8308C22.2899 6.86231 21.8516 6.42393 21.8516 5.88306C21.8516 5.34218 22.2899 4.90381 22.8308 4.90381H35.7132C36.2541 4.90381 36.6925 5.34218 36.6925 5.88306C36.6926 6.42393 36.2541 6.86231 35.7133 6.86231Z" fill="#3C58A0"/>
<path d="M31.5608 25.2939C31.0199 25.2939 30.5815 24.8555 30.5815 24.3147V18.6648C30.5815 18.1239 31.0199 17.6855 31.5608 17.6855C32.1017 17.6855 32.54 18.1239 32.54 18.6648V24.3147C32.5402 24.8555 32.1017 25.2939 31.5608 25.2939Z" fill="#E9EFFF"/>
<path d="M38.0433 25.2939H34.2742C33.9149 25.2939 33.5844 25.0972 33.4133 24.7812C33.242 24.4653 33.2575 24.081 33.4538 23.78L36.1488 19.644H34.3902C33.8493 19.644 33.4109 19.2057 33.4109 18.6648C33.4109 18.1239 33.8493 17.6855 34.3902 17.6855H37.9557C38.7322 17.6855 39.1998 18.5492 38.776 19.1994L36.081 23.3354H38.0433C38.584 23.3354 39.0225 23.7738 39.0225 24.3147C39.0225 24.8555 38.584 25.2939 38.0433 25.2939Z" fill="#E9EFFF"/>
<path d="M26.8287 25.294C26.8271 25.294 26.8256 25.294 26.8241 25.294C25.3771 25.2924 23.9185 24.1832 23.9185 22.5527V18.6649C23.9185 18.124 24.357 17.6857 24.8977 17.6857C25.4386 17.6857 25.877 18.124 25.877 18.6649V22.5527C25.877 22.7505 25.9097 22.9352 26.3112 23.1917C26.4623 23.2882 26.6308 23.3353 26.8266 23.3355H26.8286C27.2911 23.3355 27.8443 23.0289 27.8443 22.5485V18.6648C27.8443 18.1239 28.2827 17.6855 28.8236 17.6855C29.3643 17.6855 29.8028 18.1239 29.8028 18.6648V22.5485C29.8028 24.1907 28.3192 25.294 26.8287 25.294Z" fill="#E9EFFF"/>
<path d="M21.9191 24.9845L20.1116 23.1771C19.7291 22.7947 19.7291 22.1746 20.1116 21.7922C20.494 21.4097 21.1141 21.4098 21.4965 21.7921L23.304 23.5995C23.6865 23.9818 23.6865 24.602 23.304 24.9843C22.9217 25.3668 22.3017 25.3668 21.9191 24.9845Z" fill="#E9EFFF"/>
<path d="M19.7651 25.2949C17.6674 25.2949 15.9609 23.5884 15.9609 21.4908C15.9609 19.393 17.6674 17.6865 19.7651 17.6865C21.8627 17.6865 23.5693 19.393 23.5693 21.4908C23.5692 23.5884 21.8627 25.2949 19.7651 25.2949ZM19.7651 19.645C18.7473 19.645 17.9194 20.473 17.9194 21.4908C17.9194 22.5085 18.7473 23.3364 19.7651 23.3364C20.7828 23.3364 21.6108 22.5085 21.6108 21.4908C21.6107 20.473 20.7828 19.645 19.7651 19.645Z" fill="#E9EFFF"/>
<path d="M59.7348 20.8118C64.4944 16.0522 64.4944 8.33545 59.7348 3.57587C54.9752 -1.18371 47.2584 -1.18371 42.4988 3.57587C37.7393 8.33545 37.7393 16.0522 42.4988 20.8118C47.2584 25.5714 54.9752 25.5714 59.7348 20.8118Z" fill="#FFDD40"/>
<path d="M57.5625 18.6397C61.1224 15.0797 61.1224 9.30796 57.5625 5.74804C54.0026 2.18812 48.2308 2.18812 44.6709 5.74804C41.111 9.30796 41.111 15.0797 44.6709 18.6397C48.2308 22.1996 54.0026 22.1996 57.5625 18.6397Z" fill="#E9EFFF"/>
<path d="M52.9995 12.1899H60.2407C60.2407 7.15463 56.1588 3.07275 51.1235 3.07275V10.3139C52.1287 10.3833 52.9302 11.1848 52.9995 12.1899Z" fill="#FF4155"/>
<path d="M42.0608 34.0293L39.4002 31.3686C39.2235 31.1919 38.9839 31.0928 38.734 31.0928H19.5039V38.2983H38.7339C38.9838 38.2983 39.2234 38.199 39.4 38.0224L42.0607 35.3618C42.4287 34.9937 42.4287 34.3973 42.0608 34.0293Z" fill="#D3DCFB"/>
<path d="M42.0608 44.5488L39.4002 41.8882C39.2235 41.7116 38.9839 41.6123 38.734 41.6123H19.5039V48.8178H38.7339C38.9838 48.8178 39.2234 48.7186 39.4 48.5419L42.0607 45.8813C42.4287 45.5132 42.4287 44.9167 42.0608 44.5488Z" fill="#D3DCFB"/>
<path d="M42.0608 55.0688L39.4002 52.4082C39.2235 52.2316 38.9839 52.1323 38.734 52.1323H19.5039V59.3378H38.7339C38.9838 59.3378 39.2234 59.2386 39.4 59.062L42.0607 56.4013C42.4287 56.0332 42.4287 55.4367 42.0608 55.0688Z" fill="#D3DCFB"/>
<path d="M12.4971 53.0743V57.5392C13.3204 58.1812 14.1778 58.7812 15.0654 59.3378H19.7649V52.1323H13.4392C12.9189 52.1322 12.4971 52.554 12.4971 53.0743Z" fill="#38C674"/>
<path d="M19.7649 41.6123H13.4392C12.9189 41.6123 12.4971 42.0341 12.4971 42.5543V47.8757C12.4971 48.3959 12.9188 48.8177 13.4392 48.8177H19.7649V41.6123Z" fill="#FFDD40"/>
<path d="M19.7649 31.0928H13.4392C12.9189 31.0928 12.4971 31.5145 12.4971 32.0348V37.3561C12.4971 37.8764 12.9188 38.2981 13.4392 38.2981H19.7649V31.0928Z" fill="#FF2D55"/>
<path d="M51.1232 22.4515C45.4648 22.4515 40.8613 17.8481 40.8613 12.1896C40.8613 6.53111 45.4648 1.92773 51.1232 1.92773C56.7816 1.92773 61.385 6.53111 61.385 12.1896C61.385 17.8481 56.7816 22.4515 51.1232 22.4515ZM51.1232 4.21723C46.7273 4.21723 43.1508 7.79361 43.1508 12.1895C43.1508 16.5854 46.7272 20.1617 51.1232 20.1617C55.5192 20.1617 59.0955 16.5854 59.0955 12.1895C59.0955 7.79361 55.5191 4.21723 51.1232 4.21723Z" fill="#FFB332"/>
<path d="M58.225 19.5867C58.153 19.4977 58.0502 19.4337 57.9312 19.4136C57.0002 19.2567 56.7932 18.6145 56.7633 18.1785C56.7566 18.0799 56.7173 17.9914 56.6582 17.9194C55.2231 19.3061 53.2718 20.162 51.1232 20.162C46.7273 20.162 43.151 16.5856 43.151 12.1897C43.151 8.98898 45.048 6.22448 47.7758 4.95686C47.7302 4.87186 47.6603 4.79986 47.568 4.75611C46.8033 4.39373 46.8402 3.64423 46.9565 3.17098C46.9853 3.05336 46.9677 2.93511 46.9155 2.83398C43.3502 4.44386 40.8613 8.03048 40.8613 12.1899C40.8613 17.8484 45.4648 22.4517 51.1232 22.4517C53.8776 22.4516 56.3798 21.3589 58.225 19.5867Z" fill="#FF9100"/>
<path d="M51.1236 15.4991C49.2986 15.4991 47.814 14.0145 47.814 12.1895C47.814 10.3645 49.2987 8.87988 51.1236 8.87988C52.9486 8.87988 54.4332 10.3645 54.4332 12.1895C54.4332 14.0145 52.9485 15.4991 51.1236 15.4991ZM51.1236 11.1695C50.5611 11.1695 50.1035 11.6271 50.1035 12.1895C50.1035 12.7519 50.5611 13.2095 51.1236 13.2095C51.6861 13.2095 52.1436 12.7519 52.1436 12.1895C52.1436 11.6271 51.686 11.1695 51.1236 11.1695Z" fill="#3C58A0"/>
<path d="M51.1233 11.1694C50.491 11.1694 49.9785 10.6569 49.9785 10.0247V6.63157C49.9785 5.99932 50.491 5.48682 51.1233 5.48682C51.7555 5.48682 52.268 5.99932 52.268 6.63157V10.0247C52.268 10.6569 51.7555 11.1694 51.1233 11.1694Z" fill="#3C58A0"/>
</svg>
