<svg width="32" height="22" viewBox="0 0 32 22" fill="none" xmlns="http://www.w3.org/2000/svg">
<path d="M30.64 2.12C29.772 0.576 28.83 0.292 26.912 0.184C24.996 0.054 20.178 0 16.004 0C11.822 0 7.002 0.0540002 5.088 0.182C3.174 0.292 2.23 0.574 1.354 2.12C0.46 3.662 0 6.318 0 10.994C0 10.998 0 11 0 11C0 11.004 0 11.006 0 11.006V11.01C0 15.666 0.46 18.342 1.354 19.868C2.23 21.412 3.172 21.692 5.086 21.822C7.002 21.934 11.822 22 16.004 22C20.178 22 24.996 21.934 26.914 21.824C28.832 21.694 29.774 21.414 30.642 19.87C31.544 18.344 32 15.668 32 11.012C32 11.012 32 11.006 32 11.002C32 11.002 32 10.998 32 10.996C32 6.318 31.544 3.662 30.64 2.12Z" fill="#F44336"/>
<path d="M12 17V5L22 11L12 17Z" fill="#FAFAFA"/>
</svg>
