<svg width="64" height="64" viewBox="0 0 64 64" fill="none" xmlns="http://www.w3.org/2000/svg">
<path d="M53.8535 28.8116C54.5663 28.1326 54.8471 27.1162 54.5839 26.1676C54.3207 25.219 53.5563 24.4926 52.5955 24.2781C51.6347 24.0635 50.6339 24.3958 49.9922 25.1423L49.5122 25.6436C48.1789 24.7156 44.4882 21.9529 36.9149 21.0676C36.4696 21.0246 36.043 21.2569 35.8375 21.6543L31.9975 29.3343L28.1575 21.6543C27.9521 21.2569 27.5255 21.0246 27.0802 21.0676C19.2615 21.9636 15.5922 24.8436 14.3549 25.7289L13.9175 25.2703C13.4143 24.7414 12.7169 24.4409 11.9869 24.4383C10.9221 24.4401 9.96039 25.0752 9.54067 26.0538C9.12094 27.0324 9.3236 28.1668 10.0562 28.9396L14.4829 33.6009L18.1522 37.4729L17.2135 38.3049C16.3589 39.0657 15.845 40.1375 15.7868 41.2802C15.7287 42.423 16.1312 43.5413 16.9042 44.3849L20.0829 47.8303C20.4872 48.2284 20.7148 48.7722 20.7148 49.3396C20.7148 49.907 20.4872 50.4508 20.0829 50.8489L18.4509 52.4809L17.6829 51.8089C17.2774 51.4517 16.6696 51.4517 16.2642 51.8089L7.45353 59.7449C6.79386 60.3356 6.56763 61.2723 6.88501 62.0989C7.20239 62.9256 7.99741 63.4702 8.88286 63.4676H23.2935C23.8208 63.4691 24.33 63.2753 24.7229 62.9236L26.6215 61.2169C26.849 61.0147 26.9783 60.7242 26.9762 60.4198C26.9742 60.1155 26.841 59.8268 26.6109 59.6276L25.8429 58.9556L27.9335 56.9183C28.536 56.3316 29.3433 56.0026 30.1842 56.0009H32.1895C35.3121 56.0073 38.2403 54.4854 40.0295 51.9263C41.2645 50.1404 42.5925 48.4206 44.0082 46.7743C44.1267 46.64 44.2304 46.4934 44.3175 46.3369L44.3389 46.3049L51.2402 38.9343C52.3844 37.7203 52.3465 35.8138 51.1549 34.6463C50.6171 34.1125 49.8963 33.8035 49.1389 33.7823L49.3095 33.6009L53.8535 28.8116Z" fill="#FDD7AD"/>
<path d="M49.5128 25.6436L41.9608 33.6009L40.2221 35.4249L33.8541 42.1343H29.9395L21.8328 33.6009L14.3555 25.7289C15.5928 24.8436 19.2621 21.9636 27.0808 21.0676C27.5261 21.0246 27.9527 21.2569 28.1581 21.6543L31.9981 29.3343L35.8381 21.6543C36.0436 21.2569 36.4702 21.0246 36.9155 21.0676C44.4888 21.9529 48.1795 24.7156 49.5128 25.6436Z" fill="#F5EFCA"/>
<path d="M31.9992 45.3347C31.5849 45.3346 31.2081 45.0946 31.0328 44.7192L23.5662 28.7192C23.398 28.3729 23.4294 27.9629 23.6485 27.6463C23.8675 27.3297 24.2402 27.1557 24.6235 27.191C25.0069 27.2264 25.3415 27.4655 25.499 27.8168L31.9992 41.7453L38.4995 27.8168C38.7541 27.2926 39.3822 27.0698 39.9102 27.3163C40.4382 27.5628 40.6707 28.1875 40.4323 28.7192L32.9656 44.7192C32.7904 45.0946 32.4136 45.3346 31.9992 45.3347Z" fill="#CBB292"/>
<path d="M26.6215 61.2179L24.7229 62.9246C24.33 63.2763 23.8208 63.4701 23.2935 63.4686H8.88286C7.99741 63.4712 7.20239 62.9265 6.88501 62.0999C6.56763 61.2733 6.79386 60.3365 7.45353 59.7459L16.2642 51.8099C16.6696 51.4527 17.2774 51.4527 17.6829 51.8099L18.4509 52.4819L25.8429 58.9566L26.6109 59.6286C26.841 59.8277 26.9742 60.1164 26.9762 60.4208C26.9783 60.7252 26.849 61.0156 26.6215 61.2179Z" fill="#955BA5"/>
<path d="M21.3338 61.334C21.0509 61.334 20.7796 61.2216 20.5796 61.0215L18.6959 59.1378C18.2917 58.7192 18.2975 58.0539 18.7089 57.6425C19.1204 57.231 19.7856 57.2253 20.2042 57.6295L22.0879 59.5132C22.3929 59.8183 22.4841 60.277 22.319 60.6755C22.154 61.0741 21.7651 61.3339 21.3338 61.334Z" fill="#3D324C"/>
<path d="M53.8556 28.8115L49.3116 33.6009L49.141 33.7822L44.7996 38.3476V37.3342C44.8016 36.2542 44.1518 35.2796 43.1541 34.866C42.1564 34.4525 41.0077 34.6815 40.245 35.4462L40.2236 35.4249L41.9623 33.6009L49.5143 25.6435L49.9943 25.1422C50.636 24.3957 51.6369 24.0635 52.5976 24.278C53.5584 24.4926 54.3228 25.219 54.586 26.1676C54.8492 27.1162 54.5685 28.1326 53.8556 28.8115Z" fill="#E64C3C"/>
<path d="M40.2447 35.4471C39.7449 35.9482 39.4648 36.6274 39.466 37.3351V43.9698L37.5567 45.9751C36.7729 46.7772 35.7373 47.2856 34.6234 47.4151C34.4439 47.4487 34.2619 47.4665 34.0794 47.4684H29.7167C29.5341 47.4665 29.3521 47.4487 29.1727 47.4151C28.0685 47.2886 27.0409 46.7879 26.2607 45.9964L18.154 37.4738L14.4847 33.6018L10.058 28.9404C9.3452 28.2615 9.06441 27.2451 9.32764 26.2965C9.59086 25.3479 10.3553 24.6215 11.316 24.407C12.2768 24.1924 13.2776 24.5246 13.9194 25.2711L14.3567 25.7298L21.834 33.6018L29.9407 42.1351H33.8554L40.2234 35.4258L40.2447 35.4471Z" fill="#E64C3C"/>
<path d="M51.2402 38.9342L44.3389 46.3049C44.6383 45.8171 44.797 45.2559 44.7975 44.6836V38.3476L49.1389 33.7822C49.8962 33.8035 50.6171 34.1124 51.1548 34.6462C52.3465 35.8137 52.3844 37.7202 51.2402 38.9342Z" fill="#F9C795"/>
<path d="M29.8661 5.86751H25.5995V1.60085C25.5995 1.01174 25.1219 0.53418 24.5328 0.53418C23.9437 0.53418 23.4661 1.01174 23.4661 1.60085V5.86751H19.1995C18.6104 5.86751 18.1328 6.34508 18.1328 6.93418C18.1328 7.52328 18.6104 8.00085 19.1995 8.00085H23.4661V12.2675C23.4661 12.8566 23.9437 13.3342 24.5328 13.3342C25.1219 13.3342 25.5995 12.8566 25.5995 12.2675V8.00085H29.8661C30.4552 8.00085 30.9328 7.52328 30.9328 6.93418C30.9328 6.34508 30.4552 5.86751 29.8661 5.86751Z" fill="#FF5364"/>
<path d="M46.9325 5.86816H36.2659C35.6768 5.86816 35.1992 6.34573 35.1992 6.93483C35.1992 7.52394 35.6768 8.0015 36.2659 8.0015H46.9325C47.5216 8.0015 47.9992 7.52394 47.9992 6.93483C47.9992 6.34573 47.5216 5.86816 46.9325 5.86816Z" fill="#3B97D3"/>
<path d="M59.1028 13.2955L63.6895 8.6758C63.958 8.40523 64.0617 8.01199 63.9616 7.6442C63.8616 7.27641 63.5729 6.98995 63.2043 6.89273C62.8357 6.79551 62.4433 6.9023 62.1748 7.17287L57.5988 11.7819L53.0228 7.17287C52.6078 6.75461 51.9323 6.75198 51.514 7.167C51.0958 7.58203 51.0932 8.25754 51.5082 8.6758L56.0948 13.2955L51.5082 17.9206C51.0929 18.3389 51.0952 19.0146 51.5135 19.4299C51.9318 19.8452 52.6075 19.8429 53.0228 19.4246L57.5988 14.8102L62.1748 19.4139C62.4435 19.6845 62.8361 19.7912 63.2048 19.6938C63.5734 19.5964 63.8621 19.3098 63.9621 18.9418C64.0621 18.5738 63.9582 18.1805 63.6895 17.9099L59.1028 13.2955Z" fill="#F29C1F"/>
<path d="M41.5999 2.66751C42.189 2.66751 42.6665 2.18995 42.6665 1.60085C42.6665 1.01174 42.189 0.53418 41.5999 0.53418C41.0108 0.53418 40.5332 1.01174 40.5332 1.60085C40.5332 2.18995 41.0108 2.66751 41.5999 2.66751Z" fill="#3B97D3"/>
<path d="M41.5999 13.3335C42.189 13.3335 42.6665 12.856 42.6665 12.2669C42.6665 11.6778 42.189 11.2002 41.5999 11.2002C41.0108 11.2002 40.5332 11.6778 40.5332 12.2669C40.5332 12.856 41.0108 13.3335 41.5999 13.3335Z" fill="#3B97D3"/>
<path d="M12.7988 8.00026C12.7988 7.41116 12.3213 6.93359 11.7322 6.93359H1.06549C0.634138 6.93369 0.245297 7.19357 0.080237 7.5921C-0.0848232 7.99062 0.00639172 8.44933 0.31136 8.75439L4.89056 13.3336L0.31136 17.9128C0.00639172 18.2179 -0.0848232 18.6766 0.080237 19.0751C0.245297 19.4736 0.634138 19.7335 1.06549 19.7336H11.7322C12.3213 19.7336 12.7988 19.256 12.7988 18.6669C12.7988 18.0778 12.3213 17.6003 11.7322 17.6003H3.64043L7.15296 14.0877C7.56937 13.6712 7.56937 12.996 7.15296 12.5795L3.64043 9.06693H11.7322C12.3213 9.06693 12.7988 8.58936 12.7988 8.00026Z" fill="#65DDB9"/>
</svg>
