<svg width="72" height="72" viewBox="0 0 72 72" fill="none" xmlns="http://www.w3.org/2000/svg">
<g filter="url(#filter0_d)">
<circle cx="36" cy="32" r="16" fill="black" fill-opacity="0.1"/>
</g>
<g opacity="0.3">
<path fill-rule="evenodd" clip-rule="evenodd" d="M38.9582 25.3333C39.3947 25.3333 39.8132 25.5076 40.1187 25.8156L42.186 27.8829C42.4938 28.1906 42.6667 28.6081 42.6667 29.0434C42.6667 29.4786 42.4938 29.8961 42.186 30.2039L34.6383 37.7492C34.1727 38.2863 33.5126 38.6163 32.7564 38.6682H29.3333V38.0015L29.3355 35.1915C29.3923 34.4885 29.7191 33.8349 30.2177 33.3956L37.7969 25.8164C38.1043 25.5072 38.5222 25.3333 38.9582 25.3333ZM32.7093 37.3365C33.0655 37.3113 33.397 37.1456 33.6632 36.8411L38.7045 31.7998L36.2016 29.2968L31.1307 34.3664C30.8606 34.6053 30.6935 34.9395 30.6667 35.2452V37.3353L32.7093 37.3365ZM37.1445 28.3541L39.6473 30.857L41.2432 29.2611C41.3009 29.2033 41.3334 29.125 41.3334 29.0434C41.3334 28.9617 41.3009 28.8834 41.2432 28.8257L39.1741 26.7566C39.117 26.699 39.0393 26.6666 38.9582 26.6666C38.8772 26.6666 38.7995 26.699 38.7424 26.7566L37.1445 28.3541Z" fill="#333333"/>
</g>
<defs>
<filter id="filter0_d" x="0" y="0" width="72" height="72" filterUnits="userSpaceOnUse" color-interpolation-filters="sRGB">
<feFlood flood-opacity="0" result="BackgroundImageFix"/>
<feColorMatrix in="SourceAlpha" type="matrix" values="0 0 0 0 0 0 0 0 0 0 0 0 0 0 0 0 0 0 127 0"/>
<feOffset dy="4"/>
<feGaussianBlur stdDeviation="10"/>
<feColorMatrix type="matrix" values="0 0 0 0 0 0 0 0 0 0 0 0 0 0 0 0 0 0 0.05 0"/>
<feBlend mode="normal" in2="BackgroundImageFix" result="effect1_dropShadow"/>
<feBlend mode="normal" in="SourceGraphic" in2="effect1_dropShadow" result="shape"/>
</filter>
</defs>
</svg>
