<svg width="64" height="64" viewBox="0 0 64 64" fill="none" xmlns="http://www.w3.org/2000/svg">
<path d="M52.7434 55.2499C58.4165 49.6913 61.938 41.945 61.938 33.3751C61.938 16.4613 48.2266 2.74988 31.3128 2.74988C14.3989 2.74988 0.6875 16.4613 0.6875 33.3751C0.6875 37.2239 1.3995 40.9059 2.69562 44.2991L52.7434 55.2499Z" fill="#6FCF97"/>
<path d="M47.6747 0H7.81742C4.96017 0 2.64404 2.31625 2.64404 5.1735V44.1625C3.56417 46.6066 4.78892 48.9014 6.27017 51.0021L49.1812 58.2456C50.4834 57.3083 51.7103 56.2729 52.8482 55.1473V5.1735C52.8482 2.31625 50.5319 0 47.6747 0V0Z" fill="#167CC1"/>
<path d="M20.6602 27.9855C15.0742 21.1816 8.93382 21.9854 6.16895 22.8565V50.8601C11.7022 58.8019 20.8997 64.0001 31.3127 64.0001C38.0447 64.0001 44.2679 61.8262 49.3227 58.1446C49.3227 53.1104 49.3227 45.7395 49.3227 38.1832C48.5962 37.5982 47.8478 36.9227 47.0748 36.1497C39.5088 28.5837 33.2689 43.3435 20.6602 27.9855Z" fill="#E9EFFF"/>
<path d="M20.6601 28.2466C33.2687 43.6045 39.5086 28.8447 47.0747 36.4109C47.8477 37.1839 48.5961 37.8594 49.3226 38.4444V7.97913H6.16895V23.1176C8.93382 22.2464 15.0742 21.4426 20.6601 28.2466Z" fill="#9BD8F9"/>
<path d="M41.5241 27.7545H13.4591C12.7976 27.7545 12.2563 27.2132 12.2563 26.5517V16.4284C12.2563 15.7669 12.7976 15.2256 13.4591 15.2256H41.5241C42.1856 15.2256 42.7269 15.7669 42.7269 16.4284V26.5517C42.7269 27.2132 42.1856 27.7545 41.5241 27.7545Z" fill="#4FABF7"/>
<path d="M47.6746 3.52557H7.81732C6.91069 3.52557 6.16895 4.26732 6.16895 5.17395V8.2407H49.3226V5.17383C49.3227 4.26732 48.5809 3.52557 47.6746 3.52557Z" fill="#2A428C"/>
<path d="M17.1446 7.99495C16.9831 7.68695 17.1104 7.42933 17.2192 7.28695C17.2891 7.19545 17.3308 7.08558 17.3308 6.97033V4.76195C17.3308 4.66282 17.2941 4.56895 17.2359 4.4887C17.0491 4.23095 17.0902 3.97245 17.1683 3.7882C17.2042 3.7037 17.2153 3.6132 17.2042 3.52557H7.81732C6.91082 3.52557 6.16895 4.26732 6.16895 5.17395V8.2407H17.1966C17.2006 8.15658 17.1849 8.07195 17.1446 7.99495Z" fill="#1C2E7A"/>
<path d="M11.515 5.88275C11.515 6.59188 10.9401 7.16663 10.2311 7.16663C9.52201 7.16663 8.94727 6.59175 8.94727 5.88275C8.94727 5.17375 9.52214 4.59888 10.2311 4.59888C10.9401 4.59888 11.515 5.17363 11.515 5.88275Z" fill="#FF4155"/>
<path d="M15.0648 5.88275C15.0648 6.59188 14.4899 7.16663 13.7809 7.16663C13.0719 7.16663 12.4971 6.59175 12.4971 5.88275C12.4971 5.17375 13.0719 4.59888 13.7809 4.59888C14.4899 4.59888 15.0648 5.17363 15.0648 5.88275Z" fill="#FFDD40"/>
<path d="M18.6146 5.88275C18.6146 6.59188 18.0399 7.16663 17.3307 7.16663C16.6216 7.16663 16.0469 6.59175 16.0469 5.88275C16.0469 5.17375 16.6217 4.59888 17.3307 4.59888C18.0397 4.59888 18.6146 5.17363 18.6146 5.88275Z" fill="#38C674"/>
<path d="M35.7133 6.862H22.8308C22.2899 6.862 21.8516 6.42363 21.8516 5.88275C21.8516 5.34188 22.2899 4.9035 22.8308 4.9035H35.7132C36.2541 4.9035 36.6925 5.34188 36.6925 5.88275C36.6926 6.42363 36.2541 6.862 35.7133 6.862Z" fill="#3C58A0"/>
<path d="M31.5608 25.294C31.0199 25.294 30.5815 24.8556 30.5815 24.3147V18.6649C30.5815 18.124 31.0199 17.6856 31.5608 17.6856C32.1017 17.6856 32.54 18.124 32.54 18.6649V24.3147C32.5402 24.8556 32.1017 25.294 31.5608 25.294Z" fill="#E9EFFF"/>
<path d="M38.0433 25.294H34.2742C33.9149 25.294 33.5844 25.0972 33.4133 24.7812C33.242 24.4654 33.2575 24.0811 33.4538 23.7801L36.1488 19.6441H34.3902C33.8493 19.6441 33.4109 19.2057 33.4109 18.6649C33.4109 18.124 33.8493 17.6856 34.3902 17.6856H37.9557C38.7322 17.6856 39.1998 18.5492 38.776 19.1995L36.081 23.3355H38.0433C38.584 23.3355 39.0225 23.7739 39.0225 24.3147C39.0225 24.8556 38.584 25.294 38.0433 25.294Z" fill="#E9EFFF"/>
<path d="M26.8287 25.294C26.8271 25.294 26.8256 25.294 26.8241 25.294C25.3771 25.2924 23.9185 24.1831 23.9185 22.5526V18.6649C23.9185 18.124 24.357 17.6856 24.8977 17.6856C25.4386 17.6856 25.877 18.124 25.877 18.6649V22.5526C25.877 22.7505 25.9097 22.9351 26.3112 23.1916C26.4623 23.2881 26.6308 23.3352 26.8266 23.3355H26.8286C27.2911 23.3355 27.8443 23.0289 27.8443 22.5485V18.6647C27.8443 18.1239 28.2827 17.6855 28.8236 17.6855C29.3643 17.6855 29.8028 18.1239 29.8028 18.6647V22.5485C29.8028 24.1906 28.3192 25.294 26.8287 25.294Z" fill="#E9EFFF"/>
<path d="M21.9191 24.9845L20.1116 23.1771C19.7291 22.7947 19.7291 22.1746 20.1116 21.7922C20.494 21.4097 21.1141 21.4098 21.4965 21.7921L23.304 23.5995C23.6865 23.9818 23.6865 24.602 23.304 24.9843C22.9217 25.3668 22.3017 25.3668 21.9191 24.9845Z" fill="#E9EFFF"/>
<path d="M19.7651 25.2948C17.6674 25.2948 15.9609 23.5883 15.9609 21.4907C15.9609 19.393 17.6674 17.6865 19.7651 17.6865C21.8627 17.6865 23.5693 19.393 23.5693 21.4907C23.5692 23.5883 21.8627 25.2948 19.7651 25.2948ZM19.7651 19.645C18.7473 19.645 17.9194 20.473 17.9194 21.4907C17.9194 22.5085 18.7473 23.3363 19.7651 23.3363C20.7828 23.3363 21.6108 22.5085 21.6108 21.4907C21.6107 20.473 20.7828 19.645 19.7651 19.645Z" fill="#E9EFFF"/>
<path d="M59.7348 20.8118C64.4944 16.0522 64.4944 8.33539 59.7348 3.57581C54.9752 -1.18377 47.2584 -1.18377 42.4988 3.57581C37.7393 8.33539 37.7393 16.0522 42.4988 20.8118C47.2584 25.5713 54.9752 25.5713 59.7348 20.8118Z" fill="#FFDD40"/>
<path d="M57.5625 18.6396C61.1224 15.0797 61.1224 9.3079 57.5625 5.74798C54.0026 2.18806 48.2308 2.18806 44.6709 5.74798C41.111 9.3079 41.111 15.0797 44.6709 18.6396C48.2308 22.1995 54.0026 22.1995 57.5625 18.6396Z" fill="#E9EFFF"/>
<path d="M52.9995 12.1898H60.2407C60.2407 7.1546 56.1588 3.07272 51.1235 3.07272V10.3138C52.1287 10.3832 52.9302 11.1847 52.9995 12.1898Z" fill="#FF4155"/>
<path d="M42.0608 34.0292L39.4002 31.3686C39.2235 31.1919 38.9839 31.0927 38.734 31.0927H19.5039V38.2983H38.7339C38.9838 38.2983 39.2234 38.199 39.4 38.0224L42.0607 35.3618C42.4287 34.9936 42.4287 34.3972 42.0608 34.0292Z" fill="#D3DCFB"/>
<path d="M42.0608 44.5488L39.4002 41.8882C39.2235 41.7116 38.9839 41.6123 38.734 41.6123H19.5039V48.8178H38.7339C38.9838 48.8178 39.2234 48.7186 39.4 48.5419L42.0607 45.8813C42.4287 45.5132 42.4287 44.9167 42.0608 44.5488Z" fill="#D3DCFB"/>
<path d="M42.0608 55.0686L39.4002 52.408C39.2235 52.2314 38.9839 52.1321 38.734 52.1321H19.5039V59.3376H38.7339C38.9838 59.3376 39.2234 59.2384 39.4 59.0618L42.0607 56.4011C42.4287 56.033 42.4287 55.4365 42.0608 55.0686Z" fill="#D3DCFB"/>
<path d="M12.4971 53.0741V57.539C13.3204 58.181 14.1778 58.781 15.0654 59.3376H19.7649V52.1321H13.4392C12.9189 52.132 12.4971 52.5538 12.4971 53.0741Z" fill="#38C674"/>
<path d="M19.7649 41.6122H13.4392C12.9189 41.6122 12.4971 42.0339 12.4971 42.5542V47.8756C12.4971 48.3958 12.9188 48.8176 13.4392 48.8176H19.7649V41.6122Z" fill="#FFDD40"/>
<path d="M19.7649 31.0927H13.4392C12.9189 31.0927 12.4971 31.5145 12.4971 32.0347V37.3561C12.4971 37.8764 12.9188 38.2981 13.4392 38.2981H19.7649V31.0927Z" fill="#FF2D55"/>
<path d="M51.1232 22.4515C45.4648 22.4515 40.8613 17.8481 40.8613 12.1896C40.8613 6.53111 45.4648 1.92773 51.1232 1.92773C56.7816 1.92773 61.385 6.53111 61.385 12.1896C61.385 17.8481 56.7816 22.4515 51.1232 22.4515ZM51.1232 4.21723C46.7273 4.21723 43.1508 7.79361 43.1508 12.1895C43.1508 16.5854 46.7272 20.1617 51.1232 20.1617C55.5192 20.1617 59.0955 16.5854 59.0955 12.1895C59.0955 7.79361 55.5191 4.21723 51.1232 4.21723Z" fill="#FFB332"/>
<path d="M58.225 19.5866C58.153 19.4976 58.0502 19.4336 57.9312 19.4135C57.0002 19.2566 56.7932 18.6143 56.7633 18.1783C56.7566 18.0797 56.7173 17.9912 56.6582 17.9192C55.2231 19.306 53.2718 20.1618 51.1232 20.1618C46.7273 20.1618 43.151 16.5855 43.151 12.1896C43.151 8.98883 45.048 6.22433 47.7758 4.95671C47.7302 4.87171 47.6603 4.79971 47.568 4.75596C46.8033 4.39358 46.8402 3.64408 46.9565 3.17083C46.9853 3.05321 46.9677 2.93496 46.9155 2.83383C43.3502 4.44371 40.8613 8.03033 40.8613 12.1897C40.8613 17.8482 45.4648 22.4516 51.1232 22.4516C53.8776 22.4515 56.3798 21.3587 58.225 19.5866Z" fill="#FF9100"/>
<path d="M51.1236 15.4991C49.2986 15.4991 47.814 14.0144 47.814 12.1894C47.814 10.3644 49.2987 8.87982 51.1236 8.87982C52.9486 8.87982 54.4332 10.3644 54.4332 12.1894C54.4332 14.0144 52.9485 15.4991 51.1236 15.4991ZM51.1236 11.1694C50.5611 11.1694 50.1035 11.6271 50.1035 12.1894C50.1035 12.7518 50.5611 13.2094 51.1236 13.2094C51.6861 13.2094 52.1436 12.7518 52.1436 12.1894C52.1436 11.6271 51.686 11.1694 51.1236 11.1694Z" fill="#3C58A0"/>
<path d="M51.1233 11.1695C50.491 11.1695 49.9785 10.657 49.9785 10.0248V6.63163C49.9785 5.99938 50.491 5.48688 51.1233 5.48688C51.7555 5.48688 52.268 5.99938 52.268 6.63163V10.0248C52.268 10.657 51.7555 11.1695 51.1233 11.1695Z" fill="#3C58A0"/>
</svg>
