<svg width="48" height="32" viewBox="0 0 48 32" fill="none" xmlns="http://www.w3.org/2000/svg">
<path d="M21.1848 31.7772H1.40607C0.629544 31.7772 0 31.1476 0 30.3711V27.981C0 24.3034 1.76658 21.0308 4.49558 18.967C4.88787 18.6704 5.50991 19.2113 5.93952 18.9669C6.36912 18.7227 6.60646 17.6931 7.06868 17.5059C8.37492 16.977 9.8018 16.6855 11.2954 16.6855C12.726 16.6855 14.0953 16.9529 15.356 17.4401C15.8466 17.6298 15.712 19.5431 16.1669 19.7966C16.6274 20.0532 17.6769 18.6507 18.0952 18.9669C20.8243 21.0309 22.5908 24.3035 22.5908 27.981V30.3711C22.5908 31.1476 21.9613 31.7772 21.1848 31.7772Z" fill="#B9DD39"/>
<path d="M15.8398 18.0016C14.2159 17.0968 13.2827 16.6855 11.2954 16.6855C9.30819 16.6855 8.24989 17.3259 6.62598 18.2306C6.7633 21.1386 8.35357 23.3303 11.2954 23.3303C14.2373 23.3303 15.7025 20.9096 15.8398 18.0016Z" fill="#FFDE3B"/>
<path d="M4.49609 18.967C5.03434 22.2349 7.87769 24.7361 11.2956 24.7361C14.7134 24.7361 17.5568 22.2349 18.095 18.967C17.2637 18.3383 16.3431 17.822 15.3559 17.4404C15.3689 17.5731 15.376 17.7075 15.376 17.8434C15.376 20.0933 13.5456 21.9238 11.2956 21.9238C9.04557 21.9238 7.21515 20.0933 7.21515 17.8434C7.21515 17.7074 7.22218 17.573 7.23521 17.4404C6.24806 17.8221 5.32736 18.3384 4.49609 18.967Z" fill="#90CC1C"/>
<path d="M46.5939 31.7772H26.8152C26.0387 31.7772 25.4092 31.1476 25.4092 30.3711V27.981C25.4092 24.3034 27.1758 21.0308 29.9048 18.967C30.297 18.6704 30.9191 19.2113 31.3487 18.9669C31.7783 18.7226 32.0156 17.6931 32.4779 17.5059C33.7841 16.977 35.211 16.6855 36.7046 16.6855C38.1351 16.6855 39.5044 16.9529 40.7651 17.4401C41.2557 17.6298 41.1211 19.5431 41.5761 19.7966C42.0366 20.0532 43.0861 18.6507 43.5043 18.9669C46.2334 21.0308 47.9999 24.3034 47.9999 27.9809V30.371C48 31.1476 47.3705 31.7772 46.5939 31.7772Z" fill="#7DD5F4"/>
<path d="M41.249 18.0016C39.6251 17.0968 38.6919 16.6855 36.7046 16.6855C34.7174 16.6855 33.6591 17.3259 32.0352 18.2306C32.1725 21.1386 33.7627 23.3303 36.7046 23.3303C39.6465 23.3303 41.1117 20.9096 41.249 18.0016Z" fill="#7DD5F4"/>
<path d="M29.9053 18.967C30.4435 22.2349 33.2869 24.7361 36.7047 24.7361C40.1226 24.7361 42.966 22.2349 43.5042 18.967C42.6729 18.3383 41.7523 17.822 40.7651 17.4404C40.7781 17.5731 40.7852 17.7075 40.7852 17.8434C40.7852 20.0933 38.9547 21.9238 36.7047 21.9238C34.4548 21.9238 32.6243 20.0933 32.6243 17.8434C32.6243 17.7074 32.6314 17.573 32.6444 17.4404C31.6571 17.8221 30.7365 18.3384 29.9053 18.967Z" fill="#26BFA6"/>
<path d="M1.65679 8.5C1.60693 8.89782 1.58105 9.30305 1.58105 9.71409C1.58105 15.0705 5.93884 19.4282 11.2952 19.4282C16.6516 19.4282 21.0094 15.0705 21.0094 9.71409C21.0094 9.30296 20.9835 8.89782 20.9336 8.5H1.65679Z" fill="#FFE4C1"/>
<path d="M1.60791 8.99982H20.9834C20.6161 3.97612 16.4116 0.000976564 11.2957 0.000976564C6.17979 0.000882826 1.97527 3.97612 1.60791 8.99982Z" fill="#453D81"/>
<path d="M36.7046 19.4287C31.3482 19.4287 26.9905 15.0709 26.9905 9.71457C26.9905 9.30344 27.0162 8.89821 27.0659 8.50039C27.6652 3.71488 44.4792 2.6711 45.8368 6.40084C46.2133 7.43543 46.4188 8.55147 46.4188 9.71457C46.4188 15.0709 42.061 19.4287 36.7046 19.4287Z" fill="#FFE4C1"/>
<path d="M46.5938 0H34.5241C32.4894 0 30.5895 0.794148 29.1746 2.23603C27.8187 3.61791 27.0547 5.44524 27.0071 7.39949L26.9902 8.99932L29.9682 8.99904L40.5942 8.99932H40.5943C42.6408 8.99932 44.5293 8.19974 45.9114 6.74792C47.2582 5.33341 47.9998 3.43625 47.9998 1.40607C47.9998 0.629545 47.3704 0 46.5938 0Z" fill="#453D81"/>
</svg>
