<svg width="16" height="16" viewBox="0 0 16 16" fill="none" xmlns="http://www.w3.org/2000/svg">
<path d="M7.99999 15.3333C12.2318 15.3333 15.0429 12.3628 15.0429 8.17014C15.0429 7.69005 14.9931 7.31947 14.9236 6.94987H8.00097V9.47058H12.1634C11.9932 10.5412 10.903 12.6317 8.00097 12.6317C5.50079 12.6317 3.45919 10.5608 3.45919 8C3.45919 5.4392 5.49981 3.36729 8.00097 3.36729C9.43146 3.36729 10.3819 3.97743 10.9226 4.49761L12.9133 2.58703C11.6315 1.38729 9.98097 0.666672 7.99999 0.666672C3.94808 0.666672 0.666656 3.94809 0.666656 8C0.666656 12.0519 3.94808 15.3333 7.99999 15.3333Z" fill="white"/>
</svg>
