<svg width="48" height="44" viewBox="0 0 48 44" fill="none" xmlns="http://www.w3.org/2000/svg">
<path d="M21.2329 0.908508H3.03694C1.35966 0.908508 0 2.26826 0 3.94544V19.0468C0 20.7108 1.33856 22.0616 2.99756 22.0827V22.0836L3.84375 22.5625H8.67188L9.80466 22.0837H21.2326C22.9099 22.0837 24.2695 20.7241 24.2695 19.0468V3.94544C24.2695 2.26835 22.91 0.908696 21.2329 0.908508Z" fill="#6B61B1"/>
<path d="M27.0524 0.908508H20.9629C22.6402 0.908508 23.9998 2.26816 23.9998 3.94544V19.0468C23.9998 20.724 22.6402 22.0837 20.9629 22.0837H27.0524C28.7297 22.0837 30.0893 20.724 30.0893 19.0468V3.94544C30.0893 2.26826 28.7297 0.908508 27.0524 0.908508Z" fill="#6B61B1"/>
<path d="M2.99707 29.1383C2.99707 29.5808 3.55554 29.7748 3.82985 29.4275L9.26576 22.5457C9.49619 22.254 9.84757 22.0837 10.2194 22.0837H2.99707V29.1383Z" fill="#5E54AC"/>
<path d="M37.3556 34.9813L38.4464 36.3624C38.6337 36.3554 38.7855 36.213 38.8101 36.0273C38.9197 35.1975 39.4485 34.4836 40.2226 34.1195C41.4074 33.5622 42.2277 32.358 42.2277 30.9619V13.6146C42.2277 11.6879 40.6658 10.126 38.739 10.126H16.9237C14.9969 10.126 13.4351 11.6879 13.4351 13.6146V30.9619C13.4351 32.8887 14.9969 34.4505 16.9237 34.4505H36.2599C36.6872 34.4505 37.0908 34.6461 37.3556 34.9813Z" fill="#E49542"/>
<path d="M44.5109 10.126H38.4009C40.3275 10.126 41.8895 11.6879 41.8895 13.6146V30.9619C41.8895 32.358 41.0693 33.5622 39.8845 34.1195C39.0117 34.53 38.4462 35.3979 38.4462 36.3623L43.5996 42.8865C43.9147 43.2854 44.5562 43.0626 44.5562 42.5543V34.4493C46.462 34.425 47.9997 32.8734 47.9997 30.9618V13.6146C47.9996 11.6879 46.4377 10.126 44.5109 10.126Z" fill="#E49542"/>
</svg>
