<svg width="64" height="66" viewBox="0 0 64 66" fill="none" xmlns="http://www.w3.org/2000/svg">
<path d="M24.5 55.875H47V63.75H24.5V55.875Z" fill="#FDFDFD"/>
<path d="M24.5 48H47V55.875H24.5V48Z" fill="#FDFDFD"/>
<path d="M47 9.75C44.9287 9.75 43.25 11.4288 43.25 13.5V9.75C43.25 7.67875 41.5713 6 39.5 6C37.4287 6 35.75 7.67875 35.75 9.75V6C35.75 3.92875 34.0713 2.25 32 2.25C29.9287 2.25 28.25 3.92875 28.25 6V9.75C28.25 7.67875 26.5712 6 24.5 6C22.4288 6 20.75 7.67875 20.75 9.75V18.0625L17 18L13.25 29.25L24.5 40.5V48H47V40.5C49.4012 38.0988 50.75 34.8425 50.75 31.4463C50.75 29.551 50.75 15.3468 50.75 13.5C50.75 11.4288 49.0713 9.75 47 9.75Z" fill="#FDFDFD"/>
<mask id="path-5-outside-1" maskUnits="userSpaceOnUse" x="11" y="0" width="42" height="66" fill="black">
<rect fill="white" x="11" width="42" height="66"/>
<path d="M47 8.5C46.0765 8.5 45.2111 8.75262 44.468 9.19112C44.1891 6.69637 42.068 4.75 39.5 4.75C38.5765 4.75 37.7111 5.00262 36.968 5.44112C36.6891 2.94637 34.568 1 32 1C29.432 1 27.3109 2.94637 27.032 5.44112C26.2889 5.00262 25.4236 4.75 24.5 4.75C21.743 4.75 19.5 6.993 19.5 9.75V16.7913C19.5 16.7913 17.0069 16.75 16.9999 16.75C16.4627 16.75 15.9845 17.0936 15.8141 17.6047L12.0641 28.8547C11.9145 29.3039 12.0314 29.7991 12.3661 30.1339L23.25 41.0179V46.75H20.75C20.0597 46.75 19.5 47.3097 19.5 48C19.5 48.6903 20.0597 49.25 20.75 49.25H23.25V54.625H20.75C20.0597 54.625 19.5 55.1847 19.5 55.875C19.5 56.5653 20.0597 57.125 20.75 57.125H23.25V63.75C23.25 64.4403 23.8097 65 24.5 65H30.125C30.8152 65 31.375 64.4403 31.375 63.75C31.375 63.0597 30.8152 62.5 30.125 62.5H25.75V57.125H45.75V62.5H30.125C29.4347 62.5 30.4375 63.0597 30.4375 63.75C30.4375 64.4403 28.1222 65 28.8125 65H47C47.6903 65 48.25 64.4403 48.25 63.75V57.125H50.75C51.4403 57.125 52 56.5653 52 55.875C52 55.1847 51.4403 54.625 50.75 54.625H48.25V49.25H50.75C51.4403 49.25 52 48.6903 52 48C52 47.3097 51.4403 46.75 50.75 46.75H48.25V41.0041C50.6722 38.3975 52 35.0239 52 31.4463C52 29.551 52 15.3466 52 13.5C52 10.743 49.757 8.5 47 8.5ZM47 11C48.3785 11 49.5 12.1215 49.5 13.5V21.75C49.5 23.1285 48.3785 24.25 47 24.25C45.6215 24.25 44.5 23.1285 44.5 21.75V13.5C44.5 12.1215 45.6215 11 47 11ZM39.5 7.25C40.8785 7.25 42 8.3715 42 9.75V18C42 19.3785 40.8785 20.5 39.5 20.5C38.1215 20.5 37 19.3785 37 18V9.75C37 8.3715 38.1215 7.25 39.5 7.25ZM29.5 6C29.5 4.6215 30.6215 3.5 32 3.5C33.3785 3.5 34.5 4.6215 34.5 6V18C34.5 18.3148 34.5306 18.6222 34.5865 18.9209C33.2006 18.1416 31.284 17.6998 29.5 17.4155C29.5 16.2689 29.5 7.28813 29.5 6ZM22 9.75C22 8.3715 23.1215 7.25 24.5 7.25C25.8785 7.25 27 8.3715 27 9.75V17.0915C26.1025 16.9994 25.1514 16.9249 24.1557 16.8695C24.1191 16.8673 23.853 16.8638 22 16.8328V9.75ZM45.75 54.625H25.75V49.25H45.75V54.625ZM46.1161 39.6161C45.8817 39.8506 45.75 40.1685 45.75 40.5V46.75H25.75V40.5C25.75 40.1685 25.6182 39.8506 25.3839 39.6161L14.6801 28.9124L17.8959 19.2651L24.041 19.3669C25.6354 19.4562 34.0587 20.161 34.0587 21.7499C34.0587 21.937 33.6872 22.4199 32.2816 22.9086C30.5764 23.5012 27.9325 23.9113 24.4232 24.1273C23.7491 24.1688 23.2299 24.7383 23.2506 25.4134C23.2714 26.0884 23.8246 26.6249 24.5 26.6249C27.9462 26.6249 30.75 29.4286 30.75 32.8749C30.75 33.5651 31.3097 34.1249 32 34.1249C32.6902 34.1249 33.25 33.5651 33.25 32.8749C33.25 30.1115 31.9622 27.6431 29.9556 26.0385C31.1901 25.8258 32.2416 25.5693 33.1025 25.2701C35.2546 24.522 36.4111 23.4329 36.5454 22.0303C37.3737 22.6392 38.3954 23 39.5 23C40.4235 23 41.2889 22.7474 42.032 22.3089C42.3109 24.8036 44.432 26.75 47 26.75C47.9104 26.75 48.764 26.5042 49.5 26.0772V31.4463C49.5 34.5326 48.2982 37.434 46.1161 39.6161Z"/>
</mask>
<path d="M47 8.5C46.0765 8.5 45.2111 8.75262 44.468 9.19112C44.1891 6.69637 42.068 4.75 39.5 4.75C38.5765 4.75 37.7111 5.00262 36.968 5.44112C36.6891 2.94637 34.568 1 32 1C29.432 1 27.3109 2.94637 27.032 5.44112C26.2889 5.00262 25.4236 4.75 24.5 4.75C21.743 4.75 19.5 6.993 19.5 9.75V16.7913C19.5 16.7913 17.0069 16.75 16.9999 16.75C16.4627 16.75 15.9845 17.0936 15.8141 17.6047L12.0641 28.8547C11.9145 29.3039 12.0314 29.7991 12.3661 30.1339L23.25 41.0179V46.75H20.75C20.0597 46.75 19.5 47.3097 19.5 48C19.5 48.6903 20.0597 49.25 20.75 49.25H23.25V54.625H20.75C20.0597 54.625 19.5 55.1847 19.5 55.875C19.5 56.5653 20.0597 57.125 20.75 57.125H23.25V63.75C23.25 64.4403 23.8097 65 24.5 65H30.125C30.8152 65 31.375 64.4403 31.375 63.75C31.375 63.0597 30.8152 62.5 30.125 62.5H25.75V57.125H45.75V62.5H30.125C29.4347 62.5 30.4375 63.0597 30.4375 63.75C30.4375 64.4403 28.1222 65 28.8125 65H47C47.6903 65 48.25 64.4403 48.25 63.75V57.125H50.75C51.4403 57.125 52 56.5653 52 55.875C52 55.1847 51.4403 54.625 50.75 54.625H48.25V49.25H50.75C51.4403 49.25 52 48.6903 52 48C52 47.3097 51.4403 46.75 50.75 46.75H48.25V41.0041C50.6722 38.3975 52 35.0239 52 31.4463C52 29.551 52 15.3466 52 13.5C52 10.743 49.757 8.5 47 8.5ZM47 11C48.3785 11 49.5 12.1215 49.5 13.5V21.75C49.5 23.1285 48.3785 24.25 47 24.25C45.6215 24.25 44.5 23.1285 44.5 21.75V13.5C44.5 12.1215 45.6215 11 47 11ZM39.5 7.25C40.8785 7.25 42 8.3715 42 9.75V18C42 19.3785 40.8785 20.5 39.5 20.5C38.1215 20.5 37 19.3785 37 18V9.75C37 8.3715 38.1215 7.25 39.5 7.25ZM29.5 6C29.5 4.6215 30.6215 3.5 32 3.5C33.3785 3.5 34.5 4.6215 34.5 6V18C34.5 18.3148 34.5306 18.6222 34.5865 18.9209C33.2006 18.1416 31.284 17.6998 29.5 17.4155C29.5 16.2689 29.5 7.28813 29.5 6ZM22 9.75C22 8.3715 23.1215 7.25 24.5 7.25C25.8785 7.25 27 8.3715 27 9.75V17.0915C26.1025 16.9994 25.1514 16.9249 24.1557 16.8695C24.1191 16.8673 23.853 16.8638 22 16.8328V9.75ZM45.75 54.625H25.75V49.25H45.75V54.625ZM46.1161 39.6161C45.8817 39.8506 45.75 40.1685 45.75 40.5V46.75H25.75V40.5C25.75 40.1685 25.6182 39.8506 25.3839 39.6161L14.6801 28.9124L17.8959 19.2651L24.041 19.3669C25.6354 19.4562 34.0587 20.161 34.0587 21.7499C34.0587 21.937 33.6872 22.4199 32.2816 22.9086C30.5764 23.5012 27.9325 23.9113 24.4232 24.1273C23.7491 24.1688 23.2299 24.7383 23.2506 25.4134C23.2714 26.0884 23.8246 26.6249 24.5 26.6249C27.9462 26.6249 30.75 29.4286 30.75 32.8749C30.75 33.5651 31.3097 34.1249 32 34.1249C32.6902 34.1249 33.25 33.5651 33.25 32.8749C33.25 30.1115 31.9622 27.6431 29.9556 26.0385C31.1901 25.8258 32.2416 25.5693 33.1025 25.2701C35.2546 24.522 36.4111 23.4329 36.5454 22.0303C37.3737 22.6392 38.3954 23 39.5 23C40.4235 23 41.2889 22.7474 42.032 22.3089C42.3109 24.8036 44.432 26.75 47 26.75C47.9104 26.75 48.764 26.5042 49.5 26.0772V31.4463C49.5 34.5326 48.2982 37.434 46.1161 39.6161Z" fill="#7B8191"/>
<path d="M44.468 9.19112L43.9711 9.24667C43.9899 9.41519 44.0929 9.56268 44.2446 9.63844C44.3963 9.7142 44.5761 9.70792 44.7221 9.62175L44.468 9.19112ZM36.968 5.44112L36.4711 5.49667C36.4899 5.66519 36.5929 5.81268 36.7446 5.88844C36.8963 5.9642 37.0761 5.95792 37.2221 5.87175L36.968 5.44112ZM27.032 5.44112L26.7779 5.87175C26.9239 5.95792 27.1037 5.9642 27.2554 5.88844C27.4071 5.81268 27.5101 5.66519 27.5289 5.49667L27.032 5.44112ZM19.5 16.7913L19.4917 17.2912C19.6258 17.2934 19.7551 17.2417 19.8506 17.1477C19.9462 17.0537 20 16.9253 20 16.7913H19.5ZM15.8141 17.6047L16.2885 17.7629L15.8141 17.6047ZM12.0641 28.8547L11.5898 28.6966L11.5898 28.6967L12.0641 28.8547ZM12.3661 30.1339L12.7197 29.7803L12.7197 29.7803L12.3661 30.1339ZM23.25 41.0179H23.75C23.75 40.8853 23.6973 40.7581 23.6036 40.6643L23.25 41.0179ZM23.25 46.75V47.25C23.5261 47.25 23.75 47.0261 23.75 46.75H23.25ZM23.25 49.25H23.75C23.75 48.9739 23.5261 48.75 23.25 48.75V49.25ZM23.25 54.625V55.125C23.5261 55.125 23.75 54.9011 23.75 54.625H23.25ZM23.25 57.125H23.75C23.75 56.8489 23.5261 56.625 23.25 56.625V57.125ZM25.75 62.5H25.25C25.25 62.7761 25.4739 63 25.75 63V62.5ZM25.75 57.125V56.625C25.4739 56.625 25.25 56.8489 25.25 57.125H25.75ZM45.75 57.125H46.25C46.25 56.8489 46.0261 56.625 45.75 56.625V57.125ZM45.75 62.5V63C46.0261 63 46.25 62.7761 46.25 62.5H45.75ZM48.25 57.125V56.625C47.9739 56.625 47.75 56.8489 47.75 57.125H48.25ZM48.25 54.625H47.75C47.75 54.9011 47.9739 55.125 48.25 55.125V54.625ZM48.25 49.25V48.75C47.9739 48.75 47.75 48.9739 47.75 49.25H48.25ZM48.25 46.75H47.75C47.75 47.0261 47.9739 47.25 48.25 47.25V46.75ZM48.25 41.0041L47.8837 40.6638C47.7978 40.7563 47.75 40.8779 47.75 41.0041H48.25ZM34.5865 18.9209L34.3414 19.3567C34.5107 19.4519 34.7199 19.4404 34.8777 19.3273C35.0356 19.2142 35.1137 19.0198 35.078 18.8289L34.5865 18.9209ZM29.5 17.4155H29C29 17.6613 29.1786 17.8706 29.4213 17.9093L29.5 17.4155ZM27 17.0915L26.9489 17.5889C27.0897 17.6033 27.23 17.5575 27.335 17.4627C27.4401 17.3679 27.5 17.233 27.5 17.0915H27ZM24.1557 16.8695L24.1251 17.3686L24.128 17.3687L24.1557 16.8695ZM22 16.8328H21.5C21.5 17.1056 21.7188 17.3281 21.9916 17.3327L22 16.8328ZM45.75 54.625V55.125C46.0261 55.125 46.25 54.9011 46.25 54.625H45.75ZM25.75 54.625H25.25C25.25 54.9011 25.4739 55.125 25.75 55.125V54.625ZM25.75 49.25V48.75C25.4739 48.75 25.25 48.9739 25.25 49.25H25.75ZM45.75 49.25H46.25C46.25 48.9739 46.0261 48.75 45.75 48.75V49.25ZM46.1161 39.6161L45.7626 39.2626L45.7625 39.2627L46.1161 39.6161ZM45.75 46.75V47.25C46.0261 47.25 46.25 47.0261 46.25 46.75H45.75ZM25.75 46.75H25.25C25.25 47.0261 25.4739 47.25 25.75 47.25V46.75ZM25.3839 39.6161L25.7375 39.2627L25.7374 39.2626L25.3839 39.6161ZM14.6801 28.9124L14.2058 28.7543C14.1459 28.9339 14.1927 29.132 14.3266 29.2659L14.6801 28.9124ZM17.8959 19.2651L17.9042 18.7652C17.6859 18.7616 17.4906 18.8999 17.4215 19.107L17.8959 19.2651ZM24.041 19.3669L24.069 18.8677C24.0624 18.8673 24.0559 18.8671 24.0493 18.8669L24.041 19.3669ZM32.2816 22.9086L32.4458 23.3809L32.4458 23.3809L32.2816 22.9086ZM24.4232 24.1273L24.3925 23.6282H24.3925L24.4232 24.1273ZM23.2506 25.4134L22.7509 25.4287L22.7509 25.4287L23.2506 25.4134ZM29.9556 26.0385L29.8707 25.5458C29.6768 25.5792 29.5205 25.7233 29.4714 25.9139C29.4223 26.1044 29.4897 26.3061 29.6434 26.429L29.9556 26.0385ZM33.1025 25.2701L33.2666 25.7424L33.2667 25.7424L33.1025 25.2701ZM36.5454 22.0303L36.8415 21.6274C36.6965 21.5208 36.5054 21.5004 36.3412 21.5739C36.1769 21.6474 36.0648 21.8035 36.0476 21.9826L36.5454 22.0303ZM42.032 22.3089L42.5289 22.2533C42.5101 22.0848 42.4071 21.9373 42.2554 21.8616C42.1037 21.7858 41.9239 21.7921 41.7779 21.8783L42.032 22.3089ZM49.5 26.0772H50C50 25.8984 49.9045 25.7332 49.7495 25.644C49.5946 25.5547 49.4038 25.555 49.2491 25.6448L49.5 26.0772ZM47 8C45.9841 8 45.0314 8.27814 44.2139 8.7605L44.7221 9.62175C45.3909 9.22711 46.1689 9 47 9V8ZM44.9649 9.13558C44.6581 6.391 42.3259 4.25 39.5 4.25V5.25C41.8101 5.25 43.7201 7.00175 43.9711 9.24667L44.9649 9.13558ZM39.5 4.25C38.4841 4.25 37.5314 4.52814 36.7139 5.0105L37.2221 5.87175C37.8909 5.47711 38.6689 5.25 39.5 5.25V4.25ZM37.4649 5.38558C37.1581 2.641 34.8259 0.5 32 0.5V1.5C34.3101 1.5 36.2201 3.25174 36.4711 5.49667L37.4649 5.38558ZM32 0.5C29.1741 0.5 26.8419 2.641 26.5351 5.38558L27.5289 5.49667C27.7799 3.25174 29.6899 1.5 32 1.5V0.5ZM27.2861 5.0105C26.4686 4.52815 25.516 4.25 24.5 4.25V5.25C25.3312 5.25 26.1091 5.4771 26.7779 5.87175L27.2861 5.0105ZM24.5 4.25C21.4669 4.25 19 6.71686 19 9.75H20C20 7.26914 22.0191 5.25 24.5 5.25V4.25ZM19 9.75V16.7913H20V9.75H19ZM19.5 16.7913C19.5083 16.2913 19.5083 16.2913 19.5082 16.2913C19.5082 16.2913 19.5082 16.2913 19.5082 16.2913C19.5081 16.2913 19.508 16.2913 19.5078 16.2913C19.5075 16.2913 19.5071 16.2913 19.5065 16.2913C19.5053 16.2913 19.5035 16.2912 19.5011 16.2912C19.4964 16.2911 19.4894 16.291 19.4803 16.2909C19.462 16.2906 19.4352 16.2901 19.4011 16.2895C19.3329 16.2884 19.2355 16.2868 19.1186 16.2849C18.8848 16.281 18.5729 16.2758 18.2608 16.2707C17.6421 16.2605 17.0089 16.25 16.9999 16.25V17.25C16.9979 17.25 17.6147 17.2602 18.2443 17.2706C18.5564 17.2757 18.8682 17.2809 19.1021 17.2847C19.219 17.2867 19.3164 17.2883 19.3846 17.2894C19.4187 17.29 19.4455 17.2904 19.4637 17.2907C19.4729 17.2909 19.4799 17.291 19.4846 17.2911C19.4869 17.2911 19.4887 17.2911 19.4899 17.2912C19.4905 17.2912 19.491 17.2912 19.4913 17.2912C19.4914 17.2912 19.4915 17.2912 19.4916 17.2912C19.4917 17.2912 19.4917 17.2912 19.4917 17.2912C19.4917 17.2912 19.4917 17.2912 19.5 16.7913ZM16.9999 16.25C16.2478 16.25 15.5783 16.731 15.3398 17.4466L16.2885 17.7629C16.3907 17.4562 16.6776 17.25 16.9999 17.25V16.25ZM15.3398 17.4466L11.5898 28.6966L12.5385 29.0129L16.2885 17.7629L15.3398 17.4466ZM11.5898 28.6967C11.3803 29.3254 11.5439 30.0187 12.0126 30.4874L12.7197 29.7803C12.5189 29.5795 12.4487 29.2823 12.5385 29.0128L11.5898 28.6967ZM12.0126 30.4874L22.8964 41.3714L23.6036 40.6643L12.7197 29.7803L12.0126 30.4874ZM22.75 41.0179V46.75H23.75V41.0179H22.75ZM23.25 46.25H20.75V47.25H23.25V46.25ZM20.75 46.25C19.7836 46.25 19 47.0336 19 48H20C20 47.5859 20.3359 47.25 20.75 47.25V46.25ZM19 48C19 48.9664 19.7836 49.75 20.75 49.75V48.75C20.3359 48.75 20 48.4141 20 48H19ZM20.75 49.75H23.25V48.75H20.75V49.75ZM22.75 49.25V54.625H23.75V49.25H22.75ZM23.25 54.125H20.75V55.125H23.25V54.125ZM20.75 54.125C19.7836 54.125 19 54.9086 19 55.875H20C20 55.4609 20.3359 55.125 20.75 55.125V54.125ZM19 55.875C19 56.8414 19.7836 57.625 20.75 57.625V56.625C20.3359 56.625 20 56.2891 20 55.875H19ZM20.75 57.625H23.25V56.625H20.75V57.625ZM22.75 57.125V63.75H23.75V57.125H22.75ZM22.75 63.75C22.75 64.7164 23.5336 65.5 24.5 65.5V64.5C24.0859 64.5 23.75 64.1641 23.75 63.75H22.75ZM24.5 65.5H30.125V64.5H24.5V65.5ZM30.125 65.5C31.0914 65.5 31.875 64.7164 31.875 63.75H30.875C30.875 64.1641 30.5391 64.5 30.125 64.5V65.5ZM31.875 63.75C31.875 62.7836 31.0914 62 30.125 62V63C30.5391 63 30.875 63.3359 30.875 63.75H31.875ZM30.125 62H25.75V63H30.125V62ZM26.25 62.5V57.125H25.25V62.5H26.25ZM25.75 57.625H45.75V56.625H25.75V57.625ZM45.25 57.125V62.5H46.25V57.125H45.25ZM45.75 62H30.125V63H45.75V62ZM30.125 62C30.0216 62 29.8776 62.0079 29.7423 62.0662C29.6676 62.0984 29.576 62.1543 29.5015 62.251C29.4232 62.3525 29.3884 62.4674 29.3832 62.5741C29.3745 62.7549 29.4517 62.8994 29.4838 62.957C29.5251 63.031 29.5771 63.1039 29.6179 63.1601C29.7114 63.2887 29.7903 63.3909 29.8547 63.5066C29.9174 63.6193 29.9375 63.697 29.9375 63.75H30.9375C30.9375 63.4579 30.8323 63.2068 30.7285 63.0203C30.6265 62.837 30.4978 62.6698 30.4269 62.5722C30.3855 62.5153 30.3661 62.4859 30.3573 62.47C30.3393 62.4378 30.3877 62.5049 30.382 62.6224C30.3784 62.6974 30.353 62.7842 30.2935 62.8614C30.2378 62.9337 30.1742 62.969 30.1381 62.9846C30.0802 63.0095 30.0558 63 30.125 63V62ZM29.9375 63.75C29.9375 63.6915 29.9624 63.6716 29.9416 63.699C29.9203 63.7269 29.8748 63.7724 29.793 63.8317C29.629 63.9506 29.399 64.0685 29.1575 64.1795C28.9492 64.2752 28.6755 64.3891 28.542 64.4595C28.5057 64.4786 28.4503 64.5093 28.3986 64.5495C28.3741 64.5687 28.327 64.6078 28.2838 64.6674C28.2447 64.7214 28.1588 64.8624 28.1908 65.0561C28.2251 65.2632 28.3661 65.3736 28.4413 65.4175C28.5149 65.4604 28.5837 65.4767 28.6172 65.4835C28.6889 65.4981 28.7611 65.5 28.8125 65.5V64.5C28.7776 64.5 28.787 64.4975 28.8168 64.5036C28.8293 64.5062 28.8824 64.5171 28.9451 64.5537C29.0096 64.5913 29.1446 64.6943 29.1775 64.8931C29.2081 65.0785 29.1254 65.2101 29.0938 65.2539C29.058 65.3032 29.0226 65.3311 29.0137 65.338C28.9932 65.354 28.9847 65.3565 29.0084 65.344C29.1149 65.2879 29.2906 65.2188 29.5748 65.0882C29.8258 64.9729 30.1315 64.8215 30.38 64.6413C30.5045 64.551 30.6345 64.4396 30.7372 64.3048C30.8402 64.1695 30.9375 63.9811 30.9375 63.75H29.9375ZM28.8125 65.5H47V64.5H28.8125V65.5ZM47 65.5C47.9664 65.5 48.75 64.7164 48.75 63.75H47.75C47.75 64.1641 47.4141 64.5 47 64.5V65.5ZM48.75 63.75V57.125H47.75V63.75H48.75ZM48.25 57.625H50.75V56.625H48.25V57.625ZM50.75 57.625C51.7164 57.625 52.5 56.8414 52.5 55.875H51.5C51.5 56.2891 51.1641 56.625 50.75 56.625V57.625ZM52.5 55.875C52.5 54.9086 51.7164 54.125 50.75 54.125V55.125C51.1641 55.125 51.5 55.4609 51.5 55.875H52.5ZM50.75 54.125H48.25V55.125H50.75V54.125ZM48.75 54.625V49.25H47.75V54.625H48.75ZM48.25 49.75H50.75V48.75H48.25V49.75ZM50.75 49.75C51.7164 49.75 52.5 48.9664 52.5 48H51.5C51.5 48.4141 51.1641 48.75 50.75 48.75V49.75ZM52.5 48C52.5 47.0336 51.7164 46.25 50.75 46.25V47.25C51.1641 47.25 51.5 47.5859 51.5 48H52.5ZM50.75 46.25H48.25V47.25H50.75V46.25ZM48.75 46.75V41.0041H47.75V46.75H48.75ZM48.6163 41.3445C51.1246 38.6453 52.5 35.15 52.5 31.4463H51.5C51.5 34.8978 50.2199 38.1497 47.8837 40.6638L48.6163 41.3445ZM52.5 31.4463C52.5 31.4425 52.5 31.4388 52.5 31.435C52.5 31.4312 52.5 31.4274 52.5 31.4235C52.5 31.4196 52.5 31.4157 52.5 31.4117C52.5 31.4077 52.5 31.4037 52.5 31.3996C52.5 31.3955 52.5 31.3914 52.5 31.3872C52.5 31.3831 52.5 31.3788 52.5 31.3746C52.5 31.3703 52.5 31.366 52.5 31.3617C52.5 31.3573 52.5 31.3529 52.5 31.3485C52.5 31.344 52.5 31.3396 52.5 31.335C52.5 31.3305 52.5 31.3259 52.5 31.3213C52.5 31.3167 52.5 31.312 52.5 31.3073C52.5 31.3026 52.5 31.2978 52.5 31.293C52.5 31.2882 52.5 31.2834 52.5 31.2785C52.5 31.2736 52.5 31.2687 52.5 31.2637C52.5 31.2587 52.5 31.2537 52.5 31.2486C52.5 31.2435 52.5 31.2384 52.5 31.2333C52.5 31.2281 52.5 31.2229 52.5 31.2177C52.5 31.2124 52.5 31.2071 52.5 31.2018C52.5 31.1965 52.5 31.1911 52.5 31.1857C52.5 31.1802 52.5 31.1748 52.5 31.1693C52.5 31.1638 52.5 31.1582 52.5 31.1526C52.5 31.147 52.5 31.1414 52.5 31.1357C52.5 31.13 52.5 31.1243 52.5 31.1186C52.5 31.1128 52.5 31.107 52.5 31.1011C52.5 31.0953 52.5 31.0894 52.5 31.0835C52.5 31.0775 52.5 31.0715 52.5 31.0655C52.5 31.0595 52.5 31.0534 52.5 31.0473C52.5 31.0412 52.5 31.0351 52.5 31.0289C52.5 31.0227 52.5 31.0165 52.5 31.0102C52.5 31.004 52.5 30.9976 52.5 30.9913C52.5 30.9849 52.5 30.9785 52.5 30.9721C52.5 30.9657 52.5 30.9592 52.5 30.9527C52.5 30.9461 52.5 30.9396 52.5 30.933C52.5 30.9264 52.5 30.9197 52.5 30.9131C52.5 30.9064 52.5 30.8997 52.5 30.8929C52.5 30.8861 52.5 30.8793 52.5 30.8725C52.5 30.8656 52.5 30.8588 52.5 30.8518C52.5 30.8449 52.5 30.8379 52.5 30.8309C52.5 30.8239 52.5 30.8169 52.5 30.8098C52.5 30.8027 52.5 30.7956 52.5 30.7884C52.5 30.7813 52.5 30.7741 52.5 30.7668C52.5 30.7596 52.5 30.7523 52.5 30.745C52.5 30.7376 52.5 30.7303 52.5 30.7229C52.5 30.7155 52.5 30.708 52.5 30.7006C52.5 30.6931 52.5 30.6856 52.5 30.678C52.5 30.6705 52.5 30.6629 52.5 30.6552C52.5 30.6476 52.5 30.6399 52.5 30.6322C52.5 30.6245 52.5 30.6168 52.5 30.609C52.5 30.6012 52.5 30.5934 52.5 30.5855C52.5 30.5776 52.5 30.5697 52.5 30.5618C52.5 30.5539 52.5 30.5459 52.5 30.5379C52.5 30.5299 52.5 30.5218 52.5 30.5137C52.5 30.5056 52.5 30.4975 52.5 30.4894C52.5 30.4812 52.5 30.473 52.5 30.4648C52.5 30.4565 52.5 30.4482 52.5 30.4399C52.5 30.4316 52.5 30.4233 52.5 30.4149C52.5 30.4065 52.5 30.3981 52.5 30.3896C52.5 30.3812 52.5 30.3727 52.5 30.3641C52.5 30.3556 52.5 30.347 52.5 30.3384C52.5 30.3298 52.5 30.3212 52.5 30.3125C52.5 30.3039 52.5 30.2951 52.5 30.2864C52.5 30.2777 52.5 30.2689 52.5 30.2601C52.5 30.2512 52.5 30.2424 52.5 30.2335C52.5 30.2246 52.5 30.2157 52.5 30.2067C52.5 30.1978 52.5 30.1888 52.5 30.1797C52.5 30.1707 52.5 30.1616 52.5 30.1525C52.5 30.1434 52.5 30.1343 52.5 30.1251C52.5 30.116 52.5 30.1068 52.5 30.0975C52.5 30.0883 52.5 30.079 52.5 30.0697C52.5 30.0604 52.5 30.0511 52.5 30.0417C52.5 30.0323 52.5 30.0229 52.5 30.0135C52.5 30.004 52.5 29.9945 52.5 29.985C52.5 29.9755 52.5 29.966 52.5 29.9564C52.5 29.9468 52.5 29.9372 52.5 29.9276C52.5 29.9179 52.5 29.9082 52.5 29.8985C52.5 29.8888 52.5 29.8791 52.5 29.8693C52.5 29.8595 52.5 29.8497 52.5 29.8399C52.5 29.83 52.5 29.8202 52.5 29.8102C52.5 29.8003 52.5 29.7904 52.5 29.7804C52.5 29.7704 52.5 29.7604 52.5 29.7504C52.5 29.7404 52.5 29.7303 52.5 29.7202C52.5 29.7101 52.5 29.7 52.5 29.6898C52.5 29.6796 52.5 29.6694 52.5 29.6592C52.5 29.649 52.5 29.6387 52.5 29.6284C52.5 29.6181 52.5 29.6078 52.5 29.5974C52.5 29.5871 52.5 29.5767 52.5 29.5663C52.5 29.5558 52.5 29.5454 52.5 29.5349C52.5 29.5244 52.5 29.5139 52.5 29.5034C52.5 29.4928 52.5 29.4823 52.5 29.4717C52.5 29.4611 52.5 29.4504 52.5 29.4398C52.5 29.4291 52.5 29.4184 52.5 29.4077C52.5 29.3969 52.5 29.3862 52.5 29.3754C52.5 29.3646 52.5 29.3538 52.5 29.343C52.5 29.3321 52.5 29.3212 52.5 29.3103C52.5 29.2994 52.5 29.2885 52.5 29.2775C52.5 29.2666 52.5 29.2556 52.5 29.2445C52.5 29.2335 52.5 29.2225 52.5 29.2114C52.5 29.2003 52.5 29.1892 52.5 29.1781C52.5 29.1669 52.5 29.1557 52.5 29.1445C52.5 29.1333 52.5 29.1221 52.5 29.1109C52.5 29.0996 52.5 29.0883 52.5 29.077C52.5 29.0657 52.5 29.0544 52.5 29.043C52.5 29.0316 52.5 29.0202 52.5 29.0088C52.5 28.9974 52.5 28.9859 52.5 28.9744C52.5 28.963 52.5 28.9515 52.5 28.9399C52.5 28.9284 52.5 28.9168 52.5 28.9052C52.5 28.8936 52.5 28.882 52.5 28.8704C52.5 28.8587 52.5 28.8471 52.5 28.8354C52.5 28.8237 52.5 28.8119 52.5 28.8002C52.5 28.7884 52.5 28.7766 52.5 28.7648C52.5 28.753 52.5 28.7412 52.5 28.7293C52.5 28.7175 52.5 28.7056 52.5 28.6937C52.5 28.6817 52.5 28.6698 52.5 28.6578C52.5 28.6459 52.5 28.6339 52.5 28.6219C52.5 28.6098 52.5 28.5978 52.5 28.5857C52.5 28.5737 52.5 28.5616 52.5 28.5494C52.5 28.5373 52.5 28.5252 52.5 28.513C52.5 28.5008 52.5 28.4886 52.5 28.4764C52.5 28.4642 52.5 28.4519 52.5 28.4396C52.5 28.4274 52.5 28.4151 52.5 28.4027C52.5 28.3904 52.5 28.3781 52.5 28.3657C52.5 28.3533 52.5 28.3409 52.5 28.3285C52.5 28.3161 52.5 28.3036 52.5 28.2912C52.5 28.2787 52.5 28.2662 52.5 28.2537C52.5 28.2411 52.5 28.2286 52.5 28.216C52.5 28.2035 52.5 28.1909 52.5 28.1783C52.5 28.1656 52.5 28.153 52.5 28.1403C52.5 28.1277 52.5 28.115 52.5 28.1023C52.5 28.0896 52.5 28.0768 52.5 28.0641C52.5 28.0513 52.5 28.0385 52.5 28.0257C52.5 28.0129 52.5 28.0001 52.5 27.9872C52.5 27.9744 52.5 27.9615 52.5 27.9486C52.5 27.9357 52.5 27.9228 52.5 27.9099C52.5 27.8969 52.5 27.884 52.5 27.871C52.5 27.858 52.5 27.845 52.5 27.832C52.5 27.8189 52.5 27.8059 52.5 27.7928C52.5 27.7797 52.5 27.7666 52.5 27.7535C52.5 27.7404 52.5 27.7273 52.5 27.7141C52.5 27.7009 52.5 27.6877 52.5 27.6745C52.5 27.6613 52.5 27.6481 52.5 27.6349C52.5 27.6216 52.5 27.6083 52.5 27.5951C52.5 27.5818 52.5 27.5685 52.5 27.5551C52.5 27.5418 52.5 27.5284 52.5 27.5151C52.5 27.5017 52.5 27.4883 52.5 27.4749C52.5 27.4615 52.5 27.448 52.5 27.4346C52.5 27.4211 52.5 27.4077 52.5 27.3942C52.5 27.3807 52.5 27.3672 52.5 27.3536C52.5 27.3401 52.5 27.3265 52.5 27.313C52.5 27.2994 52.5 27.2858 52.5 27.2722C52.5 27.2586 52.5 27.2449 52.5 27.2313C52.5 27.2176 52.5 27.2039 52.5 27.1903C52.5 27.1766 52.5 27.1628 52.5 27.1491C52.5 27.1354 52.5 27.1216 52.5 27.1079C52.5 27.0941 52.5 27.0803 52.5 27.0665C52.5 27.0527 52.5 27.0389 52.5 27.025C52.5 27.0112 52.5 26.9973 52.5 26.9835C52.5 26.9696 52.5 26.9557 52.5 26.9418C52.5 26.9278 52.5 26.9139 52.5 26.9C52.5 26.886 52.5 26.872 52.5 26.8581C52.5 26.8441 52.5 26.8301 52.5 26.816C52.5 26.802 52.5 26.788 52.5 26.7739C52.5 26.7599 52.5 26.7458 52.5 26.7317C52.5 26.7176 52.5 26.7035 52.5 26.6894C52.5 26.6752 52.5 26.6611 52.5 26.6469C52.5 26.6328 52.5 26.6186 52.5 26.6044C52.5 26.5902 52.5 26.576 52.5 26.5618C52.5 26.5475 52.5 26.5333 52.5 26.519C52.5 26.5048 52.5 26.4905 52.5 26.4762C52.5 26.4619 52.5 26.4476 52.5 26.4333C52.5 26.419 52.5 26.4046 52.5 26.3903C52.5 26.3759 52.5 26.3616 52.5 26.3472C52.5 26.3328 52.5 26.3184 52.5 26.304C52.5 26.2895 52.5 26.2751 52.5 26.2607C52.5 26.2462 52.5 26.2318 52.5 26.2173C52.5 26.2028 52.5 26.1883 52.5 26.1738C52.5 26.1593 52.5 26.1448 52.5 26.1302C52.5 26.1157 52.5 26.1011 52.5 26.0866C52.5 26.072 52.5 26.0574 52.5 26.0428C52.5 26.0282 52.5 26.0136 52.5 25.999C52.5 25.9844 52.5 25.9697 52.5 25.9551C52.5 25.9404 52.5 25.9258 52.5 25.9111C52.5 25.8964 52.5 25.8817 52.5 25.867C52.5 25.8523 52.5 25.8376 52.5 25.8229C52.5 25.8081 52.5 25.7934 52.5 25.7786C52.5 25.7639 52.5 25.7491 52.5 25.7343C52.5 25.7195 52.5 25.7047 52.5 25.6899C52.5 25.6751 52.5 25.6603 52.5 25.6454C52.5 25.6306 52.5 25.6158 52.5 25.6009C52.5 25.586 52.5 25.5712 52.5 25.5563C52.5 25.5414 52.5 25.5265 52.5 25.5116C52.5 25.4967 52.5 25.4817 52.5 25.4668C52.5 25.4519 52.5 25.4369 52.5 25.422C52.5 25.407 52.5 25.392 52.5 25.3771C52.5 25.3621 52.5 25.3471 52.5 25.3321C52.5 25.3171 52.5 25.3021 52.5 25.287C52.5 25.272 52.5 25.257 52.5 25.2419C52.5 25.2269 52.5 25.2118 52.5 25.1968C52.5 25.1817 52.5 25.1666 52.5 25.1515C52.5 25.1364 52.5 25.1213 52.5 25.1062C52.5 25.0911 52.5 25.076 52.5 25.0608C52.5 25.0457 52.5 25.0306 52.5 25.0154C52.5 25.0003 52.5 24.9851 52.5 24.9699C52.5 24.9548 52.5 24.9396 52.5 24.9244C52.5 24.9092 52.5 24.894 52.5 24.8788C52.5 24.8636 52.5 24.8483 52.5 24.8331C52.5 24.8179 52.5 24.8026 52.5 24.7874C52.5 24.7721 52.5 24.7569 52.5 24.7416C52.5 24.7264 52.5 24.7111 52.5 24.6958C52.5 24.6805 52.5 24.6652 52.5 24.6499C52.5 24.6346 52.5 24.6193 52.5 24.604C52.5 24.5887 52.5 24.5733 52.5 24.558C52.5 24.5427 52.5 24.5273 52.5 24.512C52.5 24.4966 52.5 24.4813 52.5 24.4659C52.5 24.4505 52.5 24.4352 52.5 24.4198C52.5 24.4044 52.5 24.389 52.5 24.3736C52.5 24.3582 52.5 24.3428 52.5 24.3274C52.5 24.312 52.5 24.2966 52.5 24.2811C52.5 24.2657 52.5 24.2503 52.5 24.2348C52.5 24.2194 52.5 24.204 52.5 24.1885C52.5 24.173 52.5 24.1576 52.5 24.1421C52.5 24.1267 52.5 24.1112 52.5 24.0957C52.5 24.0802 52.5 24.0647 52.5 24.0492C52.5 24.0337 52.5 24.0182 52.5 24.0027C52.5 23.9872 52.5 23.9717 52.5 23.9562C52.5 23.9407 52.5 23.9252 52.5 23.9096C52.5 23.8941 52.5 23.8786 52.5 23.863C52.5 23.8475 52.5 23.832 52.5 23.8164C52.5 23.8009 52.5 23.7853 52.5 23.7698C52.5 23.7542 52.5 23.7386 52.5 23.7231C52.5 23.7075 52.5 23.6919 52.5 23.6763C52.5 23.6608 52.5 23.6452 52.5 23.6296C52.5 23.614 52.5 23.5984 52.5 23.5828C52.5 23.5672 52.5 23.5516 52.5 23.536C52.5 23.5204 52.5 23.5048 52.5 23.4892C52.5 23.4736 52.5 23.4579 52.5 23.4423C52.5 23.4267 52.5 23.4111 52.5 23.3954C52.5 23.3798 52.5 23.3642 52.5 23.3485C52.5 23.3329 52.5 23.3173 52.5 23.3016C52.5 23.286 52.5 23.2703 52.5 23.2547C52.5 23.239 52.5 23.2234 52.5 23.2077C52.5 23.1921 52.5 23.1764 52.5 23.1608C52.5 23.1451 52.5 23.1294 52.5 23.1138C52.5 23.0981 52.5 23.0824 52.5 23.0668C52.5 23.0511 52.5 23.0354 52.5 23.0198C52.5 23.0041 52.5 22.9884 52.5 22.9727C52.5 22.9571 52.5 22.9414 52.5 22.9257C52.5 22.91 52.5 22.8943 52.5 22.8786C52.5 22.863 52.5 22.8473 52.5 22.8316C52.5 22.8159 52.5 22.8002 52.5 22.7845C52.5 22.7688 52.5 22.7531 52.5 22.7374C52.5 22.7217 52.5 22.706 52.5 22.6904C52.5 22.6747 52.5 22.659 52.5 22.6433C52.5 22.6276 52.5 22.6119 52.5 22.5962C52.5 22.5805 52.5 22.5648 52.5 22.5491C52.5 22.5334 52.5 22.5177 52.5 22.502C52.5 22.4863 52.5 22.4706 52.5 22.4549C52.5 22.4392 52.5 22.4235 52.5 22.4078C52.5 22.3921 52.5 22.3764 52.5 22.3607C52.5 22.345 52.5 22.3293 52.5 22.3136C52.5 22.2979 52.5 22.2822 52.5 22.2665C52.5 22.2508 52.5 22.2351 52.5 22.2194C52.5 22.2038 52.5 22.1881 52.5 22.1724C52.5 22.1567 52.5 22.141 52.5 22.1253C52.5 22.1096 52.5 22.0939 52.5 22.0782C52.5 22.0626 52.5 22.0469 52.5 22.0312C52.5 22.0155 52.5 21.9998 52.5 21.9841C52.5 21.9685 52.5 21.9528 52.5 21.9371C52.5 21.9214 52.5 21.9058 52.5 21.8901C52.5 21.8744 52.5 21.8588 52.5 21.8431C52.5 21.8274 52.5 21.8118 52.5 21.7961C52.5 21.7805 52.5 21.7648 52.5 21.7491C52.5 21.7335 52.5 21.7178 52.5 21.7022C52.5 21.6865 52.5 21.6709 52.5 21.6552C52.5 21.6396 52.5 21.624 52.5 21.6083C52.5 21.5927 52.5 21.5771 52.5 21.5614C52.5 21.5458 52.5 21.5302 52.5 21.5146C52.5 21.4989 52.5 21.4833 52.5 21.4677C52.5 21.4521 52.5 21.4365 52.5 21.4209C52.5 21.4053 52.5 21.3897 52.5 21.3741C52.5 21.3585 52.5 21.3429 52.5 21.3273C52.5 21.3117 52.5 21.2961 52.5 21.2805C52.5 21.265 52.5 21.2494 52.5 21.2338C52.5 21.2183 52.5 21.2027 52.5 21.1871C52.5 21.1716 52.5 21.156 52.5 21.1405C52.5 21.1249 52.5 21.1094 52.5 21.0938C52.5 21.0783 52.5 21.0628 52.5 21.0472C52.5 21.0317 52.5 21.0162 52.5 21.0007C52.5 20.9852 52.5 20.9696 52.5 20.9541C52.5 20.9386 52.5 20.9231 52.5 20.9076C52.5 20.8922 52.5 20.8767 52.5 20.8612C52.5 20.8457 52.5 20.8302 52.5 20.8148C52.5 20.7993 52.5 20.7838 52.5 20.7684C52.5 20.7529 52.5 20.7375 52.5 20.722C52.5 20.7066 52.5 20.6912 52.5 20.6757C52.5 20.6603 52.5 20.6449 52.5 20.6295C52.5 20.6141 52.5 20.5987 52.5 20.5833C52.5 20.5679 52.5 20.5525 52.5 20.5371C52.5 20.5217 52.5 20.5063 52.5 20.491C52.5 20.4756 52.5 20.4603 52.5 20.4449C52.5 20.4296 52.5 20.4142 52.5 20.3989C52.5 20.3835 52.5 20.3682 52.5 20.3529C52.5 20.3376 52.5 20.3223 52.5 20.307C52.5 20.2917 52.5 20.2764 52.5 20.2611C52.5 20.2458 52.5 20.2305 52.5 20.2153C52.5 20.2 52.5 20.1847 52.5 20.1695C52.5 20.1542 52.5 20.139 52.5 20.1238C52.5 20.1085 52.5 20.0933 52.5 20.0781C52.5 20.0629 52.5 20.0477 52.5 20.0325C52.5 20.0173 52.5 20.0021 52.5 19.987C52.5 19.9718 52.5 19.9566 52.5 19.9415C52.5 19.9263 52.5 19.9112 52.5 19.896C52.5 19.8809 52.5 19.8658 52.5 19.8507C52.5 19.8356 52.5 19.8205 52.5 19.8054C52.5 19.7903 52.5 19.7752 52.5 19.7601C52.5 19.7451 52.5 19.73 52.5 19.715C52.5 19.6999 52.5 19.6849 52.5 19.6699C52.5 19.6548 52.5 19.6398 52.5 19.6248C52.5 19.6098 52.5 19.5948 52.5 19.5798C52.5 19.5648 52.5 19.5499 52.5 19.5349C52.5 19.52 52.5 19.505 52.5 19.4901C52.5 19.4752 52.5 19.4602 52.5 19.4453C52.5 19.4304 52.5 19.4155 52.5 19.4006C52.5 19.3857 52.5 19.3709 52.5 19.356C52.5 19.3411 52.5 19.3263 52.5 19.3115C52.5 19.2966 52.5 19.2818 52.5 19.267C52.5 19.2522 52.5 19.2374 52.5 19.2226C52.5 19.2078 52.5 19.193 52.5 19.1783C52.5 19.1635 52.5 19.1488 52.5 19.134C52.5 19.1193 52.5 19.1046 52.5 19.0899C52.5 19.0752 52.5 19.0605 52.5 19.0458C52.5 19.0311 52.5 19.0165 52.5 19.0018C52.5 18.9872 52.5 18.9725 52.5 18.9579C52.5 18.9433 52.5 18.9287 52.5 18.9141C52.5 18.8995 52.5 18.8849 52.5 18.8703C52.5 18.8558 52.5 18.8412 52.5 18.8267C52.5 18.8121 52.5 18.7976 52.5 18.7831C52.5 18.7686 52.5 18.7541 52.5 18.7396C52.5 18.7252 52.5 18.7107 52.5 18.6963C52.5 18.6818 52.5 18.6674 52.5 18.653C52.5 18.6385 52.5 18.6241 52.5 18.6097C52.5 18.5954 52.5 18.581 52.5 18.5666C52.5 18.5523 52.5 18.5379 52.5 18.5236C52.5 18.5093 52.5 18.495 52.5 18.4807C52.5 18.4664 52.5 18.4521 52.5 18.4379C52.5 18.4236 52.5 18.4094 52.5 18.3951C52.5 18.3809 52.5 18.3667 52.5 18.3525C52.5 18.3383 52.5 18.3241 52.5 18.31C52.5 18.2958 52.5 18.2817 52.5 18.2676C52.5 18.2534 52.5 18.2393 52.5 18.2252C52.5 18.2111 52.5 18.1971 52.5 18.183C52.5 18.1689 52.5 18.1549 52.5 18.1409C52.5 18.1269 52.5 18.1129 52.5 18.0989C52.5 18.0849 52.5 18.0709 52.5 18.057C52.5 18.043 52.5 18.0291 52.5 18.0152C52.5 18.0012 52.5 17.9874 52.5 17.9735C52.5 17.9596 52.5 17.9457 52.5 17.9319C52.5 17.918 52.5 17.9042 52.5 17.8904C52.5 17.8766 52.5 17.8628 52.5 17.8491C52.5 17.8353 52.5 17.8215 52.5 17.8078C52.5 17.7941 52.5 17.7804 52.5 17.7667C52.5 17.753 52.5 17.7393 52.5 17.7257C52.5 17.712 52.5 17.6984 52.5 17.6848C52.5 17.6712 52.5 17.6576 52.5 17.644C52.5 17.6304 52.5 17.6169 52.5 17.6033C52.5 17.5898 52.5 17.5763 52.5 17.5628C52.5 17.5493 52.5 17.5358 52.5 17.5224C52.5 17.5089 52.5 17.4955 52.5 17.482C52.5 17.4686 52.5 17.4552 52.5 17.4419C52.5 17.4285 52.5 17.4151 52.5 17.4018C52.5 17.3885 52.5 17.3752 52.5 17.3619C52.5 17.3486 52.5 17.3353 52.5 17.3221C52.5 17.3088 52.5 17.2956 52.5 17.2824C52.5 17.2692 52.5 17.256 52.5 17.2429C52.5 17.2297 52.5 17.2166 52.5 17.2034C52.5 17.1903 52.5 17.1772 52.5 17.1642C52.5 17.1511 52.5 17.138 52.5 17.125C52.5 17.112 52.5 17.099 52.5 17.086C52.5 17.073 52.5 17.06 52.5 17.0471C52.5 17.0341 52.5 17.0212 52.5 17.0083C52.5 16.9954 52.5 16.9826 52.5 16.9697C52.5 16.9569 52.5 16.944 52.5 16.9312C52.5 16.9184 52.5 16.9056 52.5 16.8929C52.5 16.8801 52.5 16.8674 52.5 16.8547C52.5 16.842 52.5 16.8293 52.5 16.8166C52.5 16.804 52.5 16.7913 52.5 16.7787C52.5 16.7661 52.5 16.7535 52.5 16.7409C52.5 16.7284 52.5 16.7158 52.5 16.7033C52.5 16.6908 52.5 16.6783 52.5 16.6658C52.5 16.6533 52.5 16.6409 52.5 16.6285C52.5 16.616 52.5 16.6036 52.5 16.5913C52.5 16.5789 52.5 16.5665 52.5 16.5542C52.5 16.5419 52.5 16.5296 52.5 16.5173C52.5 16.5051 52.5 16.4928 52.5 16.4806C52.5 16.4684 52.5 16.4562 52.5 16.444C52.5 16.4318 52.5 16.4197 52.5 16.4075C52.5 16.3954 52.5 16.3833 52.5 16.3713C52.5 16.3592 52.5 16.3471 52.5 16.3351C52.5 16.3231 52.5 16.3111 52.5 16.2991C52.5 16.2872 52.5 16.2752 52.5 16.2633C52.5 16.2514 52.5 16.2395 52.5 16.2277C52.5 16.2158 52.5 16.204 52.5 16.1922C52.5 16.1803 52.5 16.1686 52.5 16.1568C52.5 16.1451 52.5 16.1333 52.5 16.1216C52.5 16.1099 52.5 16.0983 52.5 16.0866C52.5 16.075 52.5 16.0634 52.5 16.0518C52.5 16.0402 52.5 16.0286 52.5 16.0171C52.5 16.0055 52.5 15.994 52.5 15.9825C52.5 15.9711 52.5 15.9596 52.5 15.9482C52.5 15.9368 52.5 15.9254 52.5 15.914C52.5 15.9026 52.5 15.8913 52.5 15.88C52.5 15.8687 52.5 15.8574 52.5 15.8461C52.5 15.8349 52.5 15.8237 52.5 15.8125C52.5 15.8013 52.5 15.7901 52.5 15.779C52.5 15.7678 52.5 15.7567 52.5 15.7456C52.5 15.7345 52.5 15.7235 52.5 15.7125C52.5 15.7014 52.5 15.6904 52.5 15.6795C52.5 15.6685 52.5 15.6576 52.5 15.6467C52.5 15.6358 52.5 15.6249 52.5 15.6141C52.5 15.6032 52.5 15.5924 52.5 15.5816C52.5 15.5708 52.5 15.5601 52.5 15.5493C52.5 15.5386 52.5 15.5279 52.5 15.5173C52.5 15.5066 52.5 15.496 52.5 15.4854C52.5 15.4748 52.5 15.4642 52.5 15.4536C52.5 15.4431 52.5 15.4326 52.5 15.4221C52.5 15.4116 52.5 15.4012 52.5 15.3908C52.5 15.3803 52.5 15.37 52.5 15.3596C52.5 15.3492 52.5 15.3389 52.5 15.3286C52.5 15.3183 52.5 15.3081 52.5 15.2978C52.5 15.2876 52.5 15.2774 52.5 15.2672C52.5 15.2571 52.5 15.2469 52.5 15.2368C52.5 15.2267 52.5 15.2167 52.5 15.2066C52.5 15.1966 52.5 15.1866 52.5 15.1766C52.5 15.1666 52.5 15.1567 52.5 15.1468C52.5 15.1369 52.5 15.127 52.5 15.1172C52.5 15.1073 52.5 15.0975 52.5 15.0877C52.5 15.078 52.5 15.0682 52.5 15.0585C52.5 15.0488 52.5 15.0391 52.5 15.0295C52.5 15.0198 52.5 15.0102 52.5 15.0006C52.5 14.9911 52.5 14.9815 52.5 14.972C52.5 14.9625 52.5 14.953 52.5 14.9436C52.5 14.9341 52.5 14.9247 52.5 14.9154C52.5 14.906 52.5 14.8966 52.5 14.8873C52.5 14.878 52.5 14.8688 52.5 14.8595C52.5 14.8503 52.5 14.8411 52.5 14.8319C52.5 14.8228 52.5 14.8136 52.5 14.8045C52.5 14.7954 52.5 14.7864 52.5 14.7773C52.5 14.7683 52.5 14.7593 52.5 14.7503C52.5 14.7414 52.5 14.7325 52.5 14.7236C52.5 14.7147 52.5 14.7058 52.5 14.697C52.5 14.6882 52.5 14.6794 52.5 14.6707C52.5 14.6619 52.5 14.6532 52.5 14.6445C52.5 14.6359 52.5 14.6272 52.5 14.6186C52.5 14.61 52.5 14.6015 52.5 14.5929C52.5 14.5844 52.5 14.5759 52.5 14.5675C52.5 14.559 52.5 14.5506 52.5 14.5422C52.5 14.5338 52.5 14.5255 52.5 14.5172C52.5 14.5088 52.5 14.5006 52.5 14.4923C52.5 14.4841 52.5 14.4759 52.5 14.4677C52.5 14.4596 52.5 14.4514 52.5 14.4434C52.5 14.4353 52.5 14.4272 52.5 14.4192C52.5 14.4112 52.5 14.4032 52.5 14.3953C52.5 14.3873 52.5 14.3794 52.5 14.3716C52.5 14.3637 52.5 14.3559 52.5 14.3481C52.5 14.3403 52.5 14.3326 52.5 14.3249C52.5 14.3172 52.5 14.3095 52.5 14.3019C52.5 14.2942 52.5 14.2866 52.5 14.2791C52.5 14.2715 52.5 14.264 52.5 14.2565C52.5 14.2491 52.5 14.2416 52.5 14.2342C52.5 14.2268 52.5 14.2195 52.5 14.2121C52.5 14.2048 52.5 14.1975 52.5 14.1903C52.5 14.1831 52.5 14.1759 52.5 14.1687C52.5 14.1615 52.5 14.1544 52.5 14.1473C52.5 14.1402 52.5 14.1332 52.5 14.1262C52.5 14.1192 52.5 14.1122 52.5 14.1053C52.5 14.0984 52.5 14.0915 52.5 14.0846C52.5 14.0778 52.5 14.071 52.5 14.0642C52.5 14.0575 52.5 14.0507 52.5 14.0441C52.5 14.0374 52.5 14.0307 52.5 14.0241C52.5 14.0175 52.5 14.011 52.5 14.0045C52.5 13.9979 52.5 13.9915 52.5 13.985C52.5 13.9786 52.5 13.9722 52.5 13.9659C52.5 13.9595 52.5 13.9532 52.5 13.9469C52.5 13.9407 52.5 13.9344 52.5 13.9282C52.5 13.9221 52.5 13.9159 52.5 13.9098C52.5 13.9037 52.5 13.8976 52.5 13.8916C52.5 13.8856 52.5 13.8796 52.5 13.8737C52.5 13.8678 52.5 13.8619 52.5 13.856C52.5 13.8502 52.5 13.8444 52.5 13.8386C52.5 13.8328 52.5 13.8271 52.5 13.8214C52.5 13.8158 52.5 13.8101 52.5 13.8045C52.5 13.7989 52.5 13.7934 52.5 13.7879C52.5 13.7824 52.5 13.7769 52.5 13.7715C52.5 13.7661 52.5 13.7607 52.5 13.7554C52.5 13.75 52.5 13.7448 52.5 13.7395C52.5 13.7343 52.5 13.7291 52.5 13.7239C52.5 13.7188 52.5 13.7136 52.5 13.7086C52.5 13.7035 52.5 13.6985 52.5 13.6935C52.5 13.6885 52.5 13.6836 52.5 13.6787C52.5 13.6738 52.5 13.669 52.5 13.6642C52.5 13.6594 52.5 13.6546 52.5 13.6499C52.5 13.6452 52.5 13.6405 52.5 13.6359C52.5 13.6313 52.5 13.6267 52.5 13.6222C52.5 13.6176 52.5 13.6131 52.5 13.6087C52.5 13.6043 52.5 13.5999 52.5 13.5955C52.5 13.5912 52.5 13.5869 52.5 13.5826C52.5 13.5783 52.5 13.5741 52.5 13.57C52.5 13.5658 52.5 13.5617 52.5 13.5576C52.5 13.5535 52.5 13.5495 52.5 13.5455C52.5 13.5416 52.5 13.5376 52.5 13.5337C52.5 13.5298 52.5 13.526 52.5 13.5222C52.5 13.5184 52.5 13.5147 52.5 13.511C52.5 13.5073 52.5 13.5036 52.5 13.5H51.5C51.5 13.5036 51.5 13.5073 51.5 13.511C51.5 13.5147 51.5 13.5184 51.5 13.5222C51.5 13.526 51.5 13.5298 51.5 13.5337C51.5 13.5376 51.5 13.5416 51.5 13.5455C51.5 13.5495 51.5 13.5535 51.5 13.5576C51.5 13.5617 51.5 13.5658 51.5 13.57C51.5 13.5741 51.5 13.5783 51.5 13.5826C51.5 13.5869 51.5 13.5912 51.5 13.5955C51.5 13.5999 51.5 13.6043 51.5 13.6087C51.5 13.6131 51.5 13.6176 51.5 13.6222C51.5 13.6267 51.5 13.6313 51.5 13.6359C51.5 13.6405 51.5 13.6452 51.5 13.6499C51.5 13.6546 51.5 13.6594 51.5 13.6642C51.5 13.669 51.5 13.6738 51.5 13.6787C51.5 13.6836 51.5 13.6885 51.5 13.6935C51.5 13.6985 51.5 13.7035 51.5 13.7086C51.5 13.7136 51.5 13.7188 51.5 13.7239C51.5 13.7291 51.5 13.7343 51.5 13.7395C51.5 13.7448 51.5 13.75 51.5 13.7554C51.5 13.7607 51.5 13.7661 51.5 13.7715C51.5 13.7769 51.5 13.7824 51.5 13.7879C51.5 13.7934 51.5 13.7989 51.5 13.8045C51.5 13.8101 51.5 13.8158 51.5 13.8214C51.5 13.8271 51.5 13.8328 51.5 13.8386C51.5 13.8444 51.5 13.8502 51.5 13.856C51.5 13.8619 51.5 13.8678 51.5 13.8737C51.5 13.8796 51.5 13.8856 51.5 13.8916C51.5 13.8976 51.5 13.9037 51.5 13.9098C51.5 13.9159 51.5 13.9221 51.5 13.9282C51.5 13.9344 51.5 13.9407 51.5 13.9469C51.5 13.9532 51.5 13.9595 51.5 13.9659C51.5 13.9722 51.5 13.9786 51.5 13.985C51.5 13.9915 51.5 13.9979 51.5 14.0045C51.5 14.011 51.5 14.0175 51.5 14.0241C51.5 14.0307 51.5 14.0374 51.5 14.0441C51.5 14.0507 51.5 14.0575 51.5 14.0642C51.5 14.071 51.5 14.0778 51.5 14.0846C51.5 14.0915 51.5 14.0984 51.5 14.1053C51.5 14.1122 51.5 14.1192 51.5 14.1262C51.5 14.1332 51.5 14.1402 51.5 14.1473C51.5 14.1544 51.5 14.1615 51.5 14.1687C51.5 14.1759 51.5 14.1831 51.5 14.1903C51.5 14.1975 51.5 14.2048 51.5 14.2121C51.5 14.2195 51.5 14.2268 51.5 14.2342C51.5 14.2416 51.5 14.2491 51.5 14.2565C51.5 14.264 51.5 14.2715 51.5 14.2791C51.5 14.2866 51.5 14.2942 51.5 14.3019C51.5 14.3095 51.5 14.3172 51.5 14.3249C51.5 14.3326 51.5 14.3403 51.5 14.3481C51.5 14.3559 51.5 14.3637 51.5 14.3716C51.5 14.3794 51.5 14.3873 51.5 14.3953C51.5 14.4032 51.5 14.4112 51.5 14.4192C51.5 14.4272 51.5 14.4353 51.5 14.4434C51.5 14.4514 51.5 14.4596 51.5 14.4677C51.5 14.4759 51.5 14.4841 51.5 14.4923C51.5 14.5006 51.5 14.5088 51.5 14.5172C51.5 14.5255 51.5 14.5338 51.5 14.5422C51.5 14.5506 51.5 14.559 51.5 14.5675C51.5 14.5759 51.5 14.5844 51.5 14.5929C51.5 14.6015 51.5 14.61 51.5 14.6186C51.5 14.6272 51.5 14.6359 51.5 14.6445C51.5 14.6532 51.5 14.6619 51.5 14.6707C51.5 14.6794 51.5 14.6882 51.5 14.697C51.5 14.7058 51.5 14.7147 51.5 14.7236C51.5 14.7325 51.5 14.7414 51.5 14.7503C51.5 14.7593 51.5 14.7683 51.5 14.7773C51.5 14.7864 51.5 14.7954 51.5 14.8045C51.5 14.8136 51.5 14.8228 51.5 14.8319C51.5 14.8411 51.5 14.8503 51.5 14.8595C51.5 14.8688 51.5 14.878 51.5 14.8873C51.5 14.8966 51.5 14.906 51.5 14.9154C51.5 14.9247 51.5 14.9341 51.5 14.9436C51.5 14.953 51.5 14.9625 51.5 14.972C51.5 14.9815 51.5 14.9911 51.5 15.0006C51.5 15.0102 51.5 15.0198 51.5 15.0295C51.5 15.0391 51.5 15.0488 51.5 15.0585C51.5 15.0682 51.5 15.078 51.5 15.0877C51.5 15.0975 51.5 15.1073 51.5 15.1172C51.5 15.127 51.5 15.1369 51.5 15.1468C51.5 15.1567 51.5 15.1666 51.5 15.1766C51.5 15.1866 51.5 15.1966 51.5 15.2066C51.5 15.2167 51.5 15.2267 51.5 15.2368C51.5 15.2469 51.5 15.2571 51.5 15.2672C51.5 15.2774 51.5 15.2876 51.5 15.2978C51.5 15.3081 51.5 15.3183 51.5 15.3286C51.5 15.3389 51.5 15.3492 51.5 15.3596C51.5 15.37 51.5 15.3803 51.5 15.3908C51.5 15.4012 51.5 15.4116 51.5 15.4221C51.5 15.4326 51.5 15.4431 51.5 15.4536C51.5 15.4642 51.5 15.4748 51.5 15.4854C51.5 15.496 51.5 15.5066 51.5 15.5173C51.5 15.5279 51.5 15.5386 51.5 15.5493C51.5 15.5601 51.5 15.5708 51.5 15.5816C51.5 15.5924 51.5 15.6032 51.5 15.6141C51.5 15.6249 51.5 15.6358 51.5 15.6467C51.5 15.6576 51.5 15.6685 51.5 15.6795C51.5 15.6904 51.5 15.7014 51.5 15.7125C51.5 15.7235 51.5 15.7345 51.5 15.7456C51.5 15.7567 51.5 15.7678 51.5 15.779C51.5 15.7901 51.5 15.8013 51.5 15.8125C51.5 15.8237 51.5 15.8349 51.5 15.8461C51.5 15.8574 51.5 15.8687 51.5 15.88C51.5 15.8913 51.5 15.9026 51.5 15.914C51.5 15.9254 51.5 15.9368 51.5 15.9482C51.5 15.9596 51.5 15.9711 51.5 15.9825C51.5 15.994 51.5 16.0055 51.5 16.0171C51.5 16.0286 51.5 16.0402 51.5 16.0518C51.5 16.0634 51.5 16.075 51.5 16.0866C51.5 16.0983 51.5 16.1099 51.5 16.1216C51.5 16.1333 51.5 16.1451 51.5 16.1568C51.5 16.1686 51.5 16.1803 51.5 16.1922C51.5 16.204 51.5 16.2158 51.5 16.2277C51.5 16.2395 51.5 16.2514 51.5 16.2633C51.5 16.2752 51.5 16.2872 51.5 16.2991C51.5 16.3111 51.5 16.3231 51.5 16.3351C51.5 16.3471 51.5 16.3592 51.5 16.3713C51.5 16.3833 51.5 16.3954 51.5 16.4075C51.5 16.4197 51.5 16.4318 51.5 16.444C51.5 16.4562 51.5 16.4684 51.5 16.4806C51.5 16.4928 51.5 16.5051 51.5 16.5173C51.5 16.5296 51.5 16.5419 51.5 16.5542C51.5 16.5665 51.5 16.5789 51.5 16.5913C51.5 16.6036 51.5 16.616 51.5 16.6285C51.5 16.6409 51.5 16.6533 51.5 16.6658C51.5 16.6783 51.5 16.6908 51.5 16.7033C51.5 16.7158 51.5 16.7284 51.5 16.7409C51.5 16.7535 51.5 16.7661 51.5 16.7787C51.5 16.7913 51.5 16.804 51.5 16.8166C51.5 16.8293 51.5 16.842 51.5 16.8547C51.5 16.8674 51.5 16.8801 51.5 16.8929C51.5 16.9056 51.5 16.9184 51.5 16.9312C51.5 16.944 51.5 16.9569 51.5 16.9697C51.5 16.9826 51.5 16.9954 51.5 17.0083C51.5 17.0212 51.5 17.0341 51.5 17.0471C51.5 17.06 51.5 17.073 51.5 17.086C51.5 17.099 51.5 17.112 51.5 17.125C51.5 17.138 51.5 17.1511 51.5 17.1642C51.5 17.1772 51.5 17.1903 51.5 17.2034C51.5 17.2166 51.5 17.2297 51.5 17.2429C51.5 17.256 51.5 17.2692 51.5 17.2824C51.5 17.2956 51.5 17.3088 51.5 17.3221C51.5 17.3353 51.5 17.3486 51.5 17.3619C51.5 17.3752 51.5 17.3885 51.5 17.4018C51.5 17.4151 51.5 17.4285 51.5 17.4419C51.5 17.4552 51.5 17.4686 51.5 17.482C51.5 17.4955 51.5 17.5089 51.5 17.5224C51.5 17.5358 51.5 17.5493 51.5 17.5628C51.5 17.5763 51.5 17.5898 51.5 17.6033C51.5 17.6169 51.5 17.6304 51.5 17.644C51.5 17.6576 51.5 17.6712 51.5 17.6848C51.5 17.6984 51.5 17.712 51.5 17.7257C51.5 17.7393 51.5 17.753 51.5 17.7667C51.5 17.7804 51.5 17.7941 51.5 17.8078C51.5 17.8215 51.5 17.8353 51.5 17.8491C51.5 17.8628 51.5 17.8766 51.5 17.8904C51.5 17.9042 51.5 17.918 51.5 17.9319C51.5 17.9457 51.5 17.9596 51.5 17.9735C51.5 17.9874 51.5 18.0012 51.5 18.0152C51.5 18.0291 51.5 18.043 51.5 18.057C51.5 18.0709 51.5 18.0849 51.5 18.0989C51.5 18.1129 51.5 18.1269 51.5 18.1409C51.5 18.1549 51.5 18.1689 51.5 18.183C51.5 18.1971 51.5 18.2111 51.5 18.2252C51.5 18.2393 51.5 18.2534 51.5 18.2676C51.5 18.2817 51.5 18.2958 51.5 18.31C51.5 18.3241 51.5 18.3383 51.5 18.3525C51.5 18.3667 51.5 18.3809 51.5 18.3951C51.5 18.4094 51.5 18.4236 51.5 18.4379C51.5 18.4521 51.5 18.4664 51.5 18.4807C51.5 18.495 51.5 18.5093 51.5 18.5236C51.5 18.5379 51.5 18.5523 51.5 18.5666C51.5 18.581 51.5 18.5954 51.5 18.6097C51.5 18.6241 51.5 18.6385 51.5 18.653C51.5 18.6674 51.5 18.6818 51.5 18.6963C51.5 18.7107 51.5 18.7252 51.5 18.7396C51.5 18.7541 51.5 18.7686 51.5 18.7831C51.5 18.7976 51.5 18.8121 51.5 18.8267C51.5 18.8412 51.5 18.8558 51.5 18.8703C51.5 18.8849 51.5 18.8995 51.5 18.9141C51.5 18.9287 51.5 18.9433 51.5 18.9579C51.5 18.9725 51.5 18.9872 51.5 19.0018C51.5 19.0165 51.5 19.0311 51.5 19.0458C51.5 19.0605 51.5 19.0752 51.5 19.0899C51.5 19.1046 51.5 19.1193 51.5 19.134C51.5 19.1488 51.5 19.1635 51.5 19.1783C51.5 19.193 51.5 19.2078 51.5 19.2226C51.5 19.2374 51.5 19.2522 51.5 19.267C51.5 19.2818 51.5 19.2966 51.5 19.3115C51.5 19.3263 51.5 19.3411 51.5 19.356C51.5 19.3709 51.5 19.3857 51.5 19.4006C51.5 19.4155 51.5 19.4304 51.5 19.4453C51.5 19.4602 51.5 19.4752 51.5 19.4901C51.5 19.505 51.5 19.52 51.5 19.5349C51.5 19.5499 51.5 19.5648 51.5 19.5798C51.5 19.5948 51.5 19.6098 51.5 19.6248C51.5 19.6398 51.5 19.6548 51.5 19.6699C51.5 19.6849 51.5 19.6999 51.5 19.715C51.5 19.73 51.5 19.7451 51.5 19.7601C51.5 19.7752 51.5 19.7903 51.5 19.8054C51.5 19.8205 51.5 19.8356 51.5 19.8507C51.5 19.8658 51.5 19.8809 51.5 19.896C51.5 19.9112 51.5 19.9263 51.5 19.9415C51.5 19.9566 51.5 19.9718 51.5 19.987C51.5 20.0021 51.5 20.0173 51.5 20.0325C51.5 20.0477 51.5 20.0629 51.5 20.0781C51.5 20.0933 51.5 20.1085 51.5 20.1238C51.5 20.139 51.5 20.1542 51.5 20.1695C51.5 20.1847 51.5 20.2 51.5 20.2153C51.5 20.2305 51.5 20.2458 51.5 20.2611C51.5 20.2764 51.5 20.2917 51.5 20.307C51.5 20.3223 51.5 20.3376 51.5 20.3529C51.5 20.3682 51.5 20.3835 51.5 20.3989C51.5 20.4142 51.5 20.4296 51.5 20.4449C51.5 20.4603 51.5 20.4756 51.5 20.491C51.5 20.5063 51.5 20.5217 51.5 20.5371C51.5 20.5525 51.5 20.5679 51.5 20.5833C51.5 20.5987 51.5 20.6141 51.5 20.6295C51.5 20.6449 51.5 20.6603 51.5 20.6757C51.5 20.6912 51.5 20.7066 51.5 20.722C51.5 20.7375 51.5 20.7529 51.5 20.7684C51.5 20.7838 51.5 20.7993 51.5 20.8148C51.5 20.8302 51.5 20.8457 51.5 20.8612C51.5 20.8767 51.5 20.8922 51.5 20.9076C51.5 20.9231 51.5 20.9386 51.5 20.9541C51.5 20.9696 51.5 20.9852 51.5 21.0007C51.5 21.0162 51.5 21.0317 51.5 21.0472C51.5 21.0628 51.5 21.0783 51.5 21.0938C51.5 21.1094 51.5 21.1249 51.5 21.1405C51.5 21.156 51.5 21.1716 51.5 21.1871C51.5 21.2027 51.5 21.2183 51.5 21.2338C51.5 21.2494 51.5 21.265 51.5 21.2805C51.5 21.2961 51.5 21.3117 51.5 21.3273C51.5 21.3429 51.5 21.3585 51.5 21.3741C51.5 21.3897 51.5 21.4053 51.5 21.4209C51.5 21.4365 51.5 21.4521 51.5 21.4677C51.5 21.4833 51.5 21.4989 51.5 21.5146C51.5 21.5302 51.5 21.5458 51.5 21.5614C51.5 21.5771 51.5 21.5927 51.5 21.6083C51.5 21.624 51.5 21.6396 51.5 21.6552C51.5 21.6709 51.5 21.6865 51.5 21.7022C51.5 21.7178 51.5 21.7335 51.5 21.7491C51.5 21.7648 51.5 21.7805 51.5 21.7961C51.5 21.8118 51.5 21.8274 51.5 21.8431C51.5 21.8588 51.5 21.8744 51.5 21.8901C51.5 21.9058 51.5 21.9214 51.5 21.9371C51.5 21.9528 51.5 21.9685 51.5 21.9841C51.5 21.9998 51.5 22.0155 51.5 22.0312C51.5 22.0469 51.5 22.0626 51.5 22.0782C51.5 22.0939 51.5 22.1096 51.5 22.1253C51.5 22.141 51.5 22.1567 51.5 22.1724C51.5 22.1881 51.5 22.2038 51.5 22.2194C51.5 22.2351 51.5 22.2508 51.5 22.2665C51.5 22.2822 51.5 22.2979 51.5 22.3136C51.5 22.3293 51.5 22.345 51.5 22.3607C51.5 22.3764 51.5 22.3921 51.5 22.4078C51.5 22.4235 51.5 22.4392 51.5 22.4549C51.5 22.4706 51.5 22.4863 51.5 22.502C51.5 22.5177 51.5 22.5334 51.5 22.5491C51.5 22.5648 51.5 22.5805 51.5 22.5962C51.5 22.6119 51.5 22.6276 51.5 22.6433C51.5 22.659 51.5 22.6747 51.5 22.6904C51.5 22.706 51.5 22.7217 51.5 22.7374C51.5 22.7531 51.5 22.7688 51.5 22.7845C51.5 22.8002 51.5 22.8159 51.5 22.8316C51.5 22.8473 51.5 22.863 51.5 22.8786C51.5 22.8943 51.5 22.91 51.5 22.9257C51.5 22.9414 51.5 22.9571 51.5 22.9727C51.5 22.9884 51.5 23.0041 51.5 23.0198C51.5 23.0354 51.5 23.0511 51.5 23.0668C51.5 23.0824 51.5 23.0981 51.5 23.1138C51.5 23.1294 51.5 23.1451 51.5 23.1608C51.5 23.1764 51.5 23.1921 51.5 23.2077C51.5 23.2234 51.5 23.239 51.5 23.2547C51.5 23.2703 51.5 23.286 51.5 23.3016C51.5 23.3173 51.5 23.3329 51.5 23.3485C51.5 23.3642 51.5 23.3798 51.5 23.3954C51.5 23.4111 51.5 23.4267 51.5 23.4423C51.5 23.4579 51.5 23.4736 51.5 23.4892C51.5 23.5048 51.5 23.5204 51.5 23.536C51.5 23.5516 51.5 23.5672 51.5 23.5828C51.5 23.5984 51.5 23.614 51.5 23.6296C51.5 23.6452 51.5 23.6608 51.5 23.6763C51.5 23.6919 51.5 23.7075 51.5 23.7231C51.5 23.7386 51.5 23.7542 51.5 23.7698C51.5 23.7853 51.5 23.8009 51.5 23.8164C51.5 23.832 51.5 23.8475 51.5 23.863C51.5 23.8786 51.5 23.8941 51.5 23.9096C51.5 23.9252 51.5 23.9407 51.5 23.9562C51.5 23.9717 51.5 23.9872 51.5 24.0027C51.5 24.0182 51.5 24.0337 51.5 24.0492C51.5 24.0647 51.5 24.0802 51.5 24.0957C51.5 24.1112 51.5 24.1267 51.5 24.1421C51.5 24.1576 51.5 24.173 51.5 24.1885C51.5 24.204 51.5 24.2194 51.5 24.2348C51.5 24.2503 51.5 24.2657 51.5 24.2811C51.5 24.2966 51.5 24.312 51.5 24.3274C51.5 24.3428 51.5 24.3582 51.5 24.3736C51.5 24.389 51.5 24.4044 51.5 24.4198C51.5 24.4352 51.5 24.4505 51.5 24.4659C51.5 24.4813 51.5 24.4966 51.5 24.512C51.5 24.5273 51.5 24.5427 51.5 24.558C51.5 24.5733 51.5 24.5887 51.5 24.604C51.5 24.6193 51.5 24.6346 51.5 24.6499C51.5 24.6652 51.5 24.6805 51.5 24.6958C51.5 24.7111 51.5 24.7264 51.5 24.7416C51.5 24.7569 51.5 24.7721 51.5 24.7874C51.5 24.8026 51.5 24.8179 51.5 24.8331C51.5 24.8483 51.5 24.8636 51.5 24.8788C51.5 24.894 51.5 24.9092 51.5 24.9244C51.5 24.9396 51.5 24.9548 51.5 24.9699C51.5 24.9851 51.5 25.0003 51.5 25.0154C51.5 25.0306 51.5 25.0457 51.5 25.0608C51.5 25.076 51.5 25.0911 51.5 25.1062C51.5 25.1213 51.5 25.1364 51.5 25.1515C51.5 25.1666 51.5 25.1817 51.5 25.1968C51.5 25.2118 51.5 25.2269 51.5 25.2419C51.5 25.257 51.5 25.272 51.5 25.287C51.5 25.3021 51.5 25.3171 51.5 25.3321C51.5 25.3471 51.5 25.3621 51.5 25.3771C51.5 25.392 51.5 25.407 51.5 25.422C51.5 25.4369 51.5 25.4519 51.5 25.4668C51.5 25.4817 51.5 25.4967 51.5 25.5116C51.5 25.5265 51.5 25.5414 51.5 25.5563C51.5 25.5712 51.5 25.586 51.5 25.6009C51.5 25.6158 51.5 25.6306 51.5 25.6454C51.5 25.6603 51.5 25.6751 51.5 25.6899C51.5 25.7047 51.5 25.7195 51.5 25.7343C51.5 25.7491 51.5 25.7639 51.5 25.7786C51.5 25.7934 51.5 25.8081 51.5 25.8229C51.5 25.8376 51.5 25.8523 51.5 25.867C51.5 25.8817 51.5 25.8964 51.5 25.9111C51.5 25.9258 51.5 25.9404 51.5 25.9551C51.5 25.9697 51.5 25.9844 51.5 25.999C51.5 26.0136 51.5 26.0282 51.5 26.0428C51.5 26.0574 51.5 26.072 51.5 26.0866C51.5 26.1011 51.5 26.1157 51.5 26.1302C51.5 26.1448 51.5 26.1593 51.5 26.1738C51.5 26.1883 51.5 26.2028 51.5 26.2173C51.5 26.2318 51.5 26.2462 51.5 26.2607C51.5 26.2751 51.5 26.2895 51.5 26.304C51.5 26.3184 51.5 26.3328 51.5 26.3472C51.5 26.3616 51.5 26.3759 51.5 26.3903C51.5 26.4046 51.5 26.419 51.5 26.4333C51.5 26.4476 51.5 26.4619 51.5 26.4762C51.5 26.4905 51.5 26.5048 51.5 26.519C51.5 26.5333 51.5 26.5475 51.5 26.5618C51.5 26.576 51.5 26.5902 51.5 26.6044C51.5 26.6186 51.5 26.6328 51.5 26.6469C51.5 26.6611 51.5 26.6752 51.5 26.6894C51.5 26.7035 51.5 26.7176 51.5 26.7317C51.5 26.7458 51.5 26.7599 51.5 26.7739C51.5 26.788 51.5 26.802 51.5 26.816C51.5 26.8301 51.5 26.8441 51.5 26.8581C51.5 26.872 51.5 26.886 51.5 26.9C51.5 26.9139 51.5 26.9278 51.5 26.9418C51.5 26.9557 51.5 26.9696 51.5 26.9835C51.5 26.9973 51.5 27.0112 51.5 27.025C51.5 27.0389 51.5 27.0527 51.5 27.0665C51.5 27.0803 51.5 27.0941 51.5 27.1079C51.5 27.1216 51.5 27.1354 51.5 27.1491C51.5 27.1628 51.5 27.1766 51.5 27.1903C51.5 27.2039 51.5 27.2176 51.5 27.2313C51.5 27.2449 51.5 27.2586 51.5 27.2722C51.5 27.2858 51.5 27.2994 51.5 27.313C51.5 27.3265 51.5 27.3401 51.5 27.3536C51.5 27.3672 51.5 27.3807 51.5 27.3942C51.5 27.4077 51.5 27.4211 51.5 27.4346C51.5 27.448 51.5 27.4615 51.5 27.4749C51.5 27.4883 51.5 27.5017 51.5 27.5151C51.5 27.5284 51.5 27.5418 51.5 27.5551C51.5 27.5685 51.5 27.5818 51.5 27.5951C51.5 27.6083 51.5 27.6216 51.5 27.6349C51.5 27.6481 51.5 27.6613 51.5 27.6745C51.5 27.6877 51.5 27.7009 51.5 27.7141C51.5 27.7273 51.5 27.7404 51.5 27.7535C51.5 27.7666 51.5 27.7797 51.5 27.7928C51.5 27.8059 51.5 27.8189 51.5 27.832C51.5 27.845 51.5 27.858 51.5 27.871C51.5 27.884 51.5 27.8969 51.5 27.9099C51.5 27.9228 51.5 27.9357 51.5 27.9486C51.5 27.9615 51.5 27.9744 51.5 27.9872C51.5 28.0001 51.5 28.0129 51.5 28.0257C51.5 28.0385 51.5 28.0513 51.5 28.0641C51.5 28.0768 51.5 28.0896 51.5 28.1023C51.5 28.115 51.5 28.1277 51.5 28.1403C51.5 28.153 51.5 28.1656 51.5 28.1783C51.5 28.1909 51.5 28.2035 51.5 28.216C51.5 28.2286 51.5 28.2411 51.5 28.2537C51.5 28.2662 51.5 28.2787 51.5 28.2912C51.5 28.3036 51.5 28.3161 51.5 28.3285C51.5 28.3409 51.5 28.3533 51.5 28.3657C51.5 28.3781 51.5 28.3904 51.5 28.4027C51.5 28.4151 51.5 28.4274 51.5 28.4396C51.5 28.4519 51.5 28.4642 51.5 28.4764C51.5 28.4886 51.5 28.5008 51.5 28.513C51.5 28.5252 51.5 28.5373 51.5 28.5494C51.5 28.5616 51.5 28.5737 51.5 28.5857C51.5 28.5978 51.5 28.6098 51.5 28.6219C51.5 28.6339 51.5 28.6459 51.5 28.6578C51.5 28.6698 51.5 28.6817 51.5 28.6937C51.5 28.7056 51.5 28.7175 51.5 28.7293C51.5 28.7412 51.5 28.753 51.5 28.7648C51.5 28.7766 51.5 28.7884 51.5 28.8002C51.5 28.8119 51.5 28.8237 51.5 28.8354C51.5 28.8471 51.5 28.8587 51.5 28.8704C51.5 28.882 51.5 28.8936 51.5 28.9052C51.5 28.9168 51.5 28.9284 51.5 28.9399C51.5 28.9515 51.5 28.963 51.5 28.9744C51.5 28.9859 51.5 28.9974 51.5 29.0088C51.5 29.0202 51.5 29.0316 51.5 29.043C51.5 29.0544 51.5 29.0657 51.5 29.077C51.5 29.0883 51.5 29.0996 51.5 29.1109C51.5 29.1221 51.5 29.1333 51.5 29.1445C51.5 29.1557 51.5 29.1669 51.5 29.1781C51.5 29.1892 51.5 29.2003 51.5 29.2114C51.5 29.2225 51.5 29.2335 51.5 29.2445C51.5 29.2556 51.5 29.2666 51.5 29.2775C51.5 29.2885 51.5 29.2994 51.5 29.3103C51.5 29.3212 51.5 29.3321 51.5 29.343C51.5 29.3538 51.5 29.3646 51.5 29.3754C51.5 29.3862 51.5 29.3969 51.5 29.4077C51.5 29.4184 51.5 29.4291 51.5 29.4398C51.5 29.4504 51.5 29.4611 51.5 29.4717C51.5 29.4823 51.5 29.4928 51.5 29.5034C51.5 29.5139 51.5 29.5244 51.5 29.5349C51.5 29.5454 51.5 29.5558 51.5 29.5663C51.5 29.5767 51.5 29.5871 51.5 29.5974C51.5 29.6078 51.5 29.6181 51.5 29.6284C51.5 29.6387 51.5 29.649 51.5 29.6592C51.5 29.6694 51.5 29.6796 51.5 29.6898C51.5 29.7 51.5 29.7101 51.5 29.7202C51.5 29.7303 51.5 29.7404 51.5 29.7504C51.5 29.7604 51.5 29.7704 51.5 29.7804C51.5 29.7904 51.5 29.8003 51.5 29.8102C51.5 29.8202 51.5 29.83 51.5 29.8399C51.5 29.8497 51.5 29.8595 51.5 29.8693C51.5 29.8791 51.5 29.8888 51.5 29.8985C51.5 29.9082 51.5 29.9179 51.5 29.9276C51.5 29.9372 51.5 29.9468 51.5 29.9564C51.5 29.966 51.5 29.9755 51.5 29.985C51.5 29.9945 51.5 30.004 51.5 30.0135C51.5 30.0229 51.5 30.0323 51.5 30.0417C51.5 30.0511 51.5 30.0604 51.5 30.0697C51.5 30.079 51.5 30.0883 51.5 30.0975C51.5 30.1068 51.5 30.116 51.5 30.1251C51.5 30.1343 51.5 30.1434 51.5 30.1525C51.5 30.1616 51.5 30.1707 51.5 30.1797C51.5 30.1888 51.5 30.1978 51.5 30.2067C51.5 30.2157 51.5 30.2246 51.5 30.2335C51.5 30.2424 51.5 30.2512 51.5 30.2601C51.5 30.2689 51.5 30.2777 51.5 30.2864C51.5 30.2951 51.5 30.3039 51.5 30.3125C51.5 30.3212 51.5 30.3298 51.5 30.3384C51.5 30.347 51.5 30.3556 51.5 30.3641C51.5 30.3727 51.5 30.3812 51.5 30.3896C51.5 30.3981 51.5 30.4065 51.5 30.4149C51.5 30.4233 51.5 30.4316 51.5 30.4399C51.5 30.4482 51.5 30.4565 51.5 30.4648C51.5 30.473 51.5 30.4812 51.5 30.4894C51.5 30.4975 51.5 30.5056 51.5 30.5137C51.5 30.5218 51.5 30.5299 51.5 30.5379C51.5 30.5459 51.5 30.5539 51.5 30.5618C51.5 30.5697 51.5 30.5776 51.5 30.5855C51.5 30.5934 51.5 30.6012 51.5 30.609C51.5 30.6168 51.5 30.6245 51.5 30.6322C51.5 30.6399 51.5 30.6476 51.5 30.6552C51.5 30.6629 51.5 30.6705 51.5 30.678C51.5 30.6856 51.5 30.6931 51.5 30.7006C51.5 30.708 51.5 30.7155 51.5 30.7229C51.5 30.7303 51.5 30.7376 51.5 30.745C51.5 30.7523 51.5 30.7596 51.5 30.7668C51.5 30.7741 51.5 30.7813 51.5 30.7884C51.5 30.7956 51.5 30.8027 51.5 30.8098C51.5 30.8169 51.5 30.8239 51.5 30.8309C51.5 30.8379 51.5 30.8449 51.5 30.8518C51.5 30.8588 51.5 30.8656 51.5 30.8725C51.5 30.8793 51.5 30.8861 51.5 30.8929C51.5 30.8997 51.5 30.9064 51.5 30.9131C51.5 30.9197 51.5 30.9264 51.5 30.933C51.5 30.9396 51.5 30.9461 51.5 30.9527C51.5 30.9592 51.5 30.9657 51.5 30.9721C51.5 30.9785 51.5 30.9849 51.5 30.9913C51.5 30.9976 51.5 31.004 51.5 31.0102C51.5 31.0165 51.5 31.0227 51.5 31.0289C51.5 31.0351 51.5 31.0412 51.5 31.0473C51.5 31.0534 51.5 31.0595 51.5 31.0655C51.5 31.0715 51.5 31.0775 51.5 31.0835C51.5 31.0894 51.5 31.0953 51.5 31.1011C51.5 31.107 51.5 31.1128 51.5 31.1186C51.5 31.1243 51.5 31.13 51.5 31.1357C51.5 31.1414 51.5 31.147 51.5 31.1526C51.5 31.1582 51.5 31.1638 51.5 31.1693C51.5 31.1748 51.5 31.1802 51.5 31.1857C51.5 31.1911 51.5 31.1965 51.5 31.2018C51.5 31.2071 51.5 31.2124 51.5 31.2177C51.5 31.2229 51.5 31.2281 51.5 31.2333C51.5 31.2384 51.5 31.2435 51.5 31.2486C51.5 31.2537 51.5 31.2587 51.5 31.2637C51.5 31.2687 51.5 31.2736 51.5 31.2785C51.5 31.2834 51.5 31.2882 51.5 31.293C51.5 31.2978 51.5 31.3026 51.5 31.3073C51.5 31.312 51.5 31.3167 51.5 31.3213C51.5 31.3259 51.5 31.3305 51.5 31.335C51.5 31.3396 51.5 31.344 51.5 31.3485C51.5 31.3529 51.5 31.3573 51.5 31.3617C51.5 31.366 51.5 31.3703 51.5 31.3746C51.5 31.3788 51.5 31.3831 51.5 31.3872C51.5 31.3914 51.5 31.3955 51.5 31.3996C51.5 31.4037 51.5 31.4077 51.5 31.4117C51.5 31.4157 51.5 31.4196 51.5 31.4235C51.5 31.4274 51.5 31.4312 51.5 31.435C51.5 31.4388 51.5 31.4425 51.5 31.4463H52.5ZM52.5 13.5C52.5 10.4669 50.0331 8 47 8V9C49.4809 9 51.5 11.0191 51.5 13.5H52.5ZM47 11.5C48.1024 11.5 49 12.3976 49 13.5H50C50 11.8454 48.6546 10.5 47 10.5V11.5ZM49 13.5V21.75H50V13.5H49ZM49 21.75C49 22.8524 48.1024 23.75 47 23.75V24.75C48.6546 24.75 50 23.4046 50 21.75H49ZM47 23.75C45.8976 23.75 45 22.8524 45 21.75H44C44 23.4046 45.3454 24.75 47 24.75V23.75ZM45 21.75V13.5H44V21.75H45ZM45 13.5C45 12.3976 45.8976 11.5 47 11.5V10.5C45.3454 10.5 44 11.8454 44 13.5H45ZM39.5 7.75C40.6024 7.75 41.5 8.64764 41.5 9.75H42.5C42.5 8.09536 41.1546 6.75 39.5 6.75V7.75ZM41.5 9.75V18H42.5V9.75H41.5ZM41.5 18C41.5 19.1024 40.6024 20 39.5 20V21C41.1546 21 42.5 19.6546 42.5 18H41.5ZM39.5 20C38.3976 20 37.5 19.1024 37.5 18H36.5C36.5 19.6546 37.8454 21 39.5 21V20ZM37.5 18V9.75H36.5V18H37.5ZM37.5 9.75C37.5 8.64764 38.3976 7.75 39.5 7.75V6.75C37.8454 6.75 36.5 8.09536 36.5 9.75H37.5ZM30 6C30 4.89764 30.8976 4 32 4V3C30.3454 3 29 4.34536 29 6H30ZM32 4C33.1024 4 34 4.89764 34 6H35C35 4.34536 33.6546 3 32 3V4ZM34 6V18H35V6H34ZM34 18C34 18.3473 34.0338 18.6856 34.095 19.0128L35.078 18.8289C35.0274 18.5589 35 18.2822 35 18H34ZM34.8316 18.485C33.3631 17.6594 31.3708 17.2073 29.5787 16.9217L29.4213 17.9093C31.1972 18.1922 33.0381 18.6239 34.3414 19.3567L34.8316 18.485ZM30 17.4155C30 17.4133 30 17.411 30 17.4087C30 17.4064 30 17.4041 30 17.4017C30 17.3993 30 17.397 30 17.3945C30 17.3921 30 17.3897 30 17.3872C30 17.3847 30 17.3822 30 17.3797C30 17.3771 30 17.3746 30 17.372C30 17.3694 30 17.3668 30 17.3641C30 17.3615 30 17.3588 30 17.3561C30 17.3534 30 17.3506 30 17.3479C30 17.3451 30 17.3423 30 17.3395C30 17.3366 30 17.3338 30 17.3309C30 17.328 30 17.3251 30 17.3222C30 17.3192 30 17.3163 30 17.3133C30 17.3103 30 17.3072 30 17.3042C30 17.3011 30 17.2981 30 17.2949C30 17.2918 30 17.2887 30 17.2855C30 17.2824 30 17.2792 30 17.2759C30 17.2727 30 17.2695 30 17.2662C30 17.2629 30 17.2596 30 17.2563C30 17.2529 30 17.2496 30 17.2462C30 17.2428 30 17.2394 30 17.2359C30 17.2325 30 17.229 30 17.2255C30 17.222 30 17.2185 30 17.215C30 17.2114 30 17.2078 30 17.2042C30 17.2006 30 17.197 30 17.1933C30 17.1896 30 17.186 30 17.1822C30 17.1785 30 17.1748 30 17.171C30 17.1673 30 17.1635 30 17.1596C30 17.1558 30 17.152 30 17.1481C30 17.1442 30 17.1403 30 17.1364C30 17.1325 30 17.1285 30 17.1245C30 17.1205 30 17.1165 30 17.1125C30 17.1085 30 17.1044 30 17.1003C30 17.0962 30 17.0921 30 17.088C30 17.0838 30 17.0797 30 17.0755C30 17.0713 30 17.0671 30 17.0628C30 17.0586 30 17.0543 30 17.05C30 17.0457 30 17.0414 30 17.0371C30 17.0327 30 17.0284 30 17.024C30 17.0196 30 17.0152 30 17.0107C30 17.0063 30 17.0018 30 16.9973C30 16.9928 30 16.9883 30 16.9837C30 16.9792 30 16.9746 30 16.97C30 16.9654 30 16.9608 30 16.9562C30 16.9515 30 16.9469 30 16.9422C30 16.9375 30 16.9327 30 16.928C30 16.9233 30 16.9185 30 16.9137C30 16.9089 30 16.9041 30 16.8992C30 16.8944 30 16.8895 30 16.8846C30 16.8798 30 16.8748 30 16.8699C30 16.865 30 16.86 30 16.855C30 16.85 30 16.845 30 16.84C30 16.8349 30 16.8299 30 16.8248C30 16.8197 30 16.8146 30 16.8095C30 16.8044 30 16.7992 30 16.794C30 16.7888 30 16.7836 30 16.7784C30 16.7732 30 16.768 30 16.7627C30 16.7574 30 16.7521 30 16.7468C30 16.7415 30 16.7361 30 16.7308C30 16.7254 30 16.72 30 16.7146C30 16.7092 30 16.7038 30 16.6983C30 16.6929 30 16.6874 30 16.6819C30 16.6764 30 16.6709 30 16.6653C30 16.6598 30 16.6542 30 16.6486C30 16.643 30 16.6374 30 16.6318C30 16.6261 30 16.6205 30 16.6148C30 16.6091 30 16.6034 30 16.5977C30 16.592 30 16.5862 30 16.5805C30 16.5747 30 16.5689 30 16.5631C30 16.5573 30 16.5514 30 16.5456C30 16.5397 30 16.5338 30 16.5279C30 16.522 30 16.5161 30 16.5102C30 16.5042 30 16.4983 30 16.4923C30 16.4863 30 16.4803 30 16.4743C30 16.4682 30 16.4622 30 16.4561C30 16.45 30 16.4439 30 16.4378C30 16.4317 30 16.4256 30 16.4194C30 16.4133 30 16.4071 30 16.4009C30 16.3947 30 16.3885 30 16.3822C30 16.376 30 16.3697 30 16.3635C30 16.3572 30 16.3509 30 16.3446C30 16.3382 30 16.3319 30 16.3255C30 16.3192 30 16.3128 30 16.3064C30 16.3 30 16.2936 30 16.2871C30 16.2807 30 16.2742 30 16.2677C30 16.2612 30 16.2547 30 16.2482C30 16.2417 30 16.2351 30 16.2286C30 16.222 30 16.2154 30 16.2088C30 16.2022 30 16.1956 30 16.189C30 16.1823 30 16.1756 30 16.169C30 16.1623 30 16.1556 30 16.1489C30 16.1421 30 16.1354 30 16.1286C30 16.1219 30 16.1151 30 16.1083C30 16.1015 30 16.0947 30 16.0879C30 16.081 30 16.0742 30 16.0673C30 16.0604 30 16.0535 30 16.0466C30 16.0397 30 16.0328 30 16.0258C30 16.0189 30 16.0119 30 16.0049C30 15.9979 30 15.9909 30 15.9839C30 15.9769 30 15.9698 30 15.9628C30 15.9557 30 15.9487 30 15.9416C30 15.9345 30 15.9273 30 15.9202C30 15.9131 30 15.9059 30 15.8988C30 15.8916 30 15.8844 30 15.8772C30 15.87 30 15.8628 30 15.8555C30 15.8483 30 15.841 30 15.8338C30 15.8265 30 15.8192 30 15.8119C30 15.8046 30 15.7972 30 15.7899C30 15.7826 30 15.7752 30 15.7678C30 15.7604 30 15.753 30 15.7456C30 15.7382 30 15.7308 30 15.7233C30 15.7159 30 15.7084 30 15.7009C30 15.6934 30 15.6859 30 15.6784C30 15.6709 30 15.6634 30 15.6558C30 15.6483 30 15.6407 30 15.6331C30 15.6255 30 15.6179 30 15.6103C30 15.6027 30 15.5951 30 15.5874C30 15.5798 30 15.5721 30 15.5644C30 15.5568 30 15.5491 30 15.5413C30 15.5336 30 15.5259 30 15.5182C30 15.5104 30 15.5026 30 15.4949C30 15.4871 30 15.4793 30 15.4715C30 15.4637 30 15.4559 30 15.448C30 15.4402 30 15.4323 30 15.4244C30 15.4166 30 15.4087 30 15.4008C30 15.3929 30 15.385 30 15.377C30 15.3691 30 15.3611 30 15.3532C30 15.3452 30 15.3372 30 15.3292C30 15.3212 30 15.3132 30 15.3052C30 15.2972 30 15.2891 30 15.2811C30 15.273 30 15.265 30 15.2569C30 15.2488 30 15.2407 30 15.2326C30 15.2245 30 15.2163 30 15.2082C30 15.2001 30 15.1919 30 15.1837C30 15.1756 30 15.1674 30 15.1592C30 15.151 30 15.1428 30 15.1345C30 15.1263 30 15.1181 30 15.1098C30 15.1015 30 15.0933 30 15.085C30 15.0767 30 15.0684 30 15.0601C30 15.0518 30 15.0435 30 15.0351C30 15.0268 30 15.0184 30 15.0101C30 15.0017 30 14.9933 30 14.9849C30 14.9765 30 14.9681 30 14.9597C30 14.9513 30 14.9428 30 14.9344C30 14.9259 30 14.9175 30 14.909C30 14.9005 30 14.892 30 14.8835C30 14.875 30 14.8665 30 14.858C30 14.8495 30 14.8409 30 14.8324C30 14.8238 30 14.8153 30 14.8067C30 14.7981 30 14.7895 30 14.7809C30 14.7723 30 14.7637 30 14.7551C30 14.7465 30 14.7378 30 14.7292C30 14.7205 30 14.7119 30 14.7032C30 14.6945 30 14.6858 30 14.6771C30 14.6684 30 14.6597 30 14.651C30 14.6423 30 14.6335 30 14.6248C30 14.616 30 14.6073 30 14.5985C30 14.5897 30 14.5809 30 14.5721C30 14.5633 30 14.5545 30 14.5457C30 14.5369 30 14.5281 30 14.5192C30 14.5104 30 14.5015 30 14.4927C30 14.4838 30 14.4749 30 14.466C30 14.4572 30 14.4483 30 14.4394C30 14.4304 30 14.4215 30 14.4126C30 14.4037 30 14.3947 30 14.3858C30 14.3768 30 14.3679 30 14.3589C30 14.3499 30 14.3409 30 14.3319C30 14.3229 30 14.3139 30 14.3049C30 14.2959 30 14.2869 30 14.2778C30 14.2688 30 14.2598 30 14.2507C30 14.2416 30 14.2326 30 14.2235C30 14.2144 30 14.2053 30 14.1962C30 14.1871 30 14.178 30 14.1689C30 14.1598 30 14.1507 30 14.1415C30 14.1324 30 14.1232 30 14.1141C30 14.1049 30 14.0958 30 14.0866C30 14.0774 30 14.0682 30 14.059C30 14.0498 30 14.0406 30 14.0314C30 14.0222 30 14.013 30 14.0038C30 13.9945 30 13.9853 30 13.976C30 13.9668 30 13.9575 30 13.9483C30 13.939 30 13.9297 30 13.9204C30 13.9111 30 13.9018 30 13.8925C30 13.8832 30 13.8739 30 13.8646C30 13.8553 30 13.846 30 13.8366C30 13.8273 30 13.8179 30 13.8086C30 13.7992 30 13.7899 30 13.7805C30 13.7711 30 13.7617 30 13.7524C30 13.743 30 13.7336 30 13.7242C30 13.7148 30 13.7053 30 13.6959C30 13.6865 30 13.6771 30 13.6676C30 13.6582 30 13.6488 30 13.6393C30 13.6299 30 13.6204 30 13.6109C30 13.6015 30 13.592 30 13.5825C30 13.573 30 13.5636 30 13.5541C30 13.5446 30 13.5351 30 13.5255C30 13.516 30 13.5065 30 13.497C30 13.4875 30 13.4779 30 13.4684C30 13.4589 30 13.4493 30 13.4398C30 13.4302 30 13.4207 30 13.4111C30 13.4015 30 13.3919 30 13.3824C30 13.3728 30 13.3632 30 13.3536C30 13.344 30 13.3344 30 13.3248C30 13.3152 30 13.3056 30 13.296C30 13.2864 30 13.2767 30 13.2671C30 13.2575 30 13.2478 30 13.2382C30 13.2286 30 13.2189 30 13.2092C30 13.1996 30 13.1899 30 13.1803C30 13.1706 30 13.1609 30 13.1512C30 13.1416 30 13.1319 30 13.1222C30 13.1125 30 13.1028 30 13.0931C30 13.0834 30 13.0737 30 13.064C30 13.0543 30 13.0446 30 13.0348C30 13.0251 30 13.0154 30 13.0057C30 12.9959 30 12.9862 30 12.9764C30 12.9667 30 12.957 30 12.9472C30 12.9375 30 12.9277 30 12.9179C30 12.9082 30 12.8984 30 12.8886C30 12.8789 30 12.8691 30 12.8593C30 12.8495 30 12.8397 30 12.8299C30 12.8202 30 12.8104 30 12.8006C30 12.7908 30 12.781 30 12.7712C30 12.7614 30 12.7515 30 12.7417C30 12.7319 30 12.7221 30 12.7123C30 12.7024 30 12.6926 30 12.6828C30 12.673 30 12.6631 30 12.6533C30 12.6434 30 12.6336 30 12.6238C30 12.6139 30 12.6041 30 12.5942C30 12.5844 30 12.5745 30 12.5646C30 12.5548 30 12.5449 30 12.535C30 12.5252 30 12.5153 30 12.5054C30 12.4956 30 12.4857 30 12.4758C30 12.4659 30 12.456 30 12.4462C30 12.4363 30 12.4264 30 12.4165C30 12.4066 30 12.3967 30 12.3868C30 12.3769 30 12.367 30 12.3571C30 12.3472 30 12.3373 30 12.3274C30 12.3175 30 12.3076 30 12.2977C30 12.2878 30 12.2778 30 12.2679C30 12.258 30 12.2481 30 12.2382C30 12.2282 30 12.2183 30 12.2084C30 12.1985 30 12.1885 30 12.1786C30 12.1687 30 12.1588 30 12.1488C30 12.1389 30 12.129 30 12.119C30 12.1091 30 12.0992 30 12.0892C30 12.0793 30 12.0693 30 12.0594C30 12.0494 30 12.0395 30 12.0296C30 12.0196 30 12.0097 30 11.9997C30 11.9898 30 11.9798 30 11.9699C30 11.9599 30 11.95 30 11.94C30 11.9301 30 11.9201 30 11.9102C30 11.9002 30 11.8903 30 11.8803C30 11.8703 30 11.8604 30 11.8504C30 11.8405 30 11.8305 30 11.8206C30 11.8106 30 11.8006 30 11.7907C30 11.7807 30 11.7708 30 11.7608C30 11.7509 30 11.7409 30 11.7309C30 11.721 30 11.711 30 11.7011C30 11.6911 30 11.6811 30 11.6712C30 11.6612 30 11.6513 30 11.6413C30 11.6313 30 11.6214 30 11.6114C30 11.6015 30 11.5915 30 11.5815C30 11.5716 30 11.5616 30 11.5517C30 11.5417 30 11.5318 30 11.5218C30 11.5118 30 11.5019 30 11.4919C30 11.482 30 11.472 30 11.4621C30 11.4521 30 11.4422 30 11.4322C30 11.4223 30 11.4123 30 11.4024C30 11.3924 30 11.3825 30 11.3725C30 11.3626 30 11.3526 30 11.3427C30 11.3327 30 11.3228 30 11.3129C30 11.3029 30 11.293 30 11.283C30 11.2731 30 11.2632 30 11.2532C30 11.2433 30 11.2334 30 11.2234C30 11.2135 30 11.2036 30 11.1936C30 11.1837 30 11.1738 30 11.1639C30 11.1539 30 11.144 30 11.1341C30 11.1242 30 11.1143 30 11.1044C30 11.0944 30 11.0845 30 11.0746C30 11.0647 30 11.0548 30 11.0449C30 11.035 30 11.0251 30 11.0152C30 11.0053 30 10.9954 30 10.9855C30 10.9756 30 10.9657 30 10.9558C30 10.9459 30 10.936 30 10.9262C30 10.9163 30 10.9064 30 10.8965C30 10.8866 30 10.8768 30 10.8669C30 10.857 30 10.8471 30 10.8373C30 10.8274 30 10.8176 30 10.8077C30 10.7978 30 10.788 30 10.7781C30 10.7683 30 10.7584 30 10.7486C30 10.7388 30 10.7289 30 10.7191C30 10.7092 30 10.6994 30 10.6896C30 10.6797 30 10.6699 30 10.6601C30 10.6503 30 10.6405 30 10.6307C30 10.6208 30 10.611 30 10.6012C30 10.5914 30 10.5816 30 10.5718C30 10.562 30 10.5522 30 10.5425C30 10.5327 30 10.5229 30 10.5131C30 10.5033 30 10.4936 30 10.4838C30 10.474 30 10.4643 30 10.4545C30 10.4447 30 10.435 30 10.4252C30 10.4155 30 10.4057 30 10.396C30 10.3863 30 10.3765 30 10.3668C30 10.3571 30 10.3473 30 10.3376C30 10.3279 30 10.3182 30 10.3085C30 10.2988 30 10.2891 30 10.2794C30 10.2697 30 10.26 30 10.2503C30 10.2406 30 10.2309 30 10.2213C30 10.2116 30 10.2019 30 10.1923C30 10.1826 30 10.1729 30 10.1633C30 10.1536 30 10.144 30 10.1344C30 10.1247 30 10.1151 30 10.1055C30 10.0958 30 10.0862 30 10.0766C30 10.067 30 10.0574 30 10.0478C30 10.0382 30 10.0286 30 10.019C30 10.0094 30 9.99982 30 9.99025C30 9.98067 30 9.9711 30 9.96154C30 9.95198 30 9.94242 30 9.93288C30 9.92333 30 9.91379 30 9.90425C30 9.89472 30 9.88519 30 9.87567C30 9.86615 30 9.85664 30 9.84714C30 9.83763 30 9.82813 30 9.81864C30 9.80915 30 9.79967 30 9.79019C30 9.78071 30 9.77125 30 9.76179C30 9.75233 30 9.74287 30 9.73343C30 9.72398 30 9.71454 30 9.70511C30 9.69568 30 9.68626 30 9.67685C30 9.66743 30 9.65802 30 9.64863C30 9.63923 30 9.62984 30 9.62046C30 9.61107 30 9.6017 30 9.59233C30 9.58297 30 9.57361 30 9.56426C30 9.55491 30 9.54557 30 9.53624C30 9.52691 30 9.51759 30 9.50827C30 9.49896 30 9.48965 30 9.48035C30 9.47106 30 9.46177 30 9.45249C30 9.44321 30 9.43394 30 9.42467C30 9.41541 30 9.40616 30 9.39692C30 9.38767 30 9.37844 30 9.36921C30 9.35999 30 9.35077 30 9.34156C30 9.33236 30 9.32316 30 9.31397C30 9.30478 30 9.2956 30 9.28644C30 9.27727 30 9.26811 30 9.25896C30 9.24981 30 9.24067 30 9.23153C30 9.2224 30 9.21328 30 9.20417C30 9.19506 30 9.18596 30 9.17687C30 9.16778 30 9.1587 30 9.14963C30 9.14056 30 9.1315 30 9.12245C30 9.1134 30 9.10436 30 9.09533C30 9.0863 30 9.07728 30 9.06827C30 9.05926 30 9.05026 30 9.04128C30 9.03229 30 9.02331 30 9.01434C30 9.00538 30 8.99642 30 8.98748C30 8.97853 30 8.9696 30 8.96068C30 8.95175 30 8.94284 30 8.93394C30 8.92504 30 8.91615 30 8.90727C30 8.89839 30 8.88952 30 8.88067C30 8.87181 30 8.86297 30 8.85413C30 8.8453 30 8.83648 30 8.82767C30 8.81886 30 8.81006 30 8.80127C30 8.79248 30 8.78371 30 8.77494C30 8.76618 30 8.75743 30 8.74869C30 8.73994 30 8.73122 30 8.7225C30 8.71378 30 8.70508 30 8.69639C30 8.68769 30 8.67901 30 8.67035C30 8.66168 30 8.65302 30 8.64438C30 8.63574 30 8.6271 30 8.61848C30 8.60987 30 8.60126 30 8.59267C30 8.58407 30 8.57549 30 8.56692C30 8.55835 30 8.5498 30 8.54126C30 8.53271 30 8.52418 30 8.51567C30 8.50715 30 8.49864 30 8.49015C30 8.48166 30 8.47318 30 8.46472C30 8.45625 30 8.4478 30 8.43936C30 8.43092 30 8.4225 30 8.41409C30 8.40567 30 8.39728 30 8.38889C30 8.38051 30 8.37213 30 8.36378C30 8.35542 30 8.34707 30 8.33874C30 8.33041 30 8.32209 30 8.31379C30 8.30549 30 8.2972 30 8.28892C30 8.28065 30 8.27239 30 8.26414C30 8.25589 30 8.24766 30 8.23944C30 8.23122 30 8.22302 30 8.21483C30 8.20664 30 8.19846 30 8.1903C30 8.18214 30 8.17399 30 8.16586C30 8.15772 30 8.1496 30 8.1415C30 8.1334 30 8.12531 30 8.11723C30 8.10916 30 8.1011 30 8.09306C30 8.08501 30 8.07698 30 8.06897C30 8.06095 30 8.05295 30 8.04497C30 8.03698 30 8.02901 30 8.02106C30 8.01311 30 8.00517 30 7.99724C30 7.98932 30 7.98141 30 7.97352C30 7.96562 30 7.95775 30 7.94989C30 7.94202 30 7.93418 30 7.92635C30 7.91852 30 7.9107 30 7.9029C30 7.8951 30 7.88732 30 7.87955C30 7.87179 30 7.86403 30 7.8563C30 7.84856 30 7.84084 30 7.83314C30 7.82544 30 7.81775 30 7.81008C30 7.80241 30 7.79476 30 7.78712C30 7.77948 30 7.77186 30 7.76425C30 7.75665 30 7.74906 30 7.74149C30 7.73392 30 7.72636 30 7.71882C30 7.71128 30 7.70376 30 7.69626C30 7.68875 30 7.68126 30 7.67379C30 7.66632 30 7.65887 30 7.65143C30 7.64399 30 7.63657 30 7.62917C30 7.62177 30 7.61438 30 7.60701C30 7.59964 30 7.59229 30 7.58496C30 7.57762 30 7.57031 30 7.56301C30 7.55571 30 7.54843 30 7.54117C30 7.5339 30 7.52666 30 7.51943C30 7.5122 30 7.50499 30 7.4978C30 7.49061 30 7.48343 30 7.47627C30 7.46912 30 7.46198 30 7.45486C30 7.44774 30 7.44064 30 7.43355C30 7.42647 30 7.4194 30 7.41236C30 7.40531 30 7.39828 30 7.39127C30 7.38426 30 7.37727 30 7.37029C30 7.36332 30 7.35636 30 7.34943C30 7.34249 30 7.33557 30 7.32868C30 7.32178 30 7.3149 30 7.30804C30 7.30118 30 7.29433 30 7.28751C30 7.28069 30 7.27388 30 7.2671C30 7.26031 30 7.25355 30 7.2468C30 7.24006 30 7.23333 30 7.22662C30 7.21991 30 7.21322 30 7.20656C30 7.19989 30 7.19324 30 7.18661C30 7.17998 30 7.17337 30 7.16678C30 7.16019 30 7.15362 30 7.14707C30 7.14052 30 7.13399 30 7.12748C30 7.12097 30 7.11447 30 7.108C30 7.10153 30 7.09508 30 7.08865C30 7.08222 30 7.07581 30 7.06942C30 7.06303 30 7.05666 30 7.05031C30 7.04396 30 7.03763 30 7.03133C30 7.02502 30 7.01873 30 7.01246C30 7.0062 30 6.99995 30 6.99373C30 6.9875 30 6.9813 30 6.97511C30 6.96893 30 6.96277 30 6.95662C30 6.95048 30 6.94436 30 6.93826C30 6.93216 30 6.92608 30 6.92003C30 6.91397 30 6.90793 30 6.90192C30 6.8959 30 6.88991 30 6.88394C30 6.87797 30 6.87201 30 6.86609C30 6.86016 30 6.85425 30 6.84836C30 6.84248 30 6.83662 30 6.83077C30 6.82493 30 6.81911 30 6.81331C30 6.80751 30 6.80174 30 6.79598C30 6.79023 30 6.7845 30 6.77879C30 6.77308 30 6.76739 30 6.76172C30 6.75606 30 6.75042 30 6.7448C30 6.73917 30 6.73358 30 6.728C30 6.72242 30 6.71687 30 6.71134C30 6.70581 30 6.7003 30 6.69482C30 6.68933 30 6.68387 30 6.67843C30 6.67299 30 6.66757 30 6.66218C30 6.65678 30 6.65141 30 6.64607C30 6.64072 30 6.63539 30 6.63009C30 6.62479 30 6.61951 30 6.61426C30 6.609 30 6.60377 30 6.59856C30 6.59335 30 6.58817 30 6.58301C30 6.57785 30 6.57271 30 6.5676C30 6.56248 30 6.55739 30 6.55232C30 6.54726 30 6.54222 30 6.5372C30 6.53218 30 6.52718 30 6.52221C30 6.51724 30 6.51229 30 6.50737C30 6.50245 30 6.49755 30 6.49268C30 6.4878 30 6.48295 30 6.47813C30 6.4733 30 6.4685 30 6.46372C30 6.45895 30 6.45419 30 6.44947C30 6.44474 30 6.44004 30 6.43536C30 6.43068 30 6.42602 30 6.4214C30 6.41677 30 6.41216 30 6.40758C30 6.40301 30 6.39845 30 6.39392C30 6.38939 30 6.38489 30 6.38041C30 6.37593 30 6.37148 30 6.36705C30 6.36262 30 6.35822 30 6.35384C30 6.34946 30 6.34511 30 6.34078C30 6.33646 30 6.33216 30 6.32788C30 6.32361 30 6.31936 30 6.31513C30 6.31091 30 6.30671 30 6.30254C30 6.29836 30 6.29422 30 6.2901C30 6.28598 30 6.28188 30 6.27781C30 6.27374 30 6.2697 30 6.26569C30 6.26167 30 6.25768 30 6.25372C30 6.24975 30 6.24582 30 6.2419C30 6.23799 30 6.23411 30 6.23025C30 6.22639 30 6.22256 30 6.21876C30 6.21495 30 6.21118 30 6.20742C30 6.20367 30 6.19995 30 6.19625C30 6.19255 30 6.18888 30 6.18524C30 6.1816 30 6.17798 30 6.17439C30 6.1708 30 6.16724 30 6.16371C30 6.16017 30 6.15666 30 6.15318C30 6.1497 30 6.14625 30 6.14282C30 6.1394 30 6.136 30 6.13263C30 6.12926 30 6.12592 30 6.1226C30 6.11929 30 6.116 30 6.11274C30 6.10948 30 6.10625 30 6.10305C30 6.09984 30 6.09667 30 6.09352C30 6.09037 30 6.08726 30 6.08416C30 6.08107 30 6.07801 30 6.07498C30 6.07194 30 6.06893 30 6.06596C30 6.06298 30 6.06003 30 6.05711C30 6.05419 30 6.05129 30 6.04843C30 6.04557 30 6.04273 30 6.03992C30 6.03712 30 6.03434 30 6.03159C30 6.02884 30 6.02612 30 6.02343C30 6.02074 30 6.01808 30 6.01545C30 6.01281 30 6.01021 30 6.00764C30 6.00506 30 6.00252 30 6H29C29 6.00252 29 6.00506 29 6.00764C29 6.01021 29 6.01281 29 6.01545C29 6.01808 29 6.02074 29 6.02343C29 6.02612 29 6.02884 29 6.03159C29 6.03434 29 6.03712 29 6.03992C29 6.04273 29 6.04557 29 6.04843C29 6.05129 29 6.05419 29 6.05711C29 6.06003 29 6.06298 29 6.06596C29 6.06893 29 6.07194 29 6.07498C29 6.07801 29 6.08107 29 6.08416C29 6.08726 29 6.09037 29 6.09352C29 6.09667 29 6.09984 29 6.10305C29 6.10625 29 6.10948 29 6.11274C29 6.116 29 6.11929 29 6.1226C29 6.12592 29 6.12926 29 6.13263C29 6.136 29 6.1394 29 6.14282C29 6.14625 29 6.1497 29 6.15318C29 6.15666 29 6.16017 29 6.16371C29 6.16724 29 6.1708 29 6.17439C29 6.17798 29 6.1816 29 6.18524C29 6.18888 29 6.19255 29 6.19625C29 6.19995 29 6.20367 29 6.20742C29 6.21118 29 6.21495 29 6.21876C29 6.22256 29 6.22639 29 6.23025C29 6.23411 29 6.23799 29 6.2419C29 6.24582 29 6.24975 29 6.25372C29 6.25768 29 6.26167 29 6.26569C29 6.2697 29 6.27374 29 6.27781C29 6.28188 29 6.28598 29 6.2901C29 6.29422 29 6.29836 29 6.30254C29 6.30671 29 6.31091 29 6.31513C29 6.31936 29 6.32361 29 6.32788C29 6.33216 29 6.33646 29 6.34078C29 6.34511 29 6.34946 29 6.35384C29 6.35822 29 6.36262 29 6.36705C29 6.37148 29 6.37593 29 6.38041C29 6.38489 29 6.38939 29 6.39392C29 6.39845 29 6.40301 29 6.40758C29 6.41216 29 6.41677 29 6.4214C29 6.42602 29 6.43068 29 6.43536C29 6.44004 29 6.44474 29 6.44947C29 6.45419 29 6.45895 29 6.46372C29 6.4685 29 6.4733 29 6.47813C29 6.48295 29 6.4878 29 6.49268C29 6.49755 29 6.50245 29 6.50737C29 6.51229 29 6.51724 29 6.52221C29 6.52718 29 6.53218 29 6.5372C29 6.54222 29 6.54726 29 6.55232C29 6.55739 29 6.56248 29 6.5676C29 6.57271 29 6.57785 29 6.58301C29 6.58817 29 6.59335 29 6.59856C29 6.60377 29 6.609 29 6.61426C29 6.61951 29 6.62479 29 6.63009C29 6.63539 29 6.64072 29 6.64607C29 6.65141 29 6.65678 29 6.66218C29 6.66757 29 6.67299 29 6.67843C29 6.68387 29 6.68933 29 6.69482C29 6.7003 29 6.70581 29 6.71134C29 6.71687 29 6.72242 29 6.728C29 6.73358 29 6.73917 29 6.7448C29 6.75042 29 6.75606 29 6.76172C29 6.76739 29 6.77308 29 6.77879C29 6.7845 29 6.79023 29 6.79598C29 6.80174 29 6.80751 29 6.81331C29 6.81911 29 6.82493 29 6.83077C29 6.83662 29 6.84248 29 6.84836C29 6.85425 29 6.86016 29 6.86609C29 6.87201 29 6.87797 29 6.88394C29 6.88991 29 6.8959 29 6.90192C29 6.90793 29 6.91397 29 6.92003C29 6.92608 29 6.93216 29 6.93826C29 6.94436 29 6.95048 29 6.95662C29 6.96277 29 6.96893 29 6.97511C29 6.9813 29 6.9875 29 6.99373C29 6.99995 29 7.0062 29 7.01246C29 7.01873 29 7.02502 29 7.03133C29 7.03763 29 7.04396 29 7.05031C29 7.05666 29 7.06303 29 7.06942C29 7.07581 29 7.08222 29 7.08865C29 7.09508 29 7.10153 29 7.108C29 7.11447 29 7.12097 29 7.12748C29 7.13399 29 7.14052 29 7.14707C29 7.15362 29 7.16019 29 7.16678C29 7.17337 29 7.17998 29 7.18661C29 7.19324 29 7.19989 29 7.20656C29 7.21322 29 7.21991 29 7.22662C29 7.23333 29 7.24006 29 7.2468C29 7.25355 29 7.26031 29 7.2671C29 7.27388 29 7.28069 29 7.28751C29 7.29433 29 7.30118 29 7.30804C29 7.3149 29 7.32178 29 7.32868C29 7.33557 29 7.34249 29 7.34943C29 7.35636 29 7.36332 29 7.37029C29 7.37727 29 7.38426 29 7.39127C29 7.39828 29 7.40531 29 7.41236C29 7.4194 29 7.42647 29 7.43355C29 7.44064 29 7.44774 29 7.45486C29 7.46198 29 7.46912 29 7.47627C29 7.48343 29 7.49061 29 7.4978C29 7.50499 29 7.5122 29 7.51943C29 7.52666 29 7.5339 29 7.54117C29 7.54843 29 7.55571 29 7.56301C29 7.57031 29 7.57762 29 7.58496C29 7.59229 29 7.59964 29 7.60701C29 7.61438 29 7.62177 29 7.62917C29 7.63657 29 7.64399 29 7.65143C29 7.65887 29 7.66632 29 7.67379C29 7.68126 29 7.68875 29 7.69626C29 7.70376 29 7.71128 29 7.71882C29 7.72636 29 7.73392 29 7.74149C29 7.74906 29 7.75665 29 7.76425C29 7.77186 29 7.77948 29 7.78712C29 7.79476 29 7.80241 29 7.81008C29 7.81775 29 7.82544 29 7.83314C29 7.84084 29 7.84856 29 7.8563C29 7.86403 29 7.87179 29 7.87955C29 7.88732 29 7.8951 29 7.9029C29 7.9107 29 7.91852 29 7.92635C29 7.93418 29 7.94202 29 7.94989C29 7.95775 29 7.96562 29 7.97352C29 7.98141 29 7.98932 29 7.99724C29 8.00517 29 8.01311 29 8.02106C29 8.02901 29 8.03698 29 8.04497C29 8.05295 29 8.06095 29 8.06897C29 8.07698 29 8.08501 29 8.09306C29 8.1011 29 8.10916 29 8.11723C29 8.12531 29 8.1334 29 8.1415C29 8.1496 29 8.15772 29 8.16586C29 8.17399 29 8.18214 29 8.1903C29 8.19846 29 8.20664 29 8.21483C29 8.22302 29 8.23122 29 8.23944C29 8.24766 29 8.25589 29 8.26414C29 8.27239 29 8.28065 29 8.28892C29 8.2972 29 8.30549 29 8.31379C29 8.32209 29 8.33041 29 8.33874C29 8.34707 29 8.35542 29 8.36378C29 8.37213 29 8.38051 29 8.38889C29 8.39728 29 8.40567 29 8.41409C29 8.4225 29 8.43092 29 8.43936C29 8.4478 29 8.45625 29 8.46472C29 8.47318 29 8.48166 29 8.49015C29 8.49864 29 8.50715 29 8.51567C29 8.52418 29 8.53271 29 8.54126C29 8.5498 29 8.55835 29 8.56692C29 8.57549 29 8.58407 29 8.59267C29 8.60126 29 8.60987 29 8.61848C29 8.6271 29 8.63574 29 8.64438C29 8.65302 29 8.66168 29 8.67035C29 8.67901 29 8.68769 29 8.69639C29 8.70508 29 8.71378 29 8.7225C29 8.73122 29 8.73994 29 8.74869C29 8.75743 29 8.76618 29 8.77494C29 8.78371 29 8.79248 29 8.80127C29 8.81006 29 8.81886 29 8.82767C29 8.83648 29 8.8453 29 8.85413C29 8.86297 29 8.87181 29 8.88067C29 8.88952 29 8.89839 29 8.90727C29 8.91615 29 8.92504 29 8.93394C29 8.94284 29 8.95175 29 8.96068C29 8.9696 29 8.97853 29 8.98748C29 8.99642 29 9.00538 29 9.01434C29 9.02331 29 9.03229 29 9.04128C29 9.05026 29 9.05926 29 9.06827C29 9.07728 29 9.0863 29 9.09533C29 9.10436 29 9.1134 29 9.12245C29 9.1315 29 9.14056 29 9.14963C29 9.1587 29 9.16778 29 9.17687C29 9.18596 29 9.19506 29 9.20417C29 9.21328 29 9.2224 29 9.23153C29 9.24067 29 9.24981 29 9.25896C29 9.26811 29 9.27727 29 9.28644C29 9.2956 29 9.30478 29 9.31397C29 9.32316 29 9.33236 29 9.34156C29 9.35077 29 9.35999 29 9.36921C29 9.37844 29 9.38767 29 9.39692C29 9.40616 29 9.41541 29 9.42467C29 9.43394 29 9.44321 29 9.45249C29 9.46177 29 9.47106 29 9.48035C29 9.48965 29 9.49896 29 9.50827C29 9.51759 29 9.52691 29 9.53624C29 9.54557 29 9.55491 29 9.56426C29 9.57361 29 9.58297 29 9.59233C29 9.6017 29 9.61107 29 9.62046C29 9.62984 29 9.63923 29 9.64863C29 9.65802 29 9.66743 29 9.67685C29 9.68626 29 9.69568 29 9.70511C29 9.71454 29 9.72398 29 9.73343C29 9.74287 29 9.75233 29 9.76179C29 9.77125 29 9.78071 29 9.79019C29 9.79967 29 9.80915 29 9.81864C29 9.82813 29 9.83763 29 9.84714C29 9.85664 29 9.86615 29 9.87567C29 9.88519 29 9.89472 29 9.90425C29 9.91379 29 9.92333 29 9.93288C29 9.94242 29 9.95198 29 9.96154C29 9.9711 29 9.98067 29 9.99025C29 9.99982 29 10.0094 29 10.019C29 10.0286 29 10.0382 29 10.0478C29 10.0574 29 10.067 29 10.0766C29 10.0862 29 10.0958 29 10.1055C29 10.1151 29 10.1247 29 10.1344C29 10.144 29 10.1536 29 10.1633C29 10.1729 29 10.1826 29 10.1923C29 10.2019 29 10.2116 29 10.2213C29 10.2309 29 10.2406 29 10.2503C29 10.26 29 10.2697 29 10.2794C29 10.2891 29 10.2988 29 10.3085C29 10.3182 29 10.3279 29 10.3376C29 10.3473 29 10.3571 29 10.3668C29 10.3765 29 10.3863 29 10.396C29 10.4057 29 10.4155 29 10.4252C29 10.435 29 10.4447 29 10.4545C29 10.4643 29 10.474 29 10.4838C29 10.4936 29 10.5033 29 10.5131C29 10.5229 29 10.5327 29 10.5425C29 10.5522 29 10.562 29 10.5718C29 10.5816 29 10.5914 29 10.6012C29 10.611 29 10.6208 29 10.6307C29 10.6405 29 10.6503 29 10.6601C29 10.6699 29 10.6797 29 10.6896C29 10.6994 29 10.7092 29 10.7191C29 10.7289 29 10.7388 29 10.7486C29 10.7584 29 10.7683 29 10.7781C29 10.788 29 10.7978 29 10.8077C29 10.8176 29 10.8274 29 10.8373C29 10.8471 29 10.857 29 10.8669C29 10.8768 29 10.8866 29 10.8965C29 10.9064 29 10.9163 29 10.9262C29 10.936 29 10.9459 29 10.9558C29 10.9657 29 10.9756 29 10.9855C29 10.9954 29 11.0053 29 11.0152C29 11.0251 29 11.035 29 11.0449C29 11.0548 29 11.0647 29 11.0746C29 11.0845 29 11.0944 29 11.1044C29 11.1143 29 11.1242 29 11.1341C29 11.144 29 11.1539 29 11.1639C29 11.1738 29 11.1837 29 11.1936C29 11.2036 29 11.2135 29 11.2234C29 11.2334 29 11.2433 29 11.2532C29 11.2632 29 11.2731 29 11.283C29 11.293 29 11.3029 29 11.3129C29 11.3228 29 11.3327 29 11.3427C29 11.3526 29 11.3626 29 11.3725C29 11.3825 29 11.3924 29 11.4024C29 11.4123 29 11.4223 29 11.4322C29 11.4422 29 11.4521 29 11.4621C29 11.472 29 11.482 29 11.4919C29 11.5019 29 11.5118 29 11.5218C29 11.5318 29 11.5417 29 11.5517C29 11.5616 29 11.5716 29 11.5815C29 11.5915 29 11.6015 29 11.6114C29 11.6214 29 11.6313 29 11.6413C29 11.6513 29 11.6612 29 11.6712C29 11.6811 29 11.6911 29 11.7011C29 11.711 29 11.721 29 11.7309C29 11.7409 29 11.7509 29 11.7608C29 11.7708 29 11.7807 29 11.7907C29 11.8006 29 11.8106 29 11.8206C29 11.8305 29 11.8405 29 11.8504C29 11.8604 29 11.8703 29 11.8803C29 11.8903 29 11.9002 29 11.9102C29 11.9201 29 11.9301 29 11.94C29 11.95 29 11.9599 29 11.9699C29 11.9798 29 11.9898 29 11.9997C29 12.0097 29 12.0196 29 12.0296C29 12.0395 29 12.0494 29 12.0594C29 12.0693 29 12.0793 29 12.0892C29 12.0992 29 12.1091 29 12.119C29 12.129 29 12.1389 29 12.1488C29 12.1588 29 12.1687 29 12.1786C29 12.1885 29 12.1985 29 12.2084C29 12.2183 29 12.2282 29 12.2382C29 12.2481 29 12.258 29 12.2679C29 12.2778 29 12.2878 29 12.2977C29 12.3076 29 12.3175 29 12.3274C29 12.3373 29 12.3472 29 12.3571C29 12.367 29 12.3769 29 12.3868C29 12.3967 29 12.4066 29 12.4165C29 12.4264 29 12.4363 29 12.4462C29 12.456 29 12.4659 29 12.4758C29 12.4857 29 12.4956 29 12.5054C29 12.5153 29 12.5252 29 12.535C29 12.5449 29 12.5548 29 12.5646C29 12.5745 29 12.5844 29 12.5942C29 12.6041 29 12.6139 29 12.6238C29 12.6336 29 12.6434 29 12.6533C29 12.6631 29 12.673 29 12.6828C29 12.6926 29 12.7024 29 12.7123C29 12.7221 29 12.7319 29 12.7417C29 12.7515 29 12.7614 29 12.7712C29 12.781 29 12.7908 29 12.8006C29 12.8104 29 12.8202 29 12.8299C29 12.8397 29 12.8495 29 12.8593C29 12.8691 29 12.8789 29 12.8886C29 12.8984 29 12.9082 29 12.9179C29 12.9277 29 12.9375 29 12.9472C29 12.957 29 12.9667 29 12.9764C29 12.9862 29 12.9959 29 13.0057C29 13.0154 29 13.0251 29 13.0348C29 13.0446 29 13.0543 29 13.064C29 13.0737 29 13.0834 29 13.0931C29 13.1028 29 13.1125 29 13.1222C29 13.1319 29 13.1416 29 13.1512C29 13.1609 29 13.1706 29 13.1803C29 13.1899 29 13.1996 29 13.2092C29 13.2189 29 13.2286 29 13.2382C29 13.2478 29 13.2575 29 13.2671C29 13.2767 29 13.2864 29 13.296C29 13.3056 29 13.3152 29 13.3248C29 13.3344 29 13.344 29 13.3536C29 13.3632 29 13.3728 29 13.3824C29 13.3919 29 13.4015 29 13.4111C29 13.4207 29 13.4302 29 13.4398C29 13.4493 29 13.4589 29 13.4684C29 13.4779 29 13.4875 29 13.497C29 13.5065 29 13.516 29 13.5255C29 13.5351 29 13.5446 29 13.5541C29 13.5636 29 13.573 29 13.5825C29 13.592 29 13.6015 29 13.6109C29 13.6204 29 13.6299 29 13.6393C29 13.6488 29 13.6582 29 13.6676C29 13.6771 29 13.6865 29 13.6959C29 13.7053 29 13.7148 29 13.7242C29 13.7336 29 13.743 29 13.7524C29 13.7617 29 13.7711 29 13.7805C29 13.7899 29 13.7992 29 13.8086C29 13.8179 29 13.8273 29 13.8366C29 13.846 29 13.8553 29 13.8646C29 13.8739 29 13.8832 29 13.8925C29 13.9018 29 13.9111 29 13.9204C29 13.9297 29 13.939 29 13.9483C29 13.9575 29 13.9668 29 13.976C29 13.9853 29 13.9945 29 14.0038C29 14.013 29 14.0222 29 14.0314C29 14.0406 29 14.0498 29 14.059C29 14.0682 29 14.0774 29 14.0866C29 14.0958 29 14.1049 29 14.1141C29 14.1232 29 14.1324 29 14.1415C29 14.1507 29 14.1598 29 14.1689C29 14.178 29 14.1871 29 14.1962C29 14.2053 29 14.2144 29 14.2235C29 14.2326 29 14.2416 29 14.2507C29 14.2598 29 14.2688 29 14.2778C29 14.2869 29 14.2959 29 14.3049C29 14.3139 29 14.3229 29 14.3319C29 14.3409 29 14.3499 29 14.3589C29 14.3679 29 14.3768 29 14.3858C29 14.3947 29 14.4037 29 14.4126C29 14.4215 29 14.4304 29 14.4394C29 14.4483 29 14.4572 29 14.466C29 14.4749 29 14.4838 29 14.4927C29 14.5015 29 14.5104 29 14.5192C29 14.5281 29 14.5369 29 14.5457C29 14.5545 29 14.5633 29 14.5721C29 14.5809 29 14.5897 29 14.5985C29 14.6073 29 14.616 29 14.6248C29 14.6335 29 14.6423 29 14.651C29 14.6597 29 14.6684 29 14.6771C29 14.6858 29 14.6945 29 14.7032C29 14.7119 29 14.7205 29 14.7292C29 14.7378 29 14.7465 29 14.7551C29 14.7637 29 14.7723 29 14.7809C29 14.7895 29 14.7981 29 14.8067C29 14.8153 29 14.8238 29 14.8324C29 14.8409 29 14.8495 29 14.858C29 14.8665 29 14.875 29 14.8835C29 14.892 29 14.9005 29 14.909C29 14.9175 29 14.9259 29 14.9344C29 14.9428 29 14.9513 29 14.9597C29 14.9681 29 14.9765 29 14.9849C29 14.9933 29 15.0017 29 15.0101C29 15.0184 29 15.0268 29 15.0351C29 15.0435 29 15.0518 29 15.0601C29 15.0684 29 15.0767 29 15.085C29 15.0933 29 15.1015 29 15.1098C29 15.1181 29 15.1263 29 15.1345C29 15.1428 29 15.151 29 15.1592C29 15.1674 29 15.1756 29 15.1837C29 15.1919 29 15.2001 29 15.2082C29 15.2163 29 15.2245 29 15.2326C29 15.2407 29 15.2488 29 15.2569C29 15.265 29 15.273 29 15.2811C29 15.2891 29 15.2972 29 15.3052C29 15.3132 29 15.3212 29 15.3292C29 15.3372 29 15.3452 29 15.3532C29 15.3611 29 15.3691 29 15.377C29 15.385 29 15.3929 29 15.4008C29 15.4087 29 15.4166 29 15.4244C29 15.4323 29 15.4402 29 15.448C29 15.4559 29 15.4637 29 15.4715C29 15.4793 29 15.4871 29 15.4949C29 15.5026 29 15.5104 29 15.5182C29 15.5259 29 15.5336 29 15.5413C29 15.5491 29 15.5568 29 15.5644C29 15.5721 29 15.5798 29 15.5874C29 15.5951 29 15.6027 29 15.6103C29 15.6179 29 15.6255 29 15.6331C29 15.6407 29 15.6483 29 15.6558C29 15.6634 29 15.6709 29 15.6784C29 15.6859 29 15.6934 29 15.7009C29 15.7084 29 15.7159 29 15.7233C29 15.7308 29 15.7382 29 15.7456C29 15.753 29 15.7604 29 15.7678C29 15.7752 29 15.7826 29 15.7899C29 15.7972 29 15.8046 29 15.8119C29 15.8192 29 15.8265 29 15.8338C29 15.841 29 15.8483 29 15.8555C29 15.8628 29 15.87 29 15.8772C29 15.8844 29 15.8916 29 15.8988C29 15.9059 29 15.9131 29 15.9202C29 15.9273 29 15.9345 29 15.9416C29 15.9487 29 15.9557 29 15.9628C29 15.9698 29 15.9769 29 15.9839C29 15.9909 29 15.9979 29 16.0049C29 16.0119 29 16.0189 29 16.0258C29 16.0328 29 16.0397 29 16.0466C29 16.0535 29 16.0604 29 16.0673C29 16.0742 29 16.081 29 16.0879C29 16.0947 29 16.1015 29 16.1083C29 16.1151 29 16.1219 29 16.1286C29 16.1354 29 16.1421 29 16.1489C29 16.1556 29 16.1623 29 16.169C29 16.1756 29 16.1823 29 16.189C29 16.1956 29 16.2022 29 16.2088C29 16.2154 29 16.222 29 16.2286C29 16.2351 29 16.2417 29 16.2482C29 16.2547 29 16.2612 29 16.2677C29 16.2742 29 16.2807 29 16.2871C29 16.2936 29 16.3 29 16.3064C29 16.3128 29 16.3192 29 16.3255C29 16.3319 29 16.3382 29 16.3446C29 16.3509 29 16.3572 29 16.3635C29 16.3697 29 16.376 29 16.3822C29 16.3885 29 16.3947 29 16.4009C29 16.4071 29 16.4133 29 16.4194C29 16.4256 29 16.4317 29 16.4378C29 16.4439 29 16.45 29 16.4561C29 16.4622 29 16.4682 29 16.4743C29 16.4803 29 16.4863 29 16.4923C29 16.4983 29 16.5042 29 16.5102C29 16.5161 29 16.522 29 16.5279C29 16.5338 29 16.5397 29 16.5456C29 16.5514 29 16.5573 29 16.5631C29 16.5689 29 16.5747 29 16.5805C29 16.5862 29 16.592 29 16.5977C29 16.6034 29 16.6091 29 16.6148C29 16.6205 29 16.6261 29 16.6318C29 16.6374 29 16.643 29 16.6486C29 16.6542 29 16.6598 29 16.6653C29 16.6709 29 16.6764 29 16.6819C29 16.6874 29 16.6929 29 16.6983C29 16.7038 29 16.7092 29 16.7146C29 16.72 29 16.7254 29 16.7308C29 16.7361 29 16.7415 29 16.7468C29 16.7521 29 16.7574 29 16.7627C29 16.768 29 16.7732 29 16.7784C29 16.7836 29 16.7888 29 16.794C29 16.7992 29 16.8044 29 16.8095C29 16.8146 29 16.8197 29 16.8248C29 16.8299 29 16.8349 29 16.84C29 16.845 29 16.85 29 16.855C29 16.86 29 16.865 29 16.8699C29 16.8748 29 16.8798 29 16.8846C29 16.8895 29 16.8944 29 16.8992C29 16.9041 29 16.9089 29 16.9137C29 16.9185 29 16.9233 29 16.928C29 16.9327 29 16.9375 29 16.9422C29 16.9469 29 16.9515 29 16.9562C29 16.9608 29 16.9654 29 16.97C29 16.9746 29 16.9792 29 16.9837C29 16.9883 29 16.9928 29 16.9973C29 17.0018 29 17.0063 29 17.0107C29 17.0152 29 17.0196 29 17.024C29 17.0284 29 17.0327 29 17.0371C29 17.0414 29 17.0457 29 17.05C29 17.0543 29 17.0586 29 17.0628C29 17.0671 29 17.0713 29 17.0755C29 17.0797 29 17.0838 29 17.088C29 17.0921 29 17.0962 29 17.1003C29 17.1044 29 17.1085 29 17.1125C29 17.1165 29 17.1205 29 17.1245C29 17.1285 29 17.1325 29 17.1364C29 17.1403 29 17.1442 29 17.1481C29 17.152 29 17.1558 29 17.1596C29 17.1635 29 17.1673 29 17.171C29 17.1748 29 17.1785 29 17.1822C29 17.186 29 17.1896 29 17.1933C29 17.197 29 17.2006 29 17.2042C29 17.2078 29 17.2114 29 17.215C29 17.2185 29 17.222 29 17.2255C29 17.229 29 17.2325 29 17.2359C29 17.2394 29 17.2428 29 17.2462C29 17.2496 29 17.2529 29 17.2563C29 17.2596 29 17.2629 29 17.2662C29 17.2695 29 17.2727 29 17.2759C29 17.2792 29 17.2824 29 17.2855C29 17.2887 29 17.2918 29 17.2949C29 17.2981 29 17.3011 29 17.3042C29 17.3072 29 17.3103 29 17.3133C29 17.3163 29 17.3192 29 17.3222C29 17.3251 29 17.328 29 17.3309C29 17.3338 29 17.3366 29 17.3395C29 17.3423 29 17.3451 29 17.3479C29 17.3506 29 17.3534 29 17.3561C29 17.3588 29 17.3615 29 17.3641C29 17.3668 29 17.3694 29 17.372C29 17.3746 29 17.3771 29 17.3797C29 17.3822 29 17.3847 29 17.3872C29 17.3897 29 17.3921 29 17.3945C29 17.397 29 17.3993 29 17.4017C29 17.4041 29 17.4064 29 17.4087C29 17.411 29 17.4133 29 17.4155H30ZM22.5 9.75C22.5 8.64764 23.3976 7.75 24.5 7.75V6.75C22.8454 6.75 21.5 8.09536 21.5 9.75H22.5ZM24.5 7.75C25.6024 7.75 26.5 8.64764 26.5 9.75H27.5C27.5 8.09536 26.1546 6.75 24.5 6.75V7.75ZM26.5 9.75V17.0915H27.5V9.75H26.5ZM27.0511 16.5941C26.1452 16.5011 25.1863 16.426 24.1835 16.3703L24.128 17.3687C25.1165 17.4237 26.0598 17.4976 26.9489 17.5889L27.0511 16.5941ZM24.1864 16.3704C24.1349 16.3673 23.8463 16.3636 22.0084 16.3328L21.9916 17.3327C22.9181 17.3482 23.4482 17.3568 23.7507 17.3618C23.9022 17.3644 23.9962 17.366 24.0545 17.3671C24.1194 17.3683 24.1293 17.3688 24.1251 17.3686L24.1864 16.3704ZM22.5 16.8328V9.75H21.5V16.8328H22.5ZM45.75 54.125H25.75V55.125H45.75V54.125ZM26.25 54.625V49.25H25.25V54.625H26.25ZM25.75 49.75H45.75V48.75H25.75V49.75ZM45.25 49.25V54.625H46.25V49.25H45.25ZM45.7625 39.2627C45.4345 39.5908 45.25 40.0358 45.25 40.5H46.25C46.25 40.3012 46.329 40.1104 46.4698 39.9696L45.7625 39.2627ZM45.25 40.5V46.75H46.25V40.5H45.25ZM45.75 46.25H25.75V47.25H45.75V46.25ZM26.25 46.75V40.5H25.25V46.75H26.25ZM26.25 40.5C26.25 40.0358 26.0655 39.5908 25.7375 39.2627L25.0302 39.9696C25.171 40.1104 25.25 40.3012 25.25 40.5H26.25ZM25.7374 39.2626L15.0337 28.5588L14.3266 29.2659L25.0303 39.9697L25.7374 39.2626ZM15.1545 29.0705L18.3702 19.4232L17.4215 19.107L14.2058 28.7543L15.1545 29.0705ZM17.8876 19.7651L24.0327 19.8668L24.0493 18.8669L17.9042 18.7652L17.8876 19.7651ZM24.013 19.8661C24.7986 19.9101 27.2837 20.1072 29.5652 20.4892C30.7096 20.6808 31.7774 20.9149 32.5495 21.1907C32.9386 21.3296 33.2214 21.4684 33.3977 21.5979C33.5855 21.7359 33.5587 21.7907 33.5587 21.7499H34.5587C34.5587 21.3118 34.2687 20.997 33.9897 20.792C33.6991 20.5785 33.3113 20.4009 32.8858 20.2489C32.0288 19.9429 30.8911 19.6973 29.7303 19.5029C27.4015 19.113 24.8778 18.913 24.069 18.8677L24.013 19.8661ZM33.5587 21.7499C33.5587 21.6476 33.6007 21.6103 33.5724 21.6498C33.5518 21.6785 33.5002 21.7375 33.3937 21.8188C33.1808 21.9815 32.7892 22.2028 32.1174 22.4364L32.4458 23.3809C33.1797 23.1257 33.6766 22.8612 34.0009 22.6134C34.163 22.4896 34.2921 22.3622 34.3851 22.2325C34.4704 22.1135 34.5587 21.9457 34.5587 21.7499H33.5587ZM32.1175 22.4363C30.4788 23.0058 27.8907 23.4129 24.3925 23.6282L24.454 24.6263C27.9743 24.4096 30.6739 23.9967 32.4458 23.3809L32.1175 22.4363ZM24.3925 23.6282C23.4487 23.6863 22.7218 24.4836 22.7509 25.4287L23.7504 25.398C23.7379 24.9929 24.0495 24.6512 24.454 24.6263L24.3925 23.6282ZM22.7509 25.4287C22.7799 26.3738 23.5545 27.1249 24.5 27.1249V26.1249C24.0948 26.1249 23.7628 25.803 23.7504 25.398L22.7509 25.4287ZM24.5 27.1249C27.6701 27.1249 30.25 29.7048 30.25 32.8749H31.25C31.25 29.1525 28.2224 26.1249 24.5 26.1249V27.1249ZM30.25 32.8749C30.25 33.8413 31.0336 34.6249 32 34.6249V33.6249C31.5859 33.6249 31.25 33.289 31.25 32.8749H30.25ZM32 34.6249C32.9664 34.6249 33.75 33.8413 33.75 32.8749H32.75C32.75 33.289 32.4141 33.6249 32 33.6249V34.6249ZM33.75 32.8749C33.75 29.9526 32.3877 27.3431 30.2679 25.648L29.6434 26.429C31.5368 27.9432 32.75 30.2704 32.75 32.8749H33.75ZM30.0405 26.5312C31.2926 26.3155 32.3723 26.0532 33.2666 25.7424L32.9384 24.7978C32.1109 25.0853 31.0876 25.336 29.8707 25.5458L30.0405 26.5312ZM33.2667 25.7424C35.4787 24.9735 36.8803 23.779 37.0431 22.0779L36.0476 21.9826C35.942 23.0867 35.0306 24.0705 32.9383 24.7978L33.2667 25.7424ZM36.2492 22.4331C37.1601 23.1027 38.2847 23.5 39.5 23.5V22.5C38.506 22.5 37.5874 22.1758 36.8415 21.6274L36.2492 22.4331ZM39.5 23.5C40.5159 23.5 41.4686 23.2219 42.2861 22.7395L41.7779 21.8783C41.1091 22.2729 40.3311 22.5 39.5 22.5V23.5ZM41.5351 22.3644C41.8419 25.109 44.1741 27.25 47 27.25V26.25C44.6899 26.25 42.7799 24.4983 42.5289 22.2533L41.5351 22.3644ZM47 27.25C48.0016 27.25 48.9414 26.9794 49.7509 26.5097L49.2491 25.6448C48.5866 26.0291 47.8192 26.25 47 26.25V27.25ZM49 26.0772V31.4463H50V26.0772H49ZM49 31.4463C49 34.4 47.8509 37.1742 45.7626 39.2626L46.4697 39.9697C48.7456 37.6938 50 34.6652 50 31.4463H49Z" fill="#7B8191" mask="url(#path-5-outside-1)"/>
</svg>
