<svg width="48" height="48" viewBox="0 0 48 48" fill="none" xmlns="http://www.w3.org/2000/svg">
<path d="M19.9238 15.3809V24.9012C19.9238 25.7761 21.062 26.1141 21.5396 25.3814L28.0585 15.3809H19.9238Z" fill="#EBE0DA"/>
<path d="M30.1268 0C25.7521 0 18.2997 0 17.8562 0C17.2681 0 16.7861 0.481934 16.7861 1.07007V17.8198C16.7861 18.408 17.2681 18.8899 17.8562 18.8899H30.1268C30.715 18.8899 31.1973 18.408 31.1973 17.8198V1.07007C31.1973 0.481934 30.715 0 30.1268 0V0Z" fill="#FFF5F4"/>
<path d="M30.0117 46.3688C30.0117 46.8188 30.1937 47.2268 30.4896 47.5216C30.7848 47.8179 31.1927 47.9999 31.6425 47.9999H46.2579C47.1584 47.9999 47.889 47.2697 47.889 46.3688C47.889 43.271 45.9935 40.59 43.2579 39.4694C42.4186 39.1255 41.5023 38.9318 40.5421 38.9182C43.147 38.2169 45.0634 35.8402 45.0634 33.0145C45.0634 29.6388 42.327 26.9014 38.9502 26.9014C35.5745 26.9014 32.8374 29.6388 32.8374 33.0145C32.8374 35.8402 34.7534 38.2169 37.3583 38.9182C36.3981 38.9318 35.4818 39.1255 34.6425 39.4694C33.9855 39.7378 33.3757 40.0981 32.8293 40.5336C31.1902 41.7966 30.0117 43.9481 30.0117 46.3688Z" fill="#4395FB"/>
<path d="M30.0117 46.3684C30.0117 46.8185 30.1937 47.2264 30.4896 47.5212C30.7848 47.8175 31.1927 47.9995 31.6425 47.9995H34.0173C34.9182 47.9995 35.6484 47.2693 35.6484 46.3684C35.6484 43.9983 34.5326 41.8732 32.8293 40.5332C31.1902 41.7963 30.0117 43.9478 30.0117 46.3684Z" fill="#1980F9"/>
<path d="M17.9711 46.3688C17.9711 46.8188 17.7891 47.2268 17.4928 47.5216C17.198 47.8179 16.79 47.9999 16.34 47.9999H1.72485C0.823974 47.9999 0.09375 47.2697 0.09375 46.3688C0.09375 43.271 1.98926 40.59 4.72485 39.4694C5.56421 39.1255 6.48047 38.9318 7.44031 38.9182C4.83582 38.2169 2.91943 35.8402 2.91943 33.0145C2.91943 29.6388 5.65576 26.9014 9.03223 26.9014C12.4083 26.9014 15.1454 29.6388 15.1454 33.0145C15.1454 35.8402 13.229 38.2169 10.6245 38.9182C11.5844 38.9318 12.5006 39.1255 13.34 39.4694C13.9973 39.7378 14.6071 40.0981 15.1531 40.5336C16.7926 41.7966 17.9711 43.9481 17.9711 46.3688Z" fill="#4395FB"/>
<path d="M17.9707 46.3684C17.9707 46.8185 17.7887 47.2264 17.4924 47.5212C17.1976 47.8175 16.7897 47.9995 16.3396 47.9995H13.9647C13.0642 47.9995 12.334 47.2693 12.334 46.3684C12.334 43.9983 13.4498 41.8732 15.1527 40.5332C16.7922 41.7963 17.9707 43.9478 17.9707 46.3684Z" fill="#1980F9"/>
<path d="M32.9301 46.3688C32.9301 46.8188 32.748 47.2268 32.4521 47.5216C32.1581 47.8179 31.749 47.9999 31.2993 47.9999H16.6838C15.783 47.9999 15.0527 47.2697 15.0527 46.3688C15.0527 42.2961 18.3212 38.9761 22.3997 38.9182C19.7948 38.2169 17.8784 35.8402 17.8784 33.0145C17.8784 29.6388 20.6155 26.9014 23.9916 26.9014C24.5826 26.9014 25.155 26.9852 25.6956 27.142C28.2418 27.8802 30.1044 30.2295 30.1044 33.0145C30.1044 35.7992 28.2426 38.1488 25.6956 38.8871C25.6586 38.8977 25.6205 38.9083 25.5835 38.9182C25.6216 38.9189 25.6586 38.9189 25.6956 38.9211C29.722 39.0361 32.9301 42.335 32.9301 46.3688Z" fill="#63A6FD"/>
<path d="M39.9835 18.8289L43.6947 15.1178C43.9799 14.8325 43.9799 14.3703 43.6947 14.0851C43.4098 13.7998 42.9472 13.7998 42.662 14.0851L38.9508 17.7962L35.2396 14.0851C34.9543 13.7998 34.4922 13.7998 34.2069 14.0851C33.9216 14.3703 33.9216 14.8329 34.2069 15.1178L37.9181 18.8289L34.2069 22.5401C33.7455 23.0016 34.0787 23.7871 34.7232 23.7871C35.14 23.7871 34.9126 23.9002 38.9508 19.862C42.9897 23.901 42.7616 23.7871 43.1783 23.7871C43.8232 23.7871 44.1565 23.0016 43.6947 22.5401L39.9835 18.8289Z" fill="#F64346"/>
<path d="M12.7437 14.0848L4.81341 22.0151L1.94158 19.0491C1.66106 18.7595 1.19854 18.7521 0.908867 19.0327C0.619194 19.3132 0.611503 19.7753 0.892021 20.065L3.91363 23.1851C4.39153 23.6791 5.1939 23.7004 5.69451 23.1998L13.7768 15.1175C14.0617 14.8322 14.0617 14.3701 13.7768 14.0848C13.4915 13.7999 13.029 13.7999 12.7437 14.0848Z" fill="#1980F9"/>
<path d="M19.9236 5.43738H28.0582C28.4618 5.43738 28.7888 5.11035 28.7888 4.70679C28.7888 4.30359 28.4618 3.97656 28.0582 3.97656H19.9236C19.5204 3.97656 19.1934 4.30359 19.1934 4.70679C19.1934 5.11035 19.5204 5.43738 19.9236 5.43738Z" fill="#C8BEBC"/>
<path d="M28.0582 8.71484H19.9236C19.5204 8.71484 19.1934 9.04187 19.1934 9.44507C19.1934 9.84827 19.5204 10.1753 19.9236 10.1753H28.0582C28.4618 10.1753 28.7888 9.84827 28.7888 9.44507C28.7888 9.04187 28.4618 8.71484 28.0582 8.71484Z" fill="#C8BEBC"/>
<path d="M22.9199 13.4541H19.9236C19.5204 13.4541 19.1934 13.7811 19.1934 14.1843C19.1934 14.5875 19.5204 14.9146 19.9236 14.9146H22.9199C23.3231 14.9146 23.6501 14.5875 23.6501 14.1843C23.6501 13.7811 23.3231 13.4541 22.9199 13.4541Z" fill="#C8BEBC"/>
</svg>
