<svg width="14" height="14" viewBox="0 0 14 14" fill="none" xmlns="http://www.w3.org/2000/svg">
<path fill-rule="evenodd" clip-rule="evenodd" d="M4.33337 3.00065H3.00004V2.33398H1.66671V4.33398H12.3334V2.33398H11V3.00065H9.66671V2.33398H4.33337V3.00065ZM12.3334 5.66732H1.66671V12.334H12.3334V5.66732ZM9.66671 1.00065H4.33337V0.333984H3.00004V1.00065H1.66671C0.930328 1.00065 0.333374 1.5976 0.333374 2.33398V12.334C0.333374 13.0704 0.930328 13.6673 1.66671 13.6673H12.3334C13.0698 13.6673 13.6667 13.0704 13.6667 12.334V2.33398C13.6667 1.5976 13.0698 1.00065 12.3334 1.00065H11V0.333984H9.66671V1.00065ZM5.00004 8.33398H3.66671V7.00065H5.00004V8.33398ZM6.33337 8.33398H7.66671V7.00065H6.33337V8.33398ZM9.00004 8.33398V7.00065H10.3334V8.33398H9.00004ZM3.66671 11.0007H5.00004V9.66732H3.66671V11.0007ZM7.66671 11.0007H6.33337V9.66732H7.66671V11.0007Z" fill="#535353"/>
</svg>
