<svg width="80" height="80" viewBox="0 0 80 80" fill="none" xmlns="http://www.w3.org/2000/svg">
<path d="M37.5 35H46.25V37.5H37.5V35Z" fill="#0071BC"/>
<path d="M37.5 40H46.25V42.5H37.5V40Z" fill="#0071BC"/>
<path d="M37.5 45H46.25V47.5H37.5V45Z" fill="#0071BC"/>
<path d="M58.75 35H63.75V37.5H58.75V35Z" fill="#0071BC"/>
<path d="M58.75 40H63.75V42.5H58.75V40Z" fill="#0071BC"/>
<path d="M58.75 45H63.75V47.5H58.75V45Z" fill="#0071BC"/>
<path d="M46.25 28.75H48.75V35H46.25V28.75Z" fill="#0071BC"/>
<path d="M51.25 28.75H53.75V35H51.25V28.75Z" fill="#0071BC"/>
<path d="M56.25 28.75H58.75V35H56.25V28.75Z" fill="#0071BC"/>
<path d="M46.25 47.5H48.75V53.75H46.25V47.5Z" fill="#0071BC"/>
<path d="M51.25 47.5H53.75V53.75H51.25V47.5Z" fill="#0071BC"/>
<path d="M56.25 47.5H58.75V53.75H56.25V47.5Z" fill="#0071BC"/>
<path d="M55 15H38.75V12.5H54.4825L60.3662 6.61627L62.1338 8.38377L55.8838 14.6338C55.6494 14.8682 55.3315 15 55 15Z" fill="#6CBBC7"/>
<path d="M65 6.25C65 4.86929 63.8807 3.75 62.5 3.75C61.1193 3.75 60 4.86929 60 6.25C60 7.63071 61.1193 8.75 62.5 8.75C63.8807 8.75 65 7.63071 65 6.25Z" fill="#FF5086"/>
<path d="M55.3662 73.3838L51.9825 70H38.75V67.5H52.5C52.8315 67.5001 53.1494 67.6318 53.3838 67.8662L57.1338 71.6162L55.3662 73.3838Z" fill="#6CBBC7"/>
<path d="M60 73.75C60 72.3693 58.8807 71.25 57.5 71.25C56.1193 71.25 55 72.3693 55 73.75C55 75.1307 56.1193 76.25 57.5 76.25C58.8807 76.25 60 75.1307 60 73.75Z" fill="#FF5086"/>
<path d="M70 68.75H67.5V62.5H40V60H68.75C69.0815 60 69.3995 60.1317 69.6339 60.3661C69.8683 60.6005 70 60.9185 70 61.25V68.75Z" fill="#6CBBC7"/>
<path d="M71.25 70C71.25 68.6193 70.1307 67.5 68.75 67.5C67.3693 67.5 66.25 68.6193 66.25 70C66.25 71.3807 67.3693 72.5 68.75 72.5C70.1307 72.5 71.25 71.3807 71.25 70Z" fill="#FF5086"/>
<path d="M65 22.5H40V20H64.4825L69.1162 15.3663L70.8838 17.1338L65.8838 22.1338C65.6494 22.3682 65.3315 22.4999 65 22.5Z" fill="#6CBBC7"/>
<path d="M73.75 15C73.75 13.6193 72.6307 12.5 71.25 12.5C69.8693 12.5 68.75 13.6193 68.75 15C68.75 16.3807 69.8693 17.5 71.25 17.5C72.6307 17.5 73.75 16.3807 73.75 15Z" fill="#FF5086"/>
<path d="M38.75 27.5H73.75V30H38.75V27.5Z" fill="#6CBBC7"/>
<path d="M76.25 28.75C76.25 27.3693 75.1307 26.25 73.75 26.25C72.3693 26.25 71.25 27.3693 71.25 28.75C71.25 30.1307 72.3693 31.25 73.75 31.25C75.1307 31.25 76.25 30.1307 76.25 28.75Z" fill="#FF5086"/>
<path d="M38.75 52.5H75V55H38.75V52.5Z" fill="#6CBBC7"/>
<path d="M76.25 53.75C76.25 52.3693 75.1307 51.25 73.75 51.25C72.3693 51.25 71.25 52.3693 71.25 53.75C71.25 55.1307 72.3693 56.25 73.75 56.25C75.1307 56.25 76.25 55.1307 76.25 53.75Z" fill="#FF5086"/>
<path d="M32.5 2.5C30.3981 2.50372 28.3676 3.26346 26.7794 4.64044C25.1913 6.01743 24.1514 7.91977 23.8499 10H23.75C21.8127 9.99779 19.9076 10.4965 18.2198 11.4477C16.5321 12.399 15.1189 13.7704 14.1175 15.4289C13.1161 17.0874 12.5605 18.9767 12.5047 20.9133C12.4488 22.8498 12.8946 24.7679 13.7988 26.4814C11.0901 26.9689 8.59048 28.2592 6.6241 30.1847C4.65771 32.1103 3.31535 34.5823 2.77113 37.2802C2.22692 39.978 2.50597 42.7771 3.57209 45.3144C4.63821 47.8517 6.44219 50.0101 8.75002 51.5095V53.75C8.75302 55.5207 9.38197 57.2334 10.5257 58.5851C11.6694 59.9369 13.2543 60.8408 15 61.137V62.5C15.0022 64.4885 15.793 66.3949 17.1991 67.8009C18.6052 69.207 20.5116 69.9978 22.5 70H23.8499C24.1645 72.1893 25.297 74.1781 27.0194 75.5657C28.7417 76.9534 30.926 77.6368 33.1321 77.4783C35.3382 77.3198 37.4023 76.3312 38.9086 74.7116C40.415 73.092 41.2516 70.9618 41.25 68.75V11.25C41.2473 8.93018 40.3246 6.70614 38.6843 5.06578C37.0439 3.42542 34.8199 2.50269 32.5 2.5Z" fill="#FF5086"/>
<path d="M45 33.75H60V48.75H45V33.75Z" fill="#6CBBC7"/>
<path d="M37.8227 4.32104C38.4356 7.84775 38.7459 11.4204 38.7502 15C38.7502 34.8125 29.5204 52.4598 15.1377 63.9103C15.4672 65.6222 16.3821 67.1661 17.7254 68.2772C19.0688 69.3883 20.7569 69.9974 22.5002 70H23.85C24.1646 72.1893 25.2972 74.1781 27.0195 75.5657C28.7419 76.9533 30.9261 77.6367 33.1323 77.4782C35.3384 77.3198 37.4025 76.3312 38.9088 74.7116C40.4152 73.092 41.2518 70.9618 41.2502 68.75V11.25C41.2491 9.90941 40.9394 8.58712 40.345 7.38555C39.7506 6.18397 38.8876 5.13539 37.8227 4.32104Z" fill="#FF2A6C"/>
<path d="M25 56.25C23.343 56.2481 21.7544 55.589 20.5827 54.4173C19.411 53.2456 18.7519 51.657 18.75 50V48.75H21.25V50C21.25 50.9946 21.6451 51.9484 22.3483 52.6516C23.0516 53.3549 24.0054 53.75 25 53.75C25.9946 53.75 26.9484 53.3549 27.6517 52.6516C28.3549 51.9484 28.75 50.9946 28.75 50V48.75H31.25V50C31.2481 51.657 30.589 53.2456 29.4173 54.4173C28.2456 55.589 26.657 56.2481 25 56.25Z" fill="#B22639"/>
<path d="M26.25 46.25H23.75V43.75C23.75 42.7554 23.3549 41.8016 22.6517 41.0984C21.9484 40.3951 20.9946 40 20 40C19.0054 40 18.0516 40.3951 17.3483 41.0984C16.6451 41.8016 16.25 42.7554 16.25 43.75V46.25H13.75V43.75C13.75 42.0924 14.4085 40.5027 15.5806 39.3306C16.7527 38.1585 18.3424 37.5 20 37.5C21.6576 37.5 23.2473 38.1585 24.4194 39.3306C25.5915 40.5027 26.25 42.0924 26.25 43.75V46.25Z" fill="#B22639"/>
<path d="M27.5 37.5H26.25V35H27.5C28.8261 35 30.0979 34.4732 31.0355 33.5355C31.9732 32.5979 32.5 31.3261 32.5 30C32.5 28.6739 31.9732 27.4021 31.0355 26.4645C30.0979 25.5268 28.8261 25 27.5 25H26.25V22.5H27.5C29.4891 22.5 31.3968 23.2902 32.8033 24.6967C34.2098 26.1032 35 28.0109 35 30C35 31.9891 34.2098 33.8968 32.8033 35.3033C31.3968 36.7098 29.4891 37.5 27.5 37.5Z" fill="#B22639"/>
<path d="M30 70H28.75V67.5H30C30.9946 67.5 31.9484 67.1049 32.6517 66.4016C33.3549 65.6984 33.75 64.7446 33.75 63.75C33.75 62.7554 33.3549 61.8016 32.6517 61.0984C31.9484 60.3951 30.9946 60 30 60H28.75V57.5H30C31.6576 57.5 33.2473 58.1585 34.4194 59.3306C35.5915 60.5027 36.25 62.0924 36.25 63.75C36.25 65.4076 35.5915 66.9973 34.4194 68.1694C33.2473 69.3415 31.6576 70 30 70Z" fill="#B22639"/>
<path d="M29.3306 20C28.5858 20.0022 27.848 19.8565 27.1599 19.5716C26.4718 19.2866 25.847 18.8679 25.3218 18.3399L24.1157 17.1338L25.8845 15.3663L27.0899 16.5722C27.6854 17.1613 28.4899 17.4907 29.3275 17.4884C30.1652 17.4862 30.9679 17.1524 31.5601 16.5601C32.1524 15.9677 32.4861 15.165 32.4883 14.3274C32.4905 13.4897 32.161 12.6853 31.5718 12.0899L30.3657 10.8838L32.1345 9.11627L33.3399 10.3222C34.1327 11.1151 34.6725 12.1253 34.8912 13.2251C35.1099 14.3248 34.9975 15.4647 34.5684 16.5005C34.1392 17.5364 33.4125 18.4218 32.4802 19.0447C31.5479 19.6676 30.4518 20 29.3306 20Z" fill="#B22639"/>
<path d="M41.25 51.25H38.75V48.75C38.7481 47.093 38.089 45.5044 36.9173 44.3327C35.7456 43.161 34.157 42.5019 32.5 42.5H31.25V40H32.5C34.8198 40.0027 37.0439 40.9254 38.6842 42.5658C40.3246 44.2061 41.2473 46.4302 41.25 48.75V51.25Z" fill="#B22639"/>
<path d="M45 46.7399V48.75H60V35.8677C55.5663 40.2149 50.5111 43.879 45 46.7399Z" fill="#518C95"/>
<path d="M50 38.75H55V43.75H50V38.75Z" fill="#0071BC"/>
<path d="M50.1431 43.75H55.0001V40.2684C53.4395 41.5038 51.8205 42.6644 50.1431 43.75Z" fill="#005A97"/>
</svg>
