<svg width="80" height="80" viewBox="0 0 80 80" fill="none" xmlns="http://www.w3.org/2000/svg">
<path d="M56.4062 61.0938L51.7188 65.7812V75.3125L56.4062 80H80V61.0938H56.4062Z" fill="#737EE6"/>
<path d="M0 56.4062V80H23.5938L28.2812 75.3125V61.0938L23.5938 56.4062H0Z" fill="#F27281"/>
<path d="M23.5938 47.0312H56.4062V80H23.5938V47.0312Z" fill="#FDBF00"/>
<path d="M49.3752 23.5938H48.1484V18.9062H49.3752C53.2522 18.9062 56.4065 15.5957 56.4065 11.7188V9.375H49.3752V4.6875H61.094V11.7188C61.094 18.1799 55.8364 23.5938 49.3752 23.5938Z" fill="#FDBF00"/>
<path d="M31.8518 23.5938H30.625C24.1638 23.5938 18.9062 18.1799 18.9062 11.7188V4.6875H30.625V9.375H23.5938V11.7188C23.5938 15.5957 26.748 18.9062 30.625 18.9062H31.8518V23.5938Z" fill="#FDBF00"/>
<path d="M28.2812 0V16.5625C28.2812 18.3905 28.703 20.1251 29.5001 21.7188C30.4376 23.6407 31.9379 25.4688 33.4375 27.2028C35.4999 29.6875 37.6562 32.2186 37.6562 34.375V40H42.3438V34.375C42.3438 32.2186 44.5001 29.6875 46.5625 27.2028C48.0621 25.4688 49.5624 23.6407 50.4999 21.7657C51.297 20.1251 51.7188 18.3905 51.7188 16.5625V0H28.2812Z" fill="#FFDA2D"/>
<path d="M74.11 47.7085L65.3118 43.0851L56.5184 47.7085L58.1981 37.9148L51.0845 30.9794L60.9154 29.5511L65.3118 20.6406L69.7087 29.5511L79.7002 30.9794L72.4254 37.9148L74.11 47.7085Z" fill="#FF9100"/>
<path d="M23.4816 47.7079L14.6882 43.0845L5.89001 47.7079L7.57458 37.9142L0.299805 30.9788L10.2913 29.5505L14.6882 20.6406L19.0852 29.5505L28.9155 30.9788L21.8019 37.9142L23.4816 47.7079Z" fill="#FDBF00"/>
<path d="M47.0312 65.7812V70.4688H32.9688V65.7812H37.6562V61.0938H32.9688V56.4062H42.3438V65.7812H47.0312Z" fill="#596C76"/>
<path d="M32.9688 37.6562H47.0312V42.3438H32.9688V37.6562Z" fill="#FDBF00"/>
<path d="M40 37.6562H47.0312V42.3438H40V37.6562Z" fill="#FDBF00"/>
</svg>
