<svg width="16" height="16" viewBox="0 0 16 16" fill="none" xmlns="http://www.w3.org/2000/svg">
  <g clip-path="url(#clip0)">
    <path d="M4 1H12V4H4V1Z" fill="#F0F7FF" />
    <path d="M12.333 3.53125H7.99966L7.33301 5.33334L7.99966 8L12.333 4.66666V3.53125Z" fill="#FF7B4A" />
    <path d="M3.66699 3.53125V4.66666L8.00034 8V3.53125H3.66699Z" fill="#FF7B4A" />
    <path d="M12.333 12.4688H7.99966L7.33301 10.6667L7.99966 8L12.333 11.3333V12.4688Z" fill="#F0F7FF" />
    <path d="M3.66699 12.4688V11.3333L8.00034 8V12.4688H3.66699Z" fill="#F0F7FF" />
    <path d="M8.46909 12.1979V8.33337H8.00034L7.66699 12.6667L8.00034 15.4688H12.3337V12.1979H8.46909Z" fill="#FF7B4A" />
    <path d="M8.00034 8.33337H7.53159V12.1979H3.66699V15.4688H8.00034V8.33337Z" fill="#FF7B4A" />
    <path d="M12.6247 3.70319V0.9375H13.5004V0H8.00034L7.66699 0.46875L8.00034 0.9375H11.6872V3.70319C11.6872 4.57081 11.2623 5.38522 10.5508 5.88166L8.00034 7.661L7.66699 8L8.00034 8.339L10.5507 10.1184C11.2623 10.6148 11.6871 11.4292 11.6871 12.2968V15.0625H8.00034L7.66699 15.3333L8.00034 16H13.5004V15.0625H12.6247V12.2968C12.6247 11.1229 12.0499 10.0211 11.0872 9.34947L9.1529 8L11.0872 6.6505C12.0499 5.97884 12.6247 4.87703 12.6247 3.70319Z" fill="#47568C" />
    <path d="M4.31319 15.0625V12.2968C4.31319 11.4292 4.738 10.6148 5.44956 10.1183L8 8.339V7.661L5.44956 5.88163C4.738 5.38519 4.31319 4.57081 4.31319 3.70316V0.9375H8V0H2.5V0.9375H3.37569V3.70319C3.37569 4.87706 3.95044 5.97884 4.91316 6.65053L6.84744 8L4.91319 9.3495C3.95047 10.0212 3.37572 11.123 3.37572 12.2968V15.0625H2.5V16H8V15.0625H4.31319Z" fill="#47568C" />
  </g>
  <defs>
    <clipPath id="clip0">
      <rect width="16" height="16" fill="white" />
    </clipPath>
  </defs>
</svg>