<svg width="360" height="148" viewBox="0 0 360 148" fill="none" xmlns="http://www.w3.org/2000/svg">
  <rect width="360" height="148" rx="16" fill="#6469E9" />
  <mask id="mask0" mask-type="alpha" maskUnits="userSpaceOnUse" x="0" y="0" width="360" height="148">
    <rect width="360" height="148" rx="16" fill="#E8ACFE" />
  </mask>
  <g mask="url(#mask0)">
    <path d="M-3.49994 115.97C49.9998 120.388 122.333 90.3832 140 80.0747C134 75.8409 121.5 66.821 119.5 64.612C117.5 62.4031 97.6666 61.4827 87.9999 61.2986C68.3332 62.219 26.7999 64.1702 17.9999 64.612C9.19992 65.0538 -22.3334 75.1046 -37 80.0747C-53.6667 101.428 -73.9303 110.154 -3.49994 115.97Z" fill="#4961E2" />
    <path d="M52.9998 81.7313C14.9998 79.9641 -9.50024 106.766 -17.0002 120.388H-19C-19.8333 119.099 -21.9 115.749 -23.5 112.657C-25.5 108.791 -36 81.7313 -38.5 79.5223C-41 77.3134 -42.0002 36.4477 -42.5002 33.6865C-43.0002 30.9253 -27.0002 -23.7463 -26.0002 -27.0598C-25.2002 -29.7105 -7.66691 -49.1493 0.999756 -58.5374C33.9998 -58.5374 103 -59.0896 115 -61.2986C130 -64.0598 250 -61.2986 252 -61.2986C253.6 -61.2986 308.333 -53.1991 335.5 -49.1493C338 -48.2289 330.5 -29.8209 280.5 36.4477C218 119.284 100.5 83.9402 52.9998 81.7313Z" fill="url(#paint0_linear)" />
    <path d="M174 -7.17913C117.6 39.2089 24.1667 63.3233 -15.5 69.5821L-24.5 60.7463C-31.1667 50.6219 -44.8 30.1522 -46 29.2687C-47.2 28.3851 -48.8333 -1.65672 -49.5 -16.5672C-20.3333 -30.005 38.4 -57.1015 40 -57.9851C41.6 -58.8687 119.333 -49.8856 158 -45.2836C186.833 -51.9105 230.4 -53.5672 174 -7.17913Z" fill="url(#paint1_linear)" />
    <path d="M-19.9998 117.627C26.4002 118.51 102.5 141.373 113 154.627H98.5L90.5 162.91H71C62.5 162.91 26 159.045 16.5 158.493C8.9 158.051 -10.9999 150.209 -19.9998 146.343C-39.3331 136.403 -66.3998 116.743 -19.9998 117.627Z" fill="#7288F9" />
    <path d="M334.843 92.9492L340.354 113.257L310.81 124.909L279.43 129.791L273.919 109.483C273.404 107.587 274.489 105.694 276.385 105.18L330.54 90.4831C332.436 89.9686 334.328 91.0533 334.843 92.9492Z" fill="white" />
    <path d="M334.843 92.9492L340.354 113.257L310.811 124.909L303.462 97.8313L330.54 90.483C332.436 89.9685 334.329 91.0532 334.843 92.9492Z" fill="white" />
    <path d="M340.354 113.257L345.988 134.017C348.523 143.358 342.998 152.998 333.657 155.533L306.579 162.881C297.238 165.416 287.598 159.892 285.063 150.55L279.43 129.791L340.354 113.257Z" fill="#B8B3F2" />
    <path d="M340.354 113.257L345.988 134.017C348.523 143.358 342.999 152.998 333.657 155.533L320.118 159.207L309.892 121.524L340.354 113.257Z" fill="#929FE6" />
    <path d="M325.029 70.1749L311.49 73.849C309.62 74.3566 307.694 73.2533 307.187 71.3829L303.513 57.8441C300.98 48.5133 306.513 38.8602 315.843 36.328L329.382 32.6539C331.253 32.1463 333.178 33.2496 333.685 35.12L337.36 48.6588C339.892 57.9896 334.36 67.6427 325.029 70.1749Z" fill="white" />
    <path d="M288.087 94.7361L274.548 98.4103C265.217 100.942 255.564 95.4103 253.032 86.0795L249.357 72.5407C248.85 70.6703 249.953 68.7451 251.824 68.2375L265.362 64.5633C274.693 62.0312 284.346 67.5633 286.879 76.8941L290.553 90.4329C291.06 92.3033 289.957 94.2286 288.087 94.7361Z" fill="white" />
    <path d="M323.448 54.9778L304.477 88.1805L316.951 134.144C317.465 136.039 316.381 137.933 314.485 138.448C312.589 138.962 310.696 137.877 310.181 135.981L301.382 103.556L268.229 84.499C266.526 83.5804 265.938 81.4138 266.943 79.7604C267.861 78.0576 270.028 77.4696 271.681 78.4745L298.773 93.9434L289.974 61.5182C289.459 59.6223 290.545 57.7293 292.44 57.215C294.336 56.7005 296.228 57.7852 296.743 59.6812L301.868 78.5676L317.424 51.5249C318.343 49.822 320.509 49.2343 322.162 50.2392C323.865 51.1578 324.453 53.3243 323.448 54.9778Z" fill="url(#paint2_linear)" />
    <path d="M323.448 54.9778L304.477 88.1805L316.951 134.144C317.465 136.04 316.381 137.933 314.485 138.448L292.44 57.2151C294.336 56.7006 296.229 57.7853 296.743 59.6812L301.869 78.5677L317.424 51.5252C318.342 49.8223 320.509 49.2344 322.162 50.2393C323.865 51.1579 324.453 53.3244 323.448 54.9778Z" fill="url(#paint3_linear)" />
  </g>
  <circle cx="224.5" cy="73.5" r="3.5" fill="white" />
  <circle cx="258" cy="43" r="4" fill="white" />
  <circle cx="215" cy="88" r="2" fill="white" />
  <circle cx="324.5" cy="18.5" r="1.5" fill="white" />
  <circle cx="55" cy="104" r="2" fill="white" />
  <path d="M67.8634 99.4047C67.9153 99.1272 68.3156 99.1351 68.3565 99.4144L69.0039 103.833C69.0194 103.939 69.1003 104.023 69.2053 104.043L73.5952 104.863C73.8728 104.915 73.8649 105.316 73.5855 105.357L69.1668 106.004C69.0611 106.019 68.9769 106.1 68.9573 106.205L68.1365 110.595C68.0846 110.873 67.6844 110.865 67.6434 110.586L66.996 106.167C66.9806 106.061 66.8996 105.977 66.7946 105.957L62.4047 105.137C62.1272 105.085 62.1351 104.684 62.4144 104.643L66.8332 103.996C66.9389 103.981 67.0231 103.9 67.0427 103.795L67.8634 99.4047Z" fill="white" />
  <path d="M238.663 62.2041C238.715 61.9265 239.115 61.9344 239.156 62.2138L239.803 66.6325C239.819 66.7382 239.9 66.8224 240.005 66.842L244.395 67.6628C244.672 67.7146 244.664 68.1149 244.385 68.1559L239.966 68.8032C239.86 68.8187 239.776 68.8997 239.757 69.0047L238.936 73.3946C238.884 73.6721 238.484 73.6642 238.443 73.3849L237.795 68.9661C237.78 68.8604 237.699 68.7762 237.594 68.7566L233.204 67.9359C232.926 67.884 232.934 67.4837 233.214 67.4428L237.633 66.7954C237.738 66.7799 237.822 66.6989 237.842 66.5939L238.663 62.2041Z" fill="white" />
  <path d="M289.663 31.2041C289.715 30.9265 290.115 30.9344 290.156 31.2138L290.803 35.6325C290.819 35.7382 290.9 35.8224 291.005 35.842L295.395 36.6628C295.672 36.7146 295.664 37.1149 295.385 37.1559L290.966 37.8032C290.86 37.8187 290.776 37.8997 290.757 38.0047L289.936 42.3946C289.884 42.6721 289.484 42.6642 289.443 42.3849L288.795 37.9661C288.78 37.8604 288.699 37.7762 288.594 37.7566L284.204 36.9359C283.926 36.884 283.934 36.4837 284.214 36.4428L288.633 35.7954C288.738 35.7799 288.822 35.6989 288.842 35.5939L289.663 31.2041Z" fill="white" />
  <defs>
    <linearGradient id="paint0_linear" x1="224" y1="59.0895" x2="108.602" y2="36.8551" gradientUnits="userSpaceOnUse">
      <stop stop-color="#685ED7" />
      <stop offset="1" stop-color="#47A7FF" />
    </linearGradient>
    <linearGradient id="paint1_linear" x1="118" y1="25.9552" x2="3.99012" y2="23.6915" gradientUnits="userSpaceOnUse">
      <stop stop-color="#8AA4FF" />
      <stop offset="1" stop-color="#384CFF" />
    </linearGradient>
    <linearGradient id="paint2_linear" x1="292.44" y1="57.215" x2="314.485" y2="138.448" gradientUnits="userSpaceOnUse">
      <stop stop-color="#C4C6FA" />
      <stop offset="1" stop-color="#413EE3" stop-opacity="0.97" />
    </linearGradient>
    <linearGradient id="paint3_linear" x1="307.671" y1="53.0817" x2="329.716" y2="134.314" gradientUnits="userSpaceOnUse">
      <stop stop-color="#C4C6FA" />
      <stop offset="1" stop-color="#413EE3" stop-opacity="0.97" />
    </linearGradient>
  </defs>
</svg>