<svg width="360" height="148" viewBox="0 0 360 148" fill="none" xmlns="http://www.w3.org/2000/svg">
  <rect width="360" height="148" rx="16" fill="#75D9DF" />
  <mask id="mask0" mask-type="alpha" maskUnits="userSpaceOnUse" x="0" y="0" width="360" height="148">
    <rect width="360" height="148" rx="16" fill="#E8ACFE" />
  </mask>
  <g mask="url(#mask0)">
    <path d="M-3.49994 115.97C49.9998 120.388 122.333 90.3832 140 80.0747C134 75.8409 121.5 66.821 119.5 64.612C117.5 62.4031 97.6666 61.4827 87.9999 61.2986C68.3332 62.219 26.7999 64.1702 17.9999 64.612C9.19992 65.0538 -22.3334 75.1046 -37 80.0747C-53.6667 101.428 -73.9303 110.154 -3.49994 115.97Z" fill="#41D3DC" />
    <path d="M52.9998 81.7313C14.9998 79.9641 -9.50024 106.766 -17.0002 120.388H-19C-19.8333 119.099 -21.9 115.749 -23.5 112.657C-25.5 108.791 -36 81.7313 -38.5 79.5223C-41 77.3134 -42.0002 36.4477 -42.5002 33.6865C-43.0002 30.9253 -27.0002 -23.7463 -26.0002 -27.0598C-25.2002 -29.7105 -7.66691 -49.1493 0.999756 -58.5374C33.9998 -58.5374 103 -59.0896 115 -61.2986C130 -64.0598 250 -61.2986 252 -61.2986C253.6 -61.2986 308.333 -53.1991 335.5 -49.1493C338 -48.2289 330.5 -29.8209 280.5 36.4477C218 119.284 100.5 83.9402 52.9998 81.7313Z" fill="url(#paint0_linear)" />
    <path d="M174 -7.17913C117.6 39.2089 24.1667 63.3233 -15.5 69.5821L-24.5 60.7463C-31.1667 50.6219 -44.8 30.1522 -46 29.2687C-47.2 28.3851 -48.8333 -1.65672 -49.5 -16.5672C-20.3333 -30.005 38.4 -57.1015 40 -57.9851C41.6 -58.8687 119.333 -49.8856 158 -45.2836C186.833 -51.9105 230.4 -53.5672 174 -7.17913Z" fill="url(#paint1_linear)" />
    <path d="M-19.9998 117.627C26.4002 118.51 102.5 141.373 113 154.627H98.5L90.5 162.91H71C62.5 162.91 26 159.045 16.5 158.493C8.9 158.051 -10.9999 150.209 -19.9998 146.343C-39.3331 136.403 -66.3998 116.743 -19.9998 117.627Z" fill="#72D8F9" />
    <path d="M291.673 51.4401L314.147 135.313L283.258 143.59L259.094 53.411L289.837 45.1734L291.673 51.4401Z" fill="url(#paint2_linear)" />
    <path d="M279.971 111.956L306.018 104.977L305.902 104.545C304.664 102.943 303.32 101.421 301.875 99.99C296.243 94.4118 289.228 90.3405 281.593 88.2176C281.48 88.1863 281.397 88.108 281.37 88.0083L280.178 83.5565C282.152 81.079 282.967 77.7298 282.084 74.4346L280.472 68.4191C280.126 67.1284 279.549 65.9609 278.798 64.9481C277.76 63.5505 278.467 61.5462 280.149 61.0956L293.314 57.5679L291.672 51.4404L289.837 45.1737L259.094 53.4113L261.604 62.7763L262.426 65.8447L268.565 88.7563L273.407 87.4588L279.971 111.956L279.971 111.956Z" fill="url(#paint3_linear)" />
    <path d="M313.595 116.08L291.394 80.1823L282.05 45.3113L264.778 49.9394L271.746 75.9456L263.748 129.437L313.595 116.08Z" fill="white" />
    <path d="M306.018 104.977L305.902 104.545C304.665 102.943 303.32 101.42 301.876 99.9899C296.244 94.4117 289.229 90.3404 281.594 88.2175C281.481 88.1862 281.398 88.1079 281.371 88.0081L280.839 86.0226C280.47 84.6446 280.594 83.1665 281.256 81.903C282.419 79.6859 282.784 77.0434 282.085 74.4348L280.473 68.4193C280.127 67.1286 279.55 65.9611 278.798 64.9483C277.76 63.5507 278.468 61.5463 280.149 61.0958L285.869 59.5631L282.538 47.1294L265.265 51.7575L271.746 75.9456L269.884 88.4024L273.408 87.4582L279.972 111.956L306.018 104.977Z" fill="#A6E7F0" />
    <path d="M294.031 164.357C296.325 165.791 299.2 166.351 302.154 165.56L350.066 152.722C357.436 150.747 360.193 141.737 355.191 135.976L324.359 100.46L317.743 75.7691L291.669 82.7556L297.526 104.613L287.865 159.474L294.031 164.357Z" fill="url(#paint4_linear)" />
    <path d="M297.349 81.2337L291.669 82.7556L293.31 88.8802L294.738 94.2062L297.104 103.038L297.526 104.613L287.865 159.474L294.031 164.357C296.325 165.791 299.2 166.351 302.154 165.559L302.156 165.559C313.35 154.214 318.423 137.394 314.008 120.919C312.034 113.553 308.275 106.793 303.1 101.259C302.751 100.886 302.495 100.436 302.362 99.9425L301.081 95.1598C299.927 90.8527 302.483 86.4257 306.79 85.2716L319.267 81.9283C319.301 81.8702 319.32 81.837 319.353 81.7785L317.743 75.7691L297.349 81.2337Z" fill="url(#paint5_linear)" />
    <path d="M349.443 140.967C350.301 141.954 350.154 143.002 349.988 143.54C349.825 144.078 349.36 145.03 348.095 145.369L303.068 157.434C301.671 157.808 300.328 156.681 300.452 155.24C301.292 145.416 304.695 114.38 304.695 114.38L306.092 107.171L299.022 80.7856L297.059 73.4595L308.233 70.4654L310.39 77.7396L317.46 104.125L349.443 140.967Z" fill="white" />
    <path d="M301.462 89.8886C302.404 87.6946 304.305 85.9377 306.79 85.2716L312.032 83.8671L310.39 77.7395L299.022 80.7855L301.462 89.8886Z" fill="#6BD9E7" />
    <path d="M315.518 130.337C315.343 127.212 314.85 124.06 314.008 120.919C312.302 114.553 309.263 108.638 305.129 103.576L306.092 107.171L304.696 114.38C304.696 114.38 303.67 123.734 302.606 133.797L315.518 130.337Z" fill="#A6E7F0" />
    <path d="M349.443 140.967C350.301 141.954 350.154 143.002 349.988 143.54C349.825 144.078 349.36 145.03 348.095 145.369L303.068 157.434C301.671 157.808 300.328 156.681 300.452 155.24C300.881 150.215 301.983 139.64 302.954 130.509L333.305 122.376L349.443 140.967Z" fill="#A6E7F0" />
    <path d="M309.596 155.686C314.359 147.235 316.492 137.302 315.236 127.218L302.954 130.509C302.795 132.004 302.632 133.539 302.47 135.081C302.016 139.388 301.562 143.756 301.186 147.519C301.181 147.567 301.176 147.616 301.171 147.664C301.156 147.816 301.141 147.966 301.126 148.116C301.114 148.24 301.101 148.364 301.089 148.487C301.08 148.577 301.072 148.664 301.063 148.753C301.047 148.918 301.03 149.083 301.014 149.245C301.01 149.285 301.007 149.324 301.003 149.364C300.772 151.7 300.582 153.723 300.452 155.24C300.444 155.33 300.442 155.418 300.445 155.506C300.479 156.379 301.051 157.101 301.817 157.381C302.2 157.521 302.631 157.551 303.068 157.434L309.596 155.686Z" fill="#A6E7F0" />
    <path d="M333.526 142.801C335.486 142.276 336.648 140.262 336.123 138.303C335.598 136.343 333.584 135.18 331.625 135.705C329.666 136.231 328.503 138.245 329.028 140.204C329.553 142.163 331.567 143.326 333.526 142.801Z" fill="#6BD9E7" />
    <path d="M279.891 94.3286C293.099 98.0008 304.076 108.362 307.881 122.561C313.631 144.022 300.815 166.084 279.275 171.688C258.126 177.192 236.287 164.531 230.551 143.444C226.45 128.366 231.529 112.969 242.372 103.179C244.205 101.521 244.933 98.9618 244.293 96.5745L240.943 84.0719L271.551 75.8705L275.244 89.6501C275.853 91.9246 277.623 93.6964 279.891 94.3286Z" fill="url(#paint6_linear)" />
    <path d="M272.858 80.7472L254.616 85.6351L253.309 80.7581L240.943 84.0717L244.293 96.5743C244.932 98.9616 244.205 101.521 242.371 103.178C231.529 112.969 226.449 128.366 230.55 143.444C235.402 161.28 251.775 173.086 269.505 172.972C257.655 168.662 247.99 158.865 244.451 145.858C240.35 130.78 245.43 115.383 256.272 105.592C258.106 103.935 258.833 101.376 258.194 98.9883L257.343 95.8149C256.784 93.7267 258.023 91.5801 260.111 91.0206L274.572 87.1459L272.857 80.7473L272.858 80.7472Z" fill="url(#paint7_linear)" />
    <path d="M292.056 109.904C296.111 113.922 299.04 118.98 300.528 124.531C302.771 132.901 301.622 141.644 297.288 149.147C292.957 156.649 285.963 162.017 277.595 164.26C277.592 164.26 277.359 164.323 277.359 164.323C260.242 168.775 242.54 158.513 237.896 141.447C234.668 129.577 238.339 117.079 247.474 108.828C251.437 105.247 253.037 99.7955 251.646 94.6043L249.675 87.2488L247.573 79.4031L263.698 75.0824L265.577 82.9878L267.548 90.3409L267.89 91.6203C269.189 96.4659 273.004 100.314 277.853 101.663C283.2 103.149 288.113 106.001 292.056 109.904Z" fill="white" />
    <path d="M254.616 85.6352L253.309 80.7582L248.295 82.1016L249.674 87.2487L251.645 94.6042C253.036 99.7954 251.437 105.247 247.473 108.828C239.311 116.2 235.517 126.962 237.102 137.638L243.044 136.045C242.831 124.354 247.786 113.256 256.272 105.592C258.106 103.935 258.833 101.376 258.194 98.9883L257.344 95.8149C256.784 93.7267 258.023 91.5802 260.112 91.0206L267.219 89.1162L265.577 82.9877L265.512 82.7155L254.616 85.6352Z" fill="#A6E7F0" />
    <path d="M273.135 80.9635L239.803 89.8949C237.674 90.4653 235.486 89.2019 234.916 87.0732L233.304 81.0577C232.733 78.929 233.997 76.7408 236.125 76.1704L269.458 67.2391C271.586 66.6687 273.775 67.932 274.345 70.0608L275.957 76.0763C276.527 78.2052 275.264 80.3931 273.135 80.9635Z" fill="url(#paint8_linear)" />
    <path d="M299.036 120.21C299.631 121.608 300.131 123.053 300.527 124.531C302.77 132.901 301.622 141.644 297.288 149.147C292.957 156.649 285.962 162.017 277.594 164.26C277.592 164.26 277.359 164.323 277.359 164.323C260.242 168.775 242.54 158.513 237.896 141.447C237.481 139.917 237.178 138.377 236.989 136.836L299.036 120.21Z" fill="#A6E7F0" />
    <path d="M255.454 149.557C257.749 148.942 259.111 146.583 258.496 144.289C257.881 141.994 255.523 140.632 253.228 141.247C250.933 141.862 249.572 144.22 250.186 146.515C250.801 148.81 253.16 150.171 255.454 149.557Z" fill="#6BD9E7" />
    <path d="M280.983 155.117C283.994 154.31 285.78 151.216 284.973 148.206C284.167 145.195 281.073 143.409 278.062 144.216C275.052 145.022 273.266 148.116 274.072 151.127C274.879 154.137 277.973 155.923 280.983 155.117Z" fill="#6BD9E7" />
    <path d="M272.351 138.04C273.409 137.757 274.036 136.669 273.753 135.611C273.469 134.553 272.382 133.925 271.324 134.209C270.266 134.492 269.638 135.58 269.922 136.638C270.205 137.696 271.293 138.324 272.351 138.04Z" fill="#6BD9E7" />
    <path d="M317.463 148.153C318.521 147.87 319.149 146.782 318.866 145.724C318.582 144.666 317.495 144.039 316.437 144.322C315.379 144.606 314.751 145.693 315.034 146.751C315.318 147.809 316.405 148.437 317.463 148.153Z" fill="#6BD9E7" />
    <path d="M291.159 136.254C292.835 135.805 293.83 134.081 293.381 132.405C292.932 130.729 291.209 129.734 289.532 130.183C287.856 130.632 286.861 132.355 287.31 134.032C287.76 135.708 289.483 136.703 291.159 136.254Z" fill="#6BD9E7" />
    <path d="M320.181 138.468C321.857 138.019 322.852 136.296 322.403 134.619C321.953 132.943 320.23 131.948 318.554 132.397C316.878 132.847 315.883 134.57 316.332 136.246C316.781 137.922 318.504 138.917 320.181 138.468Z" fill="#6BD9E7" />
    <path d="M317.625 75.8008L291.787 82.724C289.944 83.2179 288.05 82.124 287.556 80.2811L285.965 74.344C285.472 72.5008 286.565 70.6066 288.408 70.1128L314.246 63.1896C316.089 62.6957 317.984 63.7896 318.477 65.6325L320.068 71.5695C320.562 73.4128 319.468 75.3069 317.625 75.8008Z" fill="url(#paint9_linear)" />
    <path d="M291.673 51.4401L260.784 59.7168C258.94 60.2107 257.046 59.1168 256.552 57.2739L254.962 51.3366C254.468 49.4934 255.562 47.5992 257.404 47.1054L288.293 38.8287C290.136 38.3348 292.031 39.4287 292.525 41.2716L294.115 47.2087C294.609 49.0518 293.515 50.9463 291.673 51.4401Z" fill="url(#paint10_linear)" />
    <path d="M236.989 136.836C237.178 138.377 237.481 139.917 237.896 141.447C240.084 149.487 245.17 156.015 251.727 160.208L248.305 155.166C246.664 152.298 245.356 149.184 244.452 145.858C243.484 142.302 243.034 138.728 243.043 135.213L236.989 136.836Z" fill="#6BD9E7" />
  </g>
  <circle cx="224.5" cy="73.5" r="3.5" fill="white" />
  <circle cx="258" cy="43" r="4" fill="white" />
  <circle cx="215" cy="88" r="2" fill="white" />
  <circle cx="324.5" cy="18.5" r="1.5" fill="white" />
  <circle cx="55" cy="104" r="2" fill="white" />
  <path d="M67.8634 99.4047C67.9153 99.1272 68.3156 99.1351 68.3565 99.4144L69.0039 103.833C69.0194 103.939 69.1003 104.023 69.2053 104.043L73.5952 104.863C73.8728 104.915 73.8649 105.316 73.5855 105.357L69.1668 106.004C69.0611 106.019 68.9769 106.1 68.9573 106.205L68.1365 110.595C68.0846 110.873 67.6844 110.865 67.6434 110.586L66.996 106.167C66.9806 106.061 66.8996 105.977 66.7946 105.957L62.4047 105.137C62.1272 105.085 62.1351 104.684 62.4144 104.643L66.8332 103.996C66.9389 103.981 67.0231 103.9 67.0427 103.795L67.8634 99.4047Z" fill="white" />
  <path d="M238.663 62.2041C238.715 61.9265 239.115 61.9344 239.156 62.2138L239.803 66.6325C239.819 66.7382 239.9 66.8224 240.005 66.842L244.395 67.6628C244.672 67.7146 244.664 68.1149 244.385 68.1559L239.966 68.8032C239.86 68.8187 239.776 68.8997 239.757 69.0047L238.936 73.3946C238.884 73.6721 238.484 73.6642 238.443 73.3849L237.795 68.9661C237.78 68.8604 237.699 68.7762 237.594 68.7566L233.204 67.9359C232.926 67.884 232.934 67.4837 233.214 67.4428L237.633 66.7954C237.738 66.7799 237.822 66.6989 237.842 66.5939L238.663 62.2041Z" fill="white" />
  <path d="M289.663 31.2041C289.715 30.9265 290.115 30.9344 290.156 31.2138L290.803 35.6325C290.819 35.7382 290.9 35.8224 291.005 35.842L295.395 36.6628C295.672 36.7146 295.664 37.1149 295.385 37.1559L290.966 37.8032C290.86 37.8187 290.776 37.8997 290.757 38.0047L289.936 42.3946C289.884 42.6721 289.484 42.6642 289.443 42.3849L288.795 37.9661C288.78 37.8604 288.699 37.7762 288.594 37.7566L284.204 36.9359C283.926 36.884 283.934 36.4837 284.214 36.4428L288.633 35.7954C288.738 35.7799 288.822 35.6989 288.842 35.5939L289.663 31.2041Z" fill="white" />
  <defs>
    <linearGradient id="paint0_linear" x1="224" y1="59.0895" x2="108.602" y2="36.8551" gradientUnits="userSpaceOnUse">
      <stop stop-color="#59CFCF" />
      <stop offset="1" stop-color="#46DCB8" />
    </linearGradient>
    <linearGradient id="paint1_linear" x1="118" y1="25.9552" x2="3.99012" y2="23.6915" gradientUnits="userSpaceOnUse">
      <stop stop-color="#6AE0D9" />
      <stop offset="1" stop-color="#4EEBC5" />
    </linearGradient>
    <linearGradient id="paint2_linear" x1="274.539" y1="49.2727" x2="298.702" y2="139.452" gradientUnits="userSpaceOnUse">
      <stop stop-color="#AAE1CD" />
      <stop offset="1" stop-color="#D2F2EC" stop-opacity="0.97" />
    </linearGradient>
    <linearGradient id="paint3_linear" x1="274.539" y1="49.273" x2="290.573" y2="109.115" gradientUnits="userSpaceOnUse">
      <stop stop-color="#AAE1CD" />
      <stop offset="1" stop-color="#D2F2EC" stop-opacity="0.97" />
    </linearGradient>
    <linearGradient id="paint4_linear" x1="303.795" y1="79.5065" x2="325.198" y2="159.385" gradientUnits="userSpaceOnUse">
      <stop stop-color="#AAE1CD" />
      <stop offset="1" stop-color="#D2F2EC" stop-opacity="0.97" />
    </linearGradient>
    <linearGradient id="paint5_linear" x1="293.342" y1="82.3075" x2="314.745" y2="162.186" gradientUnits="userSpaceOnUse">
      <stop stop-color="#AAE1CD" />
      <stop offset="1" stop-color="#D2F2EC" stop-opacity="0.97" />
    </linearGradient>
    <linearGradient id="paint6_linear" x1="255.089" y1="80.2815" x2="279.561" y2="171.612" gradientUnits="userSpaceOnUse">
      <stop stop-color="#AAE1CD" />
      <stop offset="1" stop-color="#D2F2EC" stop-opacity="0.97" />
    </linearGradient>
    <linearGradient id="paint7_linear" x1="243.977" y1="83.2587" x2="268.115" y2="173.345" gradientUnits="userSpaceOnUse">
      <stop stop-color="#AAE1CD" />
      <stop offset="1" stop-color="#D2F2EC" stop-opacity="0.97" />
    </linearGradient>
    <linearGradient id="paint8_linear" x1="252.792" y1="71.7048" x2="256.469" y2="85.4292" gradientUnits="userSpaceOnUse">
      <stop stop-color="#AAE1CD" />
      <stop offset="1" stop-color="#D2F2EC" stop-opacity="0.97" />
    </linearGradient>
    <linearGradient id="paint9_linear" x1="301.327" y1="66.6512" x2="304.706" y2="79.2624" gradientUnits="userSpaceOnUse">
      <stop stop-color="#AAE1CD" />
      <stop offset="1" stop-color="#D2F2EC" stop-opacity="0.97" />
    </linearGradient>
    <linearGradient id="paint10_linear" x1="272.849" y1="42.967" x2="276.228" y2="55.5785" gradientUnits="userSpaceOnUse">
      <stop stop-color="#AAE1CD" />
      <stop offset="1" stop-color="#D2F2EC" stop-opacity="0.97" />
    </linearGradient>
  </defs>
</svg>