<svg width="360" height="148" viewBox="0 0 360 148" fill="none" xmlns="http://www.w3.org/2000/svg">
  <rect width="360" height="148" rx="16" fill="#75C6DF" />
  <mask id="mask0" mask-type="alpha" maskUnits="userSpaceOnUse" x="0" y="0" width="360" height="148">
    <rect width="360" height="148" rx="16" fill="#E8ACFE" />
  </mask>
  <g mask="url(#mask0)">
    <path d="M143 106.5C48.8074 114.516 11.5 171.878 4 185.5L-19 120.388C-19.8333 119.1 -21.9 115.749 -23.5 112.657C-25.5 108.791 -36 81.7313 -38.5 79.5224C-41 77.3134 -42.0002 36.4478 -42.5002 33.6866C-43.0002 30.9254 -27.0002 -23.7463 -26.0002 -27.0597C-25.2002 -29.7104 -7.66691 -49.1492 0.999756 -58.5373C33.9998 -58.5373 103 -59.0895 115 -61.2985C130 -64.0597 250 -61.2985 252 -61.2985C253.6 -61.2985 308.333 -53.199 335.5 -49.1492C338 -48.2288 385.5 -60 335 16C312.828 49.3678 260.5 96.5 143 106.5Z" fill="url(#paint0_linear)" />
    <path d="M194.5 -1.5C136.5 68.2463 9.5 131.418 -24.5 119V60.7463C-31.1667 50.6219 -44.8 30.1522 -46 29.2687C-47.2 28.3851 -48.8333 -1.65672 -49.5 -16.5672C-20.3333 -30.005 38.4 -57.1015 40 -57.9851C41.6 -58.8687 119.333 -49.8856 158 -45.2836C186.833 -51.9105 241.192 -57.6484 194.5 -1.5Z" fill="url(#paint1_linear)" />
    <path d="M311.819 75.5556L316.432 85.5264L279.624 99.7339L275.781 87.8173L268.806 69.8469L266.518 64.0441C266.518 64.0441 301.933 50.102 302.35 50.102C302.769 50.102 304.261 56.0874 304.261 56.0874L311.819 75.5556Z" fill="url(#paint2_linear)" />
    <path d="M310.255 130.032H337.055C337.055 143.783 334.551 156.344 330.417 165.933C324.18 163.442 317.379 162.076 310.255 162.076V130.032Z" fill="#A6E7F0" />
    <path d="M337.055 130.032H364.748C364.583 147.608 356.095 163.194 343.038 173.042C339.195 170.144 334.955 167.739 330.417 165.933C334.55 156.344 337.055 143.783 337.055 130.032Z" fill="#D4F2F6" />
    <path d="M337.055 130.032H310.255V97.9851C317.379 97.9851 324.18 96.6185 330.417 94.1308C334.551 103.719 337.055 116.278 337.055 130.032Z" fill="#D4F2F6" />
    <path d="M364.754 129.501C364.754 129.678 364.754 129.855 364.748 130.032H337.055C337.055 116.278 334.55 103.719 330.417 94.1308C335.092 92.2708 339.449 89.7773 343.383 86.759L343.386 86.2255C356.378 96.1849 364.754 111.864 364.754 129.501Z" fill="#DCF5F8" />
    <path d="M283.455 130.032C283.455 143.783 285.96 156.344 290.094 165.933C285.555 167.739 281.316 170.144 277.473 173.042C264.415 163.194 255.928 147.608 255.762 130.032H283.455Z" fill="#1DB2C1" />
    <path d="M310.255 130.032V162.076C303.132 162.076 296.33 163.442 290.094 165.933C285.96 156.344 283.455 143.783 283.455 130.032H310.255Z" fill="#6BD9E7" />
    <path d="M290.094 94.1308C285.96 103.719 283.455 116.278 283.455 130.032H255.762C255.756 129.855 255.756 129.678 255.756 129.501C255.756 112.098 263.913 96.6043 276.608 86.6248L277.127 86.7589C281.062 89.7773 285.418 92.2707 290.094 94.1308Z" fill="#56BECB" />
    <path d="M310.255 97.9851V130.032H283.455C283.455 116.278 285.96 103.719 290.094 94.1308C296.33 96.6185 303.132 97.9851 310.255 97.9851Z" fill="#A6E7F0" />
    <path d="M310.255 75.5328C302.216 75.5328 295.004 82.7306 290.094 94.1308C285.418 92.2707 281.062 89.7773 277.128 86.7589L276.608 86.6248C285.875 79.3442 297.557 75.0021 310.255 75.0021H310.261L310.255 75.5328Z" fill="#9DDDE6" />
    <path d="M310.255 75.5328V97.9851C303.132 97.9851 296.33 96.6186 290.094 94.1308C295.004 82.7306 302.216 75.5328 310.255 75.5328Z" fill="#D4F2F6" />
    <path d="M310.255 75.5328C318.295 75.5328 325.507 82.7306 330.417 94.1308C324.18 96.6186 317.379 97.9851 310.255 97.9851V75.5328Z" fill="#DCF5F8" />
    <path d="M343.386 86.2254L343.383 86.7589C339.449 89.7773 335.093 92.2707 330.417 94.1308C325.507 82.7306 318.295 75.5328 310.255 75.5328L310.261 75.0021C322.723 75.0021 334.205 79.1873 343.386 86.2254Z" fill="#EAF9FA" />
    <path d="M265.857 112.375C264.675 112.375 263.717 111.417 263.717 110.235V65.2854C263.717 64.1038 264.675 63.1458 265.857 63.1458C267.039 63.1458 267.997 64.1038 267.997 65.2854V110.235C267.997 111.417 267.039 112.375 265.857 112.375Z" fill="url(#paint3_linear)" />
    <path d="M310.077 43.1655L255.799 64.2307C254.546 64.7168 253.924 66.1265 254.411 67.3789L256.247 72.111C256.733 73.3637 258.143 73.9851 259.395 73.4989L313.674 52.4337C314.927 51.9475 315.548 50.5379 315.062 49.2855L313.226 44.5534C312.74 43.3007 311.33 42.6793 310.077 43.1655Z" fill="white" />
    <path d="M266.931 106.241H264.783C262.172 106.241 260.055 108.358 260.055 110.969V116.381C260.055 117.2 260.719 117.864 261.538 117.864H270.176C270.995 117.864 271.659 117.2 271.659 116.381V110.969C271.659 108.358 269.542 106.241 266.931 106.241Z" fill="url(#paint4_linear)" />
  </g>
  <circle cx="224.5" cy="73.5" r="3.5" fill="white" />
  <circle cx="258" cy="43" r="4" fill="white" />
  <circle cx="215" cy="88" r="2" fill="white" />
  <circle cx="324.5" cy="18.5" r="1.5" fill="white" />
  <circle cx="55" cy="104" r="2" fill="white" />
  <path d="M67.8634 99.4047C67.9153 99.1272 68.3156 99.1351 68.3565 99.4144L69.0039 103.833C69.0194 103.939 69.1003 104.023 69.2053 104.043L73.5952 104.863C73.8728 104.915 73.8649 105.316 73.5855 105.357L69.1668 106.004C69.0611 106.019 68.9769 106.1 68.9573 106.205L68.1365 110.595C68.0846 110.873 67.6844 110.865 67.6434 110.586L66.996 106.167C66.9806 106.061 66.8996 105.977 66.7946 105.957L62.4047 105.137C62.1272 105.085 62.1351 104.684 62.4144 104.643L66.8332 103.996C66.9389 103.981 67.0231 103.9 67.0427 103.795L67.8634 99.4047Z" fill="white" />
  <path d="M238.663 62.2041C238.715 61.9265 239.115 61.9344 239.156 62.2138L239.803 66.6325C239.819 66.7382 239.9 66.8224 240.005 66.842L244.395 67.6628C244.672 67.7146 244.664 68.1149 244.385 68.1559L239.966 68.8032C239.86 68.8187 239.776 68.8997 239.757 69.0047L238.936 73.3946C238.884 73.6721 238.484 73.6642 238.443 73.3849L237.795 68.9661C237.78 68.8604 237.699 68.7762 237.594 68.7566L233.204 67.9359C232.926 67.884 232.934 67.4837 233.214 67.4428L237.633 66.7954C237.738 66.7799 237.822 66.6989 237.842 66.5939L238.663 62.2041Z" fill="white" />
  <path d="M289.663 31.2041C289.715 30.9265 290.115 30.9344 290.156 31.2138L290.803 35.6325C290.819 35.7382 290.9 35.8224 291.005 35.842L295.395 36.6628C295.672 36.7146 295.664 37.1149 295.385 37.1559L290.966 37.8032C290.86 37.8187 290.776 37.8997 290.757 38.0047L289.936 42.3946C289.884 42.6721 289.484 42.6642 289.443 42.3849L288.795 37.9661C288.78 37.8604 288.699 37.7762 288.594 37.7566L284.204 36.9359C283.926 36.884 283.934 36.4837 284.214 36.4428L288.633 35.7954C288.738 35.7799 288.822 35.6989 288.842 35.5939L289.663 31.2041Z" fill="white" />
  <defs>
    <linearGradient id="paint0_linear" x1="224" y1="59.0896" x2="108.602" y2="36.8552" gradientUnits="userSpaceOnUse">
      <stop stop-color="#5EB2D7" />
      <stop offset="1" stop-color="#4791FF" />
    </linearGradient>
    <linearGradient id="paint1_linear" x1="118" y1="25.9552" x2="3.99011" y2="23.6915" gradientUnits="userSpaceOnUse">
      <stop stop-color="#8AD5FF" />
      <stop offset="1" stop-color="#3888FF" />
    </linearGradient>
    <linearGradient id="paint2_linear" x1="291.475" y1="50.102" x2="291.475" y2="99.7339" gradientUnits="userSpaceOnUse">
      <stop stop-color="#AACDE1" />
      <stop offset="1" stop-color="#D2ECF2" stop-opacity="0.97" />
    </linearGradient>
    <linearGradient id="paint3_linear" x1="265.857" y1="63.1458" x2="265.857" y2="112.375" gradientUnits="userSpaceOnUse">
      <stop stop-color="#AACDE1" />
      <stop offset="1" stop-color="#D2ECF2" stop-opacity="0.97" />
    </linearGradient>
    <linearGradient id="paint4_linear" x1="265.857" y1="106.241" x2="265.857" y2="117.864" gradientUnits="userSpaceOnUse">
      <stop stop-color="#AACDE1" />
      <stop offset="1" stop-color="#D2ECF2" stop-opacity="0.97" />
    </linearGradient>
  </defs>
</svg>