<svg width="360" height="148" viewBox="0 0 360 148" fill="none" xmlns="http://www.w3.org/2000/svg">
<rect width="360" height="148" rx="16" fill="#FFB155"/>
<mask id="mask0" mask-type="alpha" maskUnits="userSpaceOnUse" x="0" y="0" width="360" height="148">
<rect width="360" height="148" rx="16" fill="#E8ACFE"/>
</mask>
<g mask="url(#mask0)">
<path d="M115 134.5C100.086 184.343 82 157.378 74.5 171L-19 120.388C-19.8333 119.1 -21.9 115.749 -23.5 112.657C-25.5 108.791 -36 81.7313 -38.5 79.5224C-41 77.3134 -42.0002 36.4478 -42.5002 33.6866C-43.0002 30.9254 -27.0002 -23.7463 -26.0002 -27.0597C-25.2002 -29.7104 -7.66691 -49.1492 0.999756 -58.5373C33.9998 -58.5373 103 -59.0895 115 -61.2985C130 -64.0597 250 -61.2985 252 -61.2985C253.6 -61.2985 399.333 -21.5497 426.5 -17.5C446 98.5 355.5 50.3433 276 42.8433C183.426 34.1099 134 71 115 134.5Z" fill="url(#paint0_linear)"/>
<path d="M174 -7.17913C117.6 39.2089 24.1667 63.3233 -15.5 69.5821L-24.5 60.7463C-31.1667 50.6219 -44.8 30.1522 -46 29.2687C-47.2 28.3851 -48.8333 -1.65672 -49.5 -16.5672C-20.3333 -30.005 38.4 -57.1015 40 -57.9851C41.6 -58.8687 119.333 -49.8856 158 -45.2836C186.833 -51.9105 230.4 -53.5672 174 -7.17913Z" fill="url(#paint1_linear)"/>
<path d="M346.749 115.32L282.496 139.455C276.096 141.859 272.856 148.997 275.26 155.397C277.665 161.798 284.802 165.037 291.203 162.633L355.456 138.498L346.749 115.32Z" fill="white"/>
<path d="M289.41 150.082C287.662 145.427 287.714 140.657 289.213 136.932L282.496 139.455C276.096 141.859 272.856 148.997 275.26 155.397C277.665 161.797 284.802 165.037 291.202 162.633L297.919 160.11C294.338 158.293 291.159 154.737 289.41 150.082Z" fill="#FCCD7F"/>
<path d="M296.074 163.262L291.291 165.058C283.562 167.962 274.943 164.049 272.039 156.32C269.136 148.591 273.048 139.972 280.777 137.068L349.494 111.256C350.191 110.994 350.968 111.347 351.23 112.044L352.702 115.963C352.964 116.659 352.611 117.437 351.914 117.698L283.331 143.46C279.105 145.048 276.873 149.833 278.532 154.031C280.144 158.109 284.751 160.163 288.871 158.616L293.654 156.819L357.588 132.803C358.285 132.542 359.062 132.894 359.324 133.591L360.796 137.51C361.058 138.207 360.705 138.984 360.008 139.246L296.074 163.261L296.074 163.262Z" fill="url(#paint2_linear)"/>
<path d="M310.944 157.212L305.771 157.041L301.99 160.575C301.595 160.945 300.951 160.794 300.761 160.288L295.903 147.356L306.823 143.254L311.68 156.186C311.871 156.693 311.485 157.23 310.944 157.212Z" fill="#DC8250"/>
<path d="M309.514 143.694L293.566 149.685C292.863 149.949 292.08 149.594 291.817 148.891C291.553 148.189 291.908 147.406 292.61 147.142L308.559 141.151C309.261 140.887 310.044 141.243 310.308 141.945C310.572 142.647 310.217 143.43 309.514 143.694Z" fill="#FCCD7F"/>
<path d="M262.052 114.431L324.626 90.9263C331.108 88.4914 338.336 91.7723 340.771 98.2545C343.206 104.737 339.925 111.965 333.443 114.4L270.869 137.905L262.052 114.431Z" fill="white"/>
<path d="M262.052 114.431L276.333 109.067L285.15 132.541L270.869 137.905L262.052 114.431Z" fill="#FCCD7F"/>
<path d="M332.01 117.824L336.793 116.027C344.522 113.124 348.434 104.504 345.531 96.7749C342.628 89.0457 334.008 85.1335 326.279 88.0368L257.562 113.849C256.865 114.111 256.512 114.888 256.774 115.585L258.246 119.504C258.508 120.2 259.285 120.553 259.982 120.291L328.565 94.5296C332.791 92.9421 337.622 95.074 339.136 99.3266C340.608 103.457 338.493 108.036 334.373 109.584L329.59 111.381L265.656 135.397C264.959 135.658 264.606 136.435 264.868 137.132L266.34 141.051C266.602 141.748 267.379 142.101 268.076 141.839L332.01 117.823L332.01 117.824Z" fill="url(#paint3_linear)"/>
<path d="M325.486 58.7129L259.975 83.321C253.555 85.7324 250.306 92.8913 252.717 99.3108C255.129 105.73 262.287 108.979 268.707 106.568L334.218 81.96L325.486 58.7129Z" fill="white"/>
<path d="M266.125 95.0206C264.23 89.9744 265.013 84.579 267.764 80.3951L259.975 83.321C253.555 85.7324 250.306 92.8913 252.717 99.3108C255.129 105.73 262.287 108.979 268.707 106.568L274.932 104.23C271.006 102.551 267.746 99.3335 266.125 95.0206Z" fill="#FCCD7F"/>
<path d="M316.722 123.164L320.615 119.525L325.94 119.702C326.409 119.717 326.742 119.252 326.578 118.813L321.666 105.739L310.747 109.841L315.658 122.915C315.823 123.354 316.38 123.484 316.722 123.164Z" fill="#DC8250"/>
<path d="M324.959 105.953L309.011 111.944C308.308 112.208 307.525 111.853 307.261 111.15C306.997 110.448 307.353 109.665 308.055 109.401L324.004 103.41C324.706 103.146 325.489 103.502 325.753 104.204C326.017 104.906 325.661 105.689 324.959 105.953Z" fill="#FCCD7F"/>
<path d="M338.424 77.5622L339.897 81.4819C340.159 82.1787 339.804 82.956 339.108 83.2178L275.174 107.233L270.391 109.03C266.527 110.481 262.439 110.229 258.955 108.648C255.472 107.066 252.592 104.156 251.14 100.291C248.236 92.5615 252.148 83.9438 259.877 81.0404L328.594 55.2283C329.291 54.9665 330.069 55.3184 330.331 56.0152L331.802 59.9333C332.064 60.6301 331.711 61.4091 331.014 61.6708L262.431 87.4327C258.206 89.0197 255.973 93.8032 257.632 98.0031C259.244 102.079 263.851 104.135 267.971 102.587L272.754 100.791L336.688 76.7752C337.384 76.5135 338.163 76.8653 338.424 77.5622Z" fill="url(#paint4_linear)"/>
<path d="M290.387 101.195L284.871 101.012L280.839 104.781C280.564 105.039 280.114 104.934 279.982 104.58L275.003 91.3274L285.923 87.2258L290.901 100.479C291.034 100.832 290.765 101.207 290.387 101.195Z" fill="#DC8250"/>
<path d="M288.615 87.6656L272.666 93.6565C271.964 93.9203 271.18 93.565 270.917 92.8626C270.653 92.1602 271.008 91.3771 271.711 91.1134L287.659 85.1225C288.361 84.8587 289.145 85.214 289.408 85.9164C289.672 86.6188 289.317 87.4018 288.615 87.6656Z" fill="#FCCD7F"/>
</g>
<circle cx="224.5" cy="73.5" r="3.5" fill="white"/>
<circle cx="258" cy="43" r="4" fill="white"/>
<circle cx="215" cy="88" r="2" fill="white"/>
<circle cx="324.5" cy="18.5" r="1.5" fill="white"/>
<circle cx="55" cy="104" r="2" fill="white"/>
<path d="M67.8634 99.4047C67.9153 99.1272 68.3156 99.1351 68.3565 99.4144L69.0039 103.833C69.0194 103.939 69.1003 104.023 69.2053 104.043L73.5952 104.863C73.8728 104.915 73.8649 105.316 73.5855 105.357L69.1668 106.004C69.0611 106.019 68.9769 106.1 68.9573 106.205L68.1365 110.595C68.0846 110.873 67.6844 110.865 67.6434 110.586L66.996 106.167C66.9806 106.061 66.8996 105.977 66.7946 105.957L62.4047 105.137C62.1272 105.085 62.1351 104.684 62.4144 104.643L66.8332 103.996C66.9389 103.981 67.0231 103.9 67.0427 103.795L67.8634 99.4047Z" fill="white"/>
<path d="M238.663 62.2041C238.715 61.9265 239.115 61.9344 239.156 62.2138L239.803 66.6325C239.819 66.7382 239.9 66.8224 240.005 66.842L244.395 67.6628C244.672 67.7146 244.664 68.1149 244.385 68.1559L239.966 68.8032C239.86 68.8187 239.776 68.8997 239.757 69.0047L238.936 73.3946C238.884 73.6721 238.484 73.6642 238.443 73.3849L237.795 68.9661C237.78 68.8604 237.699 68.7762 237.594 68.7566L233.204 67.9359C232.926 67.884 232.934 67.4837 233.214 67.4428L237.633 66.7954C237.738 66.7799 237.822 66.6989 237.842 66.5939L238.663 62.2041Z" fill="white"/>
<path d="M289.663 31.2041C289.715 30.9265 290.115 30.9344 290.156 31.2138L290.803 35.6325C290.819 35.7382 290.9 35.8224 291.005 35.842L295.395 36.6628C295.672 36.7146 295.664 37.1149 295.385 37.1559L290.966 37.8032C290.86 37.8187 290.776 37.8997 290.757 38.0047L289.936 42.3946C289.884 42.6721 289.484 42.6642 289.443 42.3849L288.795 37.9661C288.78 37.8604 288.699 37.7762 288.594 37.7566L284.204 36.9359C283.926 36.884 283.934 36.4837 284.214 36.4428L288.633 35.7954C288.738 35.7799 288.822 35.6989 288.842 35.5939L289.663 31.2041Z" fill="white"/>
<defs>
<linearGradient id="paint0_linear" x1="224" y1="59.0896" x2="108.602" y2="36.8552" gradientUnits="userSpaceOnUse">
<stop stop-color="#EF8D56"/>
<stop offset="1" stop-color="#FFAC7D"/>
</linearGradient>
<linearGradient id="paint1_linear" x1="118" y1="25.9552" x2="3.99012" y2="23.6915" gradientUnits="userSpaceOnUse">
<stop stop-color="#FFDE8A"/>
<stop offset="1" stop-color="#FFAC7D"/>
</linearGradient>
<linearGradient id="paint2_linear" x1="329.762" y1="139.69" x2="291.191" y2="152.86" gradientUnits="userSpaceOnUse">
<stop stop-color="#F9E9C0"/>
<stop offset="1" stop-color="#F29B6A"/>
</linearGradient>
<linearGradient id="paint3_linear" x1="319.28" y1="111.687" x2="280.709" y2="124.858" gradientUnits="userSpaceOnUse">
<stop stop-color="#F29B6A"/>
<stop offset="0.713542" stop-color="#F9E9C0"/>
<stop offset="1" stop-color="#F9E9C0"/>
</linearGradient>
<linearGradient id="paint4_linear" x1="308.863" y1="83.661" x2="270.291" y2="96.831" gradientUnits="userSpaceOnUse">
<stop stop-color="#F9E9C0"/>
<stop offset="1" stop-color="#F29B6A"/>
</linearGradient>
</defs>
</svg>
