<svg width="360" height="148" viewBox="0 0 360 148" fill="none" xmlns="http://www.w3.org/2000/svg">
  <g clip-path="url(#clip0)">
    <rect width="360" height="148" rx="16" fill="#C275DF" />
    <mask id="mask0" mask-type="alpha" maskUnits="userSpaceOnUse" x="0" y="0" width="360" height="148">
      <rect width="360" height="148" rx="16" fill="#E8ACFE" />
    </mask>
    <g mask="url(#mask0)">
      <path d="M-3.49994 115.97C49.9998 120.388 122.333 90.3831 140 80.0746C134 75.8408 121.5 66.8209 119.5 64.612C117.5 62.403 97.6666 61.4826 87.9999 61.2985C68.3332 62.2189 26.7999 64.1702 17.9999 64.612C9.19992 65.0537 -22.3334 75.1045 -37 80.0746C-53.6667 101.428 -73.9303 110.154 -3.49994 115.97Z" fill="#B149E2" />
      <path d="M52.9998 81.7313C14.9998 79.9642 -9.50024 106.766 -17.0002 120.388H-19C-19.8333 119.1 -21.9 115.749 -23.5 112.657C-25.5 108.791 -36 81.7313 -38.5 79.5224C-41 77.3134 -42.0002 36.4478 -42.5002 33.6866C-43.0002 30.9254 -27.0002 -23.7463 -26.0002 -27.0597C-25.2002 -29.7104 -7.66691 -49.1492 0.999756 -58.5373C33.9998 -58.5373 103 -59.0895 115 -61.2985C130 -64.0597 250 -61.2985 252 -61.2985C253.6 -61.2985 308.333 -53.199 335.5 -49.1492C338 -48.2288 330.5 -29.8209 280.5 36.4478C218 119.284 100.5 83.9403 52.9998 81.7313Z" fill="url(#paint0_linear)" />
      <path d="M174 -7.17913C117.6 39.2089 24.1667 63.3233 -15.5 69.5821L-24.5 60.7463C-31.1667 50.6219 -44.8 30.1522 -46 29.2687C-47.2 28.3851 -48.8333 -1.65672 -49.5 -16.5672C-20.3333 -30.005 38.4 -57.1015 40 -57.9851C41.6 -58.8687 119.333 -49.8856 158 -45.2836C186.833 -51.9105 230.4 -53.5672 174 -7.17913Z" fill="url(#paint1_linear)" />
      <path d="M-19.9998 117.627C26.4002 118.51 102.5 141.373 113 154.627H98.5L90.5 162.91H71C62.5 162.91 26 159.045 16.5 158.493C8.9 158.051 -10.9999 150.209 -19.9998 146.343C-39.3331 136.403 -66.3998 116.743 -19.9998 117.627Z" fill="#BD72F9" />
    </g>
    <g clip-path="url(#clip1)">
      <path d="M283.594 62.873L246.839 79.2527C242.517 81.1788 240.567 86.2626 242.493 90.5848L258.873 127.34L280.598 120.497L303.467 107.467L295.281 80.9713L283.594 62.873Z" fill="#F5F4FF" />
      <path d="M303.467 107.467L311.879 132.493L323.34 152.061L360.095 135.682C364.418 133.756 366.367 128.672 364.441 124.35L348.061 87.5943L325.709 93.249L303.467 107.467Z" fill="#F5F4FF" />
      <path d="M348.061 87.5942L331.682 50.8388C329.756 46.5166 324.672 44.5671 320.35 46.4933L283.594 62.873L303.467 107.467L348.061 87.5942Z" fill="white" />
      <path d="M258.873 127.34L275.253 164.096C277.179 168.418 282.263 170.367 286.585 168.441L323.34 152.061L303.467 107.467L258.873 127.34Z" fill="white" />
      <path d="M326.672 75.2035L305.768 84.5189C304.324 85.1624 302.634 84.5143 301.991 83.0704C301.347 81.6265 301.995 79.9365 303.439 79.293L324.343 69.9776C325.787 69.3341 327.477 69.9822 328.12 71.4261C328.764 72.87 328.115 74.56 326.672 75.2035Z" fill="url(#paint2_linear)" />
      <path d="M304.944 131.864C305.587 133.308 304.939 134.998 303.495 135.642L282.592 144.957C281.148 145.6 279.458 144.952 278.814 143.508C278.171 142.065 278.819 140.375 280.263 139.731L301.166 130.416C302.61 129.772 304.3 130.42 304.944 131.864Z" fill="url(#paint3_linear)" />
      <path d="M282.536 88.6085L274.697 92.1018L271.203 84.2629C270.56 82.819 268.87 82.171 267.426 82.8144C265.982 83.4579 265.334 85.1479 265.978 86.5918L269.471 94.4306L261.632 97.9239C260.188 98.5674 259.54 100.257 260.183 101.701C260.827 103.145 262.517 103.793 263.961 103.15L271.8 99.6565L275.293 107.495C275.936 108.939 277.626 109.587 279.07 108.944C280.514 108.3 281.162 106.61 280.519 105.166L277.026 97.3277L284.864 93.8344C286.308 93.1909 286.956 91.5009 286.313 90.057C285.669 88.6131 283.979 87.965 282.536 88.6085Z" fill="url(#paint4_linear)" />
      <path d="M337.381 117.409L341.478 106.726C342.043 105.25 341.307 103.597 339.831 103.031C338.355 102.465 336.702 103.202 336.136 104.678L332.04 115.36L321.357 111.264C319.881 110.698 318.228 111.435 317.662 112.91C317.096 114.386 317.833 116.039 319.308 116.605L329.991 120.702L325.895 131.385C325.329 132.86 326.066 134.514 327.541 135.08C329.017 135.645 330.67 134.909 331.236 133.433L335.333 122.75L346.016 126.847C347.491 127.413 349.145 126.676 349.71 125.2C350.276 123.725 349.539 122.071 348.064 121.505L337.381 117.409Z" fill="url(#paint5_linear)" />
      <path d="M289.834 126.07C290.477 127.513 289.829 129.204 288.386 129.847C286.942 130.491 285.251 129.842 284.608 128.399C283.965 126.956 284.614 125.265 286.057 124.622C287.5 123.978 289.191 124.627 289.834 126.07Z" fill="url(#paint6_linear)" />
      <path d="M299.15 146.974C299.793 148.417 299.144 150.108 297.701 150.751C296.258 151.394 294.567 150.746 293.924 149.303C293.281 147.859 293.929 146.168 295.372 145.525C296.815 144.882 298.506 145.53 299.15 146.974Z" fill="url(#paint7_linear)" />
    </g>
    <circle cx="224.5" cy="73.5" r="3.5" fill="white" />
    <circle cx="258" cy="43" r="4" fill="white" />
    <circle cx="215" cy="88" r="2" fill="white" />
    <circle cx="324.5" cy="18.5" r="1.5" fill="white" />
    <circle cx="55" cy="104" r="2" fill="white" />
    <path d="M67.8634 99.4047C67.9153 99.1272 68.3156 99.1351 68.3565 99.4144L69.0039 103.833C69.0194 103.939 69.1003 104.023 69.2053 104.043L73.5952 104.863C73.8728 104.915 73.8649 105.316 73.5855 105.357L69.1668 106.004C69.0611 106.019 68.9769 106.1 68.9573 106.205L68.1365 110.595C68.0846 110.873 67.6844 110.865 67.6434 110.586L66.996 106.167C66.9806 106.061 66.8996 105.977 66.7946 105.957L62.4047 105.137C62.1272 105.085 62.1351 104.684 62.4144 104.643L66.8332 103.996C66.9389 103.981 67.0231 103.9 67.0427 103.795L67.8634 99.4047Z" fill="white" />
    <path d="M238.663 62.2041C238.715 61.9265 239.115 61.9344 239.156 62.2138L239.803 66.6325C239.819 66.7382 239.9 66.8224 240.005 66.842L244.395 67.6628C244.672 67.7146 244.664 68.1149 244.385 68.1559L239.966 68.8032C239.86 68.8187 239.776 68.8997 239.757 69.0047L238.936 73.3946C238.884 73.6721 238.484 73.6642 238.443 73.3849L237.795 68.9661C237.78 68.8604 237.699 68.7762 237.594 68.7566L233.204 67.9359C232.926 67.884 232.934 67.4837 233.214 67.4428L237.633 66.7954C237.738 66.7799 237.822 66.6989 237.842 66.5939L238.663 62.2041Z" fill="white" />
    <path d="M289.663 31.2041C289.715 30.9265 290.115 30.9344 290.156 31.2138L290.803 35.6325C290.819 35.7382 290.9 35.8224 291.005 35.842L295.395 36.6628C295.672 36.7146 295.664 37.1149 295.385 37.1559L290.966 37.8032C290.86 37.8187 290.776 37.8997 290.757 38.0047L289.936 42.3946C289.884 42.6721 289.484 42.6642 289.443 42.3849L288.795 37.9661C288.78 37.8604 288.699 37.7762 288.594 37.7566L284.204 36.9359C283.926 36.884 283.934 36.4837 284.214 36.4428L288.633 35.7954C288.738 35.7799 288.822 35.6989 288.842 35.5939L289.663 31.2041Z" fill="white" />
  </g>
  <defs>
    <linearGradient id="paint0_linear" x1="224" y1="59.0896" x2="108.602" y2="36.8552" gradientUnits="userSpaceOnUse">
      <stop stop-color="#9A5ED7" />
      <stop offset="1" stop-color="#CF47FF" />
    </linearGradient>
    <linearGradient id="paint1_linear" x1="118" y1="25.9552" x2="3.99012" y2="23.6915" gradientUnits="userSpaceOnUse">
      <stop stop-color="#FF8AF3" />
      <stop offset="1" stop-color="#BF38FF" />
    </linearGradient>
    <linearGradient id="paint2_linear" x1="313.891" y1="74.6353" x2="316.22" y2="79.8612" gradientUnits="userSpaceOnUse">
      <stop stop-color="#D2AAE1" />
      <stop offset="1" stop-color="#E9D2F2" stop-opacity="0.97" />
    </linearGradient>
    <linearGradient id="paint3_linear" x1="290.715" y1="135.073" x2="293.043" y2="140.299" gradientUnits="userSpaceOnUse">
      <stop stop-color="#D2AAE1" />
      <stop offset="1" stop-color="#E9D2F2" stop-opacity="0.97" />
    </linearGradient>
    <linearGradient id="paint4_linear" x1="267.426" y1="82.8144" x2="279.07" y2="108.944" gradientUnits="userSpaceOnUse">
      <stop stop-color="#D2AAE1" />
      <stop offset="1" stop-color="#E9D2F2" stop-opacity="0.97" />
    </linearGradient>
    <linearGradient id="paint5_linear" x1="328.405" y1="107.205" x2="338.967" y2="130.905" gradientUnits="userSpaceOnUse">
      <stop stop-color="#D2AAE1" />
      <stop offset="1" stop-color="#E9D2F2" stop-opacity="0.97" />
    </linearGradient>
    <linearGradient id="paint6_linear" x1="286.057" y1="124.622" x2="288.386" y2="129.847" gradientUnits="userSpaceOnUse">
      <stop stop-color="#D2AAE1" />
      <stop offset="1" stop-color="#E9D2F2" stop-opacity="0.97" />
    </linearGradient>
    <linearGradient id="paint7_linear" x1="295.372" y1="145.525" x2="297.701" y2="150.751" gradientUnits="userSpaceOnUse">
      <stop stop-color="#D2AAE1" />
      <stop offset="1" stop-color="#E9D2F2" stop-opacity="0.97" />
    </linearGradient>
    <clipPath id="clip0">
      <rect width="360" height="148" fill="white" />
    </clipPath>
    <clipPath id="clip1">
      <rect x="239" y="82.746" width="97.6439" height="97.6439" transform="rotate(-24.0197 239 82.746)" fill="white" />
    </clipPath>
  </defs>
</svg>