<svg width="360" height="148" viewBox="0 0 360 148" fill="none" xmlns="http://www.w3.org/2000/svg">
  <rect width="360" height="148" rx="16" fill="#F07DB4" />
  <mask id="mask0" mask-type="alpha" maskUnits="userSpaceOnUse" x="0" y="0" width="360" height="148">
    <rect width="360" height="148" rx="16" fill="#E8ACFE" />
  </mask>
  <g mask="url(#mask0)">
    <path d="M-3.49994 115.97C49.9998 120.388 122.333 90.3832 140 80.0747C134 75.8409 121.5 66.821 119.5 64.612C117.5 62.4031 97.6666 61.4827 87.9999 61.2986C68.3332 62.219 26.7999 64.1702 17.9999 64.612C9.19992 65.0538 -22.3334 75.1046 -37 80.0747C-53.6667 101.428 -73.9303 110.154 -3.49994 115.97Z" fill="#E24977" />
    <path d="M52.9998 81.7313C14.9998 79.9641 -9.50024 106.766 -17.0002 120.388H-19C-19.8333 119.099 -21.9 115.749 -23.5 112.657C-25.5 108.791 -36 81.7313 -38.5 79.5223C-41 77.3134 -42.0002 36.4477 -42.5002 33.6865C-43.0002 30.9253 -27.0002 -23.7463 -26.0002 -27.0598C-25.2002 -29.7105 -7.66691 -49.1493 0.999756 -58.5374C33.9998 -58.5374 103 -59.0896 115 -61.2986C130 -64.0598 250 -61.2986 252 -61.2986C253.6 -61.2986 308.333 -53.1991 335.5 -49.1493C338 -48.2289 330.5 -29.8209 280.5 36.4477C218 119.284 100.5 83.9402 52.9998 81.7313Z" fill="url(#paint0_linear)" />
    <path d="M174 -7.17913C117.6 39.2089 24.1667 63.3233 -15.5 69.5821L-24.5 60.7463C-31.1667 50.6219 -44.8 30.1522 -46 29.2687C-47.2 28.3851 -48.8333 -1.65672 -49.5 -16.5672C-20.3333 -30.005 38.4 -57.1015 40 -57.9851C41.6 -58.8687 119.333 -49.8856 158 -45.2836C186.833 -51.9105 230.4 -53.5672 174 -7.17913Z" fill="url(#paint1_linear)" />
    <path d="M-19.9998 117.627C26.4002 118.51 102.5 141.373 113 154.627H98.5L90.5 162.91H71C62.5 162.91 26 159.045 16.5 158.493C8.9 158.051 -10.9999 150.209 -19.9998 146.343C-39.3331 136.403 -66.3998 116.743 -19.9998 117.627Z" fill="#F972A2" />
    <path d="M335.565 60.8529C328.262 53.6782 317.156 52.7362 308.775 57.8569C303.884 49.3453 293.67 44.6235 283.792 47.3843C273.914 50.1452 267.629 59.4788 267.861 69.2926C258.038 69.2598 249.031 75.8237 246.506 85.7453C243.931 95.6795 248.693 105.755 257.305 110.449C252.375 118.928 253.527 130.013 260.88 137.172C266.707 142.849 274.911 144.665 282.232 142.619C284.133 142.087 285.97 141.274 287.702 140.216C292.603 148.695 302.794 153.396 312.653 150.64C322.511 147.885 328.788 138.581 328.583 128.789C330.612 128.796 332.604 128.539 334.505 128.008C341.826 125.962 347.9 120.155 349.938 112.279C352.514 102.345 347.751 92.27 339.139 87.5759C344.069 79.0967 342.918 68.0121 335.565 60.8529ZM331.207 65.3323C334.184 68.2832 335.862 72.1849 335.933 76.4049C335.927 79.6059 334.989 82.6708 333.237 85.2999L315.983 80.8751L311.213 63.8078C312.691 62.7781 314.259 61.916 315.964 61.4393C321.168 59.985 327.011 61.2871 331.207 65.3323ZM320.678 121.011L310.105 118.294L317.739 110.495L320.678 121.011ZM303.11 116.497L285.545 111.996L280.65 94.4829L293.336 81.5275L310.901 86.0277L315.796 103.541L303.11 116.497ZM287.489 118.951L298.059 121.661L290.428 129.466L287.489 118.951ZM278.519 110.196L267.922 107.481L275.575 99.6654L278.519 110.196ZM275.767 77.0131L286.339 79.7298L278.706 87.5292L275.767 77.0131ZM308.957 79.0739L298.385 76.3629L306.018 68.5578L308.957 79.0739ZM317.927 87.8281L328.522 90.5434L320.87 98.3591L317.927 87.8281ZM285.484 53.4344C292.885 51.3655 300.573 55.1843 303.84 61.8461L291.391 74.5698L274.148 70.1453C273.488 62.7546 278.082 55.5033 285.484 53.4344ZM252.555 87.316C254.046 81.6812 258.367 77.538 263.57 76.0839C265.276 75.6069 267.064 75.531 268.862 75.6452L273.632 92.7125L261.172 105.443C258.311 104.103 255.919 101.968 254.256 99.2341C252.128 95.589 251.539 91.383 252.555 87.316ZM265.238 132.692C262.26 129.741 260.583 125.84 260.513 121.62C260.517 118.418 261.456 115.353 263.207 112.724L280.462 117.149L285.26 134.314C279.189 138.527 270.72 138.037 265.238 132.692ZM310.962 144.59C303.56 146.659 295.872 142.84 292.605 136.179L305.055 123.455L322.297 127.879C322.957 135.27 318.364 142.521 310.962 144.59ZM343.89 110.709C341.974 118.121 334.999 122.979 327.616 122.493L322.813 105.311L335.273 92.5822C338.134 93.9219 340.525 96.0563 342.19 98.7905C344.317 102.436 344.906 106.641 343.89 110.709Z" fill="url(#paint2_linear)" />
    <path d="M295.686 89.9371C290.664 91.3408 287.744 96.5268 289.147 101.549C290.551 106.57 295.737 109.491 300.759 108.088C305.781 106.684 308.701 101.497 307.298 96.4757C305.894 91.4536 300.707 88.5336 295.686 89.9371Z" fill="#FF5E95" />
    <path d="M307.298 96.4757C308.701 101.497 305.781 106.684 300.759 108.087L295.686 89.937C300.707 88.5335 305.894 91.4536 307.298 96.4757Z" fill="#E24977" />
    <path opacity="0.7" d="M335.565 60.8529C328.262 53.6783 317.156 52.7362 308.775 57.8569C303.884 49.3453 293.67 44.6235 283.792 47.3843L285.484 53.4344C292.886 51.3655 300.573 55.1843 303.84 61.8461L291.391 74.5698L293.336 81.5275L310.901 86.0277L315.796 103.542L303.11 116.497L305.055 123.455L322.297 127.879C322.957 135.27 318.364 142.521 310.962 144.59L312.653 150.64C322.511 147.885 328.788 138.581 328.583 128.789C330.612 128.796 332.604 128.539 334.505 128.008C341.826 125.962 347.901 120.155 349.938 112.28C352.514 102.345 347.751 92.27 339.139 87.5759C344.069 79.0967 342.918 68.0122 335.565 60.8529ZM331.207 65.3324C334.184 68.2832 335.862 72.185 335.933 76.4049C335.927 79.6059 334.989 82.6708 333.237 85.3L315.983 80.8751L311.213 63.8079C312.691 62.7782 314.259 61.9161 315.964 61.4393C321.168 59.985 327.011 61.2871 331.207 65.3324ZM298.385 76.3629L306.018 68.5579L308.957 79.074L298.385 76.3629ZM317.927 87.8281L328.522 90.5434L320.87 98.3591L317.927 87.8281ZM317.739 110.495L320.678 121.011L310.105 118.294L317.739 110.495ZM343.89 110.709C341.974 118.121 334.999 122.979 327.616 122.493L322.813 105.311L335.273 92.5822C338.134 93.9219 340.525 96.0563 342.19 98.7905C344.317 102.436 344.906 106.641 343.89 110.709Z" fill="white" />
  </g>
  <circle cx="224.5" cy="73.5" r="3.5" fill="white" />
  <circle cx="258" cy="43" r="4" fill="white" />
  <circle cx="215" cy="88" r="2" fill="white" />
  <circle cx="324.5" cy="18.5" r="1.5" fill="white" />
  <circle cx="55" cy="104" r="2" fill="white" />
  <path d="M67.8634 99.4047C67.9153 99.1272 68.3156 99.1351 68.3565 99.4144L69.0039 103.833C69.0194 103.939 69.1003 104.023 69.2053 104.043L73.5952 104.863C73.8728 104.915 73.8649 105.316 73.5855 105.357L69.1668 106.004C69.0611 106.019 68.9769 106.1 68.9573 106.205L68.1365 110.595C68.0846 110.873 67.6844 110.865 67.6434 110.586L66.996 106.167C66.9806 106.061 66.8996 105.977 66.7946 105.957L62.4047 105.137C62.1272 105.085 62.1351 104.684 62.4144 104.643L66.8332 103.996C66.9389 103.981 67.0231 103.9 67.0427 103.795L67.8634 99.4047Z" fill="white" />
  <path d="M238.663 62.2041C238.715 61.9265 239.115 61.9344 239.156 62.2138L239.803 66.6325C239.819 66.7382 239.9 66.8224 240.005 66.842L244.395 67.6628C244.672 67.7146 244.664 68.1149 244.385 68.1559L239.966 68.8032C239.86 68.8187 239.776 68.8997 239.757 69.0047L238.936 73.3946C238.884 73.6721 238.484 73.6642 238.443 73.3849L237.795 68.9661C237.78 68.8604 237.699 68.7762 237.594 68.7566L233.204 67.9359C232.926 67.884 232.934 67.4837 233.214 67.4428L237.633 66.7954C237.738 66.7799 237.822 66.6989 237.842 66.5939L238.663 62.2041Z" fill="white" />
  <path d="M289.663 31.2041C289.715 30.9265 290.115 30.9344 290.156 31.2138L290.803 35.6325C290.819 35.7382 290.9 35.8224 291.005 35.842L295.395 36.6628C295.672 36.7146 295.664 37.1149 295.385 37.1559L290.966 37.8032C290.86 37.8187 290.776 37.8997 290.757 38.0047L289.936 42.3946C289.884 42.6721 289.484 42.6642 289.443 42.3849L288.795 37.9661C288.78 37.8604 288.699 37.7762 288.594 37.7566L284.204 36.9359C283.926 36.884 283.934 36.4837 284.214 36.4428L288.633 35.7954C288.738 35.7799 288.822 35.6989 288.842 35.5939L289.663 31.2041Z" fill="white" />
  <defs>
    <linearGradient id="paint0_linear" x1="224" y1="59.0895" x2="108.602" y2="36.8551" gradientUnits="userSpaceOnUse">
      <stop stop-color="#E0567F" />
      <stop offset="1" stop-color="#FF8CAF" />
    </linearGradient>
    <linearGradient id="paint1_linear" x1="118" y1="25.9552" x2="3.99012" y2="23.6915" gradientUnits="userSpaceOnUse">
      <stop stop-color="#FFB1C4" />
      <stop offset="1" stop-color="#FC4470" />
    </linearGradient>
    <linearGradient id="paint2_linear" x1="283.792" y1="47.3843" x2="312.653" y2="150.64" gradientUnits="userSpaceOnUse">
      <stop stop-color="#FFC5EF" />
      <stop offset="1" stop-color="#DD1B61" stop-opacity="0.97" />
    </linearGradient>
  </defs>
</svg>