<svg width="67" height="57" viewBox="0 0 67 57" fill="none" xmlns="http://www.w3.org/2000/svg">
<path d="M66.7071 48.2929C67.0976 48.6834 67.0976 49.3166 66.7071 49.7071L60.3432 56.0711C59.9527 56.4617 59.3196 56.4617 58.929 56.0712C58.5385 55.6806 58.5385 55.0475 58.929 54.6569L64.5858 49L58.9289 43.3432C58.5383 42.9527 58.5383 42.3196 58.9288 41.929C59.3194 41.5385 59.9525 41.5385 60.3431 41.929L66.7071 48.2929ZM2 0C2 0.336452 2.00281 0.671147 2.00841 1.00408L0.00869709 1.03774C0.00290237 0.693502 0 0.347586 0 0H2ZM2.30962 5.95382C2.38073 6.61854 2.46397 7.2754 2.55919 7.92441L0.580375 8.21474C0.481316 7.53959 0.394814 6.85685 0.320965 6.16658L2.30962 5.95382ZM3.53015 12.7785C3.69512 13.4219 3.87312 14.0565 4.064 14.6824L2.15099 15.2658C1.95127 14.6109 1.76517 13.9474 1.59282 13.2752L3.53015 12.7785ZM5.77721 19.309C6.04313 19.9133 6.32259 20.5081 6.61546 21.0935L4.82679 21.9883C4.51917 21.3734 4.22573 20.7488 3.94664 20.1147L5.77721 19.309ZM9.09148 25.3536C9.45711 25.9003 9.83625 26.4374 10.2288 26.9648L8.62435 28.1589C8.21184 27.6046 7.81333 27.0401 7.42899 26.4654L9.09148 25.3536ZM13.4126 30.7298C13.8658 31.2034 14.3317 31.6677 14.8104 32.1225L13.4328 33.5724C12.9313 33.0959 12.4428 32.6092 11.9674 32.1124L13.4126 30.7298ZM18.5809 35.314C19.1041 35.7089 19.6388 36.0949 20.1851 36.4719L19.049 38.1179C18.4798 37.725 17.922 37.3225 17.376 36.9103L18.5809 35.314ZM24.3997 39.0778C24.9754 39.3963 25.5614 39.7065 26.1575 40.0083L25.2541 41.7926C24.6365 41.4799 24.0289 41.1583 23.4315 40.8279L24.3997 39.0778ZM30.6867 42.0628C31.2953 42.3092 31.9128 42.5481 32.5389 42.7795L31.8457 44.6555C31.2006 44.4172 30.5641 44.1709 29.9361 43.9166L30.6867 42.0628ZM37.274 44.3375C37.9103 44.5227 38.5543 44.701 39.2059 44.8723L38.6972 46.8066C38.0291 46.6309 37.3683 46.4479 36.7151 46.2578L37.274 44.3375ZM44.0655 45.9935C44.715 46.1235 45.3712 46.2472 46.0339 46.3647L45.6848 48.334C45.0078 48.214 44.3372 48.0875 43.673 47.9546L44.0655 45.9935ZM50.9825 47.1103C51.6399 47.1926 52.3029 47.2693 52.9716 47.3402L52.7605 49.3291C52.0796 49.2568 51.404 49.1787 50.734 49.0948L50.9825 47.1103ZM57.9688 47.758C58.6308 47.799 59.2978 47.8348 59.9697 47.8654L59.8787 49.8633C59.1961 49.8322 58.5182 49.7958 57.8452 49.7541L57.9688 47.758ZM64.9873 47.9963C65.3237 47.9988 65.6613 48 66 48L66 50C65.6565 50 65.3141 49.9988 64.9727 49.9963L64.9873 47.9963Z" fill="url(#paint0_linear)"/>
<defs>
<linearGradient id="paint0_linear" x1="1" y1="24.5" x2="66" y2="24.5" gradientUnits="userSpaceOnUse">
<stop stop-color="#5B70F6"/>
<stop offset="1" stop-color="#8658F3"/>
</linearGradient>
</defs>
</svg>
