<svg width="37" height="47" viewBox="0 0 37 47" fill="none" xmlns="http://www.w3.org/2000/svg">
<path d="M36.7433 8.66896C37.1128 8.25845 37.0795 7.62616 36.669 7.25671L29.9793 1.23602C29.5688 0.866564 28.9365 0.899843 28.5671 1.31035C28.1976 1.72086 28.2309 2.35315 28.6414 2.72261L34.5877 8.07433L29.236 14.0207C28.8666 14.4312 28.8998 15.0635 29.3104 15.4329C29.7209 15.8024 30.3532 15.7691 30.7226 15.3586L36.7433 8.66896ZM2 47C2 46.6501 2.00303 46.3032 2.00905 45.9593L0.00935531 45.9243C0.00313336 46.28 0 46.6386 0 47H2ZM2.33666 40.8415C2.41495 40.152 2.5064 39.4761 2.61046 38.8138L0.634705 38.5034C0.526139 39.1943 0.430888 39.8984 0.349428 40.6159L2.33666 40.8415ZM3.69442 33.8276C3.88216 33.163 4.08405 32.5147 4.29937 31.8822L2.40608 31.2376C2.17929 31.9038 1.96695 32.5858 1.76975 33.2838L3.69442 33.8276ZM6.26959 27.2036C6.5813 26.5925 6.90725 25.9997 7.24648 25.4247L5.52396 24.4084C5.16389 25.0186 4.81824 25.6473 4.48798 26.2948L6.26959 27.2036ZM10.1543 21.2837C10.5897 20.7588 11.0379 20.2533 11.4978 19.7667L10.0443 18.3929C9.55497 18.9106 9.07807 19.4485 8.61485 20.007L10.1543 21.2837ZM15.2582 16.3792C15.798 15.9654 16.3476 15.5712 16.9056 15.1959L15.7895 13.5363C15.1979 13.9342 14.6148 14.3525 14.0416 14.7917L15.2582 16.3792ZM21.3156 12.6857C21.931 12.3924 22.5516 12.1181 23.176 11.8622L22.4175 10.0116C21.7594 10.2813 21.1047 10.5706 20.4551 10.8803L21.3156 12.6857ZM28.0063 10.2516C28.6691 10.078 29.3314 9.92293 29.9914 9.78565L29.5841 7.82756C28.8913 7.97167 28.1958 8.13451 27.4996 8.31687L28.0063 10.2516ZM35.038 9.06516C35.3783 9.03844 35.7166 9.0163 36.0526 8.99862L35.9474 7.00138C35.5944 7.01996 35.239 7.04323 34.8815 7.07129L35.038 9.06516Z" fill="url(#paint0_linear)"/>
<defs>
<linearGradient id="paint0_linear" x1="1" y1="27.5" x2="36" y2="27.5" gradientUnits="userSpaceOnUse">
<stop stop-color="#5B70F6"/>
<stop offset="1" stop-color="#8658F3"/>
</linearGradient>
</defs>
</svg>
