<svg width="280" height="175" viewBox="0 0 280 175" fill="none" xmlns="http://www.w3.org/2000/svg">
<g filter="url(#filter0_d)">
<rect x="21" y="17" width="238" height="133" rx="19" stroke="#9A9A9A" stroke-width="2" stroke-dasharray="2 5"/>
</g>
<g filter="url(#filter1_d)">
<path d="M75.1061 113.714C75.591 115.099 75.8906 116.572 75.9752 118.102L74.9768 118.158C74.9922 118.436 75 118.717 75 119C75 119.283 74.9922 119.564 74.9768 119.842L75.9752 119.898C75.8906 121.428 75.591 122.901 75.1061 124.286L74.1622 123.956C73.9761 124.488 73.7608 125.006 73.5182 125.509L74.4189 125.944C73.7643 127.3 72.9238 128.551 71.9305 129.662L71.185 128.995C70.8108 129.413 70.4135 129.811 69.995 130.185L70.6616 130.93C69.5508 131.924 68.3004 132.764 66.9435 133.419L66.509 132.518C66.0063 132.761 65.4879 132.976 64.956 133.162L65.2863 134.106C63.9005 134.591 62.4277 134.891 60.8976 134.975L60.8424 133.977C60.5637 133.992 60.2828 134 60 134C59.7172 134 59.4363 133.992 59.1576 133.977L59.1024 134.975C57.5723 134.891 56.0995 134.591 54.7137 134.106L55.044 133.162C54.5121 132.976 53.9938 132.761 53.491 132.518L53.0565 133.419C51.6996 132.764 50.4492 131.924 49.3384 130.93L50.005 130.185C49.5865 129.811 49.1892 129.413 48.815 128.995L48.0696 129.662C47.0762 128.551 46.2357 127.3 45.5811 125.944L46.4818 125.509C46.2392 125.006 46.0239 124.488 45.8378 123.956L44.8939 124.286C44.409 122.901 44.1094 121.428 44.0248 119.898L45.0232 119.842C45.0078 119.564 45 119.283 45 119C45 118.717 45.0078 118.436 45.0232 118.158L44.0248 118.102C44.1094 116.572 44.409 115.099 44.8939 113.714L45.8378 114.044C46.0239 113.512 46.2392 112.994 46.4818 112.491L45.5811 112.056C46.2357 110.7 47.0762 109.449 48.0696 108.338L48.815 109.005C49.1892 108.587 49.5865 108.189 50.005 107.815L49.3384 107.07C50.4492 106.076 51.6996 105.236 53.0565 104.581L53.491 105.482C53.9938 105.239 54.5121 105.024 55.044 104.838L54.7137 103.894C56.0995 103.409 57.5723 103.109 59.1024 103.025L59.1576 104.023C59.4363 104.008 59.7172 104 60 104C60.2828 104 60.5637 104.008 60.8424 104.023L60.8976 103.025C62.4277 103.109 63.9005 103.409 65.2863 103.894L64.956 104.838C65.4879 105.024 66.0062 105.239 66.509 105.482L66.9435 104.581C68.3004 105.236 69.5508 106.076 70.6616 107.07L69.995 107.815C70.4135 108.189 70.8108 108.587 71.185 109.005L71.9304 108.338C72.9238 109.449 73.7643 110.7 74.4189 112.056L73.5182 112.491C73.7608 112.994 73.9761 113.512 74.1622 114.044L75.1061 113.714Z" stroke="#9A9A9A" stroke-width="2" stroke-dasharray="2 5"/>
</g>
<defs>
<filter id="filter0_d" x="0" y="0" width="280" height="175" filterUnits="userSpaceOnUse" color-interpolation-filters="sRGB">
<feFlood flood-opacity="0" result="BackgroundImageFix"/>
<feColorMatrix in="SourceAlpha" type="matrix" values="0 0 0 0 0 0 0 0 0 0 0 0 0 0 0 0 0 0 127 0"/>
<feOffset dy="4"/>
<feGaussianBlur stdDeviation="10"/>
<feColorMatrix type="matrix" values="0 0 0 0 0.879167 0 0 0 0 0.879167 0 0 0 0 0.879167 0 0 0 0.3 0"/>
<feBlend mode="normal" in2="BackgroundImageFix" result="effect1_dropShadow"/>
<feBlend mode="normal" in="SourceGraphic" in2="effect1_dropShadow" result="shape"/>
</filter>
<filter id="filter1_d" x="24" y="87" width="72" height="72" filterUnits="userSpaceOnUse" color-interpolation-filters="sRGB">
<feFlood flood-opacity="0" result="BackgroundImageFix"/>
<feColorMatrix in="SourceAlpha" type="matrix" values="0 0 0 0 0 0 0 0 0 0 0 0 0 0 0 0 0 0 127 0"/>
<feOffset dy="4"/>
<feGaussianBlur stdDeviation="10"/>
<feColorMatrix type="matrix" values="0 0 0 0 0.879167 0 0 0 0 0.879167 0 0 0 0 0.879167 0 0 0 0.3 0"/>
<feBlend mode="normal" in2="BackgroundImageFix" result="effect1_dropShadow"/>
<feBlend mode="normal" in="SourceGraphic" in2="effect1_dropShadow" result="shape"/>
</filter>
</defs>
</svg>
